<?xml version="1.0" standalone="no"?><!DOCTYPE svg PUBLIC "-//W3C//DTD SVG 1.1//EN" "http://www.w3.org/Graphics/SVG/1.1/DTD/svg11.dtd"><svg t="1740120459081" class="icon" viewBox="0 0 1024 1024" version="1.1" xmlns="http://www.w3.org/2000/svg" p-id="9051" xmlns:xlink="http://www.w3.org/1999/xlink" width="32" height="32"><path d="M510.90148807 80.64731136c96.89147051 81.8208347 241.08941198 176.54438685 361.0758383 215.22576157l0 85.41850624c-6.39314375 225.96289081-165.71877149 463.31142258-361.0758383 566.59952981-195.35939584-103.28927118-354.68851655-340.63663901-361.09446713-566.59952981l0-85.41850624C269.80858197 257.19286329 414.00768853 162.46814606 510.90148807 80.64731136M510.8723803-0.77184114c-10.05019477 0-20.09806165 3.68266581-28.03738965 11.07710293-100.14683933 93.41022777-220.10765085 161.98371328-350.47260388 200.41010746-26.83467207 7.90789234-45.34929181 32.94489259-45.3492918 61.40608512l0 110.51255808c7.36533049 278.92085191 172.63235641 528.23251513 423.8883931 639.48556515 251.25370766-111.25304889 416.52073358-360.56587719 423.88490012-639.48556515l0-110.51255808c0-28.4903003-18.49948387-53.47141405-45.36326371-61.40608512-130.35331015-38.42522909-250.28617899-106.97193699-350.43301831-200.38099968C531.02865635 2.93876736 520.95051776-0.77184114 510.8723803-0.77184114L510.8723803-0.77184114zM366.51492921 484.52845795c-32.91927779-22.4685659-52.25356174-33.44321081-85.69677255-47.02820579l17.2443739-39.71293981c32.39767381 12.54062194 64.79534877 26.64954994 93.01320363 41.28124587L366.51492921 484.52845795zM339.86538041 722.28682183c-18.28874695-15.15446386-33.96481479-25.60517689-51.73195776-36.57865785 13.58615893-24.55963989 26.64954994-54.8674048 41.28124586-93.01320363 10.97348096-28.21669091 17.2443739-49.11927979 21.94696192-79.42704469 12.01785401 10.45187698 25.60517689 17.2443739 42.32561778 23.51526685C356.06421731 647.56353024 344.56796729 688.84477497 339.86538041 722.28682183zM384.80367616 367.47954859c-18.28874695-25.08240782-46.50660181-50.68642077-70.54347264-66.88525768l29.78499584-33.96481478c29.78499584 21.42419285 50.68642077 38.14579883 76.81320163 62.18266965L384.80367616 367.47954859zM587.5505243 459.44721408c70.54347264 0 117.04891051-1.56830493 156.24024633-5.22535595l0 47.55213881c-40.7584768-3.65937891-89.87775659-5.22535595-165.64658517-5.22535595-77.3359707 0-125.40971349 1.56714098-166.69095823 5.22535595l0-47.55213881c35.01035179 3.13428195 74.20052366 4.70258802 132.20337437 5.22535595l0-93.53597155c-42.84838685 0.52276793-75.24606066 2.08991005-100.8500736 5.22535594l0-45.98383274c25.60401294 3.13544704 58.00168675 4.70375197 100.8500736 5.22535594 0-48.07374279-2.61267797-72.63338269-5.22535595-85.69677255 15.15446386 2.08991005 37.10026183 3.65821497 55.39017273 3.13544704 13.58615893 0 13.06339101 3.65821497 4.17981895 10.97348096-6.27089294 5.22535595-10.45071189 17.76714297-10.45071189 29.26222791l0 42.32678286c55.38900878 0 96.67025351-1.56830493 125.93248142-5.22535594l0 45.98383274c-29.26222791-3.65821497-70.54347264-5.22535595-125.93248142-5.22535594L587.5505243 459.44721408zM595.91132615 574.40737963l37.10026183-19.33311886c30.30776491 39.19017187 66.36248974 91.44489757 93.53480761 134.2932844l-47.02936974 27.17231787c-6.79249693-15.15446386-14.10776291-29.26222791-21.42302891-41.80284985l-142.13131833 19.85705188c-36.57865785 5.22535595-56.43570973 9.92794397-72.1117787 16.72044088-4.18098403-14.10776291-12.54062194-30.82936889-20.90142492-44.41552782 26.64954994-14.10776291 57.47891769-53.82186781 110.25641244-167.21489123 12.54062194 8.36080299 29.26222791 17.76714297 43.37115478 24.03803591 12.54062194 5.74812501 12.54062194 9.40633998 1.04437304 13.063391-8.88357091 2.61267797-16.72160597 11.49624889-93.53597155 120.1855215 49.11927979-2.61267797 105.0310565-8.36080299 155.19587328-16.19883691C625.17355406 616.21022834 610.54302208 593.74049849 595.91132615 574.40737963z" fill="#d81e06" p-id="9052"></path></svg>