<?xml version="1.0" standalone="no"?><!DOCTYPE svg PUBLIC "-//W3C//DTD SVG 1.1//EN" "http://www.w3.org/Graphics/SVG/1.1/DTD/svg11.dtd"><svg t="1740120407080" class="icon" viewBox="0 0 1024 1024" version="1.1" xmlns="http://www.w3.org/2000/svg" p-id="7157" xmlns:xlink="http://www.w3.org/1999/xlink" width="32" height="32"><path d="M766.521 657.137c-42.767 0-84.03 16.2-113.526 47.173-30.974 29.496-47.174 70.76-47.174 113.527s16.2 84.056 47.174 113.552c30.973 30.973 70.76 47.173 115.003 47.173 42.767 0 84.056-16.2 113.527-47.173a158.367 158.367 0 0 0 47.199-113.527c0-42.767-16.226-84.056-47.174-113.526a161.74 161.74 0 0 0-115.029-47.2z m98.804 157.77l-35.38 32.425 2.929 45.722c0 5.884 0 10.316-5.884 16.225-2.956 0-2.956 2.929-8.864 2.929 0 0-2.93 0-5.884-2.929l-41.29-22.135-41.29 22.135c-5.883 2.929-16.225 0-19.179-2.955-4.406-4.406-5.884-10.316-5.884-16.226l10.316-48.65-38.334-32.45c-5.884-2.956-8.838-10.317-5.884-16.226 2.929-5.884 10.316-13.27 16.2-13.27l45.721-5.885 22.11-41.289c5.91-13.27 25.064-13.27 32.45 0l22.11 41.29 45.722 5.883c5.884 2.955 10.316 5.91 16.2 13.27-1.452 5.911-1.452 16.227-5.885 22.137z" fill="#54BC3B" p-id="7158"></path><path d="M860.893 278.172L719.348 133.698c-14.748-13.27-33.929-22.11-54.56-22.11H243.082c-35.691 0.31-64.552 29.16-64.876 64.85v700.365c0.31 35.7 29.175 64.566 64.876 64.875H608.75c-32.424-35.38-53.083-69.307-53.083-122.39 0-113.527 95.849-207.873 212.33-207.873 50.128 0 79.623 17.677 115.03 45.696V332.732c0-16.225-10.34-41.29-22.134-54.56zM537.99 651.227H324.157c-11.767 0-22.11-14.748-22.11-33.902 0-19.18 10.342-33.929 22.136-33.929h215.26c11.819 0 22.135 14.775 22.135 33.929 0 17.677-10.316 33.902-23.587 33.902z m187.24-148.931H335.977c-19.18 0-33.928-14.748-33.928-33.902 0-19.18 14.773-33.929 33.928-33.929H726.71c19.18 0 33.928 14.774 33.928 33.929 0 19.18-16.225 33.902-35.405 33.902z m0-147.455H335.977c-19.18 0-33.928-14.723-33.928-33.903s14.773-33.902 33.928-33.902H726.71c19.18 0 33.928 14.723 33.928 33.902-1.477 19.181-16.225 33.903-35.405 33.903z" fill="#54BC3B" p-id="7159"></path></svg>