<?xml version="1.0" standalone="no"?><!DOCTYPE svg PUBLIC "-//W3C//DTD SVG 1.1//EN" "http://www.w3.org/Graphics/SVG/1.1/DTD/svg11.dtd"><svg t="1740118392005" class="icon" viewBox="0 0 1024 1024" version="1.1" xmlns="http://www.w3.org/2000/svg" p-id="16614" width="256" height="256" xmlns:xlink="http://www.w3.org/1999/xlink"><path d="M718.625646 90.0608c7.735589-8.363154 21.189486-12.064183 34.840868-9.657783 14.605166 2.574629 26.565486 11.635566 30.234332 23.130697 26.954606 7.830674 51.100526 18.274011 70.827154 30.971612a261.292617 261.292617 0 0 1 18.642651 13.18912l4.678218-1.016686c43.285943-9.352046 76.302629-14.726583 99.202194-16.11776l1.872457-0.105326c12.273371-0.643657 21.716114-0.109714 28.578377 1.749577 9.372526 2.540983 15.428754 8.156891 15.428754 16.770195 0 3.241691-0.681691 6.069394-1.970468 9.305234l-0.254537 0.626103c-0.131657 0.318903-0.273554 0.653897-0.434469 1.025463l-0.854308 1.977783c-1.212709 2.870126-1.629623 4.493897-1.629623 6.656 0 1.497966 0.267703 2.998857 0.974263 5.500342l0.285257 0.987429 0.564663 1.901714c2.346423 8.016457 2.894994 12.807314 1.180525 19.744183-2.036297 8.235886-6.127909 13.882514-12.633234 19.314103l-0.580754 0.478354c-0.810423 0.661211-2.92864 2.305463-4.066743 3.193417l-1.022537 0.811886-0.599772 0.50176c-0.833829 0.7168-1.389714 1.272686-1.762743 1.752503l-0.599771 0.782629c-2.264503 2.984229-2.90816 4.3008-3.5328 6.426331l-0.43008 1.458469c-0.63488 2.096274-1.142491 3.428937-2.124069 5.41696-3.229989 6.547749-11.044571 10.431634-19.267291 9.964982-8.6528-0.490057-16.860891-5.51936-23.1424-14.600777l-1.301943-1.919268a150.20032 150.20032 0 0 0-21.03296-24.508709l1.41312 2.001189c46.429623 66.264503 69.260434 156.933851 63.464594 264.469943C984.941714 632.420937 888.837851 784.413257 759.862126 846.101943l-0.256 1.211246-0.267703 1.31072a287.817143 287.817143 0 0 0-0.456412 2.325942l-1.661805 8.782995-0.431543 2.21184a298.122971 298.122971 0 0 1-1.457006 6.982217l-0.386194 1.708617c-2.282057 9.937189-4.994194 18.750903-8.608914 27.203291-13.458286 31.471909-37.829486 53.511314-77.559223 63.643063l-7.182629 1.831497-3.007634-6.773028c-8.740571-19.684206-10.257554-37.533989-5.15072-55.917714 3.44064-12.386011 9.46176-24.431177 19.877303-40.491886l1.325348-2.028983c-27.7504-9.366674-46.811429-25.377646-63.850788-49.451886l-0.662675-0.940617c-2.121143-3.03104-4.154514-6.085486-6.575542-9.84064l-1.613532-2.516114-4.428068-6.967589-2.08896-3.254857-8.203703-12.557166 13.360274-2.141622c52.49024-8.41728 78.555429-4.441234 110.432549 14.828982 1.019611 0.6144 3.333851 0.718263 6.928091-0.277942 4.593371-1.26976 10.245851-4.110629 16.42496-8.354378 13.648457-9.372526 28.366263-24.451657 40.96-42.513554 30.981851-44.43136 44.135863-97.516983 30.993554-148.231314-8.072046-31.15008-21.738057-54.418286-41.596343-73.521737l-1.063497-1.015223c-14.716343-13.949806-29.524846-23.64416-59.915703-40.699612l-7.716571-4.315428-6.670629-3.752229-3.692251-2.100663c-6.808137-3.8912-12.680046-7.366949-18.034103-10.709577a148.665783 148.665783 0 0 0 10.36288 7.817509l2.11968 1.439451c9.081417 6.281509 14.11072 14.4896 14.60224 23.1424 0.465189 8.22272-3.418697 16.037303-9.966446 19.267292-1.989486 0.980114-3.320686 1.489189-5.41696 2.124068l-1.974857 0.588069c-1.838811 0.585143-3.1744 1.299017-5.909943 3.374811l-0.781165 0.599772c-0.585143 0.453486-1.29024 1.184914-2.255726 2.362514l-0.811886 1.024c-0.887954 1.13664-2.532206 3.254857-3.193417 4.06528l-0.478354 0.580754c-5.431589 6.505326-11.078217 10.596937-19.314103 12.633235-6.936869 1.714469-11.727726 1.165897-19.744183-1.180526l-2.889143-0.84992-0.950857-0.260389c-1.951451-0.512-3.251931-0.713874-4.549486-0.713874-2.162103 0-3.785874 0.416914-6.656 1.629623l-1.977782 0.854308-1.025463 0.434469-0.626103 0.254537c-3.23584 1.287314-6.063543 1.970469-9.305234 1.970469-8.635246 0-14.252617-6.081097-16.786286-15.491657-1.80224-6.695497-2.350811-15.84128-1.777372-27.664092l0.114103-2.113828 0.099475-1.632549c1.519909-23.35744 7.078766-56.981211 16.672182-101.019063l0.683155-3.126126c-11.18208-17.738606-20.779886-37.6832-28.598857-59.07456-11.852069-2.561463-22.029166-13.730377-25.892572-28.152685-3.88096-14.47936-0.610011-29.298103 8.449463-37.421349-9.251109-53.398674-6.120594-102.805211 9.116526-129.534537 17.74592-31.132526 82.5344-43.691154 157.012845-35.46112l2.260115 0.254537 0.38912-0.428617z m175.89248 71.030491c29.672594 14.9504 53.025646 34.82624 69.924571 59.605578l1.092754 1.614994c3.298743 4.742583 6.664777 6.794971 9.629989 6.9632 0.980114 0.055589 1.838811-0.117029 2.4576-0.424229l0.177006-0.098011 0.07168-0.043886c0.351086-0.740206 0.5632-1.304869 0.863085-2.289371l0.564663-1.901715c1.287314-4.186697 3.0208-7.453257 6.957349-12.526445 1.37216-1.770057 2.92864-3.281189 4.988343-4.97664l0.861623-0.694857c0.958171-0.754834 3.336777-2.596571 4.22912-3.313372l0.602697-0.494446c3.85024-3.218286 5.801691-5.937737 6.811063-10.02496 0.763611-3.086629 0.555886-5.260434-0.86016-10.169782l-0.898195-3.045669c-1.206857-4.1984-1.758354-7.138743-1.758354-10.708114 0-4.918126 0.939154-8.553326 2.963749-13.370515l0.329142-0.769462 0.851383-1.971932 0.394972-0.977188c0.229669-0.599771 0.383269-1.081051 0.478354-1.492115-0.585143-0.28672-1.367771-0.570514-2.340571-0.833828-4.871314-1.32096-12.975543-1.743726-24.04352-1.111772l-0.844069 0.0512-1.748114 0.114103c-18.581211 1.278537-44.307017 5.254583-77.09696 11.932526l-4.6592 0.956708z m-25.724343 5.545692l-3.279726-2.627292a244.044069 244.044069 0 0 0-20.487314-14.744137c-19.393097-12.48256-43.795017-22.766446-71.266012-30.297234l-6.268342-1.718857-0.185783-6.495086c-0.146286-5.178514-6.996846-11.319589-16.887223-13.063314-9.311086-1.641326-17.517714 1.307794-19.995794 5.778286l-3.058835 5.85728-6.065005-0.77824c-71.029029-9.110674-133.572023 2.132846-147.085898 25.841371-13.282743 23.300389-15.873463 71.400594-6.094262 123.236937l1.265371 6.701349-6.180571 2.881828c-4.707474 2.194286-7.486903 11.065051-4.850835 20.898377 2.624366 9.79968 9.435429 16.091429 14.605166 15.67744l6.762789-0.541257 2.227931 6.407315c8.145189 23.423269 18.47296 45.053074 30.652709 63.776182l2.009965 3.088092-0.024868 0.114103 4.211565 5.841188a214.71232 214.71232 0 0 0 3.90144 5.244343c17.975589 23.3984 37.801691 38.2976 75.106012 59.47392l3.66592 2.069943 14.207268 7.963794 4.588983 2.603886c26.455771 15.105463 40.821029 24.889051 55.486172 38.800823l1.133714 1.082514c22.191543 21.346011 37.5296 47.465326 46.419383 81.767863 14.548114 56.134217 0.127269 114.326674-33.5872 162.677029-29.024549 41.627063-67.769783 68.232046-87.791909 56.126902l-1.502354-0.898194c-24.185417-14.306743-44.146103-18.379337-81.396297-13.853257l-2.349349 0.292571 1.100069 1.72032 1.574034 2.43712a270.1312 270.1312 0 0 0 5.155109 7.665372l0.58368 0.82944c17.115429 24.195657 35.763931 38.569691 65.682285 46.066834l12.29824 3.08224-7.211885 10.425783c-14.508617 20.97152-21.925303 34.358126-25.512229 47.270766-3.39968 12.238263-3.067611 23.9616 1.4848 37.049783 29.801326-9.381303 47.829577-26.805394 58.360686-51.434058 3.161234-7.391817 5.576411-15.238583 7.641966-24.229302l0.334994-1.4848c0.608549-2.731154 1.181989-5.542766 1.827108-8.894172l1.8944-9.984 0.529555-2.627291 0.321828-1.506743c0.315977-1.451154 0.62464-2.750171 0.940617-3.959954l1.231726-4.549486 3.718583-1.717394c124.832914-57.668754 219.029211-205.23008 227.408457-360.684983 7.197257-133.564709-31.011109-238.880183-103.561508-301.489006l-3.679086-3.1744-0.01024 0.001463zM609.002057 402.519771l-0.321828 1.557943c-7.14752 34.690194-11.351771 61.688686-12.617143 80.896l-0.105326 1.701303-0.095086 1.778834c-0.503223 10.22976-0.064366 17.778103 1.184915 22.418286 0.228206 0.845531 0.47104 1.547703 0.719725 2.106514l0.12288 0.26624 0.213577-0.0512c0.362789-0.095086 0.781166-0.234057 1.281463-0.424228l0.975726-0.394972 2.742857-1.181988c4.815726-2.024594 8.450926-2.963749 13.370514-2.963749 3.569371 0 6.509714 0.551497 10.706652 1.758355l3.045668 0.898194c4.910811 1.417509 7.081691 1.623771 10.169783 0.86016 4.087223-1.009371 6.806674-2.960823 10.02496-6.812526l0.661212-0.810423c0.804571-1.009371 2.444434-3.129051 3.146605-4.019931l0.694858-0.863086c1.696914-2.05824 3.206583-3.613257 4.97664-4.988343 5.074651-3.935086 8.339749-5.670034 12.526445-6.955885l0.487132-0.146286 1.107383-0.324754 0.658285-0.201875c0.599771-0.190171 1.041554-0.354011 1.509669-0.560274l0.428617-0.19456 0.043886-0.07168 0.096548-0.178469c0.3072-0.617326 0.48128-1.476023 0.424229-2.456137-0.166766-2.965211-2.219154-6.331246-6.961737-9.629988l-1.613532-1.094217c-24.777874-16.896-44.653714-40.247589-59.605577-69.917258z" fill="#91000A" p-id="16615"></path><path d="M606.183131 374.007223c-22.131566 98.761874-25.23136 148.14208-9.299382 148.14208 6.544823 0 10.744686-5.143406 19.590582-5.143406s15.42144 5.880686 26.027155 3.260709c13.244709-3.272411 16.531749-14.2336 22.779611-19.080046 8.503589-6.597486 9.694354-4.719177 15.580892-7.622949 5.888-2.903771 9.747017-16.945737-6.222995-27.643611-30.45376-20.39808-53.272869-51.03616-68.455863-91.912777z" fill="#D8000F" p-id="16616"></path><path d="M606.183131 374.007223c0.105326 0.282331 0.209189 0.564663 0.315978 0.845531-14.262857 88.571611-13.714286 132.856686 1.64864 132.856686 6.544823 0 3.257783-3.361646 12.10368-3.361646 8.845897 0 13.606034 5.983086 24.213211 3.361646 13.243246-3.272411 13.838629-13.595794 20.085029-18.44224 8.503589-6.597486 10.425783-3.039817 16.31232-5.943589 1.726171-0.851383 3.2768-2.658011 4.204251-5.055634 2.454674 7.1168-0.466651 13.452434-4.204251 15.295634-5.886537 2.903771-7.077303 1.026926-15.580892 7.622949-6.2464 4.847909-9.534903 15.807634-22.779611 19.080046-10.605714 2.62144-17.181257-3.260709-26.027155-3.260709-8.845897 0-13.04576 5.143406-19.590582 5.143406-15.931977 0-12.832183-49.380206 9.299382-148.143543z" fill="#C40714" p-id="16617"></path><path d="M866.011429 158.273829c98.761874-22.133029 148.14208-25.23136 148.14208-9.299383 0 6.544823-5.143406 10.743223-5.143406 19.590583 0 8.845897 5.880686 15.42144 3.260708 26.027154-3.272411 13.244709-14.2336 16.530286-19.080045 22.779611-6.597486 8.503589-4.719177 9.694354-7.622949 15.580892-2.903771 5.886537-16.945737 9.747017-27.643611-6.222995-20.39808-30.45376-51.03616-53.272869-91.912777-68.455862z" fill="#D8000F" p-id="16618"></path><path d="M866.011429 158.273829c0.282331 0.103863 0.564663 0.209189 0.845531 0.315977 88.571611-14.262857 132.856686-13.714286 132.856686 1.647177 0 6.546286-3.361646 3.259246-3.361646 12.105143 0 8.845897 5.983086 13.606034 3.361646 24.213211-3.272411 13.243246-13.595794 13.838629-18.44224 20.085029-6.597486 8.503589-3.039817 10.425783-5.943589 16.31232-0.84992 1.724709-2.658011 3.2768-5.055634 4.204251 7.118263 2.454674 13.452434-0.466651 15.295634-4.204251 2.903771-5.886537 1.026926-7.077303 7.622949-15.580892 4.847909-6.247863 15.807634-9.534903 19.080045-22.779611 2.62144-10.605714-3.260709-17.181257-3.260708-26.027154 0-8.84736 5.143406-13.04576 5.143406-19.590583 0-15.931977-49.380206-12.832183-148.14208 9.299383z" fill="#C40714" p-id="16619"></path><path d="M615.739977 393.0624c-61.56288-80.133851-76.57472-214.911269-49.152-263.020251 27.424183-48.10752 195.835611-44.384549 283.188663 11.843291 87.354514 56.229303 143.696457 169.10336 135.031954 329.885989-8.665966 160.782629-106.415543 309.937006-232.491885 368.180662-6.916389 25.499063-6.916389 92.933851-85.7088 113.024732-16.433737-37.008823-3.484526-63.031589 22.035017-99.918994-52.300069-13.1072-69.572023-47.791543-86.677212-73.962058 54.1696-8.684983 77.028206-2.933029 104.503589 13.676252C733.940297 809.37984 845.687954 702.828251 814.811429 583.68c-30.876526-119.149714-137.508571-110.482286-199.071452-190.6176z" fill="#D8000F" p-id="16620"></path><path d="M615.739977 393.0624c-61.56288-80.133851-76.57472-214.911269-49.152-263.020251 19.078583-33.467246 106.392137-41.85088 187.178423-24.921235 35.33824 7.404983-139.373714-2.208914-151.800686 51.341897-12.426971 53.550811 12.229486 170.396526 75.337143 217.544412 63.107657 47.147886 93.971017 42.174171 153.143589 133.702217s-9.929874 261.623223-103.85408 305.013029c-25.363017 5.738789-52.427337-28.097097-88.341943-16.81408 7.4752 24.366811 41.409097 41.685577 68.21888 50.456868-13.878126 31.349029-36.166217 54.9888-32.254537 96.6144 11.340069 0.928914 10.705189 0.365714 22.479725-1.746651-8.995109 5.245806-22.055497 9.817234-30.086582 11.743817-16.433737-37.008823-3.484526-63.031589 22.035017-99.918994-52.300069-13.1072-69.572023-47.791543-86.677212-73.962058 54.1696-8.684983 77.028206-2.933029 104.503589 13.676252C733.940297 809.37984 845.687954 702.828251 814.811429 583.68c-30.876526-119.149714-137.508571-110.482286-199.071452-190.6176z" fill="#C40714" p-id="16621"></path><path d="M561.857738 258.395296a27.794286 19.852434 75 1 0 14.387381 53.694437 27.794286 19.852434 75 1 0-14.387381-53.694437Z" fill="#FFE400" p-id="16622"></path><path d="M561.857097 258.394697c10.591086-2.837943 22.397806 6.88128 26.370926 21.7088 3.97312 14.82752-1.39264 29.147429-11.982263 31.985372a14.409143 14.409143 0 0 1-2.261577 0.416914c8.083749-4.83328 11.767223-17.431406 8.288548-30.417189-3.692251-13.780114-14.15168-23.148251-24.112274-22.124251a14.434011 14.434011 0 0 1 3.69664-1.569646z" fill="#FFA700" p-id="16623"></path><path d="M775.867754 113.424553a27.794286 19.852434 10 1 0-54.744056-9.652854 27.794286 19.852434 10 1 0 54.744056 9.652854Z" fill="#FFE400" p-id="16624"></path><path d="M775.867246 113.425554c-1.903177 10.797349-15.702309 17.390446-30.819475 14.72512-15.117166-2.665326-25.828206-13.579703-23.925028-24.378514a14.409143 14.409143 0 0 1 0.579291-2.223543c0.964023 9.368137 10.825143 18.029714 24.064 20.364434 14.04928 2.47808 26.960457-3.042743 30.241646-12.501577a14.434011 14.434011 0 0 1-0.140434 4.01408z" fill="#FFA700" p-id="16625"></path><path d="M745.141394 825.38496C839.963794 753.048137 896.731429 640.877714 896.731429 519.314286c0-98.320091-37.042469-190.869211-102.546286-261.517897a8.777143 8.777143 0 1 0-12.873143 11.935451C843.834514 337.166629 879.177143 425.464686 879.177143 519.314286c0 116.02944-54.1696 223.063771-144.683886 292.113554a8.777143 8.777143 0 0 0 10.648137 13.955657z" fill="#FFE400" p-id="16626"></path><path d="M305.37728 948.832549c-7.735589 8.363154-21.190949 12.064183-34.842331 9.65632-14.603703-2.574629-26.565486-11.634103-30.234332-23.130698-26.953143-7.829211-51.100526-18.272549-70.825691-30.970148a261.29408 261.29408 0 0 1-18.644115-13.18912l-4.676754 1.016686c-43.285943 9.352046-76.302629 14.726583-99.202194 16.11776l-1.872457 0.105325-2.135772 0.1024c-11.239131 0.473966-19.985554-0.1024-26.444068-1.85344C7.12704 904.148114 1.072274 898.532206 1.072274 889.918903c0-3.241691 0.681691-6.069394 1.970469-9.305234l0.253074-0.626103 0.136046-0.324755 1.154194-2.678491c1.211246-2.870126 1.62816-4.493897 1.62816-6.656 0-1.685211-0.33792-3.373349-1.258057-6.487771l-0.566126-1.901715c-2.346423-8.016457-2.893531-12.807314-1.179063-19.744183 2.034834-8.235886 6.126446-13.882514 12.633235-19.314102l0.580754-0.478355c1.048869-0.855771 4.287634-3.35872 4.754286-3.736137l0.643657-0.526628c0.999131-0.833829 1.639863-1.465783 2.053851-1.998263l0.599772-0.781166c2.169417-2.861349 2.851109-4.189623 3.452343-6.16448l0.509074-1.72032c0.636343-2.097737 1.143954-3.428937 2.124068-5.41696 3.229989-6.549211 11.044571-10.431634 19.268755-9.966446 8.6528 0.49152 16.859429 5.51936 23.1424 14.60224l1.301943 1.919269a150.20032 150.20032 0 0 0 21.03296 24.508708l-1.414583-2.001188C47.465326 764.85632 24.634514 674.186971 30.428891 566.649417 39.062674 406.473874 135.163611 254.478629 264.139337 192.789943l0.257463-1.211246c0.087771-0.41984 0.175543-0.855771 0.267703-1.31072l0.374491-1.906103 1.743726-9.202834 0.387657-1.9968c0.637806-3.238766 1.231726-6.056229 1.887086-8.905874 2.280594-9.937189 4.994194-18.750903 8.608914-27.203292 13.458286-31.473371 37.828023-53.511314 77.559223-63.643063l7.182629-1.831497 3.007634 6.773029c8.740571 19.684206 10.257554 37.533989 5.149257 55.916251-3.582537 12.9024-9.966446 25.43616-21.201189 42.522332 27.7504 9.366674 46.811429 25.377646 63.849326 49.450423l0.664137 0.94208c2.270354 3.247543 4.445623 6.521417 7.099246 10.655451l7.876023 12.3392 7.934537 12.141714-14.926994 2.390309c-51.44576 8.086674-77.307611 3.999451-108.865829-15.077669-1.019611-0.615863-3.333851-0.718263-6.929554 0.277943-4.591909 1.26976-10.244389 4.110629-16.423497 8.354377-13.648457 9.372526-28.366263 24.451657-40.96 42.513555-30.981851 44.43136-44.137326 97.51552-30.993555 148.231314 8.072046 31.15008 21.736594 54.418286 41.59488 73.520274l1.078126 1.028389c14.539337 13.780114 29.172297 23.40864 58.836114 40.088137l13.121829 7.350857 2.440046 1.378011c7.599543 4.302263 14.05952 8.07936 19.881691 11.672138l1.736412 1.076662a148.665783 148.665783 0 0 0-10.36288-7.817508l-2.121143-1.439452c-9.081417-6.281509-14.11072-14.4896-14.600777-23.1424-0.466651-8.224183 3.417234-16.038766 9.966445-19.267291 2.153326-1.063497 3.537189-1.571109 5.956755-2.286446l1.179062-0.346697c1.974857-0.602697 3.306057-1.284389 6.16448-3.452343l0.782629-0.601234c0.585143-0.453486 1.29024-1.184914 2.255726-2.363977l0.874788-1.104457c0.683154-0.874789 1.76128-2.261577 2.521966-3.224137l0.607086-0.760686c5.5808-6.843246 11.3152-11.117714 19.792457-13.212526 6.938331-1.714469 11.729189-1.165897 19.744183 1.180526l2.407863 0.712411 0.994742 0.279406c2.200137 0.599771 3.595703 0.830903 4.988343 0.830903 2.162103 0 3.785874-0.415451 6.656-1.62816l3.003246-1.288777 0.62464-0.254537c3.237303-1.288777 6.065006-1.970469 9.306697-1.970469 8.633783 0 14.252617 6.081097 16.786286 15.491657 1.854903 6.89152 2.381531 16.381074 1.723246 28.714423l-0.108252 1.875383-0.109714 1.6896c-1.541851 22.479726-6.743771 54.266149-15.604297 95.489463l-1.692526 7.786788c11.18208 17.738606 20.779886 37.6832 28.598857 59.073097 11.852069 2.562926 22.029166 13.73184 25.892572 28.154149 3.879497 14.47936 0.608549 29.298103-8.450926 37.419886 9.252571 53.400137 6.120594 102.806674-9.115063 129.536-17.74592 31.132526-82.5344 43.691154-157.014309 35.46112l-2.258651-0.256-0.38912 0.43008zM129.483337 877.802057c-29.672594-14.9504-53.024183-34.82624-69.921646-59.60704l-1.09568-1.613531c-3.29728-4.742583-6.664777-6.794971-9.629988-6.9632-0.980114-0.055589-1.837349 0.117029-2.454674 0.424228l-0.179932 0.098012-0.070217 0.043885c-0.386194 0.814811-0.60416 1.414583-0.958171 2.596572l-0.47104 1.594514c-1.284389 4.186697-3.019337 7.451794-6.955886 12.526446-1.373623 1.770057-2.92864 3.281189-4.988343 4.97664l-0.863086 0.694857c-1.018149 0.801646-3.638126 2.830629-4.376868 3.433326l-0.453486 0.374491c-3.85024 3.218286-5.801691 5.937737-6.812526 10.02496-0.762149 3.086629-0.555886 5.258971 0.86016 10.169783l0.899657 3.045669c1.206857 4.196937 1.756891 7.138743 1.756892 10.706651 0 4.919589-0.939154 8.554789-2.963749 13.370514l-0.32768 0.770926-0.744594 1.715931-0.380343 0.9216-0.12288 0.310126c-0.229669 0.599771-0.383269 1.082514-0.478354 1.492114 0.586606 0.28672 1.367771 0.571977 2.340571 0.835292 4.739657 1.284389 12.539611 1.72032 23.15264 1.160046l1.736412-0.099475 1.748114-0.114103c18.870857-1.299017 45.113051-5.380389 78.638811-12.24704l3.115886-0.643657z m25.724343-5.545691l3.279726 2.627291a244.044069 244.044069 0 0 0 20.488777 14.742674c19.393097 12.484023 43.795017 22.767909 71.266011 30.298698l6.26688 1.717394 0.185783 6.495086c0.149211 5.178514 6.998309 11.319589 16.888686 13.063314 9.309623 1.642789 17.517714-1.306331 19.994331-5.776823l3.060297-5.85728 6.065006 0.77824c71.027566 9.110674 133.572023-2.132846 147.085897-25.841371 13.282743-23.300389 15.872-71.402057 6.0928-123.2384l-1.263908-6.699886 6.180571-2.881829c4.706011-2.194286 7.48544-11.065051 4.850834-20.898377-2.625829-9.801143-9.435429-16.091429-14.605165-15.67744l-6.762789 0.541257-2.229394-6.407314c-8.143726-23.424731-18.471497-45.053074-30.651246-63.776183l-2.009966-3.089554 0.024869-0.11264-4.213029-5.842652a214.710857 214.710857 0 0 0-3.899977-5.24288l-1.176137-1.514057c-17.864411-22.784-37.873371-37.566171-75.139657-58.645943l-2.456137-1.383862-10.920229-6.11328-4.460251-2.513189c-28.658834-16.227474-43.618011-26.243657-58.901943-40.740571l-1.135177-1.08544c-22.19008-21.346011-37.5296-47.463863-46.419383-81.7664-14.546651-56.13568-0.125806-114.326674 33.5872-162.677029 29.026011-41.628526 67.769783-68.232046 87.793371-56.128366l1.516983 0.906972c24.429714 14.450103 44.55424 18.455406 82.549029 13.702583l1.181988-0.150675-0.585142-0.914285c-2.786743-4.354926-4.979566-7.66976-7.244069-10.907063l-0.58368-0.82944c-17.115429-24.195657-35.763931-38.569691-65.682286-46.068297l-12.29824-3.080778 7.877486-11.388342 1.319497-1.923658c13.206674-19.33312 20.106971-32.074606 23.527132-44.384548 3.39968-12.238263 3.067611-23.9616-1.4848-37.051246-29.802789 9.382766-47.829577 26.806857-58.362149 51.43552-3.159771 7.391817-5.576411 15.23712-7.640503 24.229303l-0.336457 1.4848a322.596571 322.596571 0 0 0-2.004114 9.821623l-1.635475 8.645486-0.610011 3.038354-0.321829 1.50528a93.813029 93.813029 0 0 1-1.101531 4.558263l-1.070811 3.95264-3.718583 1.717394C150.532389 264.578194 56.336091 412.13952 47.958309 567.594423c-7.19872 133.563246 31.011109 238.880183 103.561508 301.487543l3.679086 3.175863 0.008777-0.001463z m260.432457-238.989897l0.633417-3.110035c6.775954-33.471634 10.697874-59.481234 11.770149-77.938103l0.049737-0.896731c0.574903-10.678857 0.146286-18.527086-1.139566-23.300389a14.695863 14.695863 0 0 0-0.7168-2.105051l-0.124343-0.26624-0.213577 0.048274c-0.364251 0.096549-0.781166 0.234057-1.281463 0.427155l-0.519314 0.2048-0.457874 0.190171-2.741394 1.180526c-4.815726 2.023131-8.450926 2.962286-13.370515 2.962285-3.569371 0-6.509714-0.550034-10.706651-1.756891l-0.753372-0.219429-1.755428-0.523702c-4.929829-1.448229-7.18848-1.765669-10.058606-1.164435l-0.648046 0.149212c-4.088686 1.009371-6.806674 2.960823-10.026422 6.811063l-0.373029 0.453485c-0.602697 0.738743-2.63168 3.360183-3.433326 4.378332l-0.69632 0.861623c-1.695451 2.059703-3.20512 3.61472-4.975177 4.988342-5.074651 3.936549-8.339749 5.671497-12.527908 6.957349l-1.901715 0.5632-0.668525 0.213577a13.48608 13.48608 0 0 0-1.619383 0.650972l-0.09216 0.1536-0.049737 0.096548c-0.3072 0.617326-0.479817 1.47456-0.424229 2.456137 0.168229 2.965211 2.220617 6.331246 6.9632 9.629989l1.613531 1.094217c24.396069 16.635611 44.040777 39.529326 58.912183 68.552411l0.693395 1.364846 0.639268-3.107108z" fill="#91000A" p-id="16627"></path><path d="M417.816869 663.323794c22.131566-98.760411 25.23136-148.14208 9.299382-148.14208-6.544823 0-10.744686 5.143406-19.590582 5.143406s-15.42144-5.880686-26.027155-3.259246c-13.244709 3.272411-16.531749 14.232137-22.779611 19.078583-8.503589 6.597486-9.694354 4.72064-15.580892 7.622949-5.888 2.903771-9.747017 16.9472 6.222995 27.643611 30.45376 20.39808 53.272869 51.03616 68.455863 91.912777z" fill="#D8000F" p-id="16628"></path><path d="M417.816869 663.323794l-0.315978-0.845531c14.262857-88.571611 13.714286-132.856686-1.64864-132.856686-6.544823 0-3.257783 3.363109-12.10368 3.363109-8.845897 0-13.606034-5.983086-24.213211-3.363109-13.243246 3.273874-13.838629 13.595794-20.085029 18.44224-8.503589 6.597486-10.425783 3.04128-16.31232 5.943589-1.726171 0.851383-3.2768 2.658011-4.204251 5.057097-2.454674-7.118263 0.466651-13.452434 4.204251-15.297097 5.886537-2.902309 7.077303-1.025463 15.580892-7.622949 6.2464-4.846446 9.534903-15.806171 22.779611-19.078583 10.605714-2.62144 17.181257 3.259246 26.027155 3.259246 8.845897 0 13.04576-5.143406 19.590582-5.143406 15.931977 0 12.832183 49.381669-9.299382 148.143543z" fill="#C40714" p-id="16629"></path><path d="M157.988571 879.058651C59.226697 901.190217 9.846491 904.290011 9.846491 888.358034c0-6.544823 5.143406-10.744686 5.143406-19.590583 0-8.84736-5.880686-15.42144-3.260708-26.028617 3.272411-13.243246 14.2336-16.530286 19.080045-22.778148 6.597486-8.503589 4.719177-9.694354 7.622949-15.582355 2.903771-5.886537 16.945737-9.747017 27.643611 6.224458C86.473874 841.055086 117.111954 863.874194 157.988571 879.058651z" fill="#D8000F" p-id="16630"></path><path d="M157.988571 879.058651l-0.845531-0.315977c-88.571611 14.262857-132.856686 13.712823-132.856686-1.64864 0-6.544823 3.361646-3.257783 3.361646-12.10368 0-8.84736-5.983086-13.607497-3.361646-24.213211 3.272411-13.244709 13.595794-13.838629 18.44224-20.085029 6.597486-8.505051 3.039817-10.425783 5.943589-16.313783 0.84992-1.724709 2.658011-3.275337 5.055634-4.204251-7.118263-2.454674-13.452434 0.468114-15.295634 4.204251-2.903771 5.888-1.026926 7.078766-7.622949 15.582355-4.847909 6.2464-15.807634 9.534903-19.080045 22.778148-2.62144 10.605714 3.260709 17.181257 3.260708 26.028617 0 8.845897-5.143406 13.04576-5.143406 19.590583 0 15.930514 49.380206 12.832183 148.14208-9.299383z" fill="#C40714" p-id="16631"></path><path d="M408.260023 644.268617c61.56288 80.135314 76.57472 214.911269 49.152 263.020252-27.424183 48.108983-195.834149 44.386011-283.188663-11.843292-87.354514-56.22784-143.696457-169.101897-135.031954-329.885988 8.665966-160.782629 106.415543-309.935543 232.491885-368.1792 6.916389-25.500526 6.916389-92.935314 85.7088-113.026195 16.433737 37.008823 3.484526 63.031589-22.035017 99.920457 52.300069 13.105737 69.572023 47.791543 86.677212 73.959132-54.1696 8.686446-77.028206 2.934491-104.502126-13.673326-27.475383-16.60928-139.220114 89.942309-108.343589 209.09056 30.876526 119.149714 137.508571 110.483749 199.071452 190.6176z" fill="#D8000F" p-id="16632"></path><path d="M408.260023 644.268617c61.56288 80.135314 76.57472 214.911269 49.152 263.020252-19.078583 33.468709-106.392137 41.852343-187.178423 24.922697-35.33824-7.406446 139.373714 2.208914 151.800686-51.34336 12.426971-53.550811-12.229486-170.396526-75.337143-217.544412-63.107657-47.146423-93.971017-42.174171-153.143589-133.702217-59.172571-91.526583 9.929874-261.623223 103.85408-305.013028 25.363017-5.738789 52.427337 28.09856 88.341943 16.81408-7.4752-24.366811-41.409097-41.684114-68.21888-50.455406 13.878126-31.349029 36.166217-54.9888 32.254537-96.6144-11.340069-0.928914-10.705189-0.365714-22.479725 1.746651 8.995109-5.245806 22.055497-9.818697 30.086582-11.74528 16.433737 37.008823 3.484526 63.031589-22.035017 99.920457 52.300069 13.105737 69.572023 47.791543 86.677212 73.959132-54.1696 8.686446-77.028206 2.934491-104.503589-13.673326-27.472457-16.60928-139.220114 89.942309-108.342126 209.09056 30.876526 119.149714 137.508571 110.483749 199.071452 190.6176z" fill="#C40714" p-id="16633"></path><path d="M462.142262 778.937184a27.794286 19.852434 75 1 0-14.387381-53.694437 27.794286 19.852434 75 1 0 14.387381 53.694437Z" fill="#FFE400" p-id="16634"></path><path d="M462.142903 778.93632c-10.591086 2.837943-22.397806-6.88128-26.370926-21.7088-3.97312-14.82752 1.39264-29.147429 11.982263-31.985371a14.409143 14.409143 0 0 1 2.261577-0.415452c-8.083749 4.83328-11.767223 17.429943-8.288548 30.415726 3.692251 13.780114 14.15168 23.148251 24.112274 22.125714a14.434011 14.434011 0 0 1-3.69664 1.568183z" fill="#FFA700" p-id="16635"></path><path d="M248.132246 923.906464a27.794286 19.852434 10 1 0 54.744056 9.652854 27.794286 19.852434 10 1 0-54.744056-9.652854Z" fill="#FFE400" p-id="16636"></path><path d="M248.132754 923.906926c1.903177-10.798811 15.702309-17.390446 30.819475-14.72512 15.117166 2.665326 25.828206 13.579703 23.925028 24.377051a14.409143 14.409143 0 0 1-0.579291 2.225006c-0.964023-9.3696-10.825143-18.031177-24.064-20.365897-14.04928-2.476617-26.960457 3.042743-30.241646 12.501577a14.434011 14.434011 0 0 1 0.140434-4.012617z" fill="#FFA700" p-id="16637"></path><path d="M278.858606 211.94752C184.036206 284.284343 127.268571 396.454766 127.268571 518.018194c0 98.320091 37.041006 190.869211 102.546286 261.517897a8.777143 8.777143 0 1 0 12.873143-11.935451C180.164023 700.165851 144.822857 611.867794 144.822857 518.018194c0-116.02944 54.1696-223.063771 144.682423-292.113554a8.777143 8.777143 0 0 0-10.646674-13.955657zM777.27744 275.605211c89.717029 84.519497 124.228754 181.438171 104.045714 291.616183-20.3264 110.957714-66.08896 190.40256-137.196983 238.852389a8.045714 8.045714 0 1 0 9.060938 13.297371c74.953874-51.068343 122.91072-134.325394 143.96416-249.250377 21.1968-115.703223-15.254674-218.065189-108.839498-306.228663a8.045714 8.045714 0 1 0-11.034331 11.713097z" fill="#FFE400" p-id="16638"></path></svg>