<?xml version="1.0" standalone="no"?><!DOCTYPE svg PUBLIC "-//W3C//DTD SVG 1.1//EN" "http://www.w3.org/Graphics/SVG/1.1/DTD/svg11.dtd"><svg t="1740120574943" class="icon" viewBox="0 0 1322 1024" version="1.1" xmlns="http://www.w3.org/2000/svg" p-id="4978" xmlns:xlink="http://www.w3.org/1999/xlink" width="41.3125" height="32"><path d="M1075.664229 579.837379c-48.968704-48.968704-114.110559-75.923954-183.2957-75.923954-69.334893 0-134.326996 26.95525-183.295701 75.923954a259.519158 259.519158 0 0 0-23.211465 26.655748c-29.800526-19.916935-53.161743-44.026908-70.383153-72.629424h109.019011v-34.592571h-133.278736v-50.166716h-39.83387v50.166716h-134.926001v34.592571h109.019011c-28.902018 43.877157-68.586136 78.469728-119.351857 103.777713 1.198011 1.198011 2.246271 2.396022 3.444282 3.444282 10.332846 12.728868 17.820415 21.863703 22.462708 27.704007 51.963732-27.704007 91.64785-66.339865 119.351857-115.907576v138.370284h39.83387v-140.1673c16.023399 33.095057 40.882129 61.697572 74.42644 86.107048-21.264697 38.036853-32.496051 81.165253-32.496051 125.940919 0 55.258263 17.22141 107.821 48.968704 151.698157-30.699035 22.61246-55.857268 30.699035-99.434922 44.775666-8.985083 2.845276-19.018426 6.139807-29.950278 9.73384-70.982159-24.409476-135.82451-61.847324-192.87979-110.96578-46.572682-40.283124-88.203568-88.503071-123.694647-143.461831-54.509506-84.609535-77.720971-159.48523-82.063761-174.460368V190.334016c62.146827-0.449254 120.849371-7.487569 174.61012-20.665692 48.968704-11.980111 94.193624-29.201521 134.326996-51.214975C502.565662 96.889149 529.371161 74.725943 545.544311 59.451302c15.574144 16.921907 39.983621 38.486107 73.677684 58.552793 37.138345 22.163206 79.967242 39.534367 127.438432 51.664229 51.813981 13.178122 109.318514 20.216438 171.315589 20.665692v235.708687c0 13.178122 10.632349 23.960222 23.960223 23.960222 13.178122 0 23.960222-10.632349 23.960222-23.960222V166.373794c0-6.43931-2.545774-12.579117-7.188067-17.071659-4.642293-4.492542-10.7821-6.888564-17.22141-6.888564-65.890611 1.198011-126.539924-5.091547-180.300672-18.419421C718.357414 113.361802 679.871307 98.08716 646.77625 78.769231c-44.925417-26.206493-70.832407-55.258263-78.319976-66.938871l0.149751 0.149751-2.096519 1.347763c-1.497514-2.845276-3.743785-5.540801-6.43931-7.637321-10.482597-7.936824-25.457736-5.990056-33.39456 4.492541-0.299503 0.299503-27.404504 34.742322-89.102076 67.987131-36.389588 19.617432-77.421468 34.892074-122.197134 45.674174-56.156771 13.477625-118.303598 19.767183-184.493712 18.569172-6.589061-0.149751-12.878619 2.396022-17.371161 6.888564-4.642293 4.492542-7.188067 10.632349-7.188067 17.071659v377.373501c0 1.946768 0.299503 4.043288 0.748757 5.990055 0.898508 3.594033 23.510968 89.251828 87.904066 189.73501 37.887101 59.002047 82.513016 110.965779 132.679731 154.393683 62.895584 54.509506 134.626499 95.541386 213.096227 122.047382 1.347763 0.449254 2.545774 0.748757 3.893536 0.898508 2.545774 0.898508 5.241299 1.497514 8.086575 1.497514 2.545774 0 5.091547-0.449254 7.637321-1.198011 13.477625-4.642293 25.90699-8.535829 36.838842-12.129862 47.171688-15.12489 77.870722-25.158233 116.207078-54.060252 48.369699 46.273179 111.714536 71.581164 178.95291 71.581164 69.334893 0 134.326996-26.95525 183.2957-75.923954S1151.588184 832.467973 1151.588184 763.13308c0-69.185142-26.95525-134.326996-75.923955-183.295701zM892.218777 974.881544c-116.656332 0-211.598713-94.942381-211.598713-211.598713 0-40.582626 11.530857-78.619479 31.447792-110.816028 2.096519-3.144779 4.193039-6.139807 5.990056-9.134835 38.186604-55.408014 102.130447-91.64785 174.310617-91.64785 116.656332 0 211.598713 94.942381 211.598713 211.598713s-94.942381 211.598713-211.748465 211.598713z m0 0" p-id="4979" fill="#d81e06"></path><path d="M393.846154 691.252413V386.807839c11.530857-31.148289 22.462708-63.494589 32.945305-96.889149l-39.833869-8.685581c-17.371161 70.383153-44.476163 135.525007-81.315004 195.575315 1.198011 5.840304 2.845276 14.376133 5.241298 25.90699 3.444282 10.332846 5.690553 18.419421 6.888564 24.259725 13.777128-20.815443 26.505996-41.481135 38.036853-62.296578V691.402164H393.846154z m0 0M452.69845 445.510383h238.703714v-147.055864H452.69845v147.055864z m38.036853-110.666277h162.630008v74.426441H490.735303v-74.426441z m0 0" p-id="4980" fill="#d81e06"></path><path d="M894.465048 677.625037m-38.935361 0a38.935361 38.935361 0 1 0 77.870722 0 38.935361 38.935361 0 1 0-77.870722 0Z" p-id="4981" fill="#d81e06"></path><path d="M894.465048 880.538169c-21.414449 0-38.935361-17.520913-38.935361-38.935361v-66.040363c0-21.414449 17.520913-38.935361 38.935361-38.935361s38.935361 17.520913 38.935361 38.935361v66.040363c0 21.414449-17.520913 38.935361-38.935361 38.935361z" p-id="4982" fill="#d81e06"></path></svg>