<?xml version="1.0" standalone="no"?><!DOCTYPE svg PUBLIC "-//W3C//DTD SVG 1.1//EN" "http://www.w3.org/Graphics/SVG/1.1/DTD/svg11.dtd"><svg t="1740119279058" class="icon" viewBox="0 0 1024 1024" version="1.1" xmlns="http://www.w3.org/2000/svg" p-id="43030" width="16" height="16" xmlns:xlink="http://www.w3.org/1999/xlink"><path d="M502.406002 1024c-2.964999 0-5.659999-0.54-8.355998-1.348A648.189842 648.189842 0 0 1 49.272113 406.163151V151.157213c0-11.859997 7.816998-22.642994 19.407995-25.877994L494.860004 1.01125c4.851999-1.348 10.242997-1.348 15.094996 0l425.908897 124.267969c11.589997 3.234999 19.407995 14.016997 19.407995 25.877994v255.005938c0 280.344932-178.449956 528.072871-444.238892 616.489849-2.964999 0.808-5.659999 1.347-8.625998 1.347zM103.1841 171.374208v234.789943c0 254.465938 160.119961 479.279883 399.221902 562.305863C741.507944 884.906034 901.359905 660.090089 901.359905 406.163151V171.374208L502.406002 54.924237l-399.221902 116.449971z" fill="#F00507" p-id="43031"></path><path d="M502.137002 488.919131c-50.947988 0-92.459977-41.51299-92.459977-92.459978s41.51199-92.459977 92.459977-92.459977 92.459977 41.51299 92.459978 92.459977-41.51299 92.459977-92.459978 92.459978z m0-131.007968a38.546991 38.546991 0 1 0 0 77.094981 38.546991 38.546991 0 0 0 0-77.094981z" fill="#F00507" p-id="43032"></path><path d="M502.137002 720.473074c-14.825996 0-26.956993-12.129997-26.956993-26.955993V461.962137c0-14.824996 12.129997-26.955993 26.956993-26.955993s26.955993 12.129997 26.955994 26.955993v231.554944c0 14.824996-12.129997 26.955993-26.955994 26.955993z" fill="#F00507" p-id="43033"></path></svg>