<?xml version="1.0" standalone="no"?><!DOCTYPE svg PUBLIC "-//W3C//DTD SVG 1.1//EN" "http://www.w3.org/Graphics/SVG/1.1/DTD/svg11.dtd"><svg t="1740118563602" class="icon" viewBox="0 0 1024 1024" version="1.1" xmlns="http://www.w3.org/2000/svg" p-id="21288" width="256" height="256" xmlns:xlink="http://www.w3.org/1999/xlink"><path d="M298.481778 239.303111c-16.810667-4.835556-32.412444-4.010667-46.791111 2.488889-21.589333 9.770667-54.428444-12.757333-33.479111-44.785778C239.160889 164.977778 258.787556 156.444444 305.607111 156.444444c31.217778 0 56.860444 13.511111 76.942222 40.561778l-84.067555 42.296889z" fill="#CE2927" p-id="21289"></path><path d="M305.607111 149.333333c-49.592889 0-71.210667 9.912889-93.354667 43.776-22.442667 34.346667 9.6 68.010667 40.476445 55.964445l1.891555-0.796445c12.8-5.802667 26.666667-6.542222 41.884445-2.133333l2.688 0.768 94.094222-47.36-5.034667-6.784c-21.390222-28.814222-49.123556-43.434667-82.631111-43.434667z m3.911111 14.293334c23.253333 0.924444 42.951111 10.183111 59.363556 27.989333l2.631111 2.972444-73.827556 37.148445 2.759111 0.725333c-17.066667-4.920889-33.237333-4.465778-48.241777 1.408l-3.441778 1.450667c-19.086222 8.632889-39.324444-11.904-24.604445-34.417778 19.299556-29.525333 36.366222-37.347556 81.450667-37.347555l3.911111 0.071111z" fill="#B2181A" p-id="21290"></path><path d="M254.634667 589.212444c47.36 10.424889 87.978667 5.831111 121.827555-13.752888 50.773333-29.397333-11.804444 79.175111-34.844444 98.773333-23.04 19.584-43.704889 35.982222-55.125334 35.982222-7.608889 0-25.984-23.296-55.111111-69.888l23.253334-51.114667z" fill="#FDD821" p-id="21291"></path><path d="M372.906667 569.301333c-32.213333 18.645333-71.011556 23.04-116.750223 12.956445l-5.617777-1.237334-27.207111 59.832889 10.296888 16.327111c26.496 41.358222 42.282667 60.145778 52.864 60.145778 12.487111 0 28.131556-10.808889 59.733334-37.688889 12.487111-10.624 34.417778-43.52 46.933333-70.144 7.125333-15.175111 10.680889-26.936889 9.557333-34.773333-1.877333-13.098667-13.155556-14.364444-27.790222-6.542222l-2.019555 1.123555z m14.648889 8.718223l1.152-0.327112-0.042667 1.351112c-0.426667 4.935111-3.328 13.653333-8.391111 24.405333-11.719111 24.945778-32.611556 56.291556-43.264 65.365333l-9.472 7.936c-21.873778 18.062222-34.631111 26.353778-41.045334 26.353778l-0.384-0.071111c-3.953778-1.308444-19.399111-20.750222-41.400888-54.968889l-5.276445-8.291556 19.313778-42.453333 6.001778 1.123556c42.197333 7.296 79.274667 2.531556 110.990222-14.449778l4.295111-2.389333c3.157333-1.820444 5.703111-2.986667 7.537778-3.584z" fill="#B2181A" p-id="21292"></path><path d="M244.053333 662.428444c-17.749333-4.352-100.181333-64.398222-85.973333-172.003555 14.222222-107.605333 51.456-194.275556 165.12-282.894222 113.678222-88.618667 265.073778-15.985778 285.155556 28.856889 20.081778 44.828444 2.844444 57.386667-9.671112 69.319111-12.515556 11.946667 7.480889 14.791111 0 25.656889-7.466667 10.865778-83.285333 104.590222-191.246222 112.597333-107.975111 8.007111-147.783111 121.386667-127.872 169.927111 6.656 16.227556-17.749333 52.892444-35.498666 48.540444z" fill="#FB3635" p-id="21293"></path><path d="M318.833778 201.912889c-106.268444 82.844444-151.722667 165.873778-167.808 287.573333-6.570667 49.792 6.115556 93.724444 32.298666 129.848889 18.773333 25.841778 44.885333 46.535111 59.050667 49.991111 23.239111 5.688889 52.736-36.266667 43.761778-58.140444-23.324444-56.860444 31.288889-150.613333 117.76-159.772445l4.067555-0.369777c47.729778-3.527111 92.643556-23.210667 133.546667-53.959112 27.050667-20.323556 49.820444-43.804444 61.866667-60.074666l1.080889-1.493334c4.707556-6.840889 3.982222-11.946667-0.142223-18.218666l-1.265777-1.834667-1.080889-1.479111c-0.497778-0.711111-0.568889-0.995556-0.142222-1.479111l6.115555-5.745778c19.057778-18.232889 23.082667-37.148444 6.912-73.287111-11.946667-26.638222-59.178667-56.120889-112.355555-68.494222-65.109333-15.132444-130.488889-4.508444-183.665778 36.935111z m180.437333-23.068445c49.28 11.448889 92.828444 38.627556 102.599111 60.444445 13.169778 29.425778 11.207111 42.097778-2.161778 55.623111l-5.930666 5.660444c-7.964444 7.594667-8.106667 14.136889-3.370667 21.575112l2.659556 3.825777c0.227556 0.384 0.256 0.568889 0.142222 0.796445l-1.308445 1.848889c-11.221333 15.146667-33.038222 37.632-58.922666 57.102222-37.219556 27.960889-77.681778 46.193778-120.248889 50.631111l-5.831111 0.512c-98.574222 7.310222-161.223111 113.152-133.916445 179.712 4.835556 11.832889-16.128 41.671111-27.221333 38.940444-10.439111-2.56-33.962667-21.191111-50.915556-44.544-24.149333-33.28-35.783111-73.614222-29.724444-119.608888 15.616-118.115556 59.207111-197.745778 162.460444-278.229334 49.536-38.613333 110.506667-48.512 171.690667-34.289778z" fill="#B2181A" p-id="21294"></path><path d="M550.784 301.880889c6.641778-6.755556 9.628444-29.354667 0-35.413333-9.642667-6.087111-32.355556 0-40.618667 17.706666-8.248889 17.706667-3.754667 35.271111 9.031111 38.215111 12.8 2.929778 24.931556-13.738667 31.573334-20.508444z" fill="#FFFFFF" p-id="21295"></path><path d="M374.627556 393.500444l84.622222 2.474667c-60.629333 41.073778-90.936889 77.056-90.936889 107.946667 0 25.799111-17.251556-30.051556-15.800889-63.857778 0.967111-22.542222 8.334222-38.058667 22.115556-46.563556z" fill="#CE2927" p-id="21296"></path><path d="M481.464889 389.504l-108.757333-3.171556-1.806223 1.109334c-16.014222 9.884444-24.433778 27.591111-25.500444 52.309333-0.682667 16.042667 2.602667 38.357333 7.608889 56.476445 2.318222 8.391111 4.636444 14.535111 6.926222 17.607111 3.456 4.622222 10.339556 6.158222 13.909333-0.512 1.009778-1.905778 1.422222-4.195556 1.550223-7.395556l0.028444-2.019555c0-27.776 28.984889-62.193778 87.808-102.044445l18.232889-12.359111z m-104.789333 11.164444l61.041777 1.777778-2.133333 1.564445c-38.584889 28.657778-62.293333 55.068444-70.798222 79.658666l-0.156445 0.455111-0.270222-1.194666c-3.271111-14.677333-5.248-30.805333-4.750222-42.567111 0.824889-19.100444 6.442667-32 16.654222-39.395556l0.412445-0.298667z" fill="#B2181A" p-id="21297"></path><path d="M723.740444 785.038222c16.810667 4.849778 32.412444 4.024889 46.791112-2.488889 21.575111-9.756444 54.428444 12.757333 33.479111 44.8-20.949333 32.028444-40.576 40.547556-87.395556 40.547556-31.217778 0-56.860444-13.511111-76.942222-40.561778l84.067555-42.296889z" fill="#CE2927" p-id="21298"></path><path d="M713.457778 875.377778c49.592889 0 71.210667-9.927111 93.354666-43.790222 22.456889-34.346667-9.585778-68.010667-40.476444-55.950223l-1.877333 0.796445c-12.8 5.788444-26.666667 6.542222-41.898667 2.133333l-2.673778-0.768L625.777778 825.173333l5.034666 6.784c21.390222 28.8 49.137778 43.434667 82.645334 43.434667z m-3.911111-14.307556c-23.253333-0.924444-42.936889-10.168889-59.363556-27.989333l-2.616889-2.958222 73.813334-37.148445-2.759112-0.739555c17.066667 4.920889 33.237333 4.48 48.256-1.393778l3.441778-1.450667c19.086222-8.632889 39.310222 11.904 24.590222 34.417778-19.299556 29.525333-36.352 37.347556-81.450666 37.347556l-3.911111-0.085334z" fill="#B2181A" p-id="21299"></path><path d="M767.587556 435.143111c-47.374222-10.439111-87.992889-5.845333-121.841778 13.752889-50.773333 29.397333 11.818667-79.175111 34.858666-98.773333 23.04-19.598222 43.704889-35.982222 55.125334-35.982223 7.608889 0 25.984 23.281778 55.111111 69.873778l-23.253333 51.128889z" fill="#FDD821" p-id="21300"></path><path d="M648.376889 455.04c30.862222-17.877333 67.783111-22.641778 111.061333-14.151111l11.292445 2.417778 27.221333-59.818667-7.623111-12.117333c-28.117333-44.288-44.615111-64.355556-55.552-64.355556-12.487111 0-28.131556 10.808889-59.719111 37.688889-12.501333 10.624-34.417778 43.52-46.933334 70.144-7.139556 15.175111-10.695111 26.936889-9.571555 34.773333 1.877333 13.098667 13.155556 14.364444 27.804444 6.542223l2.019556-1.123556z m-14.663111-8.718222l-1.137778 0.327111 0.028444-1.351111c0.426667-4.935111 3.342222-13.653333 8.391112-24.405334 11.719111-24.945778 32.611556-56.291556 43.278222-65.365333l9.457778-7.936c21.888-18.062222 34.631111-26.353778 41.045333-26.353778l0.384 0.071111c3.825778 1.251556 18.318222 19.384889 39.082667 51.356445l7.594666 11.904-19.299555 42.453333-6.001778-1.123555c-42.211556-7.296-79.288889-2.531556-111.004445 14.449777l-4.295111 2.389334c-3.157333 1.820444-5.688889 2.986667-7.537777 3.584z" fill="#B2181A" p-id="21301"></path><path d="M778.154667 361.912889c17.763556 4.352 100.195556 64.398222 85.987555 172.003555-14.222222 107.605333-51.456 194.289778-165.12 282.908445-113.678222 88.604444-265.728 16.227556-285.155555-28.871111-19.441778-45.084444-2.844444-57.386667 9.671111-69.319111 12.515556-11.946667-7.480889-14.791111 0-25.656889 7.466667-10.865778 83.285333-104.590222 191.246222-112.583111 107.975111-8.007111 147.783111-121.386667 127.872-169.927111-6.656-16.241778 17.749333-52.906667 35.498667-48.554667z" fill="#FB3635" p-id="21302"></path><path d="M703.644444 822.328889c106.268444-82.858667 151.722667-165.873778 167.793778-287.587556 6.584889-49.777778-6.087111-93.724444-32.284444-129.834666-18.773333-25.856-44.899556-46.535111-59.050667-50.005334-23.253333-5.688889-52.736 36.266667-43.761778 58.140445 23.324444 56.874667-31.288889 150.613333-117.76 159.772444l-4.067555 0.369778c-49.208889 3.640889-95.36 24.419556-137.130667 56.689778-26.908444 20.778667-50.147556 45.411556-59.448889 58.965333-4.636444 6.727111-3.882667 11.818667 0.227556 18.104889l1.251555 1.820444 1.095111 1.479112c0.625778 0.910222 0.568889 1.137778-0.270222 1.891555l-5.262222 4.920889c-19.143111 18.275556-23.196444 36.920889-7.395556 73.6 11.534222 26.766222 58.752 56.32 112.170667 68.693333 65.180444 15.089778 130.702222 4.423111 183.893333-37.034666zM522.951111 845.482667c-49.436444-11.448889-92.913778-38.656-102.300444-60.458667-12.942222-30.008889-10.922667-42.524444 2.545777-56.120889l5.489778-5.262222c7.964444-7.594667 8.120889-14.136889 3.384889-21.575111l-2.659555-3.825778c-0.241778-0.384-0.256-0.568889-0.142223-0.796444l0.369778-0.568889c2.631111-3.811556 9.230222-11.776 17.166222-20.195556a339.968 339.968 0 0 1 39.267556-35.555555c38.016-29.383111 79.601778-48.625778 123.491555-53.233778l6.001778-0.540445c98.588444-7.310222 161.223111-113.137778 133.930667-179.712-4.849778-11.818667 16.128-41.656889 27.221333-38.940444 10.439111 2.56 33.962667 21.191111 50.915556 44.558222 24.149333 33.28 35.783111 73.614222 29.710222 119.608889-15.601778 118.101333-59.207111 197.731556-162.446222 278.215111-49.550222 38.627556-110.691556 48.583111-171.946667 34.403556z" fill="#B2181A" p-id="21303"></path><path d="M471.438222 722.460444c-6.656 6.769778-9.642667 29.354667 0 35.427556 9.642667 6.072889 32.355556 0 40.618667-17.706667 8.248889-17.720889 3.754667-35.285333-9.031111-38.215111-12.8-2.929778-24.931556 13.724444-31.587556 20.48z" fill="#FFFFFF" p-id="21304"></path><path d="M647.580444 630.855111l-84.608-2.488889c60.629333-41.073778 90.936889-77.056 90.936889-107.932444 0-25.799111 17.251556 30.037333 15.800889 63.857778-0.967111 22.528-8.334222 38.058667-22.129778 46.563555z" fill="#CE2927" p-id="21305"></path><path d="M540.444444 634.965333l108.743112 3.185778 1.820444-1.109333c16.014222-9.884444 24.433778-27.605333 25.486222-52.309334 0.696889-16.042667-2.588444-38.357333-7.594666-56.490666-2.318222-8.391111-4.636444-14.520889-6.940445-17.592889-3.441778-4.622222-10.325333-6.158222-13.895111 0.512-1.024 1.905778-1.436444 4.195556-1.550222 7.395555l-0.028445 2.019556c0 27.776-28.984889 62.193778-87.808 102.044444L540.444444 634.965333z m105.969778-11.150222l-61.013333-1.777778 2.119111-1.564444c38.584889-28.657778 62.293333-55.082667 70.798222-79.672889l0.142222-0.440889 0.284445 1.180445c3.271111 14.691556 5.262222 30.819556 4.750222 42.581333-0.824889 19.086222-6.442667 32-16.64 39.395555l-0.426667 0.298667z" fill="#B2181A" p-id="21306"></path><path d="M536.888889 295.111111m-14.222222 0a14.222222 14.222222 0 1 0 28.444444 0 14.222222 14.222222 0 1 0-28.444444 0Z" fill="#5B221C" p-id="21307"></path><path d="M480 736m-14.222222 0a14.222222 14.222222 0 1 0 28.444444 0 14.222222 14.222222 0 1 0-28.444444 0Z" fill="#5B221C" p-id="21308"></path><path d="M444.714667 213.333333c-54.414222 4.892444-104.021333 28.913778-148.821334 72.092445-44.8 43.164444-72.32 93.454222-82.56 150.883555 36.764444-64.014222 68.451556-108.842667 95.047111-134.456889 26.595556-25.628444 72.035556-55.139556 136.334223-88.519111zM583.111111 820.309333c54.414222-4.892444 104.021333-28.913778 148.821333-72.092444 44.8-43.164444 72.305778-93.468444 82.56-150.883556-36.764444 64.014222-68.451556 108.828444-95.047111 134.456889-26.595556 25.628444-72.035556 55.139556-136.334222 88.519111z" fill="#CE2927" p-id="21309"></path></svg>