<?xml version="1.0" standalone="no"?><!DOCTYPE svg PUBLIC "-//W3C//DTD SVG 1.1//EN" "http://www.w3.org/Graphics/SVG/1.1/DTD/svg11.dtd"><svg height="1024" node-id="1" sillyvg="true" template-height="1024" template-width="1024" version="1.1" viewBox="0 0 1024 1024" width="1024" xmlns="http://www.w3.org/2000/svg" xmlns:xlink="http://www.w3.org/1999/xlink"><defs node-id="71"></defs><path d="M 0.00 0.00 L 1024.00 0.00 L 1024.00 1024.00 L 0.00 1024.00 Z" fill="#ffffff" fill-rule="nonzero" node-id="73" stroke="none" target-height="1024" target-width="1024" target-x="0" target-y="0"></path><path d="M 430.00 215.80 L 444.50 210.30 L 459.00 205.40 L 473.80 201.00 L 488.80 197.30 L 503.90 194.00 L 519.10 191.40 L 534.30 189.20 L 549.70 187.60 L 579.10 185.60 L 593.10 185.30 L 607.20 185.60 L 628.20 187.40 L 649.10 190.50 L 669.70 195.20 L 689.90 201.30 L 707.40 208.00 L 716.10 211.90 L 724.50 216.10 L 732.80 220.70 L 740.80 225.60 L 748.50 231.00 L 756.00 236.70 L 763.00 242.90 L 772.80 253.00 L 781.70 264.10 L 786.50 271.30 L 790.80 278.70 L 794.80 286.30 L 798.40 294.10 L 801.60 302.10 L 804.40 310.20 L 806.80 318.40 L 810.60 335.30 L 812.80 352.30 L 813.40 361.00 L 813.70 372.50 L 813.40 383.90 L 811.90 399.60 L 815.30 406.50 L 812.50 409.80 L 817.70 417.00 L 810.00 422.60 L 807.90 425.20 L 804.30 441.40 L 802.10 448.30 L 799.40 454.90 L 796.20 461.40 L 792.70 467.60 L 788.80 473.70 L 784.50 479.50 L 778.30 486.80 L 771.60 493.80 L 764.30 500.40 L 756.80 506.60 L 748.90 512.40 L 740.70 517.80 L 732.30 522.80 L 723.80 527.40 L 715.30 531.50 L 702.60 537.00 L 689.80 541.90 L 676.80 546.40 L 663.60 550.30 L 650.20 553.80 L 636.80 556.70 L 623.30 559.20 L 609.70 561.20 L 596.00 562.70 L 582.20 563.80 L 568.40 564.40 L 554.60 564.60 L 540.90 564.40 L 527.20 563.70 L 513.50 562.60 L 494.00 560.20 L 470.00 555.50 L 455.70 552.10 L 427.40 544.30 L 409.40 535.60 L 400.60 530.80 L 392.00 525.60 L 381.20 517.80 L 376.00 513.50 L 370.10 508.10 L 364.50 502.40 L 359.40 496.40 L 354.70 490.10 L 350.40 483.50 L 346.50 476.70 L 342.90 469.70 L 339.60 462.40 L 335.70 452.50 L 332.40 442.40 L 329.50 432.10 L 327.10 421.70 L 323.50 401.10 L 322.70 393.40 L 322.40 378.20 L 323.50 363.00 L 324.50 355.50 L 326.40 344.20 L 328.80 333.00 L 334.60 312.70 L 338.10 302.80 L 342.20 293.10 L 345.40 286.90 L 348.90 280.80 L 352.70 274.90 L 357.60 268.20 L 362.90 261.90 L 368.50 255.90 L 374.40 250.20 L 380.60 244.80 L 393.70 235.00 L 400.70 230.60 L 410.20 225.10 L 420.00 220.20 L 430.00 215.80 Z M 397.40 256.80 L 388.00 263.90 L 379.40 272.10 L 372.00 281.20 L 368.70 286.10 L 365.90 291.30 L 363.40 296.70 L 361.20 302.20 L 359.70 307.90 L 358.70 313.60 L 358.30 319.40 L 358.20 325.20 L 359.50 336.90 L 362.10 348.50 L 364.70 356.90 L 367.70 365.10 L 369.50 369.10 L 371.70 372.70 L 374.40 376.10 L 377.50 379.20 L 384.20 384.60 L 388.30 384.00 L 392.10 382.80 L 395.80 381.30 L 399.20 379.30 L 402.40 376.90 L 405.30 374.20 L 410.40 368.10 L 414.30 361.00 L 417.00 353.40 L 419.10 344.50 L 420.80 335.50 L 421.90 326.50 L 423.10 308.30 L 423.20 299.20 L 422.80 285.50 L 422.00 271.80 L 419.40 244.50 L 408.10 250.00 L 402.60 253.20 L 397.40 256.80 Z M 628.10 410.20 L 636.00 395.90 L 639.10 391.40 L 643.80 386.00 L 646.50 383.70 L 649.40 381.80 L 652.70 380.30 L 659.70 378.30 L 662.80 378.00 L 665.70 378.10 L 668.60 378.50 L 672.30 379.70 L 675.90 381.30 L 679.30 383.50 L 685.40 388.90 L 688.30 391.90 L 695.50 401.70 L 695.20 397.80 L 694.40 394.20 L 693.00 390.80 L 691.30 387.50 L 689.10 384.60 L 686.60 381.90 L 683.80 379.40 L 677.50 375.60 L 674.00 374.20 L 670.50 373.20 L 666.80 372.50 L 663.10 372.30 L 659.40 372.60 L 655.70 373.30 L 651.80 374.70 L 648.10 376.40 L 644.60 378.60 L 641.50 381.20 L 638.60 384.00 L 636.00 387.20 L 633.80 390.70 L 631.90 394.30 L 630.30 398.20 L 629.20 402.10 L 628.50 406.10 L 628.10 410.20 Z M 456.50 416.50 L 465.70 403.40 L 469.20 399.50 L 471.70 397.10 L 474.50 395.10 L 477.40 393.40 L 480.60 392.30 L 484.10 391.70 L 491.90 391.80 L 495.50 392.50 L 498.80 393.80 L 501.90 395.40 L 507.60 399.80 L 511.40 403.70 L 522.10 416.20 L 521.50 412.40 L 520.40 408.70 L 518.90 405.20 L 516.90 401.80 L 514.50 398.80 L 511.80 395.90 L 508.90 393.40 L 505.70 391.20 L 502.20 389.40 L 498.60 388.00 L 494.90 386.90 L 491.10 386.30 L 487.30 386.20 L 483.40 386.60 L 479.60 387.60 L 475.50 389.20 L 471.70 391.30 L 468.30 393.90 L 465.10 396.90 L 462.40 400.30 L 460.20 404.00 L 458.40 408.00 L 457.20 412.10 L 456.50 416.50 Z M 335.00 390.00 L 335.40 399.40 L 336.40 408.80 L 337.90 418.00 L 340.00 427.30 L 342.60 436.30 L 345.70 445.20 L 349.30 453.90 L 353.40 462.50 L 357.90 470.80 L 362.90 478.80 L 368.30 486.50 L 374.10 493.90 L 380.00 500.20 L 390.50 510.00 L 399.60 516.90 L 406.80 521.10 L 421.70 528.60 L 429.30 531.80 L 439.80 535.70 L 450.30 539.00 L 461.10 542.00 L 471.90 544.50 L 493.70 548.60 L 507.90 550.60 L 522.10 552.00 L 536.40 553.00 L 550.70 553.50 L 565.00 553.40 L 579.30 552.80 L 593.60 551.50 L 607.70 549.70 L 621.80 547.20 L 632.40 545.90 L 643.00 544.00 L 653.40 541.50 L 664.30 538.40 L 686.30 531.20 L 697.10 527.00 L 707.60 522.50 L 718.00 517.50 L 728.20 512.00 L 737.90 505.90 L 747.30 499.40 L 754.10 494.10 L 760.60 488.50 L 766.80 482.50 L 772.70 476.10 L 779.00 468.10 L 781.70 463.20 L 782.50 459.00 L 779.10 453.30 L 775.30 448.00 L 770.90 443.10 L 766.10 438.60 L 761.00 434.50 L 755.50 430.90 L 750.10 428.40 L 744.60 426.30 L 738.90 424.60 L 727.40 422.30 L 721.50 421.60 L 712.60 421.10 L 703.80 421.10 L 669.50 424.30 L 660.90 424.60 L 652.30 424.50 L 645.50 422.50 L 638.90 420.00 L 619.30 412.10 L 612.50 409.90 L 604.90 407.90 L 597.10 406.40 L 589.10 405.50 L 581.20 405.20 L 573.30 405.60 L 565.40 406.60 L 559.50 407.80 L 553.80 409.40 L 548.20 411.30 L 542.70 413.70 L 521.00 425.90 L 506.30 433.50 L 498.70 436.80 L 488.20 440.20 L 482.80 441.40 L 461.00 440.70 L 453.80 440.90 L 441.20 443.00 L 429.10 446.60 L 423.20 449.00 L 411.90 454.70 L 401.30 461.70 L 391.80 470.00 L 387.30 474.60 L 383.90 479.50 L 379.40 474.50 L 360.40 455.10 L 356.10 449.90 L 351.00 442.50 L 346.50 433.40 L 342.80 422.80 L 335.00 390.00 Z M 787.10 448.70 L 790.20 446.80 L 792.50 444.60 L 794.30 442.00 L 796.80 436.20 L 798.20 427.90 L 799.50 412.90 L 795.60 421.60 L 792.20 430.40 L 788.50 442.50 L 787.10 448.70 Z" fill="#311b30" fill-rule="nonzero" node-id="75" stroke="none" target-height="379.3" target-width="495.30002" target-x="322.4" target-y="185.3"></path><path d="M 628.10 410.20 L 628.50 406.10 L 629.20 402.10 L 630.30 398.20 L 631.90 394.30 L 633.80 390.70 L 636.00 387.20 L 638.60 384.00 L 641.50 381.20 L 644.60 378.60 L 648.10 376.40 L 651.80 374.70 L 655.70 373.30 L 659.40 372.60 L 663.10 372.30 L 666.80 372.50 L 670.50 373.20 L 674.00 374.20 L 677.50 375.60 L 683.80 379.40 L 686.60 381.90 L 689.10 384.60 L 691.30 387.50 L 693.00 390.80 L 694.40 394.20 L 695.20 397.80 L 695.50 401.70 L 692.20 396.80 L 688.30 391.90 L 685.40 388.90 L 679.30 383.50 L 675.90 381.30 L 672.30 379.70 L 668.60 378.50 L 665.70 378.10 L 662.80 378.00 L 659.70 378.30 L 652.70 380.30 L 649.40 381.80 L 646.50 383.70 L 643.80 386.00 L 639.10 391.40 L 636.00 395.90 L 628.10 410.20 Z" fill="#f2ddc9" fill-rule="nonzero" node-id="77" stroke="none" target-height="37.900024" target-width="67.400024" target-x="628.1" target-y="372.3"></path><path d="M 720.30 591.90 L 730.40 589.10 L 732.50 599.70 L 734.10 610.30 L 735.20 621.10 L 736.60 645.50 L 736.60 668.50 L 735.20 686.80 L 734.00 695.90 L 732.40 704.90 L 730.30 713.80 L 727.80 722.60 L 724.70 731.20 L 717.90 746.50 L 714.20 753.20 L 708.50 761.50 L 705.30 765.30 L 701.70 768.80 L 697.80 771.90 L 693.40 774.60 L 684.50 779.40 L 675.30 783.60 L 665.90 787.40 L 637.30 797.90 L 607.10 808.10 L 591.80 812.80 L 576.40 816.80 L 566.10 819.10 L 555.60 821.00 L 545.00 822.40 L 474.00 829.70 L 456.30 832.10 L 438.70 835.00 L 443.80 838.10 L 449.20 840.70 L 477.20 850.70 L 482.60 853.10 L 484.50 854.70 L 487.90 859.00 L 490.20 864.10 L 491.00 866.90 L 491.50 869.80 L 491.40 875.40 L 490.70 878.00 L 489.70 880.40 L 488.30 882.50 L 486.60 884.20 L 484.30 885.60 L 481.40 886.60 L 472.80 888.20 L 464.10 889.10 L 455.30 889.70 L 428.90 890.10 L 411.40 891.10 L 409.60 878.40 L 408.20 865.70 L 407.30 852.90 L 406.50 833.80 L 405.40 776.40 L 412.90 781.90 L 413.10 773.80 L 421.90 792.20 L 423.10 787.40 L 423.80 782.60 L 424.00 777.70 L 423.80 772.80 L 423.10 767.90 L 420.20 753.70 L 417.60 734.70 L 416.40 720.30 L 414.30 677.10 L 412.70 662.30 L 408.80 644.20 L 400.40 611.80 L 394.80 592.00 L 404.00 595.10 L 421.90 602.20 L 430.70 606.10 L 440.40 611.10 L 450.20 615.70 L 460.30 619.80 L 479.70 626.50 L 507.50 634.50 L 519.60 639.00 L 525.40 641.70 L 522.50 650.90 L 520.00 660.30 L 518.00 669.80 L 516.40 679.30 L 515.30 688.90 L 514.70 698.60 L 514.50 718.00 L 515.20 729.90 L 516.60 733.50 L 519.10 736.40 L 520.70 737.60 L 523.30 739.00 L 529.20 741.00 L 541.70 743.30 L 551.40 744.70 L 571.00 746.50 L 580.80 746.80 L 590.60 746.60 L 600.40 745.90 L 610.10 744.70 L 622.90 742.20 L 628.90 739.70 L 631.80 738.00 L 634.30 736.00 L 636.40 733.70 L 638.20 731.10 L 639.30 728.20 L 640.00 724.90 L 640.50 712.70 L 640.60 700.50 L 639.40 676.20 L 636.90 651.90 L 636.20 647.90 L 635.00 644.00 L 633.40 640.30 L 627.20 629.80 L 663.40 618.70 L 675.30 614.50 L 687.00 609.80 L 698.50 604.60 L 705.90 600.70 L 713.20 596.50 L 720.30 591.90 Z M 431.70 674.80 L 429.90 676.90 L 428.50 679.00 L 427.60 681.20 L 426.70 684.70 L 426.40 688.50 L 426.60 692.30 L 428.50 703.60 L 440.50 700.80 L 442.60 697.40 L 444.10 693.80 L 445.10 689.90 L 445.50 686.00 L 445.30 682.10 L 444.50 678.20 L 442.60 675.20 L 439.60 673.00 L 438.00 672.40 L 436.30 672.30 L 434.70 672.60 L 433.20 673.40 L 431.70 674.80 Z" fill="#f3ddc8" fill-rule="nonzero" node-id="79" stroke="none" target-height="302" target-width="341.8" target-x="394.8" target-y="589.1"></path><path d="M 456.50 416.50 L 457.20 412.10 L 458.40 408.00 L 460.20 404.00 L 462.40 400.30 L 465.10 396.90 L 468.30 393.90 L 471.70 391.30 L 475.50 389.20 L 479.60 387.60 L 483.40 386.60 L 487.30 386.20 L 491.10 386.30 L 494.90 386.90 L 498.60 388.00 L 502.20 389.40 L 505.70 391.20 L 508.90 393.40 L 511.80 395.90 L 514.50 398.80 L 516.90 401.80 L 518.90 405.20 L 520.40 408.70 L 521.50 412.40 L 522.10 416.20 L 511.40 403.70 L 507.60 399.80 L 501.90 395.40 L 498.80 393.80 L 495.50 392.50 L 491.90 391.80 L 484.10 391.70 L 480.60 392.30 L 477.40 393.40 L 474.50 395.10 L 471.70 397.10 L 469.20 399.50 L 465.70 403.40 L 456.50 416.50 Z" fill="#f3deca" fill-rule="nonzero" node-id="81" stroke="none" target-height="30.299988" target-width="65.599976" target-x="456.5" target-y="386.2"></path><path d="M 387.80 128.00 L 397.40 121.80 L 407.20 115.90 L 417.20 110.40 L 427.40 105.40 L 437.80 100.70 L 448.40 96.40 L 459.10 92.50 L 470.00 89.00 L 481.00 85.90 L 492.10 83.20 L 503.40 80.90 L 514.70 79.10 L 526.00 77.60 L 537.40 76.50 L 548.80 75.90 L 560.30 75.60 L 571.70 75.80 L 583.10 76.40 L 594.40 77.50 L 605.80 78.90 L 617.00 80.80 L 628.20 83.10 L 639.20 85.80 L 650.20 89.00 L 661.00 92.50 L 671.70 96.60 L 682.20 101.00 L 692.50 105.90 L 702.60 111.30 L 719.30 120.90 L 725.70 125.10 L 741.00 136.70 L 767.40 159.20 L 783.70 154.50 L 792.00 152.60 L 800.40 151.20 L 806.10 150.70 L 811.60 150.60 L 817.20 150.90 L 822.70 151.70 L 828.20 153.10 L 837.50 156.70 L 844.40 160.70 L 847.40 163.10 L 851.00 166.80 L 854.30 170.90 L 857.10 175.30 L 859.60 180.00 L 861.60 184.90 L 863.30 190.00 L 864.50 195.20 L 866.10 205.60 L 869.30 253.00 L 869.70 264.90 L 869.50 279.80 L 869.80 282.60 L 870.50 285.30 L 872.00 289.30 L 874.00 293.10 L 880.80 304.30 L 882.70 308.10 L 886.40 318.80 L 889.50 332.60 L 893.20 357.90 L 894.70 364.50 L 898.40 371.90 L 906.90 384.40 L 909.40 388.80 L 911.30 393.50 L 913.20 399.90 L 914.60 406.70 L 915.10 411.20 L 915.20 420.20 L 914.50 424.70 L 913.40 429.10 L 911.80 433.30 L 904.50 447.90 L 901.20 456.30 L 899.60 463.40 L 898.00 475.20 L 895.80 486.80 L 893.30 498.40 L 890.20 509.80 L 886.80 521.20 L 882.90 532.40 L 878.60 543.50 L 873.90 554.40 L 868.90 565.10 L 863.40 575.70 L 856.10 588.70 L 848.40 601.30 L 840.10 613.60 L 826.30 631.90 L 815.70 644.00 L 781.40 678.20 L 783.70 700.60 L 784.30 711.90 L 784.60 734.40 L 783.40 762.60 L 782.10 779.50 L 781.70 796.30 L 780.80 813.00 L 777.70 846.40 L 773.50 879.70 L 770.40 894.80 L 768.30 902.30 L 765.60 909.60 L 763.50 914.30 L 761.00 918.70 L 755.70 925.70 L 750.00 930.80 L 746.60 933.00 L 740.70 936.20 L 734.70 938.80 L 728.50 941.10 L 715.80 944.40 L 709.30 945.50 L 699.40 946.70 L 689.40 947.40 L 669.70 947.60 L 650.00 945.40 L 643.30 944.30 L 630.40 941.00 L 624.10 938.70 L 618.20 936.00 L 612.50 932.70 L 608.60 929.90 L 604.90 926.70 L 601.40 923.10 L 596.10 916.00 L 594.40 912.80 L 593.10 909.50 L 591.60 904.40 L 588.70 888.40 L 587.40 883.10 L 585.60 878.10 L 576.70 876.80 L 572.20 876.70 L 567.70 876.90 L 558.90 878.60 L 557.30 883.20 L 556.10 888.00 L 553.20 902.40 L 552.00 907.10 L 550.40 911.70 L 548.10 916.10 L 545.50 920.40 L 542.50 924.30 L 539.00 927.80 L 535.30 931.00 L 531.20 933.80 L 526.90 936.20 L 522.40 938.30 L 517.70 939.90 L 512.90 941.20 L 503.50 943.10 L 493.90 944.60 L 484.30 945.50 L 465.00 946.20 L 445.70 945.40 L 426.50 943.30 L 417.60 941.60 L 408.70 939.30 L 402.80 937.40 L 397.20 935.00 L 391.80 932.30 L 386.70 929.10 L 381.90 925.30 L 377.50 921.10 L 375.00 917.90 L 373.00 914.60 L 371.30 911.20 L 369.40 905.80 L 368.00 900.10 L 365.00 876.90 L 356.10 874.40 L 347.50 871.60 L 339.00 868.40 L 330.60 864.70 L 322.50 860.60 L 314.60 856.10 L 306.90 851.30 L 299.40 846.10 L 292.20 840.50 L 285.20 834.70 L 278.60 828.50 L 272.20 822.00 L 266.10 815.20 L 260.30 808.10 L 254.90 800.80 L 249.80 793.20 L 243.30 782.80 L 237.30 772.10 L 231.70 761.10 L 226.60 750.00 L 221.80 738.60 L 217.60 727.10 L 213.80 715.40 L 210.40 703.60 L 207.60 691.60 L 205.20 679.60 L 203.40 667.40 L 202.00 655.20 L 201.80 636.30 L 202.10 626.80 L 202.80 617.30 L 203.90 607.90 L 205.50 598.50 L 207.50 589.20 L 210.00 580.10 L 213.00 571.20 L 218.70 558.20 L 222.00 551.90 L 228.80 541.20 L 235.90 532.70 L 239.80 528.80 L 248.30 522.00 L 253.00 519.10 L 257.80 516.60 L 262.90 514.50 L 268.20 513.50 L 273.40 513.10 L 278.70 513.10 L 299.90 514.20 L 308.60 513.40 L 315.40 511.50 L 283.40 508.40 L 277.20 507.10 L 273.10 505.80 L 265.30 502.20 L 262.10 499.80 L 259.40 497.00 L 257.10 494.00 L 253.30 487.40 L 250.10 478.10 L 246.20 461.00 L 241.30 430.00 L 240.10 419.70 L 239.80 412.80 L 239.90 405.80 L 240.40 398.90 L 241.20 394.50 L 242.50 390.30 L 244.20 386.10 L 250.00 373.90 L 251.50 369.80 L 252.50 365.60 L 252.80 362.70 L 252.30 356.60 L 244.40 356.90 L 228.70 358.50 L 216.90 360.40 L 181.90 367.10 L 170.20 369.00 L 158.40 370.40 L 151.20 370.60 L 143.90 369.60 L 136.90 367.40 L 133.60 365.70 L 130.70 363.80 L 127.90 361.50 L 125.60 358.80 L 123.60 355.80 L 122.10 352.30 L 121.00 348.30 L 120.60 344.50 L 120.70 340.70 L 121.30 336.90 L 123.70 329.40 L 126.10 324.00 L 134.80 308.50 L 120.10 297.00 L 116.80 293.70 L 113.90 290.10 L 111.00 284.80 L 109.90 281.80 L 109.20 278.70 L 109.10 275.60 L 109.40 272.60 L 111.40 266.80 L 112.90 264.00 L 115.60 260.20 L 118.70 256.80 L 122.30 253.80 L 126.10 251.20 L 130.10 249.00 L 136.30 246.20 L 142.90 243.90 L 227.50 219.30 L 260.90 210.60 L 270.40 209.00 L 275.20 208.70 L 280.00 208.90 L 283.90 209.70 L 287.50 211.00 L 291.00 212.80 L 300.90 219.10 L 317.40 196.30 L 326.20 185.30 L 335.30 174.50 L 344.90 164.20 L 354.90 154.30 L 362.70 147.20 L 370.70 140.50 L 379.10 134.10 L 387.80 128.00 Z M 369.10 163.40 L 361.10 170.70 L 353.50 178.20 L 346.20 186.10 L 339.30 194.30 L 332.80 202.80 L 326.60 211.60 L 320.80 220.60 L 315.40 229.90 L 310.30 239.30 L 301.10 258.70 L 297.10 268.70 L 294.60 262.00 L 287.30 236.90 L 283.50 228.20 L 282.10 226.70 L 279.30 225.00 L 276.90 224.50 L 274.30 224.50 L 263.80 226.50 L 186.20 246.00 L 160.50 253.00 L 149.50 256.50 L 144.00 258.50 L 138.70 260.80 L 132.20 264.80 L 129.20 267.20 L 127.80 268.80 L 126.70 270.60 L 125.50 274.40 L 125.50 278.50 L 126.30 281.60 L 127.70 284.40 L 130.30 287.50 L 136.40 291.00 L 140.90 293.00 L 145.50 294.50 L 152.60 296.20 L 159.90 297.40 L 174.60 299.00 L 158.90 311.30 L 149.00 320.30 L 144.60 325.20 L 141.90 328.70 L 137.40 336.40 L 136.90 339.40 L 137.10 342.00 L 137.80 344.40 L 139.10 346.60 L 140.80 348.50 L 142.80 350.20 L 147.70 352.70 L 150.40 353.50 L 155.80 354.10 L 175.80 351.30 L 210.50 344.80 L 262.30 334.20 L 266.20 342.00 L 267.60 346.20 L 269.20 352.70 L 270.30 359.30 L 271.60 372.50 L 263.50 381.80 L 261.30 385.20 L 260.10 387.60 L 259.40 390.10 L 258.40 401.40 L 258.40 409.80 L 258.80 418.20 L 260.20 430.80 L 262.20 443.40 L 266.90 468.30 L 268.50 475.70 L 269.70 479.30 L 271.20 482.80 L 274.20 486.70 L 276.20 488.40 L 279.60 490.50 L 283.10 492.30 L 286.70 493.60 L 292.30 495.10 L 298.20 496.00 L 310.00 496.40 L 321.80 496.20 L 328.50 506.80 L 343.40 527.10 L 343.90 531.30 L 344.60 548.50 L 345.40 552.70 L 346.20 555.30 L 349.00 560.40 L 352.40 564.30 L 355.90 567.90 L 359.80 571.10 L 366.00 575.60 L 385.50 587.80 L 364.20 621.40 L 356.70 632.40 L 355.50 620.70 L 352.60 601.10 L 349.10 585.80 L 346.80 578.20 L 344.20 570.90 L 341.10 563.70 L 337.60 556.70 L 333.60 549.90 L 329.10 543.40 L 325.60 540.10 L 322.00 537.20 L 318.10 534.70 L 314.10 532.50 L 309.80 530.70 L 301.00 528.20 L 296.40 527.50 L 290.20 527.00 L 284.00 527.30 L 277.90 528.10 L 273.40 529.20 L 264.70 532.40 L 256.70 536.90 L 253.00 539.70 L 249.60 542.90 L 246.40 546.40 L 242.20 552.00 L 238.40 557.90 L 235.20 563.90 L 232.30 570.10 L 227.90 583.00 L 224.80 596.50 L 223.40 605.60 L 222.50 614.90 L 222.10 624.20 L 222.00 638.10 L 222.50 651.70 L 224.00 665.10 L 226.10 678.50 L 228.60 691.80 L 231.80 705.00 L 235.50 718.10 L 239.70 730.90 L 244.60 743.50 L 250.00 755.90 L 254.70 765.70 L 259.80 775.20 L 265.40 784.50 L 271.30 793.50 L 277.60 802.40 L 282.30 808.30 L 287.30 814.00 L 292.60 819.30 L 303.90 829.10 L 316.20 837.70 L 322.70 841.50 L 331.60 846.20 L 340.70 850.40 L 350.00 854.00 L 359.60 857.20 L 369.30 859.90 L 379.00 862.00 L 380.10 867.90 L 381.90 886.10 L 382.90 892.00 L 384.40 897.80 L 385.90 901.40 L 387.80 905.00 L 390.20 908.40 L 396.60 913.50 L 400.10 915.60 L 405.70 918.20 L 411.50 920.40 L 423.40 923.70 L 433.80 925.50 L 444.30 926.90 L 454.80 927.80 L 465.40 928.10 L 476.00 928.00 L 486.50 927.20 L 497.00 925.90 L 507.40 924.00 L 512.60 922.60 L 517.70 920.80 L 521.10 919.30 L 527.00 915.40 L 529.60 913.00 L 531.70 910.10 L 533.50 906.90 L 535.40 901.90 L 538.20 891.70 L 542.40 868.10 L 544.10 860.30 L 572.40 860.20 L 600.60 859.60 L 601.90 865.10 L 604.80 888.80 L 605.90 894.50 L 608.30 901.80 L 609.90 905.20 L 611.90 908.30 L 614.40 911.30 L 617.50 914.10 L 623.20 917.60 L 629.30 920.50 L 635.50 922.80 L 642.00 924.60 L 648.50 926.10 L 655.20 927.10 L 665.30 928.20 L 683.20 928.80 L 699.30 928.40 L 712.60 926.90 L 722.90 924.50 L 727.90 922.80 L 732.80 920.70 L 737.60 918.20 L 741.30 915.50 L 744.40 912.50 L 747.00 909.20 L 749.10 905.60 L 751.00 901.80 L 752.50 897.70 L 754.30 891.40 L 755.70 884.90 L 760.00 859.70 L 761.60 847.30 L 762.80 834.80 L 764.20 816.00 L 767.20 759.60 L 767.40 737.50 L 767.20 715.40 L 765.90 686.00 L 764.80 671.30 L 776.00 661.70 L 786.80 651.60 L 797.30 641.20 L 812.10 624.70 L 825.80 607.30 L 832.20 598.30 L 838.20 589.00 L 843.80 579.50 L 849.10 569.70 L 855.60 556.70 L 861.60 543.40 L 867.40 530.00 L 871.30 519.70 L 878.10 499.00 L 881.00 488.40 L 883.40 477.80 L 885.30 467.10 L 886.60 456.20 L 887.50 445.30 L 889.50 441.70 L 897.70 429.30 L 898.80 426.80 L 900.60 420.10 L 901.10 416.00 L 901.00 408.00 L 900.20 402.80 L 898.80 397.60 L 896.80 392.60 L 894.30 387.80 L 891.50 383.20 L 888.20 378.80 L 884.50 374.70 L 880.70 370.90 L 876.50 367.50 L 875.50 354.50 L 873.90 341.40 L 870.60 324.30 L 867.90 314.00 L 866.10 311.30 L 864.30 309.60 L 862.20 308.30 L 852.80 304.20 L 853.20 271.90 L 853.00 255.80 L 852.20 239.70 L 851.40 233.70 L 849.50 209.40 L 848.70 203.40 L 847.40 197.50 L 845.60 191.70 L 844.10 188.00 L 842.10 184.70 L 839.80 181.50 L 834.30 176.10 L 831.20 173.80 L 827.80 171.80 L 820.60 168.90 L 816.80 168.00 L 812.90 167.50 L 803.90 167.60 L 798.80 168.30 L 789.00 170.80 L 779.40 174.60 L 765.70 181.50 L 742.30 158.90 L 736.30 153.40 L 721.50 141.80 L 712.90 135.70 L 704.00 130.00 L 694.80 124.70 L 685.50 119.70 L 675.90 115.00 L 666.20 110.80 L 656.40 107.10 L 646.30 103.70 L 625.00 98.00 L 613.80 95.70 L 602.60 93.90 L 591.30 92.50 L 579.90 91.60 L 568.40 91.10 L 557.00 91.10 L 545.60 91.50 L 534.20 92.30 L 522.90 93.70 L 511.50 95.40 L 500.30 97.60 L 489.20 100.10 L 478.20 103.20 L 467.30 106.60 L 456.50 110.50 L 445.90 114.80 L 435.60 119.40 L 425.40 124.50 L 415.30 130.00 L 405.50 135.90 L 396.00 142.20 L 386.80 148.90 L 377.80 155.90 L 369.10 163.40 Z" fill="#fdfbf8" fill-rule="nonzero" node-id="83" stroke="none" target-height="872" target-width="806.10004" target-x="109.1" target-y="75.6"></path><path d="M 337.10 165.50 L 346.30 156.20 L 356.00 147.30 L 366.00 139.00 L 376.40 131.00 L 387.20 123.50 L 398.20 116.60 L 409.50 110.00 L 421.10 104.00 L 433.00 98.50 L 445.00 93.50 L 457.30 88.90 L 469.80 84.90 L 482.40 81.50 L 495.10 78.50 L 508.00 76.10 L 521.00 74.20 L 534.00 72.90 L 547.00 72.20 L 560.10 72.00 L 584.00 72.80 L 594.80 73.60 L 605.50 74.90 L 616.10 76.50 L 626.70 78.60 L 639.80 81.80 L 652.60 85.50 L 665.40 89.90 L 677.90 94.90 L 690.20 100.40 L 702.20 106.50 L 713.90 113.10 L 725.30 120.30 L 736.40 128.00 L 747.00 136.10 L 757.30 144.80 L 767.20 153.90 L 783.40 150.10 L 791.70 148.50 L 800.00 147.30 L 805.50 146.90 L 816.50 147.00 L 822.00 147.70 L 827.40 148.80 L 837.70 152.30 L 842.20 154.60 L 846.50 157.40 L 850.60 160.50 L 854.20 164.00 L 857.60 167.90 L 860.60 172.00 L 863.20 176.40 L 865.40 181.00 L 867.10 185.90 L 868.40 190.80 L 869.20 195.90 L 871.20 215.30 L 872.50 234.80 L 873.30 260.90 L 873.20 277.00 L 873.60 280.00 L 874.40 282.80 L 876.10 287.00 L 885.50 303.30 L 889.40 312.60 L 891.60 319.90 L 893.30 327.30 L 897.90 357.60 L 899.30 363.50 L 902.40 370.20 L 912.40 385.30 L 914.50 389.20 L 916.30 393.30 L 917.50 397.70 L 918.60 405.30 L 919.30 413.10 L 919.30 418.30 L 919.00 423.40 L 918.20 428.50 L 916.10 435.80 L 914.50 439.30 L 910.10 446.70 L 908.20 450.80 L 906.60 455.00 L 904.80 461.60 L 903.50 468.20 L 900.40 488.50 L 899.00 495.10 L 895.80 507.90 L 892.20 520.50 L 888.00 532.90 L 883.30 545.20 L 878.20 557.30 L 872.60 569.10 L 866.50 580.80 L 860.00 592.20 L 853.00 603.40 L 845.70 614.20 L 837.90 624.80 L 829.70 635.00 L 821.10 645.00 L 812.10 654.60 L 802.80 663.80 L 791.40 674.20 L 788.90 677.80 L 788.20 679.80 L 787.70 684.20 L 788.10 741.50 L 787.30 770.10 L 786.20 781.60 L 784.00 827.70 L 779.90 868.20 L 777.00 887.60 L 774.90 897.00 L 773.10 903.30 L 768.60 915.50 L 766.40 919.70 L 763.90 923.60 L 761.00 927.10 L 757.90 930.30 L 753.20 934.20 L 748.20 937.50 L 742.80 940.50 L 731.40 945.10 L 725.40 946.80 L 716.30 948.90 L 707.50 950.30 L 698.00 951.20 L 678.90 952.00 L 669.30 951.90 L 659.80 951.20 L 650.30 950.10 L 643.30 948.80 L 629.50 945.10 L 618.30 940.80 L 609.90 936.30 L 605.90 933.60 L 598.80 927.30 L 595.70 923.70 L 593.00 919.80 L 590.70 915.50 L 588.60 910.30 L 585.60 899.60 L 582.20 883.20 L 562.10 884.00 L 560.20 895.80 L 557.50 907.40 L 554.70 914.80 L 552.80 918.40 L 547.20 926.10 L 540.40 932.80 L 532.70 938.40 L 528.50 940.70 L 524.20 942.60 L 519.60 944.20 L 510.50 946.40 L 501.30 948.20 L 492.00 949.50 L 482.70 950.50 L 464.00 951.20 L 454.60 950.90 L 435.90 949.30 L 417.50 946.00 L 408.40 943.90 L 397.90 940.20 L 387.80 935.40 L 383.20 932.40 L 378.80 929.10 L 373.00 923.20 L 370.50 919.90 L 366.70 913.50 L 364.50 907.80 L 363.40 903.30 L 361.10 889.50 L 358.90 880.50 L 349.70 876.90 L 335.80 872.20 L 331.30 870.40 L 321.70 865.70 L 312.30 860.50 L 303.30 854.80 L 294.60 848.60 L 286.20 841.90 L 278.20 834.80 L 270.60 827.30 L 263.30 819.40 L 256.50 811.10 L 250.10 802.50 L 244.20 793.60 L 238.70 784.40 L 232.80 773.50 L 227.30 762.50 L 222.10 751.20 L 217.30 739.70 L 213.00 728.00 L 209.20 716.20 L 205.80 704.30 L 202.90 692.20 L 200.50 680.00 L 198.60 667.80 L 197.30 655.50 L 196.60 643.10 L 197.10 630.70 L 198.00 618.30 L 198.90 610.10 L 201.60 593.70 L 203.50 585.70 L 205.80 577.80 L 208.50 570.00 L 211.60 562.40 L 215.30 555.00 L 223.10 542.20 L 227.00 536.90 L 231.30 531.90 L 236.00 527.30 L 240.90 523.00 L 246.10 518.90 L 251.60 515.20 L 263.00 508.70 L 254.70 497.90 L 251.10 492.10 L 247.90 486.10 L 246.20 482.00 L 243.70 473.20 L 241.60 461.80 L 237.90 438.90 L 236.70 427.40 L 235.90 412.00 L 236.00 404.30 L 236.40 398.60 L 237.40 393.10 L 238.90 387.70 L 246.40 366.40 L 247.90 361.00 L 236.70 361.90 L 225.70 363.30 L 170.90 373.00 L 156.00 374.70 L 148.00 374.30 L 140.10 372.60 L 132.70 369.70 L 129.40 367.70 L 126.30 365.30 L 123.60 362.50 L 121.20 359.30 L 119.30 355.70 L 117.80 351.70 L 117.00 347.80 L 116.70 344.00 L 117.40 336.20 L 118.30 332.30 L 120.20 326.50 L 122.60 320.90 L 127.90 310.20 L 116.80 300.20 L 113.30 296.70 L 109.30 291.50 L 106.50 285.70 L 105.70 282.50 L 105.00 275.60 L 105.20 272.40 L 105.70 269.30 L 106.60 266.30 L 108.40 262.60 L 110.60 259.00 L 113.30 255.70 L 119.80 250.00 L 123.40 247.60 L 131.10 243.60 L 134.90 242.10 L 149.50 237.40 L 247.20 210.00 L 263.30 206.30 L 271.50 204.90 L 274.90 204.50 L 281.50 205.00 L 286.40 206.00 L 291.20 207.50 L 300.70 211.00 L 324.20 180.00 L 330.40 172.60 L 337.10 165.50 Z M 387.80 128.00 L 379.10 134.10 L 370.70 140.50 L 362.70 147.20 L 354.90 154.30 L 344.90 164.20 L 335.30 174.50 L 326.20 185.30 L 317.40 196.30 L 300.90 219.10 L 291.00 212.80 L 287.50 211.00 L 283.90 209.70 L 280.00 208.90 L 275.20 208.70 L 270.40 209.00 L 260.90 210.60 L 227.50 219.30 L 142.90 243.90 L 136.30 246.20 L 130.10 249.00 L 126.10 251.20 L 122.30 253.80 L 118.70 256.80 L 115.60 260.20 L 112.90 264.00 L 111.40 266.80 L 109.40 272.60 L 109.10 275.60 L 109.20 278.70 L 109.90 281.80 L 111.00 284.80 L 113.90 290.10 L 116.80 293.70 L 120.10 297.00 L 134.80 308.50 L 126.10 324.00 L 123.70 329.40 L 121.30 336.90 L 120.70 340.70 L 120.60 344.50 L 121.00 348.30 L 122.10 352.30 L 123.60 355.80 L 125.60 358.80 L 127.90 361.50 L 130.70 363.80 L 133.60 365.70 L 136.90 367.40 L 143.90 369.60 L 151.20 370.60 L 158.40 370.40 L 170.20 369.00 L 181.90 367.10 L 216.90 360.40 L 228.70 358.50 L 244.40 356.90 L 252.30 356.60 L 252.80 362.70 L 252.50 365.60 L 251.50 369.80 L 250.00 373.90 L 244.20 386.10 L 242.50 390.30 L 241.20 394.50 L 240.40 398.90 L 239.90 405.80 L 239.80 412.80 L 240.10 419.70 L 241.30 430.00 L 246.20 461.00 L 250.10 478.10 L 253.30 487.40 L 257.10 494.00 L 259.40 497.00 L 262.10 499.80 L 265.30 502.20 L 273.10 505.80 L 277.20 507.10 L 283.40 508.40 L 315.40 511.50 L 308.60 513.40 L 299.90 514.20 L 278.70 513.10 L 273.40 513.10 L 268.20 513.50 L 262.90 514.50 L 257.80 516.60 L 253.00 519.10 L 248.30 522.00 L 239.80 528.80 L 235.90 532.70 L 228.80 541.20 L 222.00 551.90 L 218.70 558.20 L 213.00 571.20 L 210.00 580.10 L 207.50 589.20 L 205.50 598.50 L 203.90 607.90 L 202.80 617.30 L 202.10 626.80 L 201.80 636.30 L 202.00 655.20 L 203.40 667.40 L 205.20 679.60 L 207.60 691.60 L 210.40 703.60 L 213.80 715.40 L 217.60 727.10 L 221.80 738.60 L 226.60 750.00 L 231.70 761.10 L 237.30 772.10 L 243.30 782.80 L 249.80 793.20 L 254.90 800.80 L 260.30 808.10 L 266.10 815.20 L 272.20 822.00 L 278.60 828.50 L 285.20 834.70 L 292.20 840.50 L 299.40 846.10 L 306.90 851.30 L 314.60 856.10 L 322.50 860.60 L 330.60 864.70 L 339.00 868.40 L 347.50 871.60 L 356.10 874.40 L 365.00 876.90 L 368.00 900.10 L 369.40 905.80 L 371.30 911.20 L 373.00 914.60 L 375.00 917.90 L 377.50 921.10 L 381.90 925.30 L 386.70 929.10 L 391.80 932.30 L 397.20 935.00 L 402.80 937.40 L 408.70 939.30 L 417.60 941.60 L 426.50 943.30 L 445.70 945.40 L 465.00 946.20 L 484.30 945.50 L 493.90 944.60 L 503.50 943.10 L 512.90 941.20 L 517.70 939.90 L 522.40 938.30 L 526.90 936.20 L 531.20 933.80 L 535.30 931.00 L 539.00 927.80 L 542.50 924.30 L 545.50 920.40 L 548.10 916.10 L 550.40 911.70 L 552.00 907.10 L 553.20 902.40 L 556.10 888.00 L 557.30 883.20 L 558.90 878.60 L 567.70 876.90 L 572.20 876.70 L 576.70 876.80 L 585.60 878.10 L 587.40 883.10 L 588.70 888.40 L 591.60 904.40 L 593.10 909.50 L 594.40 912.80 L 596.10 916.00 L 601.40 923.10 L 604.90 926.70 L 608.60 929.90 L 612.50 932.70 L 618.20 936.00 L 624.10 938.70 L 630.40 941.00 L 643.30 944.30 L 650.00 945.40 L 669.70 947.60 L 689.40 947.40 L 699.40 946.70 L 709.30 945.50 L 722.20 942.90 L 728.50 941.10 L 734.70 938.80 L 740.70 936.20 L 746.60 933.00 L 750.00 930.80 L 755.70 925.70 L 758.10 922.80 L 761.00 918.70 L 763.50 914.30 L 765.60 909.60 L 768.30 902.30 L 770.40 894.80 L 773.50 879.70 L 777.70 846.40 L 780.80 813.00 L 781.70 796.30 L 782.10 779.50 L 783.40 762.60 L 784.30 745.70 L 784.60 734.40 L 784.30 711.90 L 782.70 689.40 L 781.40 678.20 L 815.70 644.00 L 826.30 631.90 L 840.10 613.60 L 848.40 601.30 L 856.10 588.70 L 863.40 575.70 L 868.90 565.10 L 873.90 554.40 L 878.60 543.50 L 882.90 532.40 L 886.80 521.20 L 890.20 509.80 L 893.30 498.40 L 895.80 486.80 L 898.00 475.20 L 899.60 463.40 L 901.20 456.30 L 904.50 447.90 L 911.80 433.30 L 913.40 429.10 L 914.50 424.70 L 915.20 420.20 L 915.10 411.20 L 914.60 406.70 L 913.20 399.90 L 911.30 393.50 L 909.40 388.80 L 906.90 384.40 L 898.40 371.90 L 894.70 364.50 L 893.20 357.90 L 889.50 332.60 L 886.40 318.80 L 882.70 308.10 L 880.80 304.30 L 874.00 293.10 L 872.00 289.30 L 870.50 285.30 L 869.80 282.60 L 869.50 279.80 L 869.70 264.90 L 869.30 253.00 L 866.10 205.60 L 864.50 195.20 L 863.30 190.00 L 861.60 184.90 L 859.60 180.00 L 857.10 175.30 L 854.30 170.90 L 851.00 166.80 L 847.40 163.10 L 844.40 160.70 L 841.10 158.50 L 837.50 156.70 L 828.20 153.10 L 822.70 151.70 L 817.20 150.90 L 811.60 150.60 L 806.10 150.70 L 800.40 151.20 L 792.00 152.60 L 783.70 154.50 L 767.40 159.20 L 741.00 136.70 L 725.70 125.10 L 719.30 120.90 L 702.60 111.30 L 692.50 105.90 L 682.20 101.00 L 671.70 96.60 L 661.00 92.50 L 650.20 89.00 L 639.20 85.80 L 628.20 83.10 L 617.00 80.80 L 605.80 78.90 L 594.40 77.50 L 583.10 76.40 L 571.70 75.80 L 560.30 75.60 L 548.80 75.90 L 537.40 76.50 L 526.00 77.60 L 514.70 79.10 L 503.40 80.90 L 492.10 83.20 L 481.00 85.90 L 470.00 89.00 L 459.10 92.50 L 448.40 96.40 L 437.80 100.70 L 427.40 105.40 L 417.20 110.40 L 407.20 115.90 L 397.40 121.80 L 387.80 128.00 Z" fill="#e5c6bd" fill-rule="nonzero" node-id="85" stroke="none" target-height="880" target-width="814.3" target-x="105" target-y="72"></path><path d="M 369.10 163.40 L 377.80 155.90 L 386.80 148.90 L 396.00 142.20 L 405.50 135.90 L 415.30 130.00 L 425.40 124.50 L 435.60 119.40 L 445.90 114.80 L 456.50 110.50 L 467.30 106.60 L 478.20 103.20 L 489.20 100.10 L 500.30 97.60 L 511.50 95.40 L 522.90 93.70 L 534.20 92.30 L 545.60 91.50 L 557.00 91.10 L 568.40 91.10 L 579.90 91.60 L 591.30 92.50 L 602.60 93.90 L 613.80 95.70 L 625.00 98.00 L 646.30 103.70 L 656.40 107.10 L 666.20 110.80 L 675.90 115.00 L 685.50 119.70 L 694.80 124.70 L 704.00 130.00 L 712.90 135.70 L 721.50 141.80 L 736.30 153.40 L 742.30 158.90 L 765.70 181.50 L 779.40 174.60 L 789.00 170.80 L 798.80 168.30 L 803.90 167.60 L 812.90 167.50 L 816.80 168.00 L 820.60 168.90 L 827.80 171.80 L 831.20 173.80 L 834.30 176.10 L 839.80 181.50 L 842.10 184.70 L 844.10 188.00 L 845.60 191.70 L 847.40 197.50 L 848.70 203.40 L 849.50 209.40 L 851.40 233.70 L 852.20 239.70 L 853.00 255.80 L 853.20 271.90 L 852.80 304.20 L 862.20 308.30 L 864.30 309.60 L 866.10 311.30 L 867.90 314.00 L 870.60 324.30 L 873.90 341.40 L 875.50 354.50 L 876.50 367.50 L 880.70 370.90 L 884.50 374.70 L 888.20 378.80 L 891.50 383.20 L 894.30 387.80 L 896.80 392.60 L 898.80 397.60 L 900.20 402.80 L 901.00 408.00 L 901.10 416.00 L 900.60 420.10 L 898.80 426.80 L 897.70 429.30 L 889.50 441.70 L 887.50 445.30 L 886.60 456.20 L 885.30 467.10 L 883.40 477.80 L 881.00 488.40 L 874.90 509.40 L 867.40 530.00 L 861.60 543.40 L 855.60 556.70 L 849.10 569.70 L 843.80 579.50 L 838.20 589.00 L 832.20 598.30 L 825.80 607.30 L 812.10 624.70 L 797.30 641.20 L 786.80 651.60 L 776.00 661.70 L 764.80 671.30 L 765.90 686.00 L 767.20 715.40 L 767.40 737.50 L 767.20 759.60 L 764.20 816.00 L 762.80 834.80 L 761.60 847.30 L 760.00 859.70 L 755.70 884.90 L 754.30 891.40 L 752.50 897.70 L 751.00 901.80 L 749.10 905.60 L 747.00 909.20 L 744.40 912.50 L 741.30 915.50 L 737.60 918.20 L 732.80 920.70 L 727.90 922.80 L 722.90 924.50 L 712.60 926.90 L 699.30 928.40 L 683.20 928.80 L 665.30 928.20 L 655.20 927.10 L 648.50 926.10 L 642.00 924.60 L 635.50 922.80 L 629.30 920.50 L 623.20 917.60 L 617.50 914.10 L 614.40 911.30 L 611.90 908.30 L 609.90 905.20 L 608.30 901.80 L 605.90 894.50 L 604.80 888.80 L 601.90 865.10 L 600.60 859.60 L 572.40 860.20 L 544.10 860.30 L 542.40 868.10 L 538.20 891.70 L 535.40 901.90 L 533.50 906.90 L 531.70 910.10 L 529.60 913.00 L 527.00 915.40 L 521.10 919.30 L 517.70 920.80 L 512.60 922.60 L 507.40 924.00 L 497.00 925.90 L 486.50 927.20 L 476.00 928.00 L 465.40 928.10 L 454.80 927.80 L 444.30 926.90 L 433.80 925.50 L 423.40 923.70 L 411.50 920.40 L 405.70 918.20 L 400.10 915.60 L 396.60 913.50 L 390.20 908.40 L 387.80 905.00 L 385.90 901.40 L 384.40 897.80 L 382.90 892.00 L 381.90 886.10 L 380.10 867.90 L 379.00 862.00 L 369.30 859.90 L 359.60 857.20 L 350.00 854.00 L 340.70 850.40 L 331.60 846.20 L 322.70 841.50 L 316.20 837.70 L 303.90 829.10 L 292.60 819.30 L 287.30 814.00 L 282.30 808.30 L 277.60 802.40 L 271.30 793.50 L 265.40 784.50 L 259.80 775.20 L 254.70 765.70 L 250.00 755.90 L 244.60 743.50 L 239.70 730.90 L 235.50 718.10 L 231.80 705.00 L 228.60 691.80 L 226.10 678.50 L 224.00 665.10 L 222.50 651.70 L 222.00 638.10 L 222.10 624.20 L 222.50 614.90 L 223.40 605.60 L 224.80 596.50 L 227.90 583.00 L 232.30 570.10 L 235.20 563.90 L 238.40 557.90 L 242.20 552.00 L 246.40 546.40 L 249.60 542.90 L 253.00 539.70 L 256.70 536.90 L 264.70 532.40 L 273.40 529.20 L 277.90 528.10 L 284.00 527.30 L 290.20 527.00 L 296.40 527.50 L 301.00 528.20 L 309.80 530.70 L 314.10 532.50 L 318.10 534.70 L 322.00 537.20 L 325.60 540.10 L 329.10 543.40 L 333.60 549.90 L 337.60 556.70 L 341.10 563.70 L 344.20 570.90 L 346.80 578.20 L 349.10 585.80 L 352.60 601.10 L 355.50 620.70 L 356.70 632.40 L 364.20 621.40 L 385.50 587.80 L 366.00 575.60 L 359.80 571.10 L 355.90 567.90 L 352.40 564.30 L 349.00 560.40 L 346.20 555.30 L 345.40 552.70 L 344.60 548.50 L 343.90 531.30 L 343.40 527.10 L 328.50 506.80 L 321.80 496.20 L 310.00 496.40 L 298.20 496.00 L 292.30 495.10 L 286.70 493.60 L 283.10 492.30 L 279.60 490.50 L 276.20 488.40 L 274.20 486.70 L 271.20 482.80 L 269.70 479.30 L 268.50 475.70 L 266.90 468.30 L 262.20 443.40 L 260.20 430.80 L 258.80 418.20 L 258.40 409.80 L 258.40 401.40 L 259.40 390.10 L 260.10 387.60 L 261.30 385.20 L 263.50 381.80 L 271.60 372.50 L 270.30 359.30 L 269.20 352.70 L 267.60 346.20 L 266.20 342.00 L 262.30 334.20 L 210.50 344.80 L 175.80 351.30 L 155.80 354.10 L 150.40 353.50 L 147.70 352.70 L 142.80 350.20 L 140.80 348.50 L 139.10 346.60 L 137.80 344.40 L 137.10 342.00 L 136.90 339.40 L 137.40 336.40 L 141.90 328.70 L 144.60 325.20 L 149.00 320.30 L 158.90 311.30 L 174.60 299.00 L 159.90 297.40 L 152.60 296.20 L 145.50 294.50 L 140.90 293.00 L 136.40 291.00 L 130.30 287.50 L 127.70 284.40 L 126.30 281.60 L 125.50 278.50 L 125.50 274.40 L 126.70 270.60 L 127.80 268.80 L 129.20 267.20 L 132.20 264.80 L 138.70 260.80 L 144.00 258.50 L 149.50 256.50 L 160.50 253.00 L 186.20 246.00 L 263.80 226.50 L 274.30 224.50 L 276.90 224.50 L 279.30 225.00 L 282.10 226.70 L 283.50 228.20 L 287.30 236.90 L 294.60 262.00 L 297.10 268.70 L 301.10 258.70 L 310.30 239.30 L 315.40 229.90 L 320.80 220.60 L 326.60 211.60 L 332.80 202.80 L 339.30 194.30 L 346.20 186.10 L 353.50 178.20 L 361.10 170.70 L 369.10 163.40 Z M 461.10 124.60 L 455.20 127.00 L 452.40 128.50 L 449.90 130.50 L 441.40 133.80 L 433.10 137.50 L 425.00 141.60 L 417.20 146.10 L 407.00 152.70 L 397.10 159.80 L 387.60 167.40 L 378.40 175.40 L 369.60 183.80 L 354.80 199.20 L 343.00 213.50 L 337.60 221.00 L 332.50 228.80 L 323.40 244.80 L 319.30 253.20 L 315.60 261.70 L 312.30 270.30 L 309.40 279.10 L 305.30 293.20 L 304.50 298.50 L 304.10 303.80 L 304.60 325.20 L 304.20 343.80 L 304.30 357.00 L 304.70 370.20 L 305.50 383.40 L 306.80 396.60 L 308.60 409.70 L 310.80 422.70 L 313.50 435.60 L 316.70 448.40 L 319.50 457.50 L 322.70 466.50 L 326.40 475.30 L 330.60 483.90 L 335.30 492.20 L 340.40 500.30 L 349.20 511.60 L 359.00 521.90 L 364.30 526.60 L 369.90 531.00 L 375.80 535.00 L 382.00 538.80 L 396.60 546.40 L 404.10 550.00 L 411.80 553.10 L 422.20 556.30 L 427.60 557.40 L 432.60 559.90 L 437.70 561.90 L 442.90 563.60 L 450.90 565.70 L 459.10 567.30 L 486.70 572.60 L 498.20 574.20 L 521.20 576.40 L 544.30 577.20 L 561.60 577.30 L 593.30 576.40 L 607.60 575.30 L 621.80 573.50 L 636.00 571.20 L 650.00 568.30 L 664.00 564.90 L 677.80 561.00 L 691.40 556.50 L 706.50 551.10 L 713.90 548.10 L 721.20 544.70 L 730.40 539.30 L 734.70 536.10 L 737.30 536.10 L 739.70 535.00 L 750.30 528.60 L 758.30 522.90 L 766.10 516.80 L 773.50 510.30 L 780.60 503.50 L 787.30 496.40 L 791.60 491.40 L 799.20 480.90 L 804.40 472.60 L 819.00 447.10 L 817.00 443.80 L 811.20 429.90 L 809.20 426.80 L 807.30 426.90 L 807.90 425.20 L 808.80 423.80 L 814.20 419.40 L 816.70 423.10 L 819.50 426.60 L 826.10 432.70 L 830.30 443.20 L 845.90 443.00 L 854.40 441.90 L 860.80 439.60 L 862.90 438.20 L 864.50 436.60 L 865.90 434.50 L 866.90 432.30 L 867.40 430.00 L 867.50 427.60 L 867.10 425.30 L 866.20 423.20 L 864.80 421.20 L 861.60 417.90 L 858.20 415.30 L 854.50 413.10 L 850.50 411.40 L 846.40 410.30 L 842.10 409.70 L 837.80 409.60 L 833.50 410.00 L 829.30 411.00 L 825.20 412.40 L 821.30 414.40 L 817.70 417.00 L 812.50 409.80 L 814.30 407.60 L 813.80 408.50 L 832.30 402.10 L 837.00 400.80 L 841.70 400.10 L 844.90 400.00 L 851.50 401.00 L 855.50 402.00 L 859.30 403.40 L 862.90 405.20 L 866.30 407.40 L 872.40 412.70 L 877.60 419.00 L 879.80 422.40 L 884.40 423.70 L 885.20 408.40 L 871.20 400.30 L 886.60 400.90 L 884.10 395.90 L 875.70 381.20 L 872.30 378.90 L 868.80 377.20 L 865.10 376.20 L 861.40 375.70 L 857.60 375.70 L 853.80 376.20 L 846.40 378.50 L 842.90 380.20 L 836.40 384.50 L 833.40 387.10 L 831.00 396.30 L 822.30 400.10 L 819.70 401.90 L 817.30 403.90 L 815.30 406.50 L 811.90 399.60 L 812.50 395.30 L 812.10 398.20 L 820.10 391.10 L 823.20 386.90 L 824.30 383.70 L 824.70 369.20 L 824.30 356.60 L 823.20 344.00 L 820.40 325.30 L 816.10 306.80 L 810.40 288.80 L 806.90 280.00 L 803.10 271.30 L 792.60 250.20 L 780.80 229.80 L 774.30 219.90 L 767.50 210.30 L 760.40 200.90 L 752.90 191.90 L 745.00 183.10 L 736.80 174.70 L 728.10 166.80 L 719.10 159.10 L 712.70 154.20 L 699.50 144.90 L 687.80 138.40 L 677.90 134.40 L 673.80 131.40 L 669.50 128.80 L 665.00 126.60 L 657.90 123.70 L 650.60 121.20 L 636.10 116.70 L 625.30 114.00 L 614.40 111.70 L 603.50 109.80 L 592.40 108.40 L 581.30 107.40 L 570.20 106.90 L 559.10 106.80 L 548.00 107.10 L 536.90 107.80 L 525.80 108.90 L 514.80 110.50 L 503.90 112.50 L 493.00 114.90 L 482.30 117.70 L 471.60 121.00 L 461.10 124.60 Z M 773.50 191.70 L 793.00 221.60 L 799.10 231.70 L 806.60 245.70 L 813.00 259.10 L 818.30 271.70 L 821.70 281.40 L 831.10 310.80 L 839.10 307.30 L 839.50 246.30 L 839.10 231.00 L 838.20 215.80 L 836.80 206.00 L 835.60 201.10 L 833.90 196.50 L 832.50 193.50 L 828.80 188.20 L 826.50 186.00 L 823.90 184.10 L 820.70 182.50 L 816.60 181.30 L 812.60 180.50 L 808.60 180.30 L 800.50 181.10 L 790.50 183.90 L 784.70 186.30 L 773.50 191.70 Z M 137.70 276.70 L 141.90 279.20 L 146.10 281.20 L 150.50 282.80 L 159.60 284.80 L 171.40 285.90 L 185.70 286.40 L 195.70 287.10 L 198.50 287.00 L 201.30 286.50 L 205.20 285.20 L 212.70 281.10 L 223.60 274.20 L 214.00 281.20 L 199.80 290.50 L 195.90 293.80 L 185.20 304.70 L 164.40 323.00 L 159.00 328.20 L 155.70 331.90 L 152.60 335.80 L 149.90 340.10 L 156.00 340.30 L 162.00 339.90 L 167.90 339.00 L 238.30 325.30 L 290.60 314.10 L 287.40 294.90 L 283.80 275.80 L 275.40 237.90 L 222.80 249.30 L 193.70 256.30 L 170.80 263.10 L 159.60 267.10 L 148.60 271.70 L 137.70 276.70 Z M 830.10 323.70 L 831.40 332.40 L 832.90 350.00 L 833.80 376.50 L 846.90 370.40 L 861.80 367.70 L 859.40 345.30 L 857.90 334.20 L 855.90 323.20 L 843.00 323.10 L 830.10 323.70 Z M 277.90 329.20 L 283.90 356.90 L 285.50 366.20 L 291.20 367.30 L 291.00 326.90 L 277.90 329.20 Z M 269.90 396.90 L 274.80 424.00 L 286.90 477.60 L 300.50 482.20 L 316.00 481.30 L 314.00 472.70 L 305.30 438.60 L 303.50 430.00 L 301.50 418.90 L 296.50 385.20 L 288.70 385.40 L 284.70 385.90 L 278.70 387.80 L 274.50 390.40 L 272.70 392.20 L 271.20 394.30 L 269.90 396.90 Z M 853.50 447.80 L 840.70 450.10 L 836.50 451.20 L 832.40 452.70 L 828.70 454.60 L 824.30 458.10 L 819.30 464.80 L 816.50 469.40 L 814.10 474.10 L 811.00 481.50 L 798.70 517.30 L 783.30 555.40 L 778.30 568.10 L 773.90 581.10 L 773.70 571.20 L 774.00 561.40 L 774.70 551.60 L 747.50 572.10 L 750.00 581.70 L 752.00 591.40 L 753.60 601.20 L 758.60 640.60 L 760.10 650.40 L 763.00 653.30 L 773.00 644.30 L 782.60 634.80 L 791.80 625.00 L 800.50 614.80 L 808.70 604.20 L 816.60 593.30 L 824.00 582.20 L 830.90 570.70 L 837.50 558.90 L 843.60 546.90 L 849.20 534.80 L 854.40 522.30 L 859.20 509.70 L 863.50 497.00 L 867.30 484.20 L 872.10 464.90 L 873.00 458.60 L 873.50 452.20 L 873.50 445.70 L 873.00 439.30 L 872.10 433.00 L 863.00 440.70 L 853.50 447.80 Z M 745.80 543.10 L 727.50 553.00 L 708.60 561.40 L 695.70 566.20 L 682.60 570.50 L 669.30 574.20 L 655.80 577.40 L 642.30 580.20 L 628.60 582.50 L 601.20 585.80 L 587.50 586.90 L 572.40 587.60 L 557.20 587.80 L 542.10 587.50 L 527.00 586.80 L 511.90 585.60 L 496.90 583.90 L 482.00 581.70 L 467.10 579.00 L 452.30 575.80 L 437.70 572.10 L 423.20 567.80 L 408.80 563.00 L 396.80 558.10 L 382.50 550.60 L 357.10 536.30 L 358.30 545.00 L 359.40 549.30 L 361.00 553.30 L 362.40 555.70 L 364.30 557.90 L 366.60 560.00 L 372.80 564.70 L 379.20 569.10 L 385.80 573.10 L 399.70 580.10 L 417.70 587.50 L 428.70 591.50 L 442.00 595.40 L 455.40 598.90 L 468.90 602.00 L 482.60 604.70 L 496.40 606.90 L 510.20 608.70 L 524.10 610.00 L 537.90 610.90 L 551.80 611.40 L 565.80 611.30 L 579.70 610.80 L 593.50 609.80 L 607.30 608.40 L 621.00 606.40 L 634.70 603.90 L 648.30 601.00 L 661.70 597.50 L 675.00 593.40 L 688.20 588.90 L 709.70 580.20 L 718.10 576.20 L 726.40 571.90 L 734.50 567.10 L 742.20 562.00 L 749.70 556.40 L 756.90 550.50 L 763.70 544.20 L 770.00 537.40 L 778.70 526.50 L 786.20 514.70 L 779.30 519.20 L 759.50 534.10 L 752.80 538.80 L 745.80 543.10 Z M 250.10 567.30 L 247.20 572.10 L 244.80 577.00 L 243.00 582.10 L 240.30 592.80 L 239.40 598.30 L 237.20 614.70 L 237.00 625.90 L 237.20 637.10 L 237.90 648.20 L 239.10 659.40 L 240.70 670.50 L 242.80 681.50 L 245.20 692.40 L 248.10 703.30 L 251.40 714.00 L 255.00 724.60 L 263.40 745.40 L 268.40 756.00 L 274.10 766.30 L 277.50 771.10 L 281.40 775.50 L 281.90 780.90 L 287.90 789.00 L 294.30 796.60 L 301.10 803.80 L 308.40 810.50 L 316.10 816.80 L 324.10 822.60 L 332.50 827.90 L 341.20 832.70 L 350.10 837.10 L 359.30 840.90 L 368.70 844.20 L 378.30 846.90 L 379.60 813.10 L 380.80 804.30 L 381.50 795.40 L 382.10 777.60 L 371.80 779.50 L 361.60 779.50 L 351.40 779.00 L 330.90 777.50 L 330.30 775.50 L 320.20 770.90 L 315.40 768.10 L 310.90 764.80 L 308.20 762.40 L 303.40 756.70 L 301.30 753.20 L 299.90 749.50 L 299.00 745.60 L 298.60 741.60 L 298.70 737.60 L 299.20 733.50 L 300.00 729.50 L 302.70 722.00 L 307.10 712.50 L 312.00 703.20 L 335.80 663.80 L 337.50 660.00 L 340.10 652.00 L 337.50 617.30 L 335.70 600.00 L 333.40 588.90 L 331.80 583.40 L 327.70 572.80 L 325.10 567.70 L 322.20 562.80 L 318.90 558.30 L 315.30 554.00 L 311.30 550.00 L 306.90 546.40 L 302.00 543.20 L 300.00 543.90 L 294.00 541.10 L 288.00 539.80 L 283.80 539.70 L 279.70 540.20 L 275.70 541.20 L 271.70 542.70 L 267.90 544.70 L 264.30 547.10 L 261.00 549.80 L 258.00 552.80 L 255.30 556.20 L 253.10 559.70 L 251.30 563.40 L 250.10 567.30 Z M 724.50 586.50 L 706.40 593.50 L 687.90 600.20 L 675.50 604.40 L 650.50 611.80 L 637.80 615.00 L 625.00 617.60 L 612.20 619.80 L 592.80 621.90 L 583.00 622.40 L 546.30 622.70 L 532.90 622.50 L 519.50 621.70 L 508.30 620.60 L 497.10 618.90 L 452.90 610.10 L 430.70 606.10 L 413.00 598.50 L 394.80 592.00 L 395.80 595.70 L 384.40 613.00 L 338.60 685.80 L 326.10 707.20 L 315.60 728.50 L 314.40 732.00 L 313.50 735.70 L 313.20 739.40 L 313.40 743.00 L 314.10 746.60 L 315.10 749.20 L 318.00 754.00 L 320.10 756.20 L 319.20 758.10 L 321.60 757.50 L 325.70 760.20 L 330.00 762.30 L 334.50 764.00 L 339.10 765.30 L 348.60 766.80 L 355.90 767.30 L 367.20 767.30 L 371.30 766.80 L 375.40 765.90 L 379.20 764.50 L 381.60 763.30 L 385.90 759.80 L 388.30 757.30 L 390.20 754.80 L 391.50 752.10 L 393.30 746.30 L 393.80 738.60 L 393.50 733.70 L 390.70 714.90 L 389.80 699.80 L 389.40 684.70 L 389.50 669.60 L 390.00 654.50 L 392.40 632.50 L 392.50 627.10 L 392.10 621.50 L 399.80 609.70 L 400.40 611.80 L 401.00 616.50 L 401.30 621.20 L 401.20 626.00 L 398.80 650.70 L 398.20 663.20 L 397.90 675.70 L 398.00 688.20 L 398.60 700.70 L 399.70 713.10 L 401.20 725.50 L 403.30 737.70 L 406.00 749.90 L 409.20 761.90 L 413.10 773.80 L 412.90 781.90 L 405.40 776.40 L 403.50 767.60 L 400.60 759.20 L 397.40 770.60 L 396.30 776.50 L 393.50 813.50 L 393.10 825.80 L 393.30 834.00 L 396.20 872.20 L 398.70 893.80 L 401.70 897.70 L 405.10 901.20 L 407.10 902.60 L 409.40 903.60 L 416.10 906.10 L 422.80 908.10 L 429.70 909.70 L 436.60 910.90 L 450.60 912.20 L 461.20 912.50 L 471.90 912.40 L 493.00 911.60 L 502.20 910.30 L 506.90 909.20 L 511.50 907.80 L 516.90 904.90 L 519.20 903.00 L 521.10 900.80 L 522.60 898.10 L 523.70 894.90 L 525.60 884.30 L 530.00 852.20 L 499.60 845.70 L 492.10 843.60 L 484.80 840.90 L 543.60 845.60 L 563.30 846.20 L 573.20 846.00 L 588.60 845.20 L 603.90 843.80 L 619.30 842.00 L 665.10 835.40 L 653.90 840.30 L 622.10 850.80 L 613.60 854.20 L 615.90 873.60 L 617.20 883.30 L 619.00 892.90 L 619.70 895.40 L 620.70 897.70 L 623.80 901.60 L 627.90 904.80 L 631.30 906.70 L 634.80 908.20 L 641.30 910.20 L 647.90 911.80 L 654.50 913.00 L 668.10 914.40 L 674.90 914.60 L 695.30 914.20 L 707.30 912.90 L 713.30 911.70 L 719.10 910.20 L 726.60 907.20 L 730.20 905.20 L 733.80 902.30 L 737.20 897.60 L 741.80 888.20 L 742.30 881.40 L 745.70 854.40 L 745.90 847.60 L 748.60 829.50 L 750.30 806.50 L 751.60 779.00 L 752.50 765.20 L 753.30 743.00 L 753.50 720.70 L 753.10 698.40 L 751.20 653.90 L 748.70 622.10 L 747.00 593.20 L 746.00 583.70 L 744.50 574.10 L 733.90 579.40 L 730.50 581.30 L 727.30 583.70 L 724.50 586.50 Z" fill="#26192d" fill-rule="nonzero" node-id="87" stroke="none" target-height="837.7" target-width="775.6" target-x="125.5" target-y="91.1"></path><path d="M 461.10 124.60 L 471.60 121.00 L 482.30 117.70 L 493.00 114.90 L 503.90 112.50 L 514.80 110.50 L 525.80 108.90 L 536.90 107.80 L 548.00 107.10 L 559.10 106.80 L 570.20 106.90 L 581.30 107.40 L 592.40 108.40 L 603.50 109.80 L 614.40 111.70 L 625.30 114.00 L 636.10 116.70 L 657.90 123.70 L 665.00 126.60 L 669.50 128.80 L 673.80 131.40 L 677.90 134.40 L 689.00 160.70 L 691.40 167.50 L 693.30 174.30 L 694.80 183.70 L 695.10 188.50 L 695.10 190.90 L 694.70 193.20 L 693.90 195.40 L 692.10 198.50 L 689.90 201.30 L 669.70 195.20 L 649.10 190.50 L 628.20 187.40 L 607.20 185.60 L 593.10 185.30 L 579.10 185.60 L 549.70 187.60 L 534.30 189.20 L 519.10 191.40 L 503.90 194.00 L 488.80 197.30 L 473.80 201.00 L 459.00 205.40 L 444.50 210.30 L 430.00 215.80 L 420.00 220.20 L 410.20 225.10 L 400.70 230.60 L 393.70 235.00 L 380.60 244.80 L 374.40 250.20 L 368.50 255.90 L 362.90 261.90 L 357.60 268.20 L 352.70 274.90 L 348.90 280.80 L 345.40 286.90 L 342.20 293.10 L 338.10 302.80 L 334.60 312.70 L 328.80 333.00 L 326.40 344.20 L 324.50 355.50 L 322.80 370.60 L 322.40 385.80 L 323.50 401.10 L 321.80 411.00 L 319.40 406.20 L 315.60 396.10 L 314.30 390.90 L 313.40 385.60 L 312.50 365.80 L 312.50 351.40 L 313.50 332.20 L 314.60 322.70 L 316.20 313.30 L 318.40 304.00 L 321.20 294.70 L 325.50 283.00 L 330.20 271.50 L 335.40 260.20 L 341.10 249.10 L 347.30 238.20 L 353.80 227.70 L 360.80 217.30 L 368.20 207.30 L 375.90 197.40 L 384.00 187.90 L 392.40 178.70 L 401.10 169.80 L 406.80 164.40 L 412.90 159.50 L 432.30 146.00 L 438.50 141.30 L 446.30 134.40 L 449.90 130.50 L 452.40 128.50 L 455.20 127.00 L 461.10 124.60 Z" fill="#ebb1b7" fill-rule="nonzero" node-id="89" stroke="none" target-height="304.2" target-width="382.59998" target-x="312.5" target-y="106.8"></path><path d="M 361.10 192.40 L 369.60 183.80 L 378.40 175.40 L 387.60 167.40 L 397.10 159.80 L 407.00 152.70 L 417.20 146.10 L 425.00 141.60 L 433.10 137.50 L 441.40 133.80 L 449.90 130.50 L 446.30 134.40 L 438.50 141.30 L 432.30 146.00 L 412.90 159.50 L 406.80 164.40 L 401.10 169.80 L 392.40 178.70 L 384.00 187.90 L 375.90 197.40 L 368.20 207.30 L 360.80 217.30 L 353.80 227.70 L 347.30 238.20 L 341.10 249.10 L 335.40 260.20 L 330.20 271.50 L 325.50 283.00 L 321.20 294.70 L 318.40 304.00 L 316.20 313.30 L 314.60 322.70 L 313.50 332.20 L 312.80 341.80 L 312.50 351.40 L 312.50 365.80 L 313.40 385.60 L 314.30 390.90 L 315.60 396.10 L 319.40 406.20 L 321.80 411.00 L 323.50 401.10 L 327.10 421.70 L 329.50 432.10 L 332.40 442.40 L 335.70 452.50 L 339.60 462.40 L 342.90 469.70 L 346.50 476.70 L 350.40 483.50 L 354.70 490.10 L 359.40 496.40 L 364.50 502.40 L 370.10 508.10 L 376.00 513.50 L 386.50 521.80 L 400.60 530.80 L 409.40 535.60 L 427.40 544.30 L 437.70 549.70 L 448.40 554.10 L 459.60 557.20 L 443.60 557.10 L 427.60 557.40 L 416.90 554.90 L 404.10 550.00 L 396.60 546.40 L 382.00 538.80 L 375.80 535.00 L 369.90 531.00 L 364.30 526.60 L 359.00 521.90 L 349.20 511.60 L 340.40 500.30 L 335.30 492.20 L 330.60 483.90 L 326.40 475.30 L 322.70 466.50 L 319.50 457.50 L 316.70 448.40 L 313.50 435.60 L 310.80 422.70 L 308.60 409.70 L 306.80 396.60 L 305.50 383.40 L 304.70 370.20 L 304.30 357.00 L 304.20 343.80 L 304.60 325.20 L 304.10 309.10 L 304.50 298.50 L 305.30 293.20 L 309.40 279.10 L 312.30 270.30 L 315.60 261.70 L 319.30 253.20 L 327.80 236.70 L 332.50 228.80 L 343.00 213.50 L 354.80 199.20 L 361.10 192.40 Z" fill="#edd5ce" fill-rule="nonzero" node-id="91" stroke="none" target-height="426.90002" target-width="155.5" target-x="304.1" target-y="130.5"></path><path d="M 677.90 134.40 L 682.90 136.20 L 692.60 140.80 L 699.50 144.90 L 712.70 154.20 L 719.10 159.10 L 728.10 166.80 L 736.80 174.70 L 745.00 183.10 L 752.90 191.90 L 760.40 200.90 L 767.50 210.30 L 774.30 219.90 L 780.80 229.80 L 792.60 250.20 L 798.00 260.70 L 806.90 280.00 L 813.40 297.70 L 818.40 316.00 L 822.00 334.60 L 823.20 344.00 L 824.30 356.60 L 824.70 369.20 L 824.50 381.90 L 823.90 385.40 L 821.80 389.10 L 820.10 391.10 L 812.10 398.20 L 813.40 383.90 L 813.70 372.50 L 813.40 361.00 L 811.90 343.80 L 808.90 326.80 L 806.80 318.40 L 804.40 310.20 L 801.60 302.10 L 798.40 294.10 L 794.80 286.30 L 790.80 278.70 L 786.50 271.30 L 781.70 264.10 L 777.40 258.40 L 768.10 247.80 L 763.00 242.90 L 756.00 236.70 L 748.50 231.00 L 740.80 225.60 L 732.80 220.70 L 724.50 216.10 L 707.40 208.00 L 689.90 201.30 L 692.10 198.50 L 693.90 195.40 L 694.70 193.20 L 695.10 190.90 L 695.10 188.50 L 694.20 179.00 L 691.40 167.50 L 689.00 160.70 L 677.90 134.40 Z" fill="#cc869e" fill-rule="nonzero" node-id="93" stroke="none" target-height="263.80002" target-width="146.79999" target-x="677.9" target-y="134.4"></path><path d="M 773.50 191.70 L 784.70 186.30 L 790.50 183.90 L 800.50 181.10 L 808.60 180.30 L 812.60 180.50 L 816.60 181.30 L 820.70 182.50 L 823.90 184.10 L 826.50 186.00 L 828.80 188.20 L 830.80 190.70 L 833.90 196.50 L 835.60 201.10 L 837.70 211.00 L 838.20 215.80 L 839.10 231.00 L 839.50 246.30 L 839.10 307.30 L 831.10 310.80 L 821.70 281.40 L 818.30 271.70 L 813.00 259.10 L 806.60 245.70 L 799.10 231.70 L 793.00 221.60 L 773.50 191.70 Z" fill="#ce849a" fill-rule="nonzero" node-id="95" stroke="none" target-height="130.49998" target-width="66" target-x="773.5" target-y="180.3"></path><path d="M 137.70 276.70 L 148.60 271.70 L 159.60 267.10 L 170.80 263.10 L 193.70 256.30 L 222.80 249.30 L 275.40 237.90 L 283.80 275.80 L 287.40 294.90 L 290.60 314.10 L 238.30 325.30 L 167.90 339.00 L 162.00 339.90 L 156.00 340.30 L 149.90 340.10 L 152.60 335.80 L 155.70 331.90 L 159.00 328.20 L 164.40 323.00 L 185.20 304.70 L 195.90 293.80 L 199.80 290.50 L 214.00 281.20 L 223.60 274.20 L 212.70 281.10 L 205.20 285.20 L 201.30 286.50 L 198.50 287.00 L 195.70 287.10 L 185.70 286.40 L 171.40 285.90 L 159.60 284.80 L 150.50 282.80 L 146.10 281.20 L 141.90 279.20 L 137.70 276.70 Z M 235.60 279.90 L 208.20 305.90 L 201.60 312.70 L 195.50 319.80 L 202.50 315.00 L 215.80 304.50 L 234.80 287.60 L 251.70 271.40 L 260.30 261.80 L 266.30 253.30 L 262.20 255.50 L 254.90 260.70 L 249.90 265.30 L 235.60 279.90 Z" fill="#f4bc9d" fill-rule="nonzero" node-id="97" stroke="none" target-height="102.399994" target-width="152.90001" target-x="137.7" target-y="237.9"></path><path d="M 397.40 256.80 L 402.60 253.20 L 408.10 250.00 L 419.40 244.50 L 422.00 271.80 L 422.80 285.50 L 423.10 308.30 L 421.90 326.50 L 420.80 335.50 L 419.10 344.50 L 417.00 353.40 L 414.30 361.00 L 410.40 368.10 L 405.30 374.20 L 402.40 376.90 L 399.20 379.30 L 395.80 381.30 L 392.10 382.80 L 388.30 384.00 L 384.20 384.60 L 387.10 375.90 L 388.10 371.50 L 388.90 364.80 L 389.30 357.90 L 389.50 330.50 L 390.20 318.10 L 391.40 305.70 L 393.20 293.50 L 395.50 281.30 L 401.10 257.20 L 397.40 256.80 Z" fill="#a1a0aa" fill-rule="nonzero" node-id="99" stroke="none" target-height="140.1" target-width="38.899994" target-x="384.2" target-y="244.5"></path><path d="M 235.60 279.90 L 249.90 265.30 L 254.90 260.70 L 262.20 255.50 L 266.30 253.30 L 263.40 257.60 L 257.00 265.70 L 246.10 276.90 L 234.80 287.60 L 215.80 304.50 L 202.50 315.00 L 195.50 319.80 L 201.60 312.70 L 208.20 305.90 L 235.60 279.90 Z" fill="#c68e84" fill-rule="nonzero" node-id="101" stroke="none" target-height="66.499985" target-width="70.79999" target-x="195.5" target-y="253.3"></path><path d="M 363.40 296.70 L 365.90 291.30 L 368.70 286.10 L 372.00 281.20 L 379.40 272.10 L 388.00 263.90 L 397.40 256.80 L 401.10 257.20 L 395.50 281.30 L 393.20 293.50 L 391.40 305.70 L 390.20 318.10 L 389.50 330.50 L 389.30 357.90 L 388.90 364.80 L 388.10 371.50 L 385.90 380.30 L 384.20 384.60 L 377.50 379.20 L 374.40 376.10 L 371.70 372.70 L 369.50 369.10 L 367.70 365.10 L 364.70 356.90 L 362.10 348.50 L 360.60 342.70 L 358.70 331.10 L 358.20 325.20 L 358.30 319.40 L 358.70 313.60 L 359.70 307.90 L 361.20 302.20 L 363.40 296.70 Z" fill="#fdfcfa" fill-rule="nonzero" node-id="103" stroke="none" target-height="127.80002" target-width="42.899994" target-x="358.2" target-y="256.8"></path><path d="M 830.10 323.70 L 843.00 323.10 L 855.90 323.20 L 850.20 329.00 L 848.70 331.10 L 847.50 334.40 L 846.90 344.80 L 846.90 370.40 L 833.80 376.50 L 832.90 350.00 L 831.40 332.40 L 830.10 323.70 Z" fill="#d590a0" fill-rule="nonzero" node-id="105" stroke="none" target-height="53.399994" target-width="25.800049" target-x="830.1" target-y="323.1"></path><path d="M 855.90 323.20 L 857.90 334.20 L 859.40 345.30 L 861.80 367.70 L 846.90 370.40 L 846.90 344.80 L 847.50 334.40 L 848.70 331.10 L 850.20 329.00 L 855.90 323.20 Z" fill="#794c5f" fill-rule="nonzero" node-id="107" stroke="none" target-height="47.19998" target-width="14.899963" target-x="846.9" target-y="323.2"></path><path d="M 277.90 329.20 L 291.00 326.90 L 291.20 367.30 L 285.50 366.20 L 283.90 356.90 L 277.90 329.20 Z" fill="#fbf5eb" fill-rule="nonzero" node-id="109" stroke="none" target-height="40.399994" target-width="13.300018" target-x="277.9" target-y="326.9"></path><path d="M 833.40 387.10 L 839.50 382.20 L 842.90 380.20 L 846.40 378.50 L 853.80 376.20 L 857.60 375.70 L 861.40 375.70 L 865.10 376.20 L 868.80 377.20 L 872.30 378.90 L 875.70 381.20 L 866.70 388.70 L 860.30 393.20 L 856.80 395.00 L 849.80 397.00 L 835.30 398.80 L 833.40 387.10 Z" fill="#ebd3c4" fill-rule="nonzero" node-id="111" stroke="none" target-height="23.099976" target-width="42.299988" target-x="833.4" target-y="375.7"></path><path d="M 875.70 381.20 L 881.40 391.00 L 886.60 400.90 L 871.20 400.30 L 885.20 408.40 L 884.40 423.70 L 879.80 422.40 L 877.60 419.00 L 872.40 412.70 L 866.30 407.40 L 862.90 405.20 L 859.30 403.40 L 855.50 402.00 L 851.50 401.00 L 844.90 400.00 L 841.70 400.10 L 837.00 400.80 L 832.30 402.10 L 813.80 408.50 L 817.30 403.90 L 819.70 401.90 L 825.10 398.70 L 831.00 396.30 L 833.40 387.10 L 835.30 398.80 L 849.80 397.00 L 856.80 395.00 L 860.30 393.20 L 866.70 388.70 L 875.70 381.20 Z" fill="#c19790" fill-rule="nonzero" node-id="113" stroke="none" target-height="42.5" target-width="72.79999" target-x="813.8" target-y="381.2"></path><path d="M 269.90 396.90 L 271.20 394.30 L 272.70 392.20 L 274.50 390.40 L 278.70 387.80 L 284.70 385.90 L 288.70 385.40 L 296.50 385.20 L 301.50 418.90 L 303.50 430.00 L 305.30 438.60 L 314.00 472.70 L 316.00 481.30 L 300.50 482.20 L 286.40 426.00 L 280.20 397.70 L 269.90 396.90 Z" fill="#e6afb5" fill-rule="nonzero" node-id="115" stroke="none" target-height="97" target-width="46.100006" target-x="269.9" target-y="385.2"></path><path d="M 335.00 390.00 L 342.80 422.80 L 346.50 433.40 L 351.00 442.50 L 356.10 449.90 L 360.40 455.10 L 379.40 474.50 L 383.90 479.50 L 374.10 493.90 L 368.30 486.50 L 362.90 478.80 L 357.90 470.80 L 353.40 462.50 L 349.30 453.90 L 345.70 445.20 L 342.60 436.30 L 340.00 427.30 L 337.90 418.00 L 336.40 408.80 L 335.40 399.40 L 335.00 390.00 Z" fill="#4a3853" fill-rule="nonzero" node-id="117" stroke="none" target-height="103.899994" target-width="48.899994" target-x="335" target-y="390"></path><path d="M 269.90 396.90 L 280.20 397.70 L 286.40 426.00 L 300.50 482.20 L 286.90 477.60 L 274.80 424.00 L 269.90 396.90 Z" fill="#955173" fill-rule="nonzero" node-id="119" stroke="none" target-height="85.30002" target-width="30.600006" target-x="269.9" target-y="396.9"></path><path d="M 542.70 413.70 L 548.20 411.30 L 553.80 409.40 L 559.50 407.80 L 565.40 406.60 L 573.30 405.60 L 581.20 405.20 L 589.10 405.50 L 597.10 406.40 L 604.90 407.90 L 612.50 409.90 L 619.30 412.10 L 645.50 422.50 L 652.30 424.50 L 667.70 426.70 L 683.20 428.10 L 681.90 433.90 L 664.50 441.60 L 668.30 449.60 L 672.90 457.20 L 676.80 461.50 L 679.20 463.30 L 683.50 465.90 L 687.90 468.10 L 692.50 470.00 L 699.50 472.30 L 721.30 477.50 L 713.90 483.30 L 706.80 489.60 L 693.30 496.20 L 679.50 502.40 L 665.50 508.20 L 654.90 512.20 L 644.10 515.80 L 633.30 519.00 L 622.30 521.80 L 611.20 524.20 L 600.10 526.00 L 588.90 527.30 L 577.50 528.00 L 565.30 527.90 L 553.20 527.20 L 541.20 525.80 L 529.20 524.00 L 517.30 521.60 L 505.50 518.80 L 482.20 512.00 L 470.70 508.00 L 453.60 501.60 L 436.80 494.80 L 419.80 509.20 L 413.70 513.30 L 410.50 514.80 L 407.10 516.00 L 403.50 516.70 L 399.60 516.90 L 394.90 513.50 L 386.20 506.20 L 380.00 500.20 L 374.10 493.90 L 387.30 474.60 L 395.30 483.10 L 401.20 488.10 L 404.40 490.00 L 409.20 491.70 L 418.00 492.30 L 430.10 491.80 L 442.20 489.60 L 453.80 486.10 L 459.50 483.80 L 463.90 481.40 L 468.30 478.40 L 473.40 473.70 L 475.50 471.00 L 477.10 468.00 L 478.20 464.80 L 478.80 461.30 L 477.20 456.90 L 474.90 452.70 L 469.80 444.80 L 488.20 440.20 L 498.70 436.80 L 506.30 433.50 L 513.80 429.90 L 542.70 413.70 Z M 557.80 419.20 L 559.20 422.00 L 562.90 426.80 L 566.30 430.00 L 570.00 432.90 L 577.60 438.10 L 576.80 452.60 L 574.50 457.20 L 571.00 460.90 L 566.60 463.50 L 564.20 464.30 L 559.10 464.70 L 554.60 463.60 L 549.90 460.80 L 547.30 458.50 L 537.80 448.80 L 537.50 452.20 L 537.90 455.30 L 538.80 458.00 L 540.20 460.60 L 542.10 462.90 L 544.40 465.00 L 549.70 468.20 L 552.70 469.40 L 558.80 470.60 L 561.80 470.70 L 565.40 470.10 L 568.80 468.90 L 572.00 467.30 L 581.30 461.60 L 585.70 464.50 L 590.40 466.90 L 593.70 468.10 L 597.10 469.00 L 600.50 469.40 L 603.90 469.30 L 607.40 468.60 L 610.80 467.40 L 613.50 465.50 L 616.20 463.20 L 618.50 460.50 L 620.50 457.60 L 621.40 455.50 L 622.30 451.20 L 622.10 449.00 L 621.50 446.90 L 620.30 444.70 L 612.90 456.40 L 610.70 459.10 L 608.20 461.20 L 606.30 462.20 L 604.10 462.80 L 599.00 463.10 L 596.70 462.70 L 592.60 461.00 L 590.20 459.20 L 588.10 457.00 L 586.40 454.40 L 584.10 448.60 L 583.50 445.40 L 583.30 442.20 L 583.50 439.20 L 584.20 436.20 L 593.10 426.80 L 595.70 423.40 L 597.10 421.00 L 598.10 418.30 L 598.80 415.40 L 584.90 414.80 L 578.00 414.80 L 571.10 415.40 L 566.60 416.20 L 562.10 417.50 L 557.80 419.20 Z" fill="#f2dbc6" fill-rule="nonzero" node-id="121" stroke="none" target-height="122.79999" target-width="347.19998" target-x="374.1" target-y="405.2"></path><path d="M 817.60 417.00 L 821.30 414.40 L 825.20 412.40 L 829.30 411.00 L 833.50 410.00 L 837.80 409.60 L 842.10 409.70 L 846.40 410.30 L 850.50 411.40 L 854.50 413.10 L 858.20 415.30 L 861.60 417.90 L 864.80 421.20 L 854.90 423.50 L 845.20 426.10 L 835.60 429.20 L 826.10 432.70 L 819.50 426.60 L 816.70 423.10 L 814.20 419.40 L 817.60 417.00 Z" fill="#edd6c5" fill-rule="nonzero" node-id="123" stroke="none" target-height="23.100006" target-width="50.599976" target-x="814.2" target-y="409.6"></path><path d="M 787.10 448.70 L 788.50 442.50 L 792.20 430.40 L 795.60 421.60 L 799.50 412.90 L 798.20 427.90 L 796.80 436.20 L 794.30 442.00 L 792.50 444.60 L 790.20 446.80 L 787.10 448.70 Z" fill="#4d364a" fill-rule="nonzero" node-id="125" stroke="none" target-height="35.80002" target-width="12.400024" target-x="787.1" target-y="412.9"></path><path d="M 557.80 419.20 L 562.10 417.50 L 566.60 416.20 L 571.10 415.40 L 578.00 414.80 L 584.90 414.80 L 598.80 415.40 L 598.10 418.30 L 597.10 421.00 L 595.70 423.40 L 593.10 426.80 L 584.20 436.20 L 583.50 439.20 L 583.30 442.20 L 583.50 445.40 L 584.10 448.60 L 585.10 451.50 L 586.40 454.40 L 588.10 457.00 L 590.20 459.20 L 592.60 461.00 L 594.50 462.00 L 599.00 463.10 L 601.60 463.00 L 604.10 462.80 L 606.30 462.20 L 608.20 461.20 L 610.70 459.10 L 612.90 456.40 L 620.30 444.70 L 621.50 446.90 L 622.10 449.00 L 622.30 451.20 L 621.40 455.50 L 620.50 457.60 L 618.50 460.50 L 616.20 463.20 L 613.50 465.50 L 610.80 467.40 L 607.40 468.60 L 603.90 469.30 L 600.50 469.40 L 597.10 469.00 L 593.70 468.10 L 590.40 466.90 L 585.70 464.50 L 581.30 461.60 L 572.00 467.30 L 568.80 468.90 L 565.40 470.10 L 561.80 470.70 L 558.80 470.60 L 552.70 469.40 L 549.70 468.20 L 544.40 465.00 L 542.10 462.90 L 540.20 460.60 L 538.80 458.00 L 537.90 455.30 L 537.50 452.20 L 537.80 448.80 L 547.30 458.50 L 549.90 460.80 L 554.60 463.60 L 559.10 464.70 L 564.20 464.30 L 566.60 463.50 L 571.00 460.90 L 574.50 457.20 L 576.80 452.60 L 577.60 438.10 L 570.00 432.90 L 566.30 430.00 L 562.90 426.80 L 559.20 422.00 L 557.80 419.20 Z M 574.00 423.50 L 573.70 424.80 L 573.80 425.90 L 574.30 426.80 L 575.70 427.90 L 577.50 428.50 L 579.50 428.60 L 581.30 428.10 L 582.30 427.50 L 582.90 426.50 L 583.20 425.30 L 582.70 424.20 L 580.90 422.60 L 579.10 422.00 L 577.20 422.00 L 575.50 422.40 L 574.00 423.50 Z" fill="#2c1835" fill-rule="nonzero" node-id="127" stroke="none" target-height="55.900024" target-width="84.79999" target-x="537.5" target-y="414.8"></path><path d="M 574.00 423.50 L 575.50 422.40 L 577.20 422.00 L 579.10 422.00 L 580.90 422.60 L 582.70 424.20 L 583.20 425.30 L 582.90 426.50 L 582.30 427.50 L 581.30 428.10 L 579.50 428.60 L 577.50 428.50 L 575.70 427.90 L 574.30 426.80 L 573.80 425.90 L 573.70 424.80 L 574.00 423.50 Z" fill="#a57d7b" fill-rule="nonzero" node-id="129" stroke="none" target-height="6.600006" target-width="9.5" target-x="573.7" target-y="422"></path><path d="M 652.30 424.50 L 660.90 424.60 L 669.50 424.30 L 703.80 421.10 L 712.70 421.10 L 721.50 421.60 L 727.40 422.30 L 738.90 424.60 L 744.60 426.30 L 750.10 428.40 L 755.50 430.90 L 751.10 450.50 L 749.60 455.30 L 747.60 459.90 L 745.10 462.40 L 739.50 466.60 L 725.70 474.60 L 721.30 477.50 L 699.50 472.30 L 692.50 470.00 L 687.90 468.10 L 683.50 465.90 L 679.20 463.30 L 676.80 461.50 L 672.90 457.20 L 668.30 449.60 L 664.50 441.60 L 681.90 433.90 L 683.30 428.10 L 667.70 426.70 L 652.30 424.50 Z M 717.30 433.10 L 721.30 436.20 L 725.50 438.80 L 729.90 440.80 L 734.60 442.40 L 739.40 443.50 L 744.40 444.30 L 742.20 441.30 L 739.80 439.00 L 737.10 437.10 L 734.10 435.60 L 731.00 434.50 L 727.70 433.70 L 722.50 433.10 L 717.30 433.10 Z" fill="#e29ca5" fill-rule="nonzero" node-id="131" stroke="none" target-height="56.399994" target-width="103.20001" target-x="652.3" target-y="421.1"></path><path d="M 864.80 421.20 L 866.20 423.20 L 867.10 425.30 L 867.50 427.60 L 867.40 430.00 L 866.90 432.30 L 865.90 434.50 L 864.50 436.60 L 862.90 438.20 L 860.80 439.60 L 854.40 441.90 L 845.90 443.00 L 830.30 443.20 L 826.10 432.70 L 835.60 429.20 L 845.20 426.10 L 854.90 423.50 L 864.80 421.20 Z" fill="#bc8f91" fill-rule="nonzero" node-id="133" stroke="none" target-height="22" target-width="41.400024" target-x="826.1" target-y="421.2"></path><path d="M 807.30 426.90 L 809.20 426.80 L 811.20 429.90 L 817.00 443.80 L 819.00 447.10 L 804.40 472.60 L 799.20 480.90 L 791.60 491.40 L 787.30 496.40 L 780.60 503.50 L 773.50 510.30 L 766.10 516.80 L 758.30 522.90 L 750.30 528.60 L 739.70 535.00 L 737.30 536.10 L 734.70 536.10 L 715.30 531.50 L 723.80 527.40 L 732.30 522.80 L 740.70 517.80 L 748.90 512.40 L 756.80 506.60 L 764.30 500.40 L 771.60 493.80 L 778.30 486.80 L 784.50 479.50 L 788.80 473.70 L 792.70 467.60 L 796.20 461.40 L 799.40 454.90 L 802.10 448.30 L 804.30 441.40 L 806.10 434.30 L 807.30 426.90 Z" fill="#a7a2ab" fill-rule="nonzero" node-id="135" stroke="none" target-height="109.29999" target-width="103.70001" target-x="715.3" target-y="426.8"></path><path d="M 717.30 433.10 L 722.50 433.10 L 727.70 433.70 L 731.00 434.50 L 734.10 435.60 L 737.10 437.10 L 739.80 439.00 L 742.20 441.30 L 744.40 444.30 L 739.40 443.50 L 734.60 442.40 L 729.90 440.80 L 725.50 438.80 L 721.30 436.20 L 717.30 433.10 Z" fill="#c5768b" fill-rule="nonzero" node-id="137" stroke="none" target-height="11.199982" target-width="27.100037" target-x="717.3" target-y="433.1"></path><path d="M 755.50 430.90 L 761.00 434.50 L 766.10 438.60 L 770.90 443.10 L 775.30 448.00 L 779.10 453.30 L 782.50 459.00 L 781.70 463.20 L 779.00 468.10 L 772.70 476.10 L 766.80 482.50 L 760.60 488.50 L 754.10 494.10 L 747.30 499.40 L 737.90 505.90 L 728.20 512.00 L 718.00 517.50 L 707.60 522.50 L 697.10 527.00 L 686.30 531.20 L 675.30 535.00 L 653.40 541.50 L 643.00 544.00 L 632.40 545.90 L 621.80 547.20 L 633.00 539.20 L 638.90 535.60 L 675.30 515.90 L 686.80 508.50 L 692.30 504.40 L 697.40 499.90 L 702.20 495.00 L 706.80 489.60 L 717.50 480.30 L 725.70 474.60 L 739.50 466.60 L 745.10 462.40 L 747.60 459.90 L 749.60 455.30 L 752.30 445.60 L 755.50 430.90 Z" fill="#cd8f9d" fill-rule="nonzero" node-id="139" stroke="none" target-height="116.30002" target-width="160.70001" target-x="621.8" target-y="430.9"></path><path d="M 853.50 447.80 L 863.00 440.70 L 872.10 433.00 L 873.00 439.30 L 873.50 445.70 L 873.50 452.20 L 873.00 458.60 L 872.10 464.90 L 867.30 484.20 L 863.50 497.00 L 859.20 509.70 L 854.40 522.30 L 849.20 534.80 L 843.60 546.90 L 837.50 558.90 L 830.90 570.70 L 824.00 582.20 L 816.60 593.30 L 808.70 604.20 L 800.50 614.80 L 791.80 625.00 L 782.60 634.80 L 773.00 644.30 L 763.00 653.30 L 760.10 650.40 L 758.60 640.60 L 753.60 601.20 L 752.00 591.40 L 750.00 581.70 L 747.50 572.10 L 774.70 551.60 L 774.00 561.40 L 773.70 587.10 L 784.00 578.00 L 789.00 573.20 L 793.60 568.00 L 802.90 555.70 L 811.70 542.90 L 819.90 529.90 L 827.70 516.50 L 835.00 502.80 L 841.70 488.90 L 847.80 474.70 L 853.50 460.30 L 854.10 458.20 L 854.50 454.10 L 853.50 447.80 Z" fill="#d4aba6" fill-rule="nonzero" node-id="141" stroke="none" target-height="220.29999" target-width="126" target-x="747.5" target-y="433"></path><path d="M 387.30 474.60 L 396.40 465.70 L 406.50 458.00 L 417.40 451.60 L 429.10 446.60 L 441.20 443.00 L 453.80 440.90 L 461.00 440.70 L 482.80 441.40 L 469.80 444.80 L 474.90 452.70 L 477.20 456.90 L 478.80 461.30 L 478.30 464.80 L 477.10 468.00 L 475.50 471.00 L 471.00 476.20 L 468.30 478.40 L 463.90 481.40 L 459.50 483.80 L 453.80 486.10 L 442.20 489.60 L 430.10 491.80 L 418.00 492.30 L 409.20 491.70 L 404.40 490.00 L 401.20 488.10 L 395.30 483.10 L 387.30 474.60 Z" fill="#e299a4" fill-rule="nonzero" node-id="143" stroke="none" target-height="51.599976" target-width="95.5" target-x="387.3" target-y="440.7"></path><path d="M 822.40 460.50 L 826.40 456.20 L 828.70 454.60 L 832.40 452.70 L 836.50 451.20 L 840.70 450.10 L 853.50 447.80 L 854.50 454.10 L 854.10 458.20 L 847.80 474.70 L 841.70 488.90 L 835.00 502.80 L 827.70 516.50 L 819.90 529.90 L 811.70 542.90 L 802.90 555.70 L 793.60 568.00 L 789.00 573.20 L 784.00 578.00 L 773.70 587.10 L 773.90 581.10 L 778.30 568.10 L 783.30 555.40 L 798.70 517.30 L 811.00 481.50 L 814.10 474.10 L 816.50 469.40 L 819.30 464.80 L 822.40 460.50 Z" fill="#f3e3cb" fill-rule="nonzero" node-id="145" stroke="none" target-height="139.29999" target-width="80.79999" target-x="773.7" target-y="447.8"></path><path d="M 577.50 528.00 L 588.90 527.30 L 600.10 526.00 L 611.20 524.20 L 622.30 521.80 L 633.30 519.00 L 644.10 515.80 L 654.90 512.20 L 665.50 508.20 L 679.50 502.40 L 693.30 496.20 L 706.80 489.60 L 702.20 495.00 L 697.40 499.90 L 692.30 504.40 L 681.20 512.30 L 666.30 520.90 L 638.90 535.60 L 633.00 539.20 L 621.80 547.20 L 607.70 549.70 L 593.60 551.50 L 579.30 552.80 L 565.00 553.40 L 550.70 553.50 L 536.40 553.00 L 522.10 552.00 L 507.90 550.60 L 493.70 548.60 L 471.90 544.50 L 461.10 542.00 L 450.30 539.00 L 439.80 535.70 L 429.30 531.80 L 421.70 528.60 L 406.80 521.10 L 399.60 516.90 L 403.50 516.70 L 407.10 516.00 L 410.50 514.80 L 413.70 513.30 L 419.80 509.20 L 436.80 494.80 L 453.60 501.60 L 470.70 508.00 L 482.20 512.00 L 505.50 518.80 L 517.30 521.60 L 529.20 524.00 L 541.20 525.80 L 553.20 527.20 L 565.30 527.90 L 577.50 528.00 Z" fill="#d8b3ae" fill-rule="nonzero" node-id="147" stroke="none" target-height="63.899994" target-width="307.19998" target-x="399.6" target-y="489.6"></path><path d="M 374.00 657.20 L 381.90 638.70 L 386.90 628.80 L 392.10 621.50 L 392.50 627.10 L 392.40 632.50 L 390.00 654.50 L 389.50 669.60 L 389.40 684.70 L 389.80 699.80 L 390.70 714.90 L 389.40 706.80 L 388.60 698.70 L 388.10 690.60 L 388.20 666.30 L 386.60 666.50 L 386.20 679.60 L 385.40 692.80 L 384.20 705.90 L 382.50 718.90 L 380.50 731.90 L 379.70 735.20 L 378.50 738.20 L 376.90 741.00 L 374.80 743.40 L 372.40 745.60 L 369.70 747.50 L 363.80 750.30 L 354.20 752.30 L 328.10 756.10 L 319.20 758.10 L 324.90 745.50 L 332.40 727.80 L 339.10 714.50 L 344.70 704.90 L 368.60 666.90 L 374.00 657.20 Z" fill="#f4dbc7" fill-rule="nonzero" node-id="149" stroke="none" target-height="136.59998" target-width="73.29999" target-x="319.2" target-y="621.5"></path><path d="M 745.80 543.10 L 752.80 538.80 L 759.50 534.10 L 779.30 519.20 L 786.20 514.70 L 778.70 526.50 L 770.00 537.40 L 763.70 544.20 L 756.90 550.50 L 749.70 556.40 L 742.20 562.00 L 734.50 567.10 L 726.40 571.90 L 718.10 576.20 L 709.70 580.20 L 688.20 588.90 L 675.00 593.40 L 661.70 597.50 L 648.30 601.00 L 634.70 603.90 L 621.00 606.40 L 607.30 608.40 L 593.50 609.80 L 579.70 610.80 L 565.80 611.30 L 551.80 611.30 L 537.90 610.90 L 524.10 610.00 L 510.20 608.70 L 496.40 606.90 L 482.60 604.70 L 468.90 602.00 L 455.40 598.90 L 442.00 595.40 L 428.70 591.50 L 417.70 587.50 L 399.70 580.10 L 385.80 573.10 L 379.20 569.10 L 372.80 564.70 L 366.60 560.00 L 364.30 557.90 L 362.40 555.70 L 361.00 553.30 L 359.40 549.30 L 358.30 545.00 L 357.10 536.30 L 382.50 550.60 L 396.80 558.10 L 408.80 563.00 L 423.20 567.80 L 437.70 572.10 L 452.30 575.80 L 467.10 579.00 L 482.00 581.70 L 496.90 583.90 L 511.90 585.60 L 527.00 586.80 L 542.10 587.50 L 557.20 587.80 L 572.40 587.60 L 587.50 586.90 L 601.20 585.80 L 628.60 582.50 L 642.30 580.20 L 655.80 577.40 L 669.30 574.20 L 682.60 570.50 L 695.70 566.20 L 708.60 561.40 L 727.50 553.00 L 745.80 543.10 Z" fill="#c38795" fill-rule="nonzero" node-id="151" stroke="none" target-height="96.599976" target-width="429.1" target-x="357.1" target-y="514.7"></path><path d="M 513.50 562.60 L 527.20 563.70 L 540.90 564.40 L 554.60 564.60 L 568.40 564.40 L 582.20 563.80 L 596.00 562.70 L 609.70 561.20 L 623.30 559.20 L 636.80 556.70 L 650.20 553.80 L 663.60 550.30 L 676.80 546.40 L 689.80 541.90 L 702.60 537.00 L 715.30 531.50 L 734.70 536.10 L 730.40 539.30 L 721.20 544.70 L 713.90 548.10 L 706.50 551.10 L 691.40 556.50 L 677.80 561.00 L 664.00 564.90 L 650.00 568.30 L 636.00 571.20 L 621.80 573.50 L 607.60 575.30 L 593.30 576.40 L 561.60 577.30 L 544.30 577.20 L 521.20 576.40 L 498.20 574.20 L 486.70 572.60 L 459.10 567.30 L 450.90 565.70 L 442.90 563.60 L 437.70 561.90 L 432.60 559.90 L 427.60 557.40 L 443.60 557.10 L 459.60 557.20 L 453.90 555.80 L 443.00 552.00 L 432.50 547.10 L 427.40 544.30 L 455.70 552.10 L 470.00 555.50 L 494.00 560.20 L 513.50 562.60 Z" fill="#97aeb7" fill-rule="nonzero" node-id="153" stroke="none" target-height="45.799988" target-width="307.30002" target-x="427.4" target-y="531.5"></path><path d="M 250.10 567.30 L 251.30 563.40 L 253.10 559.70 L 255.30 556.20 L 258.00 552.80 L 261.00 549.80 L 264.30 547.10 L 267.90 544.70 L 271.70 542.70 L 275.60 541.20 L 279.70 540.20 L 283.80 539.70 L 288.00 539.80 L 294.00 541.10 L 300.00 543.90 L 271.10 552.20 L 267.60 553.70 L 264.30 555.50 L 261.30 558.30 L 258.80 561.40 L 254.70 568.30 L 251.10 575.50 L 250.10 567.30 Z" fill="#f8f5ef" fill-rule="nonzero" node-id="155" stroke="none" target-height="35.799988" target-width="49.899994" target-x="250.1" target-y="539.7"></path><path d="M 300.00 543.90 L 302.00 543.20 L 306.90 546.40 L 311.30 550.00 L 315.30 554.00 L 318.90 558.30 L 322.20 562.80 L 325.10 567.70 L 329.90 578.00 L 331.80 583.40 L 334.70 594.50 L 335.70 600.00 L 333.80 604.80 L 321.90 605.30 L 286.40 605.80 L 285.70 577.00 L 285.70 548.20 L 300.00 543.90 Z" fill="#908096" fill-rule="nonzero" node-id="157" stroke="none" target-height="62.599976" target-width="50" target-x="285.7" target-y="543.2"></path><path d="M 264.30 555.50 L 267.60 553.70 L 271.10 552.20 L 285.70 548.20 L 285.70 577.00 L 286.40 605.80 L 276.90 607.90 L 267.50 610.40 L 258.20 613.30 L 249.20 616.80 L 250.80 596.20 L 251.30 585.90 L 251.10 575.50 L 254.70 568.30 L 258.80 561.40 L 261.30 558.30 L 264.30 555.50 Z" fill="#c0a9ab" fill-rule="nonzero" node-id="159" stroke="none" target-height="68.599976" target-width="37.199997" target-x="249.2" target-y="548.2"></path><path d="M 237.20 614.70 L 239.40 598.30 L 241.50 587.40 L 243.00 582.10 L 244.80 577.00 L 247.20 572.10 L 250.10 567.30 L 251.10 575.50 L 251.30 585.90 L 250.80 596.20 L 249.20 616.80 L 249.60 624.00 L 251.60 638.10 L 256.10 659.20 L 270.90 659.20 L 285.60 658.80 L 282.80 681.90 L 281.00 705.00 L 280.70 716.70 L 281.60 751.90 L 281.40 775.50 L 277.50 771.10 L 274.10 766.30 L 268.40 756.00 L 263.40 745.40 L 255.00 724.60 L 248.10 703.30 L 245.20 692.40 L 242.80 681.50 L 240.70 670.50 L 239.10 659.40 L 237.90 648.20 L 237.20 637.10 L 237.00 625.90 L 237.20 614.70 Z" fill="#fbedd9" fill-rule="nonzero" node-id="161" stroke="none" target-height="208.20001" target-width="48.600006" target-x="237" target-y="567.3"></path><path d="M 724.50 586.50 L 727.30 583.70 L 730.50 581.30 L 733.90 579.40 L 744.50 574.10 L 746.00 583.70 L 747.00 593.20 L 748.70 622.10 L 751.20 653.90 L 752.30 676.10 L 753.10 698.40 L 753.50 720.70 L 753.30 743.00 L 752.50 765.20 L 751.60 779.00 L 750.30 806.50 L 748.60 829.50 L 745.90 847.60 L 745.70 833.60 L 737.70 833.90 L 729.90 834.60 L 722.00 835.80 L 710.40 838.30 L 698.90 841.30 L 676.10 848.30 L 668.10 851.30 L 660.40 854.90 L 656.90 857.20 L 653.60 860.00 L 650.50 863.90 L 648.60 868.60 L 648.10 873.60 L 648.50 876.10 L 649.40 878.40 L 650.70 880.60 L 653.90 881.90 L 660.50 883.70 L 670.70 884.90 L 691.20 886.00 L 721.50 888.40 L 735.00 888.60 L 741.80 888.20 L 737.20 897.60 L 735.30 900.50 L 732.10 903.80 L 730.20 905.20 L 726.60 907.20 L 719.10 910.20 L 713.30 911.70 L 701.30 913.70 L 695.30 914.20 L 685.10 914.60 L 668.10 914.40 L 654.50 913.00 L 647.90 911.80 L 641.30 910.20 L 634.80 908.20 L 631.30 906.70 L 627.90 904.80 L 623.80 901.60 L 620.70 897.70 L 619.70 895.40 L 619.00 892.90 L 617.20 883.30 L 615.90 873.60 L 613.60 854.20 L 622.10 850.80 L 653.90 840.30 L 665.10 835.40 L 619.30 842.00 L 603.90 843.80 L 588.60 845.20 L 573.20 846.00 L 563.30 846.20 L 543.60 845.60 L 484.80 840.90 L 492.10 843.60 L 499.60 845.70 L 530.00 852.20 L 525.60 884.30 L 523.70 894.90 L 522.60 898.10 L 521.10 900.80 L 519.20 903.00 L 514.30 906.50 L 511.50 907.80 L 506.90 909.20 L 502.20 910.30 L 493.00 911.60 L 471.90 912.40 L 461.20 912.50 L 450.60 912.20 L 436.60 910.90 L 429.70 909.70 L 422.80 908.10 L 416.10 906.10 L 409.40 903.60 L 407.10 902.60 L 405.10 901.20 L 401.70 897.70 L 398.70 893.80 L 411.40 891.10 L 428.90 890.10 L 455.30 889.70 L 464.10 889.10 L 472.80 888.20 L 481.40 886.60 L 484.30 885.60 L 486.60 884.20 L 488.30 882.50 L 489.70 880.40 L 490.70 878.00 L 491.40 875.40 L 491.50 869.80 L 491.00 866.90 L 489.20 861.50 L 486.30 856.60 L 484.50 854.70 L 482.60 853.10 L 477.20 850.70 L 449.20 840.70 L 443.80 838.10 L 438.70 835.00 L 456.30 832.10 L 474.00 829.70 L 545.00 822.40 L 555.60 821.00 L 566.10 819.10 L 576.40 816.80 L 591.80 812.80 L 607.10 808.10 L 637.30 797.90 L 665.90 787.40 L 675.30 783.60 L 684.50 779.40 L 693.40 774.60 L 697.80 771.90 L 701.70 768.80 L 705.30 765.30 L 708.50 761.50 L 714.20 753.20 L 717.90 746.50 L 724.70 731.20 L 727.80 722.60 L 730.30 713.80 L 732.40 704.90 L 734.00 695.90 L 735.20 686.80 L 736.60 668.50 L 736.60 645.50 L 735.20 621.10 L 734.10 610.30 L 732.50 599.70 L 730.40 589.10 L 720.30 591.90 L 724.50 586.50 Z" fill="#d2a8a5" fill-rule="nonzero" node-id="163" stroke="none" target-height="340.5" target-width="354.8" target-x="398.7" target-y="574.1"></path><path d="M 573.20 622.50 L 583.00 622.40 L 602.50 621.00 L 612.20 619.80 L 625.00 617.60 L 637.80 615.00 L 650.50 611.80 L 675.50 604.40 L 706.40 593.50 L 724.50 586.50 L 720.30 591.90 L 713.20 596.50 L 705.90 600.70 L 698.50 604.60 L 687.00 609.80 L 675.30 614.50 L 663.40 618.70 L 627.20 629.80 L 600.80 628.10 L 587.60 627.70 L 574.30 627.90 L 561.10 628.50 L 547.90 629.70 L 541.40 630.90 L 535.50 633.50 L 531.90 635.90 L 528.50 638.60 L 525.40 641.70 L 519.60 639.00 L 507.50 634.50 L 479.70 626.50 L 460.30 619.80 L 450.20 615.70 L 440.40 611.10 L 430.70 606.10 L 452.90 610.10 L 486.00 616.90 L 508.30 620.60 L 519.50 621.70 L 532.90 622.50 L 573.20 622.50 Z" fill="#c38f9c" fill-rule="nonzero" node-id="165" stroke="none" target-height="55.200012" target-width="293.8" target-x="430.7" target-y="586.5"></path><path d="M 395.80 595.70 L 399.80 609.70 L 392.10 621.50 L 386.90 628.80 L 381.90 638.70 L 374.00 657.20 L 368.60 666.90 L 344.70 704.90 L 339.10 714.50 L 332.40 727.80 L 320.10 756.20 L 318.00 754.00 L 315.10 749.20 L 314.10 746.60 L 313.40 743.00 L 313.20 739.40 L 313.50 735.70 L 314.40 732.00 L 315.60 728.50 L 326.10 707.20 L 338.60 685.80 L 384.40 613.00 L 395.80 595.70 Z" fill="#fbf1e1" fill-rule="nonzero" node-id="167" stroke="none" target-height="160.5" target-width="86.599976" target-x="313.2" target-y="595.7"></path><path d="M 335.70 600.00 L 337.50 617.30 L 340.10 652.00 L 327.90 653.00 L 315.70 654.50 L 291.40 658.20 L 288.50 649.80 L 287.50 645.50 L 286.70 639.00 L 286.30 632.40 L 286.40 605.80 L 321.90 605.30 L 333.80 604.80 L 335.70 600.00 Z" fill="#725a7f" fill-rule="nonzero" node-id="169" stroke="none" target-height="58.200012" target-width="53.80002" target-x="286.3" target-y="600"></path><path d="M 249.20 616.80 L 258.20 613.30 L 267.50 610.40 L 276.90 607.90 L 286.40 605.80 L 286.30 632.40 L 286.70 639.00 L 287.50 645.50 L 288.50 649.80 L 291.40 658.20 L 285.60 658.80 L 278.20 659.10 L 256.10 659.20 L 251.60 638.10 L 249.60 624.00 L 249.20 616.80 Z" fill="#9b859c" fill-rule="nonzero" node-id="171" stroke="none" target-height="53.400024" target-width="42.199997" target-x="249.2" target-y="605.8"></path><path d="M 400.40 611.80 L 408.80 644.20 L 412.70 662.30 L 414.30 677.10 L 416.40 720.30 L 417.60 734.70 L 420.20 753.70 L 423.10 767.90 L 424.00 777.70 L 423.80 782.60 L 423.10 787.40 L 421.90 792.20 L 413.10 773.80 L 409.20 761.90 L 406.00 749.90 L 403.30 737.70 L 401.20 725.50 L 399.70 713.10 L 398.60 700.70 L 398.00 688.20 L 397.90 675.70 L 398.80 650.70 L 401.20 626.00 L 401.30 621.20 L 400.40 611.80 Z" fill="#fcf2df" fill-rule="nonzero" node-id="173" stroke="none" target-height="180.40002" target-width="26.100006" target-x="397.9" target-y="611.8"></path><path d="M 525.40 641.70 L 528.50 638.60 L 531.90 635.90 L 535.50 633.50 L 541.40 630.90 L 547.90 629.70 L 561.10 628.50 L 574.30 627.90 L 587.60 627.70 L 600.80 628.10 L 627.20 629.80 L 633.40 640.30 L 635.00 644.00 L 636.20 647.90 L 636.90 651.90 L 639.40 676.20 L 640.60 700.50 L 640.50 712.70 L 640.00 724.90 L 639.30 728.20 L 638.20 731.10 L 636.40 733.70 L 634.30 736.00 L 631.80 738.00 L 625.90 741.10 L 619.80 742.90 L 610.10 744.70 L 600.40 745.90 L 590.60 746.60 L 580.80 746.80 L 571.00 746.50 L 551.40 744.70 L 541.70 743.30 L 529.20 741.00 L 523.30 739.00 L 519.10 736.40 L 516.60 733.50 L 515.20 729.90 L 514.50 718.00 L 514.70 698.60 L 515.30 688.90 L 516.40 679.30 L 518.00 669.80 L 520.00 660.30 L 522.50 650.90 L 525.40 641.70 Z M 548.80 636.40 L 545.70 637.00 L 542.80 637.90 L 540.20 639.30 L 537.70 641.10 L 535.60 643.10 L 532.00 648.10 L 529.80 653.80 L 527.70 662.10 L 524.60 678.90 L 523.60 687.40 L 523.00 695.90 L 522.80 704.50 L 523.10 713.00 L 523.80 721.50 L 524.20 723.80 L 525.00 725.70 L 526.30 727.30 L 529.60 729.70 L 534.80 731.60 L 545.30 733.60 L 552.90 734.60 L 571.90 735.80 L 583.30 735.90 L 606.10 735.00 L 613.80 733.60 L 617.70 732.60 L 623.80 730.00 L 627.70 726.90 L 629.10 724.90 L 630.10 722.60 L 630.70 719.80 L 631.20 713.00 L 631.20 699.50 L 628.40 658.90 L 626.60 648.00 L 624.60 642.90 L 623.10 640.80 L 621.20 638.90 L 618.80 637.30 L 615.10 636.20 L 611.30 635.70 L 607.50 635.50 L 564.50 635.50 L 548.80 636.40 Z" fill="#23162c" fill-rule="nonzero" node-id="175" stroke="none" target-height="119.099976" target-width="126.099976" target-x="514.5" target-y="627.7"></path><path d="M 548.80 636.40 L 564.50 635.50 L 607.50 635.50 L 611.30 635.70 L 615.10 636.20 L 618.80 637.30 L 621.20 638.90 L 623.10 640.80 L 624.60 642.90 L 626.60 648.00 L 628.40 658.90 L 631.20 699.50 L 631.20 713.00 L 630.70 719.80 L 630.10 722.60 L 629.10 724.90 L 627.70 726.90 L 625.90 728.60 L 621.50 731.20 L 617.70 732.60 L 613.80 733.60 L 606.10 735.00 L 594.70 735.60 L 571.90 735.80 L 560.50 735.30 L 545.30 733.60 L 534.80 731.60 L 529.60 729.70 L 526.30 727.30 L 525.00 725.70 L 524.20 723.80 L 523.80 721.50 L 523.10 713.00 L 522.80 704.50 L 523.00 695.90 L 523.60 687.40 L 524.60 678.90 L 526.00 670.40 L 529.80 653.80 L 532.00 648.10 L 535.60 643.10 L 537.70 641.10 L 540.20 639.30 L 542.80 637.90 L 545.70 637.00 L 548.80 636.40 Z M 545.80 644.20 L 542.00 645.90 L 540.60 647.10 L 538.90 649.40 L 536.40 654.80 L 534.30 663.60 L 531.30 681.10 L 529.00 698.70 L 528.70 710.50 L 529.00 716.40 L 529.20 718.10 L 530.30 720.60 L 531.80 722.10 L 533.60 723.20 L 537.90 724.80 L 542.20 725.70 L 562.90 728.40 L 573.30 729.30 L 583.70 729.80 L 594.10 729.80 L 604.50 729.20 L 608.60 728.60 L 615.50 726.60 L 620.20 723.70 L 622.10 721.70 L 623.50 719.40 L 624.50 716.60 L 625.20 712.00 L 625.60 702.80 L 625.20 695.80 L 622.10 659.00 L 620.30 650.30 L 617.60 643.80 L 612.70 642.50 L 607.70 641.90 L 602.60 641.60 L 573.40 641.60 L 559.50 642.00 L 550.30 643.20 L 545.80 644.20 Z" fill="#99a8b7" fill-rule="nonzero" node-id="177" stroke="none" target-height="100.29999" target-width="108.400024" target-x="522.8" target-y="635.5"></path><path d="M 545.80 644.20 L 550.30 643.20 L 559.50 642.00 L 573.40 641.60 L 602.60 641.60 L 607.70 641.90 L 612.70 642.50 L 617.60 643.80 L 620.30 650.30 L 622.10 659.00 L 625.20 695.80 L 625.60 707.40 L 624.50 716.60 L 623.50 719.40 L 622.10 721.70 L 620.20 723.70 L 618.00 725.30 L 612.80 727.60 L 608.60 728.60 L 604.50 729.20 L 594.10 729.80 L 583.70 729.80 L 573.30 729.30 L 562.90 728.40 L 542.20 725.70 L 537.90 724.80 L 533.60 723.20 L 531.80 722.10 L 530.30 720.60 L 529.20 718.10 L 529.00 716.40 L 528.70 710.50 L 529.00 698.70 L 531.30 681.10 L 534.30 663.60 L 536.40 654.80 L 538.90 649.40 L 540.60 647.10 L 542.00 645.90 L 545.80 644.20 Z M 551.40 650.00 L 549.10 650.60 L 545.60 652.60 L 542.70 656.10 L 541.50 658.50 L 540.60 661.30 L 539.80 665.60 L 539.50 670.00 L 539.40 678.30 L 542.70 673.10 L 553.30 677.00 L 563.80 687.40 L 566.20 690.20 L 569.70 696.20 L 571.40 702.30 L 572.00 707.00 L 572.30 721.40 L 593.20 721.10 L 607.00 720.00 L 613.80 718.80 L 601.20 717.60 L 597.10 716.70 L 591.90 714.70 L 589.40 713.30 L 596.50 712.70 L 617.40 709.80 L 618.30 700.10 L 616.30 700.80 L 617.70 683.40 L 608.20 681.70 L 598.60 680.50 L 589.60 680.60 L 580.70 680.10 L 571.80 679.20 L 576.20 676.60 L 586.20 676.30 L 596.30 676.60 L 606.40 677.40 L 616.40 678.70 L 618.30 672.50 L 611.10 667.40 L 606.30 666.50 L 617.10 658.40 L 615.00 658.20 L 610.80 654.40 L 608.50 652.70 L 606.10 651.30 L 603.50 650.40 L 592.40 649.30 L 576.00 648.40 L 567.70 648.40 L 559.60 648.90 L 551.40 650.00 Z M 534.60 718.30 L 550.60 720.80 L 566.80 722.40 L 566.30 709.10 L 565.00 700.30 L 563.80 696.10 L 561.10 691.00 L 557.30 686.60 L 555.30 685.10 L 553.00 683.90 L 549.30 682.60 L 537.80 680.10 L 536.20 686.40 L 535.10 692.70 L 534.50 699.10 L 534.20 708.70 L 534.60 718.30 Z" fill="#34182e" fill-rule="nonzero" node-id="179" stroke="none" target-height="88.20001" target-width="96.89996" target-x="528.7" target-y="641.6"></path><path d="M 551.40 650.00 L 559.60 648.90 L 567.70 648.40 L 576.00 648.40 L 592.40 649.30 L 603.50 650.40 L 606.10 651.30 L 608.50 652.70 L 610.80 654.40 L 615.00 658.20 L 584.40 656.30 L 574.20 656.00 L 560.60 656.70 L 551.90 657.90 L 549.20 659.50 L 547.70 661.30 L 546.50 663.50 L 543.70 670.90 L 539.40 678.30 L 539.50 670.00 L 539.80 665.60 L 540.60 661.30 L 541.50 658.50 L 542.70 656.10 L 545.60 652.60 L 549.10 650.60 L 551.40 650.00 Z" fill="#924960" fill-rule="nonzero" node-id="181" stroke="none" target-height="29.899963" target-width="75.599976" target-x="539.4" target-y="648.4"></path><path d="M 291.40 658.20 L 315.70 654.50 L 327.90 653.00 L 340.10 652.00 L 337.50 660.00 L 335.80 663.80 L 312.00 703.20 L 307.10 712.50 L 302.70 722.00 L 300.00 729.50 L 299.20 733.50 L 298.70 737.60 L 298.60 741.60 L 299.00 745.60 L 299.90 749.50 L 301.30 753.20 L 303.40 756.70 L 308.20 762.40 L 310.90 764.80 L 315.40 768.10 L 320.20 770.90 L 330.30 775.50 L 337.40 799.70 L 343.40 822.10 L 336.00 817.40 L 328.90 812.40 L 322.20 807.00 L 315.70 801.20 L 303.50 788.80 L 294.90 778.90 L 286.90 768.70 L 281.90 780.90 L 281.40 775.50 L 281.60 751.90 L 280.70 716.70 L 281.00 705.00 L 281.70 693.40 L 282.80 681.90 L 285.60 658.80 L 291.40 658.20 Z" fill="#efd2c1" fill-rule="nonzero" node-id="183" stroke="none" target-height="170.09998" target-width="62.69998" target-x="280.7" target-y="652"></path><path d="M 542.70 673.10 L 546.50 663.50 L 547.70 661.30 L 549.20 659.50 L 551.90 657.90 L 560.60 656.70 L 574.20 656.00 L 584.40 656.30 L 617.10 658.40 L 606.30 666.50 L 588.30 663.80 L 579.10 663.20 L 570.00 663.10 L 563.90 663.40 L 551.90 664.90 L 550.50 666.40 L 549.90 667.80 L 549.90 669.30 L 550.20 670.80 L 553.30 677.00 L 542.70 673.10 Z" fill="#703548" fill-rule="nonzero" node-id="185" stroke="none" target-height="21" target-width="74.39996" target-x="542.7" target-y="656"></path><path d="M 551.90 664.90 L 563.90 663.40 L 570.00 663.10 L 579.10 663.20 L 588.30 663.80 L 597.30 665.00 L 611.10 667.40 L 612.10 674.30 L 600.00 674.00 L 588.00 674.40 L 582.00 675.20 L 576.20 676.60 L 571.80 679.20 L 580.70 680.10 L 589.60 680.60 L 598.60 680.50 L 587.20 689.10 L 581.80 693.60 L 576.60 698.60 L 613.10 694.40 L 604.30 697.30 L 587.00 704.00 L 586.30 711.50 L 591.90 714.70 L 597.10 716.70 L 601.20 717.60 L 613.80 718.80 L 607.00 720.00 L 600.10 720.70 L 593.20 721.10 L 572.30 721.40 L 572.00 707.00 L 571.40 702.30 L 569.70 696.20 L 568.20 693.30 L 563.80 687.40 L 553.30 677.00 L 550.20 670.80 L 549.90 669.30 L 549.90 667.80 L 550.50 666.40 L 551.90 664.90 Z" fill="#e797a1" fill-rule="nonzero" node-id="187" stroke="none" target-height="58.30005" target-width="63.899963" target-x="549.9" target-y="663.1"></path><path d="M 386.60 666.50 L 388.20 666.30 L 388.00 678.40 L 388.10 690.60 L 388.60 698.70 L 389.40 706.80 L 393.50 733.70 L 393.80 738.60 L 393.30 746.30 L 391.50 752.10 L 390.20 754.80 L 388.30 757.30 L 385.90 759.80 L 381.60 763.30 L 379.20 764.50 L 375.40 765.90 L 371.30 766.80 L 367.20 767.30 L 355.90 767.30 L 348.60 766.80 L 339.10 765.30 L 334.50 764.00 L 330.00 762.30 L 325.70 760.20 L 321.60 757.50 L 328.10 756.10 L 354.20 752.30 L 363.80 750.30 L 369.70 747.50 L 372.40 745.60 L 374.80 743.40 L 376.90 741.00 L 378.50 738.20 L 379.70 735.20 L 382.50 718.90 L 384.20 705.90 L 385.40 692.80 L 386.20 679.60 L 386.60 666.50 Z" fill="#d2a3a5" fill-rule="nonzero" node-id="189" stroke="none" target-height="101" target-width="72.19998" target-x="321.6" target-y="666.3"></path><path d="M 611.10 667.40 L 618.30 672.50 L 616.40 678.70 L 606.40 677.40 L 596.30 676.60 L 586.20 676.30 L 576.20 676.60 L 582.00 675.20 L 588.00 674.40 L 594.00 674.00 L 612.10 674.30 L 611.10 667.40 Z" fill="#894555" fill-rule="nonzero" node-id="191" stroke="none" target-height="11.299988" target-width="42.099976" target-x="576.2" target-y="667.4"></path><path d="M 431.70 674.80 L 433.20 673.40 L 434.70 672.60 L 436.30 672.30 L 438.00 672.40 L 439.60 673.00 L 442.60 675.20 L 444.50 678.20 L 445.30 682.10 L 445.50 686.00 L 445.10 689.90 L 444.10 693.80 L 442.60 697.40 L 440.50 700.80 L 428.50 703.60 L 426.60 692.30 L 426.40 688.50 L 426.70 684.70 L 427.60 681.20 L 428.50 679.00 L 429.90 676.90 L 431.70 674.80 Z" fill="#faf0dc" fill-rule="nonzero" node-id="193" stroke="none" target-height="31.299988" target-width="19.100006" target-x="426.4" target-y="672.3"></path><path d="M 598.60 680.50 L 608.20 681.70 L 617.70 683.40 L 616.30 700.80 L 606.80 703.90 L 601.90 705.10 L 596.90 705.60 L 593.70 705.60 L 590.40 705.00 L 587.00 704.00 L 604.30 697.30 L 613.10 694.40 L 576.60 698.60 L 581.80 693.60 L 587.20 689.10 L 598.60 680.50 Z" fill="#5b2f47" fill-rule="nonzero" node-id="195" stroke="none" target-height="25.099976" target-width="41.100037" target-x="576.6" target-y="680.5"></path><path d="M 534.60 718.30 L 534.20 708.70 L 534.50 699.10 L 535.10 692.70 L 536.20 686.40 L 537.80 680.10 L 549.30 682.60 L 553.00 683.90 L 555.30 685.10 L 557.30 686.60 L 561.10 691.00 L 563.80 696.10 L 565.00 700.30 L 566.30 709.10 L 566.80 722.40 L 550.60 720.80 L 534.60 718.30 Z" fill="#adc9c7" fill-rule="nonzero" node-id="197" stroke="none" target-height="42.30005" target-width="32.599976" target-x="534.2" target-y="680.1"></path><path d="M 587.00 704.00 L 590.40 705.00 L 593.70 705.60 L 596.90 705.60 L 601.90 705.10 L 606.80 703.90 L 618.30 700.10 L 617.40 709.80 L 596.50 712.70 L 589.40 713.30 L 586.30 711.50 L 587.00 704.00 Z" fill="#97495c" fill-rule="nonzero" node-id="199" stroke="none" target-height="13.200012" target-width="32" target-x="586.3" target-y="700.1"></path><path d="M 396.30 776.50 L 397.40 770.60 L 400.60 759.20 L 403.50 767.60 L 405.40 776.40 L 406.50 833.80 L 407.30 852.90 L 408.20 865.70 L 409.60 878.40 L 411.40 891.10 L 398.70 893.80 L 396.20 872.20 L 393.30 834.00 L 393.10 825.80 L 393.50 813.50 L 396.30 776.50 Z" fill="#fcf5e3" fill-rule="nonzero" node-id="201" stroke="none" target-height="134.59998" target-width="18.299988" target-x="393.1" target-y="759.2"></path><path d="M 286.90 768.70 L 294.90 778.90 L 303.50 788.80 L 315.70 801.20 L 322.20 807.00 L 328.90 812.40 L 336.00 817.40 L 343.40 822.10 L 337.40 799.70 L 330.90 777.50 L 351.40 779.00 L 361.60 779.50 L 371.80 779.50 L 345.20 783.10 L 349.80 789.30 L 354.70 795.30 L 362.10 802.40 L 370.30 808.50 L 374.80 811.00 L 379.60 813.10 L 378.30 846.90 L 368.70 844.20 L 359.30 840.90 L 350.10 837.10 L 341.20 832.70 L 332.50 827.90 L 324.10 822.60 L 316.10 816.80 L 308.40 810.50 L 301.10 803.80 L 294.30 796.60 L 287.90 789.00 L 281.90 780.90 L 286.90 768.70 Z" fill="#d1a7a3" fill-rule="nonzero" node-id="203" stroke="none" target-height="78.20001" target-width="97.70001" target-x="281.9" target-y="768.7"></path><path d="M 371.80 779.50 L 382.10 777.60 L 381.50 795.40 L 380.80 804.30 L 379.60 813.10 L 374.80 811.00 L 370.30 808.50 L 362.10 802.40 L 354.70 795.30 L 349.80 789.30 L 345.20 783.10 L 371.80 779.50 Z" fill="#f6e2d1" fill-rule="nonzero" node-id="205" stroke="none" target-height="35.5" target-width="36.899994" target-x="345.2" target-y="777.6"></path><path d="M 676.10 848.30 L 698.90 841.30 L 710.40 838.30 L 722.00 835.80 L 729.90 834.60 L 737.70 833.90 L 745.70 833.60 L 745.90 847.60 L 745.70 854.40 L 742.30 881.40 L 741.80 888.20 L 735.00 888.60 L 721.50 888.40 L 691.20 886.00 L 670.70 884.90 L 660.50 883.70 L 653.90 881.90 L 650.70 880.60 L 649.40 878.40 L 648.50 876.10 L 648.10 873.60 L 648.20 871.10 L 649.40 866.20 L 651.90 861.80 L 653.60 860.00 L 656.90 857.20 L 660.40 854.90 L 668.10 851.30 L 676.10 848.30 Z" fill="#f3dfca" fill-rule="nonzero" node-id="207" stroke="none" target-height="55" target-width="97.80005" target-x="648.1" target-y="833.6"></path></svg>