<?xml version="1.0" standalone="no"?><!DOCTYPE svg PUBLIC "-//W3C//DTD SVG 1.1//EN" "http://www.w3.org/Graphics/SVG/1.1/DTD/svg11.dtd"><svg height="1024" node-id="1" sillyvg="true" template-height="1024" template-width="1024" version="1.1" viewBox="0 0 1024 1024" width="1024" xmlns="http://www.w3.org/2000/svg" xmlns:xlink="http://www.w3.org/1999/xlink"><defs node-id="23"></defs><g node-id="25"><path d="M 0.00 0.00 L 1024.00 0.00 L 1024.00 1024.00 L 0.00 1024.00 Z" fill="none" group-id="1" id="矩形" node-id="6" stroke="none" target-height="1024" target-width="1024" target-x="0" target-y="0"></path><g node-id="26"><path d="M 731.40 483.10 L 235.30 483.10 L 230.10 498.30 L 225.60 513.70 L 221.60 529.30 L 218.30 545.00 L 215.50 560.90 L 213.30 576.90 L 211.70 592.90 L 210.70 609.10 L 210.20 625.40 L 210.30 641.80 L 210.90 658.20 L 212.10 674.60 L 213.70 691.10 L 216.00 707.60 L 218.70 724.20 L 222.00 740.70 L 225.80 757.20 L 230.00 773.70 L 234.80 790.20 L 240.10 806.70 L 245.80 823.00 L 252.00 839.20 L 258.70 855.40 L 265.80 871.50 L 273.50 887.60 L 281.50 903.40 L 289.90 919.10 L 298.80 934.70 L 308.20 950.10 L 318.00 965.40 L 318.30 965.40 L 319.10 967.00 L 320.40 968.70 L 322.30 970.40 L 325.10 972.20 L 328.90 974.20 L 335.10 976.70 L 343.10 979.20 L 353.20 981.80 L 375.20 985.90 L 388.70 987.70 L 416.90 990.50 L 432.80 991.60 L 465.60 992.80 L 483.30 993.00 L 501.00 992.80 L 533.80 991.60 L 549.80 990.50 L 578.00 987.70 L 591.50 985.90 L 613.50 981.80 L 623.60 979.20 L 631.60 976.70 L 637.70 974.20 L 641.50 972.20 L 644.30 970.40 L 646.30 968.70 L 648.40 965.40 L 648.70 965.40 L 658.50 950.10 L 667.80 934.70 L 676.70 919.10 L 685.20 903.40 L 693.20 887.60 L 700.80 871.50 L 708.00 855.40 L 714.70 839.20 L 720.80 823.00 L 726.60 806.70 L 731.90 790.20 L 736.60 773.70 L 740.90 757.20 L 744.70 740.70 L 747.90 724.20 L 750.70 707.60 L 752.90 691.00 L 754.60 674.60 L 755.80 658.10 L 756.40 641.80 L 756.50 625.40 L 756.00 609.10 L 755.00 592.90 L 753.30 576.80 L 751.20 560.90 L 748.40 545.00 L 745.10 529.30 L 741.10 513.70 L 736.50 498.30 L 731.40 483.10 Z" fill="#e3e5e1" fill-rule="nonzero" group-id="1,2" id="路径" node-id="8" stroke="none" target-height="509.9" target-width="546.3" target-x="210.2" target-y="483.1"></path><path d="M 313.90 959.00 L 325.90 960.50 L 337.90 961.50 L 349.80 962.00 L 361.60 961.90 L 373.30 961.30 L 385.00 960.30 L 396.60 958.70 L 408.10 956.70 L 419.40 954.10 L 430.60 951.10 L 441.60 947.70 L 452.50 943.80 L 463.10 939.40 L 473.60 934.60 L 483.90 929.30 L 493.90 923.70 L 503.70 917.60 L 513.20 911.10 L 522.50 904.20 L 531.50 896.90 L 540.10 889.20 L 548.50 881.20 L 556.50 872.80 L 564.20 864.00 L 571.60 854.80 L 578.50 845.30 L 585.10 835.50 L 591.20 825.30 L 597.00 814.80 L 602.40 803.90 L 607.30 792.70 L 611.60 781.50 L 615.50 770.20 L 618.80 758.90 L 621.60 747.50 L 623.90 735.90 L 625.70 724.40 L 627.00 712.80 L 627.80 701.30 L 628.10 689.70 L 627.90 678.10 L 627.20 666.60 L 626.10 655.10 L 624.40 643.70 L 622.30 632.40 L 619.70 621.10 L 616.70 610.00 L 613.20 599.10 L 609.20 588.20 L 604.70 577.50 L 599.80 567.00 L 594.50 556.70 L 588.70 546.70 L 582.40 536.80 L 575.70 527.10 L 568.60 517.70 L 561.10 508.70 L 553.10 499.90 L 544.60 491.30 L 535.70 483.10 L 235.30 483.10 L 230.20 498.10 L 225.70 513.30 L 221.80 528.60 L 218.40 544.10 L 215.60 559.80 L 213.40 575.50 L 211.80 591.30 L 210.70 607.20 L 210.20 623.30 L 210.20 639.50 L 210.70 655.60 L 211.80 671.80 L 213.40 688.00 L 215.50 704.30 L 218.10 720.80 L 221.20 737.00 L 224.80 753.20 L 228.90 769.50 L 233.50 785.80 L 238.60 802.10 L 244.10 818.20 L 250.10 834.20 L 256.50 850.20 L 263.40 866.10 L 270.80 882.00 L 278.50 897.60 L 286.70 913.10 L 295.30 928.50 L 304.40 943.80 L 313.90 959.00 Z" fill="#edeeeb" fill-rule="nonzero" group-id="1,2" id="路径" node-id="9" stroke="none" target-height="478.9" target-width="417.89996" target-x="210.2" target-y="483.1"></path><path d="M 241.60 810.90 L 252.00 804.90 L 262.00 798.50 L 271.70 791.70 L 281.00 784.60 L 289.90 777.10 L 298.60 769.20 L 306.90 760.90 L 314.70 752.40 L 322.20 743.60 L 329.30 734.40 L 336.00 725.00 L 342.30 715.30 L 348.20 705.40 L 353.70 695.20 L 358.70 684.70 L 363.30 674.10 L 367.40 663.30 L 371.10 652.20 L 374.30 641.10 L 377.10 629.60 L 379.40 618.20 L 381.10 606.60 L 382.40 594.80 L 383.20 583.00 L 383.40 570.90 L 383.20 559.70 L 382.50 548.60 L 381.40 537.50 L 379.80 526.40 L 377.80 515.40 L 375.30 504.60 L 372.30 493.80 L 368.90 483.10 L 235.30 483.10 L 230.10 498.50 L 225.50 514.10 L 221.50 529.90 L 218.10 545.80 L 215.40 561.90 L 213.20 578.10 L 211.70 594.40 L 210.60 610.70 L 210.20 627.30 L 210.40 643.90 L 211.10 660.50 L 212.30 677.10 L 214.10 693.80 L 216.50 710.60 L 219.40 727.40 L 222.80 744.10 L 226.70 760.80 L 231.10 777.50 L 236.10 794.20 L 241.60 810.90 Z" fill="#f9f9f9" fill-rule="nonzero" group-id="1,2" id="路径" node-id="10" stroke="none" target-height="327.80002" target-width="173.2" target-x="210.2" target-y="483.1"></path><path d="M 284.10 908.40 L 295.00 906.00 L 305.60 903.20 L 316.10 900.00 L 326.30 896.30 L 336.40 892.30 L 346.40 887.90 L 356.10 883.10 L 365.50 878.00 L 374.80 872.50 L 383.80 866.60 L 392.60 860.40 L 401.10 853.80 L 409.40 847.00 L 417.40 839.80 L 425.10 832.30 L 432.50 824.50 L 439.60 816.40 L 446.40 808.00 L 452.80 799.30 L 459.00 790.30 L 464.80 781.20 L 470.20 771.70 L 475.30 762.00 L 480.00 752.10 L 484.30 741.80 L 488.30 731.40 L 491.70 721.00 L 494.80 710.50 L 497.40 699.90 L 499.50 689.30 L 501.30 678.50 L 502.60 667.80 L 503.50 657.00 L 503.90 646.30 L 504.00 635.50 L 503.60 624.70 L 502.80 614.00 L 501.60 603.40 L 499.90 592.70 L 497.90 582.20 L 495.40 571.70 L 492.50 561.30 L 489.20 551.00 L 485.50 540.90 L 481.30 530.80 L 476.80 520.90 L 471.90 511.20 L 466.60 501.70 L 460.80 492.30 L 454.60 483.10 L 235.30 483.10 L 230.70 496.40 L 226.60 509.90 L 223.00 523.50 L 219.80 537.20 L 217.10 551.10 L 214.90 565.10 L 212.80 581.90 L 211.30 598.80 L 210.40 615.90 L 210.10 633.10 L 210.50 650.40 L 211.50 667.60 L 213.10 684.90 L 215.20 702.30 L 217.90 719.70 L 221.30 737.30 L 225.10 754.60 L 229.60 771.90 L 234.50 789.20 L 240.10 806.50 L 246.20 823.90 L 252.70 840.90 L 259.80 857.90 L 267.40 874.80 L 275.50 891.60 L 284.10 908.40 Z" fill="#f2f2f2" fill-rule="nonzero" group-id="1,2" id="路径" node-id="11" stroke="none" target-height="425.30002" target-width="293.9" target-x="210.1" target-y="483.1"></path><path d="M 731.30 484.80 L 731.00 486.50 L 730.20 488.30 L 728.60 490.20 L 726.10 492.20 L 722.50 494.40 L 712.70 498.60 L 697.50 503.00 L 686.60 505.50 L 673.70 508.00 L 658.70 510.40 L 626.90 514.30 L 608.50 516.00 L 570.30 518.70 L 528.20 520.40 L 483.30 521.00 L 438.40 520.40 L 396.30 518.70 L 358.10 516.00 L 339.70 514.30 L 307.90 510.40 L 292.90 508.00 L 280.00 505.50 L 269.10 503.00 L 253.90 498.60 L 244.10 494.40 L 240.50 492.20 L 238.00 490.20 L 236.40 488.30 L 235.60 486.50 L 235.30 484.80 L 235.60 483.00 L 236.40 481.30 L 238.00 479.40 L 240.50 477.30 L 244.10 475.20 L 253.90 471.00 L 269.10 466.50 L 280.00 464.00 L 292.90 461.60 L 307.90 459.20 L 339.70 455.30 L 358.10 453.50 L 396.30 450.90 L 438.40 449.20 L 483.30 448.60 L 528.20 449.20 L 570.30 450.90 L 608.50 453.50 L 626.90 455.30 L 658.70 459.20 L 673.70 461.60 L 686.60 464.00 L 697.50 466.50 L 712.70 471.00 L 722.50 475.20 L 726.10 477.30 L 728.60 479.40 L 730.20 481.30 L 731.00 483.00 L 731.30 484.80 Z" fill="#e3e5e1" fill-rule="nonzero" group-id="1,2" id="椭圆形" node-id="12" stroke="none" target-height="72.399994" target-width="496" target-x="235.3" target-y="448.6"></path><path d="M 731.30 488.20 L 731.00 490.00 L 730.20 491.70 L 728.60 493.60 L 726.10 495.60 L 722.50 497.80 L 712.70 502.00 L 697.50 506.50 L 686.60 509.00 L 673.70 511.40 L 658.70 513.80 L 626.90 517.70 L 608.50 519.50 L 570.30 522.10 L 528.20 523.80 L 483.30 524.40 L 438.40 523.80 L 396.30 522.10 L 358.10 519.50 L 339.70 517.70 L 307.90 513.80 L 292.90 511.40 L 280.00 509.00 L 269.10 506.50 L 253.90 502.00 L 244.10 497.80 L 240.50 495.60 L 238.00 493.60 L 236.40 491.70 L 235.60 490.00 L 235.30 488.20 L 235.60 486.50 L 236.40 484.70 L 238.00 482.80 L 240.50 480.80 L 244.10 478.60 L 253.90 474.40 L 269.10 470.00 L 280.00 467.50 L 292.90 465.00 L 307.90 462.60 L 339.70 458.70 L 358.10 457.00 L 396.30 454.30 L 438.40 452.60 L 483.30 452.00 L 528.20 452.60 L 570.30 454.30 L 608.50 457.00 L 626.90 458.70 L 658.70 462.60 L 673.70 465.00 L 686.60 467.50 L 697.50 470.00 L 712.70 474.40 L 722.50 478.60 L 726.10 480.80 L 728.60 482.80 L 730.20 484.70 L 731.00 486.50 L 731.30 488.20 Z" fill="#ffffff" fill-rule="nonzero" group-id="1,2" id="椭圆形" node-id="13" stroke="none" target-height="72.400024" target-width="496" target-x="235.3" target-y="452"></path><path d="M 731.30 484.80 L 731.00 486.50 L 730.20 488.30 L 728.60 490.20 L 726.10 492.20 L 722.50 494.40 L 712.70 498.60 L 697.50 503.00 L 686.60 505.50 L 673.70 508.00 L 658.70 510.40 L 626.90 514.30 L 608.50 516.00 L 570.30 518.70 L 528.20 520.40 L 483.30 521.00 L 438.40 520.40 L 396.30 518.70 L 358.10 516.00 L 339.70 514.30 L 307.90 510.40 L 292.90 508.00 L 280.00 505.50 L 269.10 503.00 L 253.90 498.60 L 244.10 494.40 L 240.50 492.20 L 238.00 490.20 L 236.40 488.30 L 235.60 486.50 L 235.30 484.80 L 235.60 483.00 L 236.40 481.30 L 238.00 479.40 L 240.50 477.30 L 244.10 475.20 L 253.90 471.00 L 269.10 466.50 L 280.00 464.00 L 292.90 461.60 L 307.90 459.20 L 339.70 455.30 L 358.10 453.50 L 396.30 450.90 L 438.40 449.20 L 483.30 448.60 L 528.20 449.20 L 570.30 450.90 L 608.50 453.50 L 626.90 455.30 L 658.70 459.20 L 673.70 461.60 L 686.60 464.00 L 697.50 466.50 L 712.70 471.00 L 722.50 475.20 L 726.10 477.30 L 728.60 479.40 L 730.20 481.30 L 731.00 483.00 L 731.30 484.80 Z" fill="#e3e5e1" fill-rule="nonzero" group-id="1,2" id="椭圆形" node-id="14" stroke="none" target-height="72.399994" target-width="496" target-x="235.3" target-y="448.6"></path><path d="M 710.70 484.80 L 710.50 485.80 L 709.80 486.80 L 708.40 488.00 L 706.10 489.30 L 702.60 490.70 L 697.10 492.40 L 689.60 494.20 L 679.70 496.10 L 664.00 498.40 L 644.10 500.60 L 622.80 502.50 L 598.10 504.10 L 572.30 505.40 L 543.80 506.40 L 514.50 507.00 L 483.30 507.20 L 452.10 507.00 L 422.80 506.40 L 394.30 505.40 L 368.50 504.10 L 343.80 502.50 L 322.50 500.60 L 302.60 498.40 L 286.90 496.10 L 277.00 494.20 L 269.50 492.40 L 264.00 490.70 L 260.50 489.30 L 258.20 488.00 L 256.80 486.80 L 256.10 485.80 L 255.90 484.80 L 256.10 483.80 L 258.20 481.60 L 260.50 480.30 L 264.00 478.80 L 269.50 477.10 L 277.00 475.30 L 286.90 473.50 L 302.60 471.20 L 322.50 468.90 L 343.80 467.10 L 368.50 465.40 L 394.30 464.20 L 422.80 463.20 L 452.10 462.60 L 483.30 462.40 L 514.50 462.60 L 543.80 463.20 L 572.30 464.20 L 598.10 465.40 L 622.80 467.10 L 644.10 468.90 L 664.00 471.20 L 679.70 473.50 L 689.60 475.30 L 697.10 477.10 L 702.60 478.80 L 706.10 480.30 L 708.40 481.60 L 709.80 482.70 L 710.50 483.80 L 710.70 484.80 Z" fill="#aeb5a5" fill-rule="nonzero" group-id="1,2" id="椭圆形" node-id="15" stroke="none" target-height="44.80002" target-width="454.80002" target-x="255.9" target-y="462.4"></path></g><g node-id="27"><path d="M 583.30 461.00 L 593.50 453.80 L 604.00 446.90 L 611.20 442.70 L 626.10 435.20 L 634.00 431.90 L 642.10 428.90 L 675.30 418.60 L 707.30 426.20 L 722.40 428.60 L 731.80 431.60 L 738.20 433.30 L 744.40 434.50 L 750.60 435.30 L 756.80 435.60 L 762.90 435.40 L 769.00 434.60 L 775.00 433.40 L 780.90 431.60 L 786.70 429.30 L 792.60 426.30 L 798.50 422.70 L 802.00 420.00 L 805.00 417.20 L 807.40 414.30 L 809.40 411.30 L 811.00 408.00 L 812.10 404.70 L 812.80 401.40 L 813.00 398.00 L 812.80 394.60 L 812.20 391.30 L 811.10 387.90 L 809.50 384.60 L 807.60 381.50 L 805.20 378.60 L 802.30 375.70 L 798.90 373.00 L 792.80 369.10 L 786.80 365.90 L 780.60 363.40 L 774.40 361.50 L 768.10 360.20 L 761.70 359.50 L 755.30 359.40 L 748.80 359.90 L 742.10 361.10 L 728.40 364.90 L 714.60 368.00 L 704.20 369.60 L 688.60 371.10 L 684.30 372.10 L 680.40 373.50 L 676.90 375.30 L 673.60 377.60 L 670.70 380.10 L 668.20 383.00 L 666.00 386.30 L 664.30 389.80 L 663.00 393.50 L 662.20 397.60 L 661.80 402.00 L 593.70 414.80 L 595.30 412.20 L 597.10 410.30 L 645.30 370.60 L 659.60 358.10 L 664.50 352.90 L 667.20 348.30 L 667.90 345.90 L 668.30 343.40 L 668.30 340.90 L 667.80 338.30 L 666.70 334.90 L 665.00 331.00 L 662.40 326.60 L 654.00 313.30 L 648.70 305.70 L 647.10 302.50 L 646.00 299.30 L 645.40 296.20 L 645.40 293.10 L 645.90 289.80 L 647.00 286.40 L 648.80 282.80 L 683.90 271.60 L 697.30 267.90 L 699.20 267.90 L 702.90 268.90 L 717.30 277.00 L 722.90 279.60 L 728.70 281.70 L 734.60 283.40 L 740.70 284.50 L 747.00 285.10 L 753.50 285.10 L 758.80 284.70 L 763.90 283.80 L 768.60 282.70 L 777.50 279.20 L 785.30 274.50 L 792.00 268.70 L 794.90 265.40 L 797.40 261.90 L 799.60 258.20 L 801.50 254.30 L 802.90 250.30 L 803.90 246.10 L 804.60 241.70 L 804.80 237.30 L 804.60 232.80 L 803.90 228.20 L 801.20 218.20 L 800.30 213.40 L 799.80 208.60 L 799.90 203.70 L 800.30 200.40 L 803.40 188.50 L 804.10 183.80 L 804.10 179.40 L 803.70 175.00 L 802.80 170.70 L 801.40 166.50 L 799.60 162.40 L 795.00 154.70 L 790.80 149.20 L 786.10 144.00 L 779.40 137.60 L 772.70 131.70 L 765.90 126.40 L 759.10 121.70 L 752.20 117.40 L 744.90 113.60 L 737.60 110.20 L 730.20 107.30 L 722.70 104.80 L 715.10 102.80 L 707.40 101.20 L 699.60 100.10 L 691.60 99.40 L 683.50 99.00 L 675.20 99.10 L 665.00 99.80 L 654.60 101.10 L 643.90 102.90 L 632.90 105.40 L 625.50 107.90 L 622.50 108.50 L 619.60 108.50 L 616.80 108.20 L 611.30 106.30 L 607.30 104.00 L 597.70 96.80 L 591.80 92.90 L 571.40 80.90 L 563.10 76.60 L 554.70 72.80 L 546.40 69.40 L 537.90 66.40 L 529.30 63.90 L 520.70 61.80 L 511.90 60.10 L 503.10 59.00 L 494.10 58.20 L 485.20 58.00 L 476.20 58.20 L 467.10 59.00 L 457.70 60.20 L 448.20 62.00 L 437.30 64.70 L 426.80 67.80 L 416.80 71.40 L 407.30 75.50 L 398.20 80.00 L 389.50 85.00 L 381.20 90.40 L 373.30 96.30 L 365.80 102.70 L 358.50 109.50 L 351.60 116.80 L 345.10 124.50 L 338.80 132.80 L 332.80 141.60 L 327.20 150.90 L 321.90 160.80 L 319.60 163.70 L 316.20 166.10 L 314.30 166.90 L 308.60 168.20 L 301.00 170.90 L 294.00 175.00 L 290.90 177.60 L 288.10 180.40 L 285.60 183.50 L 283.40 186.80 L 281.70 190.40 L 280.30 194.10 L 278.60 201.20 L 277.60 203.20 L 276.70 204.20 L 274.50 205.50 L 272.30 206.10 L 261.40 207.00 L 253.50 208.30 L 243.30 210.90 L 238.30 212.80 L 233.50 215.00 L 228.90 217.70 L 224.30 220.90 L 220.80 223.90 L 217.80 226.90 L 215.40 230.00 L 213.50 233.10 L 211.90 236.40 L 210.80 239.80 L 210.20 243.10 L 210.00 246.50 L 210.30 249.80 L 211.00 253.10 L 212.20 256.30 L 213.90 259.60 L 216.00 262.50 L 218.60 265.40 L 221.70 268.20 L 225.40 270.90 L 232.00 274.90 L 238.60 278.10 L 245.10 280.80 L 251.70 282.80 L 258.30 284.30 L 265.00 285.10 L 271.70 285.50 L 278.50 285.30 L 285.30 284.50 L 292.20 283.10 L 299.10 281.20 L 319.40 273.70 L 323.70 272.70 L 329.40 272.20 L 335.30 272.90 L 346.60 277.10 L 351.90 278.80 L 360.10 280.70 L 368.30 282.20 L 384.70 284.10 L 395.60 284.60 L 406.60 284.50 L 417.50 283.80 L 428.50 282.60 L 439.40 281.00 L 450.40 278.90 L 461.20 294.50 L 464.90 299.60 L 468.90 304.30 L 473.30 308.60 L 478.40 312.70 L 483.80 316.40 L 494.90 322.70 L 506.70 327.90 L 515.70 331.20 L 525.00 334.10 L 543.70 339.40 L 547.80 340.70 L 550.70 342.00 L 552.50 343.20 L 553.60 344.30 L 554.10 345.50 L 554.30 346.70 L 553.90 348.20 L 553.00 349.90 L 551.10 352.20 L 547.90 355.10 L 536.00 364.70 L 523.90 374.10 L 486.90 401.20 L 482.10 404.40 L 476.00 407.40 L 473.80 407.90 L 469.70 408.00 L 465.10 406.80 L 461.40 405.10 L 444.40 395.40 L 450.30 387.20 L 452.70 383.50 L 454.50 380.00 L 455.80 376.70 L 456.50 373.60 L 456.80 370.30 L 456.60 367.20 L 455.90 364.20 L 454.70 361.30 L 452.90 358.50 L 450.80 356.00 L 448.20 353.70 L 445.10 351.30 L 441.20 349.10 L 436.60 346.90 L 428.70 344.10 L 413.10 342.60 L 400.20 340.90 L 349.00 332.20 L 342.70 331.50 L 330.10 330.80 L 323.90 331.10 L 317.70 331.70 L 311.60 332.70 L 305.70 334.20 L 299.80 336.10 L 294.20 338.60 L 288.80 341.50 L 283.60 345.10 L 273.20 353.90 L 262.30 362.00 L 253.80 367.30 L 240.80 374.70 L 237.60 377.00 L 234.90 379.40 L 232.90 381.90 L 231.10 384.60 L 229.90 387.30 L 229.20 390.00 L 229.00 392.80 L 229.20 395.50 L 230.00 398.20 L 231.20 400.90 L 233.10 403.70 L 237.80 408.60 L 245.00 413.50 L 251.90 416.90 L 258.90 419.80 L 266.00 422.00 L 273.20 423.80 L 280.50 425.00 L 287.90 425.80 L 295.40 426.00 L 302.90 425.90 L 310.50 425.40 L 320.60 423.70 L 335.80 420.20 L 345.90 418.90 L 368.20 419.10 L 385.10 417.90 L 393.40 416.70 L 401.70 415.10 L 410.00 413.00 L 418.20 410.50 L 441.30 434.60 L 424.20 449.20 L 423.00 450.70 L 422.50 451.90 L 422.70 453.10 L 423.40 454.20 L 425.00 455.60 L 427.60 457.00 L 431.70 458.50 L 438.20 460.30 L 446.90 462.00 L 456.30 463.30 L 478.40 465.60 L 502.70 466.90 L 526.90 467.20 L 549.30 466.70 L 567.80 465.10 L 574.50 464.10 L 578.80 463.00 L 583.30 461.00 Z" fill="#ffffff" fill-rule="nonzero" group-id="1,3" id="路径" node-id="17" stroke="none" target-height="409.2" target-width="603" target-x="210" target-y="58"></path><path d="M 311.20 277.10 L 299.10 281.70 L 292.10 283.70 L 285.20 285.00 L 278.30 285.80 L 271.60 286.00 L 264.90 285.60 L 258.20 284.70 L 251.60 283.30 L 245.00 281.20 L 238.50 278.60 L 232.00 275.30 L 225.40 271.40 L 221.70 268.70 L 218.60 265.90 L 216.00 263.00 L 213.90 260.00 L 212.20 256.80 L 211.00 253.50 L 210.30 250.20 L 210.00 246.90 L 210.20 243.60 L 210.80 240.20 L 211.90 236.90 L 213.50 233.50 L 215.40 230.40 L 217.80 227.30 L 220.80 224.30 L 224.30 221.30 L 228.90 218.10 L 233.60 215.40 L 238.40 213.10 L 243.30 211.30 L 253.50 208.60 L 261.40 207.40 L 272.30 206.40 L 274.40 205.90 L 276.70 204.60 L 277.60 203.60 L 278.60 201.60 L 280.30 194.50 L 281.60 190.70 L 283.40 187.10 L 285.60 183.80 L 288.10 180.60 L 290.90 177.80 L 294.00 175.30 L 300.90 171.20 L 308.50 168.50 L 314.20 167.30 L 316.10 166.40 L 319.50 164.10 L 321.80 161.00 L 327.20 151.10 L 332.80 141.70 L 338.70 132.90 L 345.00 124.60 L 351.60 116.80 L 358.50 109.50 L 365.70 102.70 L 373.20 96.30 L 381.10 90.40 L 389.40 85.00 L 398.10 80.00 L 407.20 75.50 L 416.70 71.40 L 426.70 67.80 L 437.10 64.70 L 448.10 62.00 L 457.60 60.20 L 466.90 59.00 L 476.10 58.20 L 485.10 58.00 L 494.00 58.20 L 502.90 59.00 L 511.70 60.20 L 520.50 61.80 L 529.20 63.90 L 537.80 66.50 L 546.20 69.40 L 554.60 72.80 L 562.90 76.70 L 571.20 80.90 L 593.20 94.00 L 598.30 97.40 L 607.10 104.10 L 610.90 106.40 L 616.40 108.30 L 619.20 108.60 L 622.00 108.60 L 625.10 108.00 L 633.90 105.00 L 644.90 102.50 L 655.60 100.70 L 666.00 99.40 L 676.30 98.70 L 684.50 98.60 L 692.60 99.00 L 700.60 99.70 L 708.50 100.90 L 716.20 102.40 L 723.80 104.40 L 731.30 106.90 L 738.70 109.80 L 746.00 113.20 L 753.30 117.10 L 760.20 121.30 L 767.00 126.00 L 773.80 131.30 L 780.60 137.20 L 787.30 143.70 L 792.00 148.80 L 796.30 154.30 L 798.70 158.20 L 802.70 166.20 L 804.10 170.40 L 805.00 174.70 L 805.40 179.10 L 805.30 183.50 L 804.60 188.10 L 801.50 200.10 L 801.10 203.40 L 801.00 208.20 L 801.50 213.10 L 802.40 217.90 L 805.10 227.90 L 805.80 232.50 L 806.10 237.00 L 805.90 241.40 L 805.20 245.80 L 804.20 250.00 L 802.80 254.00 L 800.90 257.90 L 798.70 261.60 L 796.20 265.10 L 793.30 268.40 L 786.60 274.20 L 782.80 276.70 L 774.30 280.90 L 769.80 282.40 L 765.10 283.60 L 760.00 284.40 L 754.70 284.90 L 748.10 284.90 L 741.80 284.30 L 735.70 283.20 L 729.80 281.50 L 724.00 279.40 L 718.40 276.80 L 712.80 273.80 L 705.70 269.50 L 702.00 268.10 L 698.30 267.60 L 688.90 270.30 L 649.70 284.40 L 637.20 285.50 L 624.70 285.90 L 612.30 285.80 L 603.00 285.30 L 593.70 284.30 L 584.40 282.90 L 575.10 281.00 L 566.60 278.80 L 558.40 276.00 L 550.50 272.70 L 544.80 269.90 L 534.00 263.40 L 524.10 255.70 L 519.50 251.40 L 515.20 246.80 L 511.10 241.90 L 482.00 268.10 L 451.00 280.40 L 441.10 282.30 L 431.20 283.70 L 421.30 284.70 L 411.50 285.30 L 401.70 285.40 L 391.80 285.10 L 382.00 284.20 L 372.10 282.90 L 362.30 281.10 L 346.90 277.40 L 341.40 275.80 L 337.80 274.20 L 334.30 273.20 L 331.00 272.80 L 324.40 273.10 L 321.10 273.80 L 311.20 277.10 Z" fill="#059f2a" fill-rule="nonzero" group-id="1,3" id="形状结合" node-id="18" stroke="none" target-height="228" target-width="596.1" target-x="210" target-y="58"></path><path d="M 649.70 284.40 L 647.90 288.00 L 646.80 291.40 L 646.30 294.60 L 646.40 297.80 L 646.90 300.90 L 648.00 304.00 L 649.60 307.20 L 654.90 314.80 L 663.40 328.20 L 665.90 332.60 L 667.60 336.50 L 668.70 339.90 L 669.20 342.50 L 668.80 347.50 L 668.10 350.00 L 665.40 354.60 L 660.60 359.70 L 646.20 372.30 L 598.00 411.80 L 596.30 413.80 L 594.60 416.40 L 662.70 403.50 L 676.10 420.20 L 643.00 430.50 L 634.80 433.50 L 626.90 436.80 L 612.00 444.30 L 604.80 448.50 L 594.30 455.40 L 584.10 462.70 L 579.10 466.70 L 574.80 470.90 L 571.20 475.00 L 568.00 479.50 L 565.40 484.30 L 563.40 489.40 L 561.80 494.70 L 560.70 500.60 L 560.10 507.20 L 474.10 507.20 L 379.50 504.70 L 382.80 498.80 L 389.20 488.60 L 394.30 481.80 L 399.60 475.60 L 411.40 463.60 L 425.00 451.00 L 442.20 436.40 L 419.10 412.20 L 445.20 397.10 L 462.20 406.80 L 468.20 409.40 L 470.40 409.80 L 474.50 409.70 L 479.10 408.10 L 487.70 402.90 L 524.70 375.80 L 548.70 356.70 L 551.90 353.80 L 553.80 351.60 L 554.80 349.80 L 555.10 348.40 L 555.00 347.10 L 554.50 346.00 L 553.40 344.80 L 551.50 343.60 L 548.70 342.30 L 544.50 341.00 L 525.80 335.70 L 516.50 332.80 L 507.40 329.50 L 495.70 324.30 L 484.50 318.00 L 479.20 314.30 L 474.10 310.20 L 469.70 305.90 L 465.70 301.10 L 461.90 296.00 L 451.10 280.40 L 482.00 268.10 L 498.60 282.90 L 509.90 292.10 L 515.90 296.30 L 522.10 300.00 L 528.50 303.30 L 535.00 306.10 L 541.70 308.60 L 555.50 312.60 L 569.60 315.20 L 580.30 316.30 L 582.90 316.10 L 584.80 315.60 L 586.20 314.80 L 587.20 313.80 L 587.80 312.50 L 588.20 310.90 L 588.10 308.90 L 587.50 306.40 L 586.40 303.20 L 575.20 281.00 L 584.40 282.90 L 593.70 284.30 L 603.00 285.30 L 612.30 285.80 L 624.70 285.90 L 637.20 285.40 L 649.70 284.40 Z" fill="#7a4932" fill-rule="nonzero" group-id="1,3" id="路径" node-id="19" stroke="none" target-height="239.1" target-width="296.59998" target-x="379.5" target-y="268.1"></path><path d="M 444.90 396.60 L 418.80 411.80 L 410.50 414.30 L 402.30 416.40 L 394.00 418.00 L 385.60 419.20 L 374.50 420.20 L 363.10 420.50 L 347.10 420.20 L 342.70 420.60 L 338.20 421.30 L 317.90 425.70 L 311.20 426.70 L 303.60 427.30 L 296.10 427.40 L 288.60 427.10 L 281.20 426.40 L 274.00 425.10 L 266.80 423.40 L 259.70 421.10 L 252.70 418.30 L 245.80 414.80 L 241.90 412.40 L 238.70 410.00 L 236.00 407.50 L 233.90 405.00 L 232.10 402.20 L 230.80 399.50 L 230.10 396.70 L 229.80 394.00 L 230.00 391.20 L 230.70 388.50 L 231.90 385.80 L 233.70 383.00 L 235.80 380.60 L 238.40 378.10 L 241.70 375.70 L 254.60 368.30 L 263.10 363.00 L 274.00 354.90 L 284.40 346.00 L 289.60 342.40 L 295.00 339.40 L 300.70 336.90 L 306.50 334.90 L 312.40 333.50 L 318.50 332.40 L 324.70 331.80 L 337.20 331.70 L 349.60 333.00 L 400.80 341.80 L 413.70 343.40 L 429.30 344.90 L 437.10 347.80 L 441.70 350.00 L 445.60 352.30 L 448.80 354.60 L 451.40 357.00 L 453.40 359.50 L 455.20 362.30 L 456.40 365.20 L 457.10 368.20 L 457.30 371.30 L 457.00 374.60 L 456.30 377.80 L 455.10 381.10 L 453.30 384.60 L 450.90 388.40 L 446.20 394.40 L 444.90 396.60 Z M 675.40 419.60 L 662.00 402.90 L 662.40 398.50 L 663.30 394.40 L 664.50 390.60 L 666.20 387.10 L 668.40 383.90 L 670.90 380.90 L 673.80 378.30 L 677.10 376.10 L 680.60 374.30 L 684.50 372.80 L 688.80 371.80 L 704.30 370.30 L 714.70 368.70 L 728.50 365.60 L 742.20 361.70 L 748.90 360.60 L 755.40 360.10 L 761.80 360.10 L 768.20 360.80 L 774.50 362.10 L 780.70 364.00 L 786.80 366.60 L 792.80 369.80 L 798.90 373.70 L 802.30 376.50 L 805.20 379.30 L 807.60 382.30 L 809.50 385.40 L 811.10 388.70 L 812.20 392.10 L 812.80 395.50 L 813.00 398.90 L 812.80 402.30 L 812.10 405.60 L 811.00 408.90 L 809.40 412.20 L 807.40 415.30 L 805.00 418.20 L 802.00 421.00 L 798.50 423.70 L 792.60 427.40 L 786.80 430.40 L 780.90 432.70 L 775.10 434.50 L 769.00 435.70 L 763.00 436.50 L 756.80 436.70 L 750.60 436.40 L 744.50 435.60 L 738.30 434.40 L 731.90 432.70 L 722.60 429.70 L 707.50 427.30 L 675.40 419.60 Z" fill="#007e1e" fill-rule="nonzero" group-id="1,3" id="形状" node-id="20" stroke="none" target-height="105" target-width="583.2" target-x="229.8" target-y="331.7"></path><path d="M 632.50 105.60 L 628.50 107.60 Z" fill="#51a799" fill-rule="nonzero" group-id="1,3" id="路径" node-id="21" stroke="none" target-height="2" target-width="4" target-x="628.5" target-y="105.6"></path></g></g></svg>