<?xml version="1.0" standalone="no"?><!DOCTYPE svg PUBLIC "-//W3C//DTD SVG 1.1//EN" "http://www.w3.org/Graphics/SVG/1.1/DTD/svg11.dtd"><svg height="1024" node-id="1" sillyvg="true" template-height="1024" template-width="1024" version="1.1" viewBox="0 0 1024 1024" width="1024" xmlns="http://www.w3.org/2000/svg" xmlns:xlink="http://www.w3.org/1999/xlink"><defs node-id="74"><clipPath id="XMLID_3_" node-id="11"><path d="M 523.90 412.30 L 523.10 426.40 L 520.90 439.90 L 518.70 448.70 L 516.00 457.10 L 513.00 465.20 L 509.60 473.20 L 502.30 487.60 L 496.30 497.60 L 490.60 506.20 L 479.90 520.40 L 469.00 532.60 L 458.10 520.40 L 447.40 506.20 L 441.70 497.50 L 435.70 487.50 L 432.00 480.60 L 425.00 465.20 L 422.00 457.10 L 419.30 448.70 L 417.10 439.90 L 415.80 433.20 L 414.30 419.40 L 414.10 412.30 L 414.30 405.20 L 415.80 391.40 L 417.10 384.70 L 419.30 375.90 L 422.00 367.50 L 425.00 359.40 L 432.00 344.00 L 435.70 337.10 L 441.70 327.10 L 447.40 318.40 L 453.20 310.50 L 462.80 298.70 L 469.00 292.00 L 479.90 304.20 L 490.60 318.40 L 496.30 327.10 L 502.30 337.10 L 509.60 351.50 L 513.00 359.40 L 516.00 367.50 L 518.70 375.90 L 520.90 384.70 L 523.10 398.20 L 523.90 412.30 Z" fill="#000000" fill-rule="nonzero" node-id="77" stroke="none" target-height="240.59998" target-width="109.80002" target-x="414.1" target-y="292"></path></clipPath><clipPath id="XMLID_4_" node-id="22"><path d="M 576.70 455.90 L 568.90 467.70 L 560.20 478.30 L 553.90 484.80 L 547.40 490.80 L 540.80 496.30 L 533.90 501.40 L 520.30 510.30 L 510.20 516.00 L 500.90 520.60 L 484.50 527.50 L 469.00 532.70 L 465.70 516.70 L 463.50 499.00 L 462.90 488.70 L 462.70 477.00 L 463.00 469.10 L 464.60 452.30 L 466.10 443.80 L 468.00 435.20 L 470.50 426.50 L 472.70 420.10 L 478.30 407.40 L 481.70 401.10 L 485.50 395.00 L 493.70 383.90 L 498.20 378.70 L 504.50 372.20 L 511.00 366.20 L 517.60 360.70 L 531.40 350.90 L 538.10 346.70 L 548.20 341.00 L 557.50 336.40 L 566.50 332.40 L 580.70 327.00 L 589.40 324.30 L 592.70 340.30 L 594.90 358.00 L 595.50 368.30 L 595.60 379.90 L 594.80 396.00 L 593.70 404.60 L 592.30 413.10 L 590.40 421.70 L 587.90 430.50 L 583.10 443.30 L 576.70 455.90 Z" fill="#000000" fill-rule="nonzero" node-id="81" stroke="none" target-height="208.40002" target-width="132.89996" target-x="462.7" target-y="324.3"></path></clipPath><clipPath id="XMLID_5_" node-id="33"><path d="M 600.60 520.00 L 588.00 526.30 L 575.20 531.20 L 566.50 533.70 L 557.90 535.60 L 549.40 537.00 L 540.80 538.10 L 524.70 538.90 L 513.00 538.80 L 502.70 538.20 L 485.00 536.00 L 469.00 532.70 L 474.10 517.20 L 481.10 500.80 L 485.70 491.50 L 491.40 481.40 L 500.20 467.80 L 505.40 460.90 L 510.90 454.30 L 516.90 447.80 L 523.40 441.50 L 534.00 432.80 L 545.80 425.00 L 558.40 418.60 L 571.20 413.80 L 580.00 411.30 L 588.60 409.40 L 597.10 407.90 L 605.70 406.90 L 621.80 406.00 L 633.40 406.20 L 643.70 406.80 L 661.40 409.00 L 677.40 412.30 L 672.30 427.80 L 665.30 444.20 L 660.70 453.50 L 655.00 463.70 L 646.20 477.20 L 641.00 484.10 L 635.50 490.80 L 629.50 497.30 L 623.00 503.60 L 612.40 512.30 L 600.60 520.00 Z" fill="#000000" fill-rule="nonzero" node-id="85" stroke="none" target-height="132.90002" target-width="208.40002" target-x="469" target-y="406"></path></clipPath><clipPath id="XMLID_6_" node-id="44"><path d="M 392.20 425.00 L 404.00 432.70 L 414.60 441.40 L 421.10 447.70 L 427.10 454.20 L 432.60 460.90 L 437.80 467.80 L 446.60 481.30 L 452.30 491.50 L 456.90 500.80 L 463.90 517.20 L 469.00 532.70 L 453.00 536.00 L 435.30 538.20 L 425.00 538.80 L 413.30 539.00 L 405.40 538.70 L 388.60 537.10 L 380.10 535.60 L 371.50 533.70 L 362.80 531.20 L 356.40 529.00 L 343.70 523.40 L 337.40 520.00 L 331.30 516.20 L 320.20 508.00 L 315.00 503.50 L 308.50 497.20 L 302.50 490.70 L 297.00 484.10 L 287.20 470.30 L 283.00 463.60 L 277.30 453.50 L 272.70 444.20 L 268.70 435.20 L 263.30 421.00 L 260.60 412.30 L 276.60 409.00 L 294.30 406.80 L 304.60 406.20 L 316.20 406.10 L 332.30 406.90 L 340.90 408.00 L 349.40 409.40 L 358.00 411.30 L 366.80 413.80 L 379.60 418.60 L 392.20 425.00 Z" fill="#000000" fill-rule="nonzero" node-id="89" stroke="none" target-height="132.9" target-width="208.4" target-x="260.6" target-y="406.1"></path></clipPath><clipPath id="XMLID_10_" node-id="55"><path d="M 456.30 401.00 L 462.70 413.60 L 467.50 426.40 L 470.00 435.20 L 471.90 443.80 L 473.30 452.30 L 474.40 460.90 L 475.20 477.00 L 475.10 488.60 L 474.50 498.90 L 472.30 516.60 L 469.00 532.60 L 453.50 527.50 L 437.10 520.50 L 427.80 515.90 L 417.70 510.20 L 404.10 501.40 L 397.20 496.20 L 390.60 490.70 L 384.10 484.70 L 377.80 478.20 L 369.10 467.60 L 361.30 455.80 L 354.90 443.20 L 350.10 430.40 L 347.60 421.60 L 345.70 413.00 L 344.20 404.50 L 343.20 395.90 L 342.30 379.80 L 342.50 368.20 L 343.10 357.90 L 345.30 340.20 L 348.60 324.20 L 364.10 329.40 L 380.50 336.30 L 389.80 340.90 L 400.00 346.60 L 413.50 355.50 L 420.40 360.60 L 427.10 366.10 L 433.60 372.10 L 439.90 378.60 L 448.60 389.20 L 456.30 401.00 Z" fill="#000000" fill-rule="nonzero" node-id="93" stroke="none" target-height="208.39996" target-width="132.90002" target-x="342.3" target-y="324.2"></path></clipPath><clipPath id="XMLID_11_" node-id="66"><path d="M 587.40 749.10 L 348.00 749.10 L 300.10 539.90 L 637.90 539.90 Z" fill="#000000" fill-rule="nonzero" node-id="97" stroke="none" target-height="209.19995" target-width="337.80002" target-x="300.1" target-y="539.9"></path></clipPath></defs><g node-id="293"><g node-id="295"><g node-id="305"><g node-id="310"><path d="M 523.90 412.30 L 523.10 426.40 L 520.90 439.90 L 518.70 448.70 L 516.00 457.10 L 513.00 465.20 L 509.60 473.20 L 502.30 487.60 L 496.30 497.60 L 490.60 506.20 L 479.90 520.40 L 469.00 532.60 L 458.10 520.40 L 447.40 506.20 L 441.70 497.50 L 435.70 487.50 L 432.00 480.60 L 425.00 465.20 L 422.00 457.10 L 419.30 448.70 L 417.10 439.90 L 415.80 433.20 L 414.30 419.40 L 414.10 412.30 L 414.30 405.20 L 415.80 391.40 L 417.10 384.70 L 419.30 375.90 L 422.00 367.50 L 425.00 359.40 L 432.00 344.00 L 435.70 337.10 L 441.70 327.10 L 447.40 318.40 L 453.20 310.50 L 462.80 298.70 L 469.00 292.00 L 479.90 304.20 L 490.60 318.40 L 496.30 327.10 L 502.30 337.10 L 509.60 351.50 L 513.00 359.40 L 516.00 367.50 L 518.70 375.90 L 520.90 384.70 L 523.10 398.20 L 523.90 412.30 Z" fill="#70ce49" fill-rule="nonzero" group-id="1,3,13,18" node-id="111" stroke="none" target-height="240.59998" target-width="109.80002" target-x="414.1" target-y="292"></path></g><g node-id="311"><g clip-path="url(#XMLID_3_)" group-id="1,3,13,19" node-id="114"><path d="M 475.30 273.60 L 477.00 290.40 L 478.30 308.20 L 479.20 329.60 L 479.40 340.90 L 478.80 363.80 L 477.90 374.50 L 477.00 381.60 L 474.70 393.90 L 473.00 399.70 L 471.10 404.50 L 448.20 445.40 L 435.90 469.10 L 429.50 481.90 L 417.20 509.00 L 411.70 522.40 L 408.30 531.40 L 402.80 548.30 L 400.60 556.60 L 399.00 564.30 L 398.00 571.20 L 397.50 576.50 L 397.50 581.30 L 398.60 589.20 L 399.70 592.40 L 401.30 595.40 L 403.40 598.20 L 406.10 600.90 L 409.00 603.20 L 416.10 607.50 L 426.30 611.60 L 432.70 613.50 L 439.80 615.20 L 454.60 617.70 L 474.50 619.70 L 486.60 620.40 L 510.40 620.70 L 532.00 620.20 L 549.70 619.20 L 566.00 617.90 L 599.40 616.30 L 593.30 562.50 L 588.70 526.90 L 579.70 465.20 L 572.30 421.70 L 564.00 379.30 L 559.50 359.50 L 554.70 340.30 L 549.90 323.10 L 542.90 302.30 L 536.50 287.30 L 531.00 277.40 L 525.80 270.70 L 523.30 268.50 L 521.00 266.90 L 518.70 265.80 L 516.50 265.20 L 501.90 263.60 L 491.30 263.40 L 484.30 264.20 L 479.20 265.80 L 476.40 267.80 L 475.20 269.80 L 474.90 271.30 L 475.30 273.60 Z" fill="#22ac38" fill-rule="nonzero" group-id="1,3,13,19" node-id="116" stroke="none" target-height="357.30002" target-width="201.90002" target-x="397.5" target-y="263.4"></path></g></g><g node-id="312"><g clip-path="url(#XMLID_3_)" group-id="1,3,13,20" node-id="119"><path d="M 472.40 300.30 L 466.20 307.20 L 461.60 313.10 L 456.80 319.80 L 451.20 328.50 L 443.80 341.60 L 440.00 349.40 L 436.50 357.40 L 433.10 366.10 L 430.00 375.50 L 427.30 385.10 L 425.10 395.40 L 423.30 406.40 L 422.30 414.70 L 421.80 423.30 L 421.60 432.30 L 421.80 441.70 L 417.70 435.70 L 414.90 430.80 L 412.10 425.30 L 409.20 418.30 L 406.00 408.00 L 404.60 402.10 L 403.70 396.10 L 403.30 389.80 L 403.30 383.00 L 403.60 377.90 L 405.50 367.30 L 408.90 356.20 L 411.30 350.70 L 414.30 344.90 L 417.90 338.90 L 421.80 333.30 L 426.40 327.50 L 431.70 321.60 L 437.90 315.40 L 444.20 309.80 L 451.50 304.00 L 459.70 298.10 L 469.00 292.00 L 496.30 275.40 L 512.30 266.20 L 517.30 263.80 L 519.10 263.20 L 519.60 263.30 L 519.50 263.70 L 516.40 267.00 L 512.70 270.10 L 492.80 285.40 L 472.40 300.30 Z" fill="#f3ffa1" fill-rule="nonzero" group-id="1,3,13,20" node-id="121" stroke="none" target-height="178.5" target-width="116.29999" target-x="403.3" target-y="263.2"></path></g></g><g node-id="313"><g clip-path="url(#XMLID_3_)" group-id="1,3,13,21" node-id="124"><path d="M 469.00 304.00 L 475.20 312.00 L 484.50 325.90 L 490.00 335.20 L 497.20 348.90 L 504.10 364.80 L 507.20 373.30 L 510.00 382.40 L 512.30 391.50 L 514.10 401.00 L 515.40 410.90 L 516.00 418.40 L 516.20 426.00 L 515.90 433.70 L 515.20 441.60 L 514.00 449.30 L 512.20 457.10 L 509.90 465.10 L 507.00 473.20 L 540.70 481.20 L 510.80 305.20 L 481.40 293.80 L 469.00 304.00 Z" fill="#1a8226" fill-rule="nonzero" group-id="1,3,13,21" node-id="126" stroke="none" target-height="187.40002" target-width="71.70001" target-x="469" target-y="293.8"></path></g></g><path d="M 523.90 412.30 L 523.10 426.40 L 520.90 439.90 L 518.70 448.70 L 516.00 457.10 L 513.00 465.20 L 509.60 473.20 L 502.30 487.60 L 496.30 497.60 L 490.60 506.20 L 479.90 520.40 L 469.00 532.60 L 458.10 520.40 L 447.40 506.20 L 441.70 497.50 L 435.70 487.50 L 432.00 480.60 L 425.00 465.20 L 422.00 457.10 L 419.30 448.70 L 417.10 439.90 L 415.80 433.20 L 414.30 419.40 L 414.10 412.30 L 414.30 405.20 L 415.80 391.40 L 417.10 384.70 L 419.30 375.90 L 422.00 367.50 L 425.00 359.40 L 432.00 344.00 L 435.70 337.10 L 441.70 327.10 L 447.40 318.40 L 453.20 310.50 L 462.80 298.70 L 469.00 292.00 L 479.90 304.20 L 490.60 318.40 L 496.30 327.10 L 502.30 337.10 L 509.60 351.50 L 513.00 359.40 L 516.00 367.50 L 518.70 375.90 L 520.90 384.70 L 523.10 398.20 L 523.90 412.30 Z" fill="none" group-id="1,3,13,22" node-id="131" stroke="#6a3906" stroke-linecap="butt" stroke-width="6" target-height="240.59998" target-width="109.80002" target-x="414.1" target-y="292"></path></g></g><g node-id="296"><g node-id="306"><g node-id="315"><path d="M 576.70 455.90 L 568.90 467.70 L 560.20 478.30 L 553.90 484.80 L 547.40 490.80 L 540.80 496.30 L 533.90 501.40 L 520.30 510.30 L 510.20 516.00 L 500.90 520.60 L 484.50 527.50 L 469.00 532.70 L 465.70 516.70 L 463.50 499.00 L 462.90 488.70 L 462.70 477.00 L 463.00 469.10 L 464.60 452.30 L 466.10 443.80 L 468.00 435.20 L 470.50 426.50 L 472.70 420.10 L 478.30 407.40 L 481.70 401.10 L 485.50 395.00 L 493.70 383.90 L 498.20 378.70 L 504.50 372.20 L 511.00 366.20 L 517.60 360.70 L 531.40 350.90 L 538.10 346.70 L 548.20 341.00 L 557.50 336.40 L 566.50 332.40 L 580.70 327.00 L 589.40 324.30 L 592.70 340.30 L 594.90 358.00 L 595.50 368.30 L 595.60 379.90 L 594.80 396.00 L 593.70 404.60 L 592.30 413.10 L 590.40 421.70 L 587.90 430.50 L 583.10 443.30 L 576.70 455.90 Z" fill="#70ce49" fill-rule="nonzero" group-id="1,4,14,23" node-id="142" stroke="none" target-height="208.40002" target-width="132.89996" target-x="462.7" target-y="324.3"></path></g><g node-id="316"><g clip-path="url(#XMLID_4_)" group-id="1,4,14,24" node-id="145"><path d="M 604.00 311.50 L 597.00 326.90 L 589.20 343.00 L 579.40 361.90 L 573.80 371.80 L 561.90 391.30 L 555.80 400.20 L 551.50 405.90 L 543.30 415.40 L 538.90 419.60 L 534.90 422.80 L 494.70 446.70 L 472.10 461.10 L 460.20 469.10 L 436.00 486.30 L 424.60 495.20 L 417.10 501.40 L 403.90 513.20 L 397.80 519.30 L 392.60 525.10 L 388.30 530.60 L 385.20 535.00 L 382.80 539.10 L 379.80 546.50 L 379.20 549.80 L 379.10 553.20 L 379.50 556.70 L 380.40 560.40 L 381.80 563.80 L 385.80 571.10 L 392.60 579.70 L 397.20 584.60 L 402.50 589.60 L 414.00 599.20 L 430.30 610.80 L 440.50 617.50 L 460.90 629.70 L 479.90 640.00 L 495.70 648.00 L 510.50 655.00 L 540.20 670.30 L 561.80 620.60 L 575.60 587.50 L 598.70 529.60 L 614.00 488.30 L 628.00 447.40 L 634.10 428.00 L 639.50 408.90 L 643.90 391.70 L 648.30 370.10 L 650.20 354.00 L 650.40 342.60 L 649.20 334.20 L 648.20 331.00 L 647.00 328.50 L 645.50 326.40 L 643.90 324.80 L 632.00 316.00 L 623.00 310.60 L 616.50 307.80 L 611.20 306.70 L 607.90 307.00 L 605.80 308.20 L 604.80 309.30 L 604.00 311.50 Z" fill="#22ac38" fill-rule="nonzero" group-id="1,4,14,24" node-id="147" stroke="none" target-height="363.59998" target-width="271.30002" target-x="379.1" target-y="306.7"></path></g></g><g node-id="317"><g clip-path="url(#XMLID_4_)" group-id="1,4,14,25" node-id="150"><path d="M 588.10 333.20 L 579.30 336.10 L 572.40 338.90 L 564.90 342.30 L 555.60 347.00 L 542.60 354.70 L 535.40 359.50 L 528.40 364.70 L 521.20 370.50 L 513.70 377.20 L 506.70 384.10 L 499.60 391.90 L 492.50 400.50 L 482.80 414.40 L 478.10 422.10 L 473.60 430.30 L 473.00 423.00 L 473.00 417.40 L 473.40 411.20 L 474.40 403.70 L 476.70 393.20 L 478.50 387.40 L 480.70 381.80 L 483.50 376.10 L 486.90 370.20 L 489.70 366.00 L 496.70 357.70 L 505.20 349.90 L 510.00 346.20 L 515.50 342.70 L 521.60 339.30 L 527.80 336.40 L 534.60 333.70 L 542.20 331.20 L 550.70 329.00 L 558.90 327.30 L 568.10 325.90 L 578.20 324.90 L 589.30 324.30 L 621.20 323.50 L 639.70 323.60 L 645.30 324.00 L 647.10 324.40 L 647.50 324.70 L 647.20 325.00 L 642.80 326.30 L 638.10 327.20 L 613.20 330.50 L 588.10 333.20 Z" fill="#f3ffa1" fill-rule="nonzero" group-id="1,4,14,25" node-id="152" stroke="none" target-height="106.79999" target-width="174.5" target-x="473" target-y="323.5"></path></g></g><g node-id="318"><g clip-path="url(#XMLID_4_)" group-id="1,4,14,26" node-id="155"><path d="M 583.30 334.70 L 584.70 344.70 L 585.80 361.40 L 585.90 372.20 L 585.30 387.60 L 583.30 404.90 L 581.70 413.80 L 579.60 423.00 L 577.00 432.10 L 573.90 441.30 L 570.10 450.50 L 566.80 457.20 L 563.20 463.90 L 559.10 470.40 L 554.50 476.90 L 549.60 483.00 L 544.20 488.90 L 538.20 494.60 L 531.60 500.20 L 556.80 524.00 L 618.90 356.70 L 599.10 332.00 L 583.30 334.70 Z" fill="#1a8226" fill-rule="nonzero" group-id="1,4,14,26" node-id="157" stroke="none" target-height="192" target-width="87.30005" target-x="531.6" target-y="332"></path></g></g><path d="M 576.70 455.90 L 568.90 467.70 L 560.20 478.30 L 553.90 484.80 L 547.40 490.80 L 540.80 496.30 L 533.90 501.40 L 520.30 510.30 L 510.20 516.00 L 500.90 520.60 L 484.50 527.50 L 469.00 532.70 L 465.70 516.70 L 463.50 499.00 L 462.90 488.70 L 462.70 477.00 L 463.00 469.10 L 464.60 452.30 L 466.10 443.80 L 468.00 435.20 L 470.50 426.50 L 472.70 420.10 L 478.30 407.40 L 481.70 401.10 L 485.50 395.00 L 493.70 383.90 L 498.20 378.70 L 504.50 372.20 L 511.00 366.20 L 517.60 360.70 L 531.40 350.90 L 538.10 346.70 L 548.20 341.00 L 557.50 336.40 L 566.50 332.40 L 580.70 327.00 L 589.40 324.30 L 592.70 340.30 L 594.90 358.00 L 595.50 368.30 L 595.60 379.90 L 594.80 396.00 L 593.70 404.60 L 592.30 413.10 L 590.40 421.70 L 587.90 430.50 L 583.10 443.30 L 576.70 455.90 Z" fill="none" group-id="1,4,14,27" node-id="162" stroke="#6a3906" stroke-linecap="butt" stroke-width="6" target-height="208.40002" target-width="132.89996" target-x="462.7" target-y="324.3"></path></g></g><g node-id="297"><g node-id="307"><g node-id="320"><path d="M 600.60 520.00 L 588.00 526.30 L 575.20 531.20 L 566.50 533.70 L 557.90 535.60 L 549.40 537.00 L 540.80 538.10 L 524.70 538.90 L 513.00 538.80 L 502.70 538.20 L 485.00 536.00 L 469.00 532.70 L 474.10 517.20 L 481.10 500.80 L 485.70 491.50 L 491.40 481.40 L 500.20 467.80 L 505.40 460.90 L 510.90 454.30 L 516.90 447.80 L 523.40 441.50 L 534.00 432.80 L 545.80 425.00 L 558.40 418.60 L 571.20 413.80 L 580.00 411.30 L 588.60 409.40 L 597.10 407.90 L 605.70 406.90 L 621.80 406.00 L 633.40 406.20 L 643.70 406.80 L 661.40 409.00 L 677.40 412.30 L 672.30 427.80 L 665.30 444.20 L 660.70 453.50 L 655.00 463.70 L 646.20 477.20 L 641.00 484.10 L 635.50 490.80 L 629.50 497.30 L 623.00 503.60 L 612.40 512.30 L 600.60 520.00 Z" fill="#70ce49" fill-rule="nonzero" group-id="1,5,15,28" node-id="173" stroke="none" target-height="132.90002" target-width="208.40002" target-x="469" target-y="406"></path></g><g node-id="321"><g clip-path="url(#XMLID_5_)" group-id="1,5,15,29" node-id="176"><path d="M 696.50 408.60 L 682.80 418.40 L 668.00 428.50 L 650.00 439.90 L 640.20 445.70 L 620.10 456.70 L 610.40 461.30 L 603.80 464.10 L 592.00 468.20 L 586.10 469.60 L 581.00 470.40 L 534.20 471.00 L 507.50 472.20 L 493.20 473.10 L 463.70 476.00 L 449.30 478.00 L 439.80 479.60 L 422.40 483.20 L 414.10 485.50 L 406.70 487.90 L 400.20 490.50 L 395.30 492.80 L 391.20 495.10 L 384.90 500.00 L 382.70 502.60 L 380.90 505.50 L 379.50 508.70 L 378.50 512.30 L 378.00 516.00 L 377.80 524.30 L 379.40 535.10 L 380.90 541.70 L 383.00 548.70 L 388.20 562.80 L 396.40 581.00 L 401.90 591.90 L 413.50 612.60 L 424.80 631.10 L 434.50 645.90 L 443.80 659.40 L 461.80 687.50 L 505.30 655.30 L 533.90 633.50 L 582.80 594.90 L 616.70 566.80 L 649.30 538.30 L 664.30 524.60 L 678.50 510.80 L 690.90 498.00 L 705.50 481.50 L 715.30 468.50 L 721.10 458.70 L 724.30 450.90 L 725.00 447.60 L 725.20 444.80 L 725.00 442.30 L 724.40 440.10 L 718.50 426.60 L 713.40 417.40 L 709.20 411.60 L 705.20 408.00 L 702.10 406.70 L 699.80 406.60 L 698.30 407.10 L 696.50 408.60 Z" fill="#22ac38" fill-rule="nonzero" group-id="1,5,15,29" node-id="178" stroke="none" target-height="280.9" target-width="347.40002" target-x="377.8" target-y="406.6"></path></g></g><g node-id="322"><g clip-path="url(#XMLID_5_)" group-id="1,5,15,30" node-id="181"><path d="M 671.90 419.40 L 662.80 417.50 L 655.40 416.50 L 647.20 415.70 L 636.80 415.10 L 621.80 415.30 L 613.10 415.90 L 604.50 416.90 L 595.30 418.30 L 585.50 420.30 L 575.90 422.80 L 565.90 426.00 L 555.50 429.90 L 547.90 433.30 L 540.10 437.10 L 532.20 441.40 L 524.20 446.30 L 527.30 439.70 L 530.20 434.80 L 533.60 429.70 L 538.10 423.70 L 545.40 415.70 L 549.90 411.60 L 554.60 407.90 L 559.90 404.30 L 565.80 400.90 L 570.30 398.70 L 580.50 395.00 L 591.80 392.40 L 597.80 391.70 L 604.30 391.40 L 611.30 391.50 L 618.10 392.10 L 625.40 393.10 L 633.20 394.80 L 641.70 397.10 L 649.70 399.70 L 658.30 403.10 L 667.60 407.30 L 677.50 412.30 L 705.60 427.60 L 721.50 436.90 L 726.10 440.00 L 727.50 441.30 L 727.70 441.70 L 727.30 441.90 L 722.80 440.80 L 718.20 439.20 L 695.10 429.60 L 671.90 419.40 Z" fill="#f3ffa1" fill-rule="nonzero" group-id="1,5,15,30" node-id="183" stroke="none" target-height="54.899994" target-width="203.5" target-x="524.2" target-y="391.4"></path></g></g><g node-id="323"><g clip-path="url(#XMLID_5_)" group-id="1,5,15,31" node-id="186"><path d="M 667.00 418.40 L 663.20 427.70 L 655.80 442.80 L 650.50 452.20 L 642.20 465.20 L 631.90 479.20 L 626.00 486.10 L 619.60 493.10 L 612.80 499.70 L 605.50 506.00 L 597.60 512.10 L 591.40 516.30 L 585.00 520.20 L 578.10 523.80 L 571.00 527.10 L 563.70 530.00 L 556.00 532.40 L 548.00 534.40 L 539.50 535.90 L 549.40 569.10 L 686.80 455.20 L 682.00 424.00 L 667.00 418.40 Z" fill="#1a8226" fill-rule="nonzero" group-id="1,5,15,31" node-id="188" stroke="none" target-height="150.69998" target-width="147.29999" target-x="539.5" target-y="418.4"></path></g></g><path d="M 600.60 520.00 L 588.00 526.30 L 575.20 531.20 L 566.50 533.70 L 557.90 535.60 L 549.40 537.00 L 540.80 538.10 L 524.70 538.90 L 513.00 538.80 L 502.70 538.20 L 485.00 536.00 L 469.00 532.70 L 474.10 517.20 L 481.10 500.80 L 485.70 491.50 L 491.40 481.40 L 500.20 467.80 L 505.40 460.90 L 510.90 454.30 L 516.90 447.80 L 523.40 441.50 L 534.00 432.80 L 545.80 425.00 L 558.40 418.60 L 571.20 413.80 L 580.00 411.30 L 588.60 409.40 L 597.10 407.90 L 605.70 406.90 L 621.80 406.00 L 633.40 406.20 L 643.70 406.80 L 661.40 409.00 L 677.40 412.30 L 672.30 427.80 L 665.30 444.20 L 660.70 453.50 L 655.00 463.70 L 646.20 477.20 L 641.00 484.10 L 635.50 490.80 L 629.50 497.30 L 623.00 503.60 L 612.40 512.30 L 600.60 520.00 Z" fill="none" group-id="1,5,15,32" node-id="193" stroke="#6a3906" stroke-linecap="butt" stroke-width="6" target-height="132.90002" target-width="208.40002" target-x="469" target-y="406"></path></g></g><g node-id="298"><g node-id="308"><g node-id="325"><path d="M 392.20 425.00 L 404.00 432.70 L 414.60 441.40 L 421.10 447.70 L 427.10 454.20 L 432.60 460.90 L 437.80 467.80 L 446.60 481.30 L 452.30 491.50 L 456.90 500.80 L 463.90 517.20 L 469.00 532.70 L 453.00 536.00 L 435.30 538.20 L 425.00 538.80 L 413.30 539.00 L 405.40 538.70 L 388.60 537.10 L 380.10 535.60 L 371.50 533.70 L 362.80 531.20 L 356.40 529.00 L 343.70 523.40 L 337.40 520.00 L 331.30 516.20 L 320.20 508.00 L 315.00 503.50 L 308.50 497.20 L 302.50 490.70 L 297.00 484.10 L 287.20 470.30 L 283.00 463.60 L 277.30 453.50 L 272.70 444.20 L 268.70 435.20 L 263.30 421.00 L 260.60 412.30 L 276.60 409.00 L 294.30 406.80 L 304.60 406.20 L 316.20 406.10 L 332.30 406.90 L 340.90 408.00 L 349.40 409.40 L 358.00 411.30 L 366.80 413.80 L 379.60 418.60 L 392.20 425.00 Z" fill="#70ce49" fill-rule="nonzero" group-id="1,6,16,33" node-id="204" stroke="none" target-height="132.9" target-width="208.4" target-x="260.6" target-y="406.1"></path></g><g node-id="326"><g clip-path="url(#XMLID_6_)" group-id="1,6,16,34" node-id="207"><path d="M 247.80 397.70 L 263.20 404.70 L 279.30 412.50 L 298.20 422.30 L 308.10 427.90 L 327.60 439.80 L 336.50 445.90 L 342.20 450.20 L 351.70 458.40 L 355.90 462.80 L 359.10 466.80 L 383.00 507.00 L 397.40 529.60 L 405.40 541.50 L 422.60 565.70 L 431.50 577.10 L 437.70 584.60 L 449.50 597.80 L 455.60 603.90 L 461.40 609.10 L 466.90 613.40 L 471.30 616.50 L 475.40 618.90 L 479.20 620.60 L 482.80 621.90 L 486.10 622.50 L 489.60 622.60 L 493.00 622.20 L 496.70 621.30 L 500.10 619.90 L 507.40 615.90 L 516.00 609.10 L 520.90 604.50 L 525.90 599.20 L 535.50 587.70 L 547.20 571.40 L 553.80 561.20 L 566.00 540.80 L 576.40 521.80 L 584.40 506.00 L 591.40 491.20 L 606.70 461.50 L 557.00 439.90 L 523.90 426.10 L 466.00 403.00 L 424.70 387.70 L 383.80 373.70 L 364.40 367.60 L 345.30 362.20 L 328.10 357.80 L 306.50 353.40 L 290.40 351.50 L 279.00 351.30 L 270.60 352.50 L 267.40 353.50 L 264.90 354.70 L 262.80 356.20 L 261.20 357.80 L 252.40 369.70 L 247.00 378.70 L 244.10 385.20 L 243.00 390.50 L 243.40 393.80 L 244.50 395.90 L 245.60 396.90 L 247.80 397.70 Z" fill="#22ac38" fill-rule="nonzero" group-id="1,6,16,34" node-id="209" stroke="none" target-height="271.3" target-width="363.7" target-x="243" target-y="351.3"></path></g></g><g node-id="327"><g clip-path="url(#XMLID_6_)" group-id="1,6,16,35" node-id="212"><path d="M 269.50 413.60 L 272.40 422.40 L 275.20 429.30 L 278.60 436.80 L 283.30 446.10 L 291.00 459.10 L 295.80 466.30 L 301.00 473.30 L 306.80 480.50 L 313.50 488.00 L 320.40 495.00 L 328.20 502.10 L 336.80 509.20 L 350.70 518.90 L 358.40 523.60 L 366.60 528.10 L 359.30 528.70 L 353.70 528.70 L 347.50 528.30 L 340.00 527.30 L 329.50 525.00 L 323.70 523.20 L 318.10 521.00 L 312.40 518.20 L 306.50 514.80 L 302.30 512.00 L 294.00 505.00 L 286.20 496.50 L 282.50 491.70 L 279.00 486.20 L 275.60 480.10 L 272.70 473.90 L 270.00 467.10 L 267.50 459.50 L 265.30 451.00 L 263.60 442.80 L 262.20 433.60 L 261.20 423.50 L 260.60 412.40 L 259.90 380.50 L 260.00 362.00 L 260.30 356.40 L 260.70 354.60 L 261.00 354.20 L 261.40 354.50 L 262.60 358.90 L 263.50 363.60 L 266.80 388.50 L 269.50 413.60 Z" fill="#f3ffa1" fill-rule="nonzero" group-id="1,6,16,35" node-id="214" stroke="none" target-height="174.5" target-width="106.70001" target-x="259.9" target-y="354.2"></path></g></g><g node-id="328"><g clip-path="url(#XMLID_6_)" group-id="1,6,16,36" node-id="217"><path d="M 271.00 418.40 L 281.00 417.00 L 297.70 415.90 L 308.50 415.80 L 323.90 416.40 L 341.20 418.40 L 350.10 420.00 L 359.30 422.10 L 368.40 424.70 L 377.60 427.80 L 386.80 431.60 L 393.50 434.90 L 400.20 438.50 L 406.70 442.60 L 413.20 447.20 L 419.30 452.10 L 425.20 457.50 L 430.90 463.50 L 436.50 470.10 L 460.30 444.90 L 293.00 382.80 L 268.40 402.60 L 271.00 418.40 Z" fill="#1a8226" fill-rule="nonzero" group-id="1,6,16,36" node-id="219" stroke="none" target-height="87.30002" target-width="191.9" target-x="268.4" target-y="382.8"></path></g></g><path d="M 392.20 425.00 L 404.00 432.70 L 414.60 441.40 L 421.10 447.70 L 427.10 454.20 L 432.60 460.90 L 437.80 467.80 L 446.60 481.30 L 452.30 491.50 L 456.90 500.80 L 463.90 517.20 L 469.00 532.70 L 453.00 536.00 L 435.30 538.20 L 425.00 538.80 L 413.30 539.00 L 405.40 538.70 L 388.60 537.10 L 380.10 535.60 L 371.50 533.70 L 362.80 531.20 L 356.40 529.00 L 343.70 523.40 L 337.40 520.00 L 331.30 516.20 L 320.20 508.00 L 315.00 503.50 L 308.50 497.20 L 302.50 490.70 L 297.00 484.10 L 287.20 470.30 L 283.00 463.60 L 277.30 453.50 L 272.70 444.20 L 268.70 435.20 L 263.30 421.00 L 260.60 412.30 L 276.60 409.00 L 294.30 406.80 L 304.60 406.20 L 316.20 406.10 L 332.30 406.90 L 340.90 408.00 L 349.40 409.40 L 358.00 411.30 L 366.80 413.80 L 379.60 418.60 L 392.20 425.00 Z" fill="none" group-id="1,6,16,37" node-id="224" stroke="#6a3906" stroke-linecap="butt" stroke-width="6" target-height="132.9" target-width="208.4" target-x="260.6" target-y="406.1"></path></g></g><g node-id="299"><g node-id="309"><g node-id="330"><path d="M 456.30 401.00 L 462.70 413.60 L 467.50 426.40 L 470.00 435.20 L 471.90 443.80 L 473.30 452.30 L 474.40 460.90 L 475.20 477.00 L 475.10 488.60 L 474.50 498.90 L 472.30 516.60 L 469.00 532.60 L 453.50 527.50 L 437.10 520.50 L 427.80 515.90 L 417.70 510.20 L 404.10 501.40 L 397.20 496.20 L 390.60 490.70 L 384.10 484.70 L 377.80 478.20 L 369.10 467.60 L 361.30 455.80 L 354.90 443.20 L 350.10 430.40 L 347.60 421.60 L 345.70 413.00 L 344.20 404.50 L 343.20 395.90 L 342.30 379.80 L 342.50 368.20 L 343.10 357.90 L 345.30 340.20 L 348.60 324.20 L 364.10 329.40 L 380.50 336.30 L 389.80 340.90 L 400.00 346.60 L 413.50 355.50 L 420.40 360.60 L 427.10 366.10 L 433.60 372.10 L 439.90 378.60 L 448.60 389.20 L 456.30 401.00 Z" fill="#70ce49" fill-rule="nonzero" group-id="1,7,17,38" node-id="235" stroke="none" target-height="208.39996" target-width="132.90002" target-x="342.3" target-y="324.2"></path></g><g node-id="331"><g clip-path="url(#XMLID_10_)" group-id="1,7,17,39" node-id="238"><path d="M 344.90 305.20 L 354.70 318.90 L 364.80 333.70 L 376.20 351.70 L 382.00 361.50 L 393.00 381.60 L 397.60 391.30 L 400.40 397.90 L 404.50 409.70 L 405.90 415.60 L 406.70 420.70 L 407.30 467.50 L 408.50 494.20 L 409.40 508.50 L 412.30 538.00 L 414.30 552.40 L 415.90 561.90 L 419.50 579.30 L 421.80 587.60 L 424.20 595.00 L 426.80 601.50 L 429.10 606.40 L 431.40 610.50 L 433.80 613.90 L 436.30 616.80 L 438.90 619.00 L 441.80 620.80 L 445.00 622.20 L 448.60 623.20 L 452.30 623.70 L 460.60 623.90 L 471.40 622.30 L 478.00 620.80 L 485.00 618.70 L 499.10 613.50 L 517.30 605.30 L 528.20 599.80 L 548.90 588.20 L 567.40 576.90 L 582.20 567.20 L 595.70 557.90 L 623.80 539.90 L 591.60 496.40 L 569.80 467.80 L 531.20 418.90 L 503.10 385.00 L 474.60 352.40 L 460.90 337.40 L 447.10 323.20 L 434.30 310.80 L 417.80 296.20 L 404.80 286.40 L 395.00 280.60 L 387.20 277.40 L 383.90 276.70 L 381.10 276.50 L 378.60 276.70 L 376.40 277.30 L 362.90 283.20 L 353.70 288.30 L 348.00 292.50 L 344.40 296.50 L 343.00 299.60 L 342.90 302.00 L 343.40 303.40 L 344.90 305.20 Z" fill="#22ac38" fill-rule="nonzero" group-id="1,7,17,39" node-id="240" stroke="none" target-height="347.40002" target-width="280.9" target-x="342.9" target-y="276.5"></path></g></g><g node-id="332"><g clip-path="url(#XMLID_10_)" group-id="1,7,17,40" node-id="243"><path d="M 355.80 329.80 L 353.90 338.90 L 352.90 346.30 L 352.10 354.50 L 351.50 364.90 L 351.70 379.90 L 352.30 388.60 L 353.30 397.20 L 354.70 406.40 L 356.70 416.20 L 359.20 425.80 L 362.40 435.80 L 366.30 446.20 L 373.50 461.60 L 382.70 477.50 L 376.10 474.40 L 371.20 471.50 L 366.10 468.10 L 360.10 463.60 L 352.10 456.30 L 348.00 451.80 L 344.30 447.10 L 340.70 441.80 L 337.30 435.90 L 335.10 431.40 L 331.40 421.20 L 328.80 409.90 L 328.10 403.90 L 327.80 397.40 L 327.90 390.40 L 328.50 383.60 L 329.50 376.30 L 331.20 368.50 L 333.50 360.00 L 336.10 352.00 L 339.50 343.40 L 343.70 334.10 L 348.70 324.20 L 364.00 296.10 L 373.30 280.20 L 376.40 275.60 L 377.70 274.20 L 378.10 274.00 L 378.30 274.40 L 377.20 278.90 L 375.60 283.50 L 366.00 306.60 L 355.80 329.80 Z" fill="#f3ffa1" fill-rule="nonzero" group-id="1,7,17,40" node-id="245" stroke="none" target-height="203.5" target-width="54.900024" target-x="327.8" target-y="274"></path></g></g><g node-id="333"><g clip-path="url(#XMLID_10_)" group-id="1,7,17,41" node-id="248"><path d="M 354.70 334.70 L 364.00 338.50 L 379.10 345.90 L 388.50 351.20 L 401.50 359.50 L 415.50 369.80 L 422.40 375.70 L 429.40 382.10 L 436.00 388.90 L 442.30 396.20 L 448.40 404.10 L 452.60 410.30 L 456.50 416.70 L 460.10 423.60 L 463.40 430.70 L 466.30 438.00 L 468.70 445.70 L 470.70 453.70 L 472.20 462.20 L 505.40 452.30 L 391.50 314.80 L 360.30 319.70 L 354.70 334.70 Z" fill="#1a8226" fill-rule="nonzero" group-id="1,7,17,41" node-id="250" stroke="none" target-height="147.40002" target-width="150.69998" target-x="354.7" target-y="314.8"></path></g></g><path d="M 456.30 401.00 L 462.70 413.60 L 467.50 426.40 L 470.00 435.20 L 471.90 443.80 L 473.30 452.30 L 474.40 460.90 L 475.20 477.00 L 475.10 488.60 L 474.50 498.90 L 472.30 516.60 L 469.00 532.60 L 453.50 527.50 L 437.10 520.50 L 427.80 515.90 L 417.70 510.20 L 404.10 501.40 L 397.20 496.20 L 390.60 490.70 L 384.10 484.70 L 377.80 478.20 L 369.10 467.60 L 361.30 455.80 L 354.90 443.20 L 350.10 430.40 L 347.60 421.60 L 345.70 413.00 L 344.20 404.50 L 343.20 395.90 L 342.30 379.80 L 342.50 368.20 L 343.10 357.90 L 345.30 340.20 L 348.60 324.20 L 364.10 329.40 L 380.50 336.30 L 389.80 340.90 L 400.00 346.60 L 413.50 355.50 L 420.40 360.60 L 427.10 366.10 L 433.60 372.10 L 439.90 378.60 L 448.60 389.20 L 456.30 401.00 Z" fill="none" group-id="1,7,17,42" node-id="255" stroke="#6a3906" stroke-linecap="butt" stroke-width="6" target-height="208.39996" target-width="132.90002" target-x="342.3" target-y="324.2"></path></g></g></g><path d="M 654.40 535.90 L 283.60 535.90 L 280.30 535.60 L 277.30 534.80 L 274.50 533.40 L 272.00 531.60 L 269.90 529.50 L 268.10 527.00 L 266.70 524.20 L 265.90 521.20 L 265.60 517.90 L 265.90 514.60 L 266.70 511.60 L 268.10 508.80 L 269.90 506.30 L 272.00 504.20 L 274.50 502.40 L 277.30 501.00 L 280.30 500.20 L 283.60 499.90 L 654.40 499.90 L 657.70 500.20 L 660.70 501.00 L 663.50 502.40 L 666.00 504.20 L 668.10 506.30 L 669.90 508.80 L 671.30 511.60 L 672.10 514.60 L 672.40 517.90 L 672.10 521.20 L 671.30 524.20 L 669.90 527.00 L 668.10 529.50 L 666.00 531.60 L 663.50 533.40 L 660.70 534.80 L 657.70 535.60 L 654.40 535.90 Z" fill="#dc8815" fill-rule="nonzero" node-id="261" stroke="#6a3906" stroke-linecap="butt" stroke-width="6" target-height="36.00003" target-width="406.80002" target-x="265.6" target-y="499.9"></path><g node-id="294"><g node-id="300"><path d="M 587.40 749.10 L 348.00 749.10 L 300.10 539.90 L 637.90 539.90 Z" fill="#ffca5f" fill-rule="nonzero" group-id="2,8" node-id="267" stroke="none" target-height="209.19995" target-width="337.80002" target-x="300.1" target-y="539.9"></path></g><g node-id="301"><g clip-path="url(#XMLID_11_)" group-id="2,9" node-id="270"><path d="M 424.20 535.90 L 420.90 540.60 L 416.50 548.60 L 414.10 553.80 L 412.10 559.50 L 410.40 566.00 L 409.60 570.50 L 409.00 580.10 L 409.30 585.10 L 410.20 590.20 L 411.50 595.50 L 413.40 600.70 L 416.10 606.00 L 422.60 616.40 L 427.40 625.70 L 429.10 630.30 L 430.90 636.60 L 432.20 642.70 L 432.90 648.50 L 433.10 659.90 L 432.70 665.10 L 431.50 672.70 L 428.20 685.20 L 424.20 696.00 L 423.70 698.40 L 423.30 703.20 L 423.10 708.80 L 423.70 732.10 L 425.00 748.80 L 427.00 763.80 L 428.20 770.30 L 429.50 774.80 L 431.30 777.30 L 433.20 778.80 L 436.00 780.50 L 441.90 783.30 L 450.10 786.50 L 469.70 792.70 L 492.40 798.60 L 516.10 804.20 L 538.40 808.90 L 574.90 816.00 L 605.80 535.90 L 424.20 535.90 Z" fill="#fea92e" fill-rule="nonzero" group-id="2,9" node-id="272" stroke="none" target-height="280.09998" target-width="196.79999" target-x="409" target-y="535.9"></path></g></g><g node-id="302"><g clip-path="url(#XMLID_11_)" group-id="2,10" node-id="275"><path d="M 576.40 529.10 L 570.80 538.30 L 565.90 548.10 L 561.30 559.90 L 559.70 566.30 L 558.70 572.70 L 558.40 577.10 L 558.60 581.30 L 559.70 589.00 L 559.70 598.00 L 558.90 605.40 L 557.50 613.60 L 553.50 630.40 L 548.70 646.60 L 544.10 660.40 L 538.00 676.80 L 533.60 690.90 L 530.40 704.60 L 529.10 712.00 L 528.20 719.60 L 527.90 727.10 L 528.50 736.80 L 529.30 741.20 L 530.60 745.50 L 532.30 749.30 L 534.50 752.70 L 536.50 755.00 L 538.80 757.00 L 541.40 758.80 L 544.50 760.20 L 550.20 762.10 L 555.20 763.30 L 559.50 763.90 L 563.80 764.00 L 567.50 763.70 L 573.80 762.10 L 578.70 759.50 L 581.70 757.10 L 585.60 752.50 L 587.40 749.10 L 637.80 539.90 L 576.40 529.10 Z" fill="#dc8815" fill-rule="nonzero" group-id="2,10" node-id="277" stroke="none" target-height="234.90002" target-width="109.89996" target-x="527.9" target-y="529.1"></path></g></g><g node-id="303"><g clip-path="url(#XMLID_11_)" group-id="2,11" node-id="280"><path d="M 449.70 659.50 L 447.20 665.90 L 446.00 670.10 L 444.40 679.70 L 444.10 684.40 L 444.20 688.90 L 444.90 692.50 L 445.70 694.60 L 446.80 696.10 L 448.10 697.10 L 449.70 697.50 L 451.50 697.40 L 453.60 696.70 L 457.70 694.10 L 459.90 692.10 L 462.80 688.80 L 465.50 685.00 L 467.00 682.30 L 469.00 676.90 L 469.50 674.20 L 469.50 671.70 L 467.80 665.30 L 465.60 654.10 L 464.80 651.20 L 463.90 649.40 L 463.10 648.70 L 462.10 648.40 L 460.80 648.60 L 458.80 649.60 L 454.90 653.00 L 449.70 659.50 Z" fill="#ffedb4" fill-rule="nonzero" group-id="2,11" node-id="282" stroke="none" target-height="49.099976" target-width="25.399994" target-x="444.1" target-y="648.4"></path></g></g><path d="M 587.40 749.10 L 348.00 749.10 L 300.10 539.90 L 637.90 539.90 Z" fill="none" group-id="2,12" node-id="287" stroke="#6a3906" stroke-linecap="butt" stroke-width="6" target-height="209.19995" target-width="337.80002" target-x="300.1" target-y="539.9"></path></g><path d="M 654.40 774.80 L 283.60 774.80 L 280.30 774.50 L 277.30 773.70 L 274.50 772.30 L 272.00 770.50 L 269.90 768.40 L 268.10 765.90 L 266.70 763.10 L 265.90 760.10 L 265.60 756.80 L 265.90 753.50 L 266.70 750.50 L 268.10 747.70 L 269.90 745.20 L 272.00 743.10 L 274.50 741.30 L 277.30 739.90 L 280.30 739.10 L 283.60 738.80 L 654.40 738.80 L 657.70 739.10 L 660.70 739.90 L 663.50 741.30 L 666.00 743.10 L 668.10 745.20 L 669.90 747.70 L 671.30 750.50 L 672.10 753.50 L 672.40 756.80 L 672.10 760.10 L 671.30 763.10 L 669.90 765.90 L 668.10 768.40 L 666.00 770.50 L 663.50 772.30 L 660.70 773.70 L 657.70 774.50 L 654.40 774.80 Z" fill="#e7ba8c" fill-rule="nonzero" node-id="291" stroke="#6a3906" stroke-linecap="butt" stroke-width="6" target-height="36" target-width="406.80002" target-x="265.6" target-y="738.8"></path></svg>