<?xml version="1.0" standalone="no"?><!DOCTYPE svg PUBLIC "-//W3C//DTD SVG 1.1//EN" "http://www.w3.org/Graphics/SVG/1.1/DTD/svg11.dtd"><svg height="1024" node-id="1" sillyvg="true" template-height="1024" template-width="1024" version="1.1" viewBox="0 0 1024 1024" width="1024" xmlns="http://www.w3.org/2000/svg" xmlns:xlink="http://www.w3.org/1999/xlink"><defs node-id="24"></defs><g node-id="26"><path d="M 0.00 0.00 L 1024.00 0.00 L 1024.00 1024.00 L 0.00 1024.00 Z" fill="none" group-id="1" id="矩形" node-id="6" stroke="none" target-height="1024" target-width="1024" target-x="0" target-y="0"></path><g node-id="27"><path d="M 760.40 482.10 L 264.30 482.10 L 259.10 497.30 L 254.60 512.70 L 250.60 528.30 L 247.30 544.00 L 244.50 559.90 L 242.30 575.90 L 240.70 591.90 L 239.70 608.10 L 239.20 624.40 L 239.30 640.80 L 239.90 657.20 L 241.10 673.60 L 242.70 690.10 L 245.00 706.60 L 247.70 723.20 L 251.00 739.70 L 254.80 756.20 L 259.00 772.70 L 263.80 789.20 L 269.10 805.70 L 274.80 822.00 L 281.00 838.20 L 287.70 854.40 L 294.80 870.50 L 302.50 886.60 L 310.50 902.40 L 318.90 918.10 L 327.80 933.70 L 337.20 949.10 L 347.00 964.40 L 347.30 964.40 L 348.10 966.00 L 349.40 967.70 L 351.30 969.40 L 354.10 971.20 L 357.90 973.20 L 364.10 975.70 L 372.10 978.20 L 382.20 980.80 L 404.20 984.90 L 417.70 986.70 L 445.90 989.50 L 461.80 990.60 L 494.60 991.80 L 512.30 992.00 L 530.00 991.80 L 562.80 990.60 L 578.80 989.50 L 607.00 986.70 L 620.50 984.90 L 642.50 980.80 L 652.60 978.20 L 660.60 975.70 L 666.70 973.20 L 670.50 971.20 L 675.30 967.70 L 677.40 964.40 L 677.70 964.40 L 687.50 949.10 L 696.80 933.70 L 705.70 918.10 L 714.20 902.40 L 722.20 886.60 L 729.80 870.50 L 737.00 854.40 L 743.70 838.20 L 749.80 822.00 L 755.60 805.70 L 760.90 789.20 L 765.60 772.70 L 769.90 756.20 L 773.70 739.70 L 776.90 723.20 L 779.70 706.60 L 781.90 690.00 L 783.60 673.60 L 784.80 657.10 L 785.40 640.80 L 785.50 624.40 L 785.00 608.10 L 784.00 591.90 L 782.30 575.80 L 780.20 559.90 L 777.40 544.00 L 774.10 528.30 L 770.10 512.70 L 765.50 497.30 L 760.40 482.10 Z" fill="#e3e5e1" fill-rule="nonzero" group-id="1,2" id="路径" node-id="8" stroke="none" target-height="509.9" target-width="546.3" target-x="239.2" target-y="482.1"></path><path d="M 342.90 958.00 L 354.90 959.50 L 366.90 960.50 L 378.80 961.00 L 390.60 960.90 L 402.30 960.30 L 414.00 959.30 L 425.60 957.70 L 437.10 955.70 L 448.40 953.10 L 459.60 950.10 L 470.60 946.70 L 481.50 942.80 L 492.10 938.40 L 502.60 933.60 L 512.90 928.30 L 522.90 922.70 L 532.70 916.60 L 542.20 910.10 L 551.50 903.20 L 560.50 895.90 L 569.10 888.20 L 577.50 880.20 L 585.50 871.80 L 593.20 863.00 L 600.60 853.80 L 607.50 844.30 L 614.10 834.50 L 620.20 824.30 L 626.00 813.80 L 631.40 802.90 L 636.30 791.70 L 640.60 780.50 L 644.50 769.20 L 647.80 757.90 L 650.60 746.50 L 652.90 734.90 L 654.70 723.40 L 656.00 711.80 L 656.80 700.30 L 657.10 688.70 L 656.90 677.10 L 656.20 665.60 L 655.10 654.10 L 653.40 642.70 L 651.30 631.40 L 648.70 620.10 L 645.70 609.00 L 642.20 598.10 L 638.20 587.20 L 633.70 576.50 L 628.80 566.00 L 623.50 555.70 L 617.70 545.70 L 611.40 535.80 L 604.70 526.10 L 597.60 516.70 L 590.10 507.70 L 582.10 498.90 L 573.60 490.30 L 564.70 482.10 L 264.30 482.10 L 259.20 497.10 L 254.70 512.30 L 250.80 527.60 L 247.40 543.10 L 244.60 558.80 L 242.40 574.50 L 240.80 590.30 L 239.70 606.20 L 239.20 622.30 L 239.20 638.50 L 239.70 654.60 L 240.80 670.80 L 242.40 687.00 L 244.50 703.30 L 247.10 719.80 L 250.20 736.00 L 253.80 752.20 L 257.90 768.50 L 262.50 784.80 L 267.60 801.10 L 273.10 817.20 L 279.10 833.20 L 285.50 849.20 L 292.40 865.10 L 299.80 881.00 L 307.50 896.60 L 315.70 912.10 L 324.30 927.50 L 333.40 942.80 L 342.90 958.00 Z" fill="#edeeeb" fill-rule="nonzero" group-id="1,2" id="路径" node-id="9" stroke="none" target-height="478.9" target-width="417.89996" target-x="239.2" target-y="482.1"></path><path d="M 270.60 809.90 L 281.00 803.90 L 291.00 797.50 L 300.70 790.70 L 310.00 783.60 L 318.90 776.10 L 327.60 768.20 L 335.90 759.90 L 343.70 751.40 L 351.20 742.60 L 358.30 733.40 L 365.00 724.00 L 371.30 714.30 L 377.20 704.40 L 382.70 694.20 L 387.70 683.70 L 392.30 673.10 L 396.40 662.30 L 400.10 651.20 L 403.30 640.00 L 406.10 628.60 L 408.40 617.20 L 410.10 605.60 L 411.40 593.80 L 412.20 582.00 L 412.40 569.90 L 412.20 558.70 L 411.50 547.60 L 410.40 536.50 L 408.80 525.40 L 406.80 514.40 L 404.30 503.60 L 401.30 492.80 L 397.90 482.10 L 264.30 482.10 L 259.10 497.50 L 254.50 513.10 L 250.50 528.90 L 247.10 544.80 L 244.40 560.90 L 242.20 577.10 L 240.70 593.40 L 239.60 609.70 L 239.20 626.30 L 239.40 642.90 L 240.10 659.50 L 241.30 676.10 L 243.10 692.80 L 245.50 709.60 L 248.40 726.40 L 251.80 743.10 L 255.70 759.80 L 260.10 776.50 L 265.10 793.20 L 270.60 809.90 Z" fill="#f9f9f9" fill-rule="nonzero" group-id="1,2" id="路径" node-id="10" stroke="none" target-height="327.80002" target-width="173.2" target-x="239.2" target-y="482.1"></path><path d="M 313.10 907.40 L 324.00 905.00 L 334.60 902.20 L 345.10 899.00 L 355.30 895.30 L 365.40 891.30 L 375.40 886.90 L 385.10 882.10 L 394.50 877.00 L 403.80 871.50 L 412.80 865.60 L 421.60 859.40 L 430.10 852.80 L 438.40 846.00 L 446.40 838.80 L 454.10 831.30 L 461.50 823.50 L 468.60 815.40 L 475.40 807.00 L 481.80 798.30 L 488.00 789.30 L 493.80 780.20 L 499.20 770.70 L 504.30 761.00 L 509.00 751.10 L 513.30 740.80 L 517.30 730.40 L 520.70 720.00 L 523.80 709.50 L 526.40 698.90 L 528.50 688.30 L 530.30 677.50 L 531.60 666.80 L 532.50 656.00 L 532.90 645.30 L 533.00 634.50 L 532.60 623.70 L 531.80 613.00 L 530.60 602.40 L 528.90 591.70 L 526.90 581.20 L 524.40 570.70 L 521.50 560.30 L 518.20 550.00 L 514.50 539.90 L 510.30 529.80 L 505.80 519.90 L 500.90 510.20 L 495.60 500.70 L 489.80 491.30 L 483.60 482.10 L 264.30 482.10 L 259.70 495.40 L 255.60 508.90 L 252.00 522.50 L 248.80 536.20 L 246.10 550.10 L 243.90 564.10 L 241.80 580.90 L 240.30 597.80 L 239.40 614.90 L 239.10 632.10 L 239.50 649.40 L 240.50 666.60 L 242.10 683.90 L 244.20 701.30 L 246.90 718.70 L 250.30 736.30 L 254.10 753.60 L 258.60 770.90 L 263.50 788.20 L 269.10 805.50 L 275.20 822.90 L 281.70 839.90 L 288.80 856.90 L 296.40 873.80 L 304.50 890.60 L 313.10 907.40 Z" fill="#f2f2f2" fill-rule="nonzero" group-id="1,2" id="路径" node-id="11" stroke="none" target-height="425.30002" target-width="293.9" target-x="239.1" target-y="482.1"></path><path d="M 760.30 483.80 L 760.00 485.50 L 759.20 487.30 L 757.60 489.20 L 755.10 491.20 L 751.50 493.40 L 741.70 497.60 L 726.50 502.00 L 715.60 504.50 L 702.70 507.00 L 687.70 509.40 L 655.90 513.30 L 637.50 515.00 L 599.30 517.70 L 557.20 519.40 L 512.30 520.00 L 467.40 519.40 L 425.30 517.70 L 387.10 515.00 L 368.70 513.30 L 336.90 509.40 L 321.90 507.00 L 309.00 504.50 L 298.10 502.00 L 282.90 497.60 L 273.10 493.40 L 269.50 491.20 L 267.00 489.20 L 265.40 487.30 L 264.60 485.50 L 264.30 483.80 L 264.60 482.00 L 265.40 480.30 L 267.00 478.40 L 269.50 476.30 L 273.10 474.20 L 282.90 470.00 L 298.10 465.50 L 309.00 463.00 L 321.90 460.60 L 336.90 458.20 L 368.70 454.30 L 387.10 452.50 L 425.30 449.90 L 467.40 448.20 L 512.30 447.60 L 557.20 448.20 L 599.30 449.90 L 637.50 452.50 L 655.90 454.30 L 687.70 458.20 L 702.70 460.60 L 715.60 463.00 L 726.50 465.50 L 741.70 470.00 L 751.50 474.20 L 755.10 476.30 L 757.60 478.40 L 759.20 480.30 L 760.00 482.00 L 760.30 483.80 Z" fill="#e3e5e1" fill-rule="nonzero" group-id="1,2" id="椭圆形" node-id="12" stroke="none" target-height="72.399994" target-width="496" target-x="264.3" target-y="447.6"></path><path d="M 760.30 487.20 L 760.00 489.00 L 759.20 490.70 L 757.60 492.60 L 755.10 494.60 L 751.50 496.80 L 741.70 501.00 L 726.50 505.50 L 715.60 508.00 L 702.70 510.40 L 687.70 512.80 L 655.90 516.70 L 637.50 518.50 L 599.30 521.10 L 557.20 522.80 L 512.30 523.40 L 467.40 522.80 L 425.30 521.10 L 387.10 518.50 L 368.70 516.70 L 336.90 512.80 L 321.90 510.40 L 309.00 508.00 L 298.10 505.50 L 282.90 501.00 L 273.10 496.80 L 269.50 494.60 L 267.00 492.60 L 265.40 490.70 L 264.60 489.00 L 264.30 487.20 L 264.60 485.50 L 265.40 483.70 L 267.00 481.80 L 269.50 479.80 L 273.10 477.60 L 282.90 473.40 L 298.10 469.00 L 309.00 466.50 L 321.90 464.00 L 336.90 461.60 L 368.70 457.70 L 387.10 456.00 L 425.30 453.30 L 467.40 451.60 L 512.30 451.00 L 557.20 451.60 L 599.30 453.30 L 637.50 456.00 L 655.90 457.70 L 687.70 461.60 L 702.70 464.00 L 715.60 466.50 L 726.50 469.00 L 741.70 473.40 L 751.50 477.60 L 755.10 479.80 L 757.60 481.80 L 759.20 483.70 L 760.00 485.50 L 760.30 487.20 Z" fill="#ffffff" fill-rule="nonzero" group-id="1,2" id="椭圆形" node-id="13" stroke="none" target-height="72.400024" target-width="496" target-x="264.3" target-y="451"></path><path d="M 760.30 483.80 L 760.00 485.50 L 759.20 487.30 L 757.60 489.20 L 755.10 491.20 L 751.50 493.40 L 741.70 497.60 L 726.50 502.00 L 715.60 504.50 L 702.70 507.00 L 687.70 509.40 L 655.90 513.30 L 637.50 515.00 L 599.30 517.70 L 557.20 519.40 L 512.30 520.00 L 467.40 519.40 L 425.30 517.70 L 387.10 515.00 L 368.70 513.30 L 336.90 509.40 L 321.90 507.00 L 309.00 504.50 L 298.10 502.00 L 282.90 497.60 L 273.10 493.40 L 269.50 491.20 L 267.00 489.20 L 265.40 487.30 L 264.60 485.50 L 264.30 483.80 L 264.60 482.00 L 265.40 480.30 L 267.00 478.40 L 269.50 476.30 L 273.10 474.20 L 282.90 470.00 L 298.10 465.50 L 309.00 463.00 L 321.90 460.60 L 336.90 458.20 L 368.70 454.30 L 387.10 452.50 L 425.30 449.90 L 467.40 448.20 L 512.30 447.60 L 557.20 448.20 L 599.30 449.90 L 637.50 452.50 L 655.90 454.30 L 687.70 458.20 L 702.70 460.60 L 715.60 463.00 L 726.50 465.50 L 741.70 470.00 L 751.50 474.20 L 755.10 476.30 L 757.60 478.40 L 759.20 480.30 L 760.00 482.00 L 760.30 483.80 Z" fill="#e3e5e1" fill-rule="nonzero" group-id="1,2" id="椭圆形" node-id="14" stroke="none" target-height="72.399994" target-width="496" target-x="264.3" target-y="447.6"></path><path d="M 739.70 483.80 L 739.50 484.80 L 738.80 485.80 L 735.10 488.30 L 731.60 489.70 L 726.10 491.40 L 718.60 493.20 L 708.70 495.10 L 693.00 497.40 L 673.10 499.60 L 651.80 501.50 L 627.10 503.10 L 601.30 504.40 L 572.80 505.40 L 543.50 506.00 L 512.30 506.20 L 481.10 506.00 L 451.80 505.40 L 423.30 504.40 L 397.50 503.10 L 372.80 501.50 L 351.50 499.60 L 331.60 497.40 L 315.90 495.10 L 306.00 493.20 L 298.50 491.40 L 293.00 489.70 L 289.50 488.30 L 287.20 487.00 L 285.10 484.80 L 284.90 483.80 L 285.10 482.80 L 287.20 480.60 L 289.50 479.30 L 293.00 477.80 L 298.50 476.10 L 306.00 474.30 L 315.90 472.50 L 331.60 470.20 L 351.50 467.90 L 372.80 466.10 L 397.50 464.40 L 423.30 463.20 L 451.80 462.20 L 481.10 461.60 L 512.30 461.40 L 543.50 461.60 L 572.80 462.20 L 601.30 463.20 L 627.10 464.40 L 651.80 466.10 L 673.10 467.90 L 693.00 470.20 L 708.70 472.50 L 718.60 474.30 L 726.10 476.10 L 731.60 477.80 L 735.10 479.30 L 737.40 480.60 L 738.80 481.70 L 739.50 482.80 L 739.70 483.80 Z" fill="#aeb5a5" fill-rule="nonzero" group-id="1,2" id="椭圆形" node-id="15" stroke="none" target-height="44.80002" target-width="454.80002" target-x="284.9" target-y="461.4"></path></g><g node-id="28"><path d="M 411.20 387.40 L 417.90 394.10 L 423.80 400.70 L 429.10 407.40 L 437.30 419.70 L 444.60 433.00 L 472.40 446.50 L 475.90 448.80 L 486.80 457.60 L 492.60 463.30 L 501.00 473.80 L 503.30 477.30 L 511.90 494.40 L 500.30 504.00 L 499.30 502.30 L 497.50 502.30 L 498.80 501.50 L 498.50 501.00 L 490.80 491.00 L 485.20 481.80 L 482.20 477.70 L 473.80 469.40 L 469.50 466.20 L 450.20 454.60 L 442.40 450.70 L 440.40 451.80 L 438.20 452.60 L 428.80 454.30 L 419.70 455.60 L 410.80 456.30 L 402.30 456.50 L 393.60 456.20 L 385.30 455.50 L 377.20 454.20 L 369.40 452.40 L 362.00 450.20 L 355.00 447.60 L 348.10 444.60 L 341.50 441.20 L 335.10 437.30 L 328.90 433.00 L 322.90 428.20 L 313.20 419.00 L 309.10 414.40 L 303.50 407.50 L 299.00 401.10 L 295.10 394.70 L 289.80 384.50 L 286.90 377.60 L 286.20 375.30 L 286.00 371.90 L 286.40 369.90 L 287.20 367.70 L 288.50 365.70 L 290.10 364.00 L 292.00 362.70 L 294.20 361.80 L 302.70 359.50 L 310.70 357.80 L 318.40 356.60 L 325.60 355.90 L 333.00 355.70 L 340.00 355.80 L 346.70 356.40 L 353.00 357.40 L 361.40 359.20 L 369.10 361.60 L 376.30 364.40 L 383.40 367.70 L 389.80 371.20 L 395.70 375.00 L 401.40 379.10 L 411.20 387.40 Z M 729.80 323.90 L 732.10 324.70 L 734.00 326.00 L 735.60 327.70 L 736.80 329.70 L 737.60 331.90 L 738.00 333.90 L 737.80 337.30 L 737.10 339.50 L 734.20 346.50 L 728.90 356.60 L 725.00 362.90 L 720.50 369.30 L 714.90 376.20 L 706.20 385.30 L 701.10 389.90 L 695.10 394.70 L 688.90 399.00 L 682.50 402.80 L 675.80 406.30 L 669.00 409.30 L 661.90 411.90 L 654.60 414.00 L 646.70 415.80 L 638.60 417.00 L 630.30 417.80 L 621.60 418.10 L 613.10 417.90 L 604.30 417.20 L 595.10 415.90 L 585.70 414.20 L 583.30 413.40 L 581.30 412.20 L 573.40 416.10 L 554.50 427.40 L 551.50 429.70 L 542.40 438.70 L 539.90 442.10 L 528.30 461.30 L 520.80 476.40 L 521.00 476.80 L 520.40 478.00 L 518.50 479.80 L 516.30 481.00 L 513.70 481.50 L 511.10 481.20 L 508.60 480.00 L 507.60 479.20 L 506.10 477.10 L 505.10 473.40 L 505.40 470.70 L 520.80 439.80 L 524.50 434.30 L 531.80 425.00 L 538.50 418.40 L 548.10 410.70 L 553.10 407.40 L 579.50 394.20 L 583.80 386.00 L 590.80 375.00 L 600.30 362.40 L 606.10 355.90 L 612.70 349.30 L 622.50 341.10 L 628.20 337.00 L 634.10 333.20 L 640.60 329.70 L 647.60 326.40 L 654.80 323.60 L 662.60 321.30 L 671.00 319.40 L 677.30 318.50 L 683.90 317.90 L 690.90 317.70 L 698.40 318.00 L 705.60 318.60 L 713.20 319.80 L 721.30 321.60 L 729.80 323.90 Z" fill="#008a49" fill-rule="nonzero" group-id="1,3" id="形状结合" node-id="17" stroke="none" target-height="186.29999" target-width="452" target-x="286" target-y="317.7"></path><path d="M 508.50 506.60 L 516.50 507.50 L 517.30 507.10 L 517.80 506.20 L 518.00 504.50 L 518.00 335.00 L 499.10 335.00 L 499.10 504.50 L 499.30 506.20 L 499.80 507.10 L 500.60 507.50 L 508.50 506.60 Z" fill="#378262" fill-rule="nonzero" group-id="1,3" id="路径" node-id="18" stroke="none" target-height="172.5" target-width="18.899994" target-x="499.1" target-y="335"></path><path d="M 479.30 134.80 L 482.60 145.80 L 485.20 159.50 L 484.90 163.20 L 484.10 164.90 L 483.00 166.50 L 481.50 167.80 L 479.90 168.70 L 478.10 169.20 L 476.20 169.40 L 465.90 168.10 L 455.50 165.80 L 451.00 164.50 L 459.40 172.40 L 468.50 182.90 L 469.50 184.60 L 470.10 186.30 L 470.30 188.20 L 470.10 190.10 L 469.40 191.90 L 468.50 193.50 L 465.60 195.90 L 456.10 200.00 L 451.60 201.50 L 441.40 204.30 L 452.60 206.90 L 465.80 211.50 L 468.80 213.70 L 470.00 215.20 L 470.70 216.90 L 471.10 218.80 L 470.60 222.50 L 468.10 226.70 L 460.50 236.10 L 453.00 243.60 L 464.00 240.30 L 477.70 237.70 L 479.60 237.60 L 481.40 238.00 L 483.20 238.70 L 484.70 239.90 L 486.00 241.30 L 486.90 243.00 L 487.40 244.70 L 487.60 246.70 L 486.40 256.90 L 484.10 267.30 L 482.70 271.80 L 490.60 263.40 L 501.20 254.40 L 502.80 253.40 L 504.60 252.80 L 506.40 252.60 L 508.30 252.80 L 511.70 254.40 L 514.20 257.20 L 518.20 266.70 L 519.80 271.20 L 522.60 281.40 L 525.20 270.20 L 529.80 257.10 L 531.90 254.00 L 533.40 252.90 L 535.20 252.10 L 538.90 251.80 L 540.70 252.20 L 542.50 253.00 L 550.70 259.20 L 558.60 266.40 L 561.80 269.80 L 558.60 258.80 L 556.00 245.20 L 555.90 243.30 L 556.30 241.40 L 557.00 239.70 L 558.10 238.10 L 559.60 236.80 L 561.20 235.90 L 563.00 235.40 L 568.00 235.50 L 579.90 237.40 L 590.10 240.10 L 581.70 232.20 L 572.70 221.70 L 571.70 220.10 L 571.00 218.30 L 570.80 216.50 L 571.10 214.60 L 572.70 211.10 L 575.50 208.70 L 585.00 204.60 L 589.50 203.10 L 599.70 200.30 L 588.50 197.70 L 575.30 193.10 L 572.30 190.90 L 571.20 189.40 L 570.40 187.70 L 570.00 185.90 L 570.50 182.10 L 573.00 177.90 L 580.60 168.60 L 588.10 161.10 L 577.10 164.30 L 563.40 166.90 L 561.50 167.00 L 559.70 166.60 L 558.00 165.90 L 556.40 164.70 L 555.10 163.30 L 554.20 161.70 L 553.70 159.90 L 553.50 158.00 L 554.80 147.70 L 557.10 137.30 L 558.40 132.80 L 550.50 141.20 L 539.90 150.20 L 538.30 151.20 L 536.60 151.90 L 534.70 152.10 L 532.80 151.80 L 529.40 150.20 L 526.90 147.40 L 522.90 137.90 L 521.30 133.40 L 518.50 123.20 L 515.90 134.40 L 511.30 147.60 L 509.20 150.60 L 507.70 151.70 L 506.00 152.50 L 504.10 152.90 L 500.40 152.40 L 496.10 149.90 L 486.80 142.30 L 479.30 134.80 Z M 468.60 24.60 L 471.20 24.20 L 473.20 24.50 L 475.90 25.60 L 479.50 27.90 L 487.60 34.10 L 492.50 38.50 L 498.00 44.40 L 505.00 53.50 L 508.50 58.90 L 511.60 64.80 L 514.30 70.80 L 516.50 77.00 L 517.40 80.50 L 518.70 74.10 L 520.50 68.40 L 522.90 62.60 L 525.90 56.60 L 529.30 50.90 L 533.50 45.20 L 538.40 39.40 L 546.90 31.40 L 557.70 23.50 L 561.00 22.20 L 562.70 22.00 L 566.20 22.90 L 567.40 23.60 L 569.30 25.40 L 572.30 30.60 L 574.00 34.40 L 576.30 40.10 L 578.30 46.40 L 580.10 54.20 L 581.00 59.60 L 581.90 72.00 L 581.70 78.70 L 581.00 85.30 L 579.80 91.70 L 578.80 95.10 L 583.10 90.20 L 587.60 86.20 L 592.50 82.30 L 598.10 78.60 L 603.90 75.40 L 610.40 72.60 L 617.60 70.00 L 628.90 67.40 L 642.20 65.90 L 644.00 66.00 L 647.30 67.20 L 648.70 68.30 L 650.20 70.40 L 651.00 72.20 L 651.40 75.20 L 650.80 83.60 L 649.90 89.60 L 648.50 96.00 L 646.20 103.70 L 641.80 114.30 L 638.80 120.10 L 635.20 125.70 L 631.30 131.00 L 627.00 136.10 L 624.50 138.50 L 630.70 136.50 L 636.60 135.20 L 642.80 134.30 L 649.50 133.90 L 656.10 134.10 L 663.20 134.80 L 670.70 136.20 L 676.10 137.70 L 687.80 142.00 L 695.50 145.90 L 697.80 148.60 L 698.40 150.20 L 698.80 152.80 L 698.50 154.80 L 697.30 157.50 L 695.10 161.10 L 688.90 169.20 L 684.40 174.10 L 678.60 179.60 L 669.50 186.60 L 664.00 190.10 L 658.10 193.20 L 652.10 195.90 L 645.90 198.10 L 642.50 199.00 L 648.80 200.30 L 654.60 202.10 L 660.40 204.50 L 666.40 207.40 L 672.00 210.90 L 677.80 215.00 L 683.60 220.00 L 687.60 224.00 L 695.50 233.60 L 699.50 239.30 L 700.80 242.60 L 700.70 246.10 L 700.10 247.70 L 699.40 249.00 L 697.60 250.80 L 692.30 253.90 L 688.60 255.60 L 682.90 257.80 L 676.60 259.80 L 668.80 261.70 L 657.40 263.20 L 650.90 263.40 L 644.20 263.20 L 637.70 262.50 L 631.20 261.30 L 627.90 260.30 L 632.70 264.70 L 636.80 269.10 L 640.60 274.10 L 644.30 279.60 L 647.50 285.40 L 650.40 291.90 L 652.90 299.10 L 655.60 310.40 L 657.10 323.70 L 656.80 326.10 L 656.00 328.20 L 654.60 330.20 L 652.60 331.70 L 650.70 332.50 L 647.70 332.90 L 639.40 332.30 L 633.40 331.40 L 626.90 330.00 L 619.20 327.70 L 608.60 323.30 L 602.90 320.30 L 597.20 316.80 L 591.90 312.80 L 586.80 308.50 L 584.40 306.00 L 586.40 312.20 L 587.70 318.10 L 588.60 324.30 L 589.00 331.00 L 588.90 337.60 L 588.10 344.70 L 586.70 352.20 L 583.30 363.30 L 577.90 375.50 L 577.00 377.00 L 574.30 379.20 L 572.70 379.90 L 570.10 380.20 L 568.10 380.00 L 565.40 378.80 L 558.40 374.20 L 553.60 370.40 L 548.80 365.90 L 543.30 360.10 L 536.30 351.00 L 532.80 345.50 L 529.70 339.60 L 527.00 333.60 L 524.80 327.40 L 523.90 324.00 L 522.60 330.30 L 520.80 336.10 L 518.40 341.90 L 515.40 347.80 L 512.00 353.50 L 507.80 359.30 L 502.80 365.00 L 498.90 369.00 L 489.30 377.00 L 483.60 381.00 L 480.30 382.30 L 476.80 382.20 L 475.10 381.60 L 473.80 380.80 L 472.00 379.10 L 469.00 373.80 L 467.20 370.00 L 465.00 364.40 L 463.00 358.10 L 461.20 350.30 L 459.70 338.90 L 459.40 332.40 L 459.60 325.70 L 460.30 319.20 L 461.50 312.70 L 462.50 309.40 L 458.10 314.20 L 453.70 318.30 L 448.80 322.10 L 443.20 325.80 L 437.40 329.00 L 430.90 331.90 L 423.70 334.40 L 412.40 337.10 L 399.10 338.60 L 396.70 338.30 L 394.60 337.50 L 392.60 336.10 L 391.10 334.10 L 390.30 332.20 L 389.90 329.30 L 390.50 320.90 L 391.40 314.90 L 392.80 308.40 L 395.10 300.70 L 399.50 290.10 L 402.50 284.40 L 406.00 278.70 L 410.00 273.40 L 414.30 268.40 L 416.80 265.90 L 410.60 268.00 L 404.70 269.20 L 398.50 270.10 L 391.80 270.50 L 385.20 270.40 L 378.10 269.60 L 370.60 268.20 L 365.20 266.80 L 353.50 262.40 L 345.80 258.50 L 343.50 255.80 L 342.90 254.20 L 342.50 251.60 L 342.80 249.70 L 344.00 246.90 L 346.20 243.30 L 352.40 235.20 L 356.90 230.30 L 362.70 224.80 L 371.80 217.80 L 377.30 214.40 L 383.20 211.20 L 389.20 208.60 L 395.40 206.30 L 398.80 205.50 L 392.50 204.20 L 386.70 202.30 L 380.90 200.00 L 374.90 197.00 L 369.20 193.60 L 363.50 189.40 L 357.70 184.40 L 353.70 180.50 L 345.70 170.90 L 341.80 165.20 L 340.50 161.90 L 340.30 160.10 L 341.20 156.70 L 342.80 154.40 L 345.20 152.60 L 354.70 148.10 L 364.90 144.60 L 376.70 142.10 L 383.20 141.40 L 390.40 141.00 L 397.10 141.20 L 403.60 142.00 L 410.10 143.20 L 413.80 144.50 L 408.60 139.80 L 404.60 135.40 L 400.70 130.50 L 397.10 124.90 L 393.80 119.10 L 391.00 112.60 L 388.50 105.50 L 385.80 94.10 L 384.30 80.80 L 384.80 77.30 L 385.60 75.80 L 387.70 73.50 L 390.60 72.00 L 392.30 71.70 L 397.80 71.80 L 401.90 72.20 L 407.90 73.10 L 414.40 74.50 L 422.10 76.80 L 427.30 78.70 L 438.40 84.20 L 444.10 87.70 L 449.40 91.60 L 454.50 95.90 L 456.90 98.40 L 454.90 92.20 L 453.60 86.40 L 452.70 80.10 L 452.30 73.50 L 452.40 66.80 L 453.20 59.80 L 454.60 52.30 L 456.10 46.80 L 460.40 35.20 L 464.30 27.40 L 467.00 25.20 L 468.60 24.60 Z" fill="#f5ac2a" fill-rule="nonzero" group-id="1,3" id="形状" node-id="19" stroke="none" target-height="360.3" target-width="360.5" target-x="340.3" target-y="22"></path><path d="M 492.30 124.80 L 492.40 136.30 L 491.00 150.20 L 489.60 153.70 L 488.40 155.10 L 486.90 156.30 L 485.10 157.10 L 483.30 157.50 L 481.40 157.50 L 479.60 157.10 L 470.10 153.00 L 465.80 150.80 L 456.80 145.20 L 462.60 155.10 L 468.30 167.90 L 468.80 169.80 L 468.90 171.60 L 468.60 173.50 L 467.80 175.20 L 466.70 176.80 L 465.30 178.00 L 463.70 179.00 L 461.80 179.60 L 451.60 180.80 L 446.80 181.00 L 436.20 180.70 L 446.20 186.40 L 457.60 194.60 L 458.90 195.90 L 459.90 197.50 L 460.60 199.30 L 460.80 201.20 L 460.70 203.10 L 460.10 204.90 L 459.20 206.50 L 457.80 207.90 L 449.50 214.10 L 445.50 216.70 L 436.20 221.70 L 447.70 221.60 L 461.60 223.00 L 465.10 224.40 L 466.50 225.60 L 467.70 227.20 L 468.50 228.90 L 468.90 230.70 L 468.90 232.60 L 468.50 234.50 L 464.40 243.90 L 462.20 248.20 L 456.60 257.20 L 466.60 251.40 L 479.30 245.70 L 481.20 245.20 L 483.10 245.10 L 484.90 245.50 L 486.60 246.20 L 488.20 247.30 L 489.50 248.70 L 490.40 250.30 L 491.00 252.20 L 492.20 262.40 L 492.40 267.20 L 492.20 277.80 L 497.90 267.80 L 506.00 256.40 L 507.40 255.10 L 509.00 254.10 L 510.70 253.40 L 512.70 253.20 L 514.60 253.30 L 516.40 253.90 L 518.00 254.80 L 519.40 256.20 L 525.50 264.50 L 528.10 268.50 L 533.10 277.80 L 533.10 266.30 L 534.50 252.40 L 535.90 248.90 L 537.10 247.50 L 538.60 246.30 L 540.30 245.50 L 542.20 245.10 L 544.00 245.10 L 548.70 246.60 L 559.60 251.80 L 568.70 257.40 L 562.90 247.50 L 557.20 234.70 L 556.70 232.80 L 556.60 231.00 L 556.90 229.10 L 557.70 227.40 L 558.80 225.80 L 560.20 224.60 L 561.80 223.60 L 563.60 223.00 L 573.90 221.90 L 578.70 221.60 L 589.20 221.90 L 579.20 216.20 L 567.90 208.00 L 566.60 206.70 L 565.50 205.10 L 564.90 203.30 L 564.60 201.40 L 564.80 199.50 L 565.40 197.70 L 566.30 196.10 L 567.70 194.70 L 576.00 188.50 L 580.00 186.00 L 589.20 180.90 L 577.70 181.00 L 563.90 179.60 L 560.40 178.20 L 558.90 177.00 L 557.70 175.50 L 556.90 173.70 L 556.60 171.90 L 556.60 170.00 L 558.10 165.30 L 563.30 154.40 L 568.80 145.40 L 558.90 151.20 L 546.20 156.90 L 544.30 157.40 L 542.40 157.50 L 540.60 157.10 L 538.90 156.40 L 537.30 155.30 L 536.00 153.90 L 535.10 152.30 L 534.50 150.40 L 533.30 140.20 L 533.10 135.40 L 533.30 124.80 L 527.60 134.80 L 519.50 146.20 L 518.10 147.50 L 516.50 148.50 L 514.70 149.20 L 512.80 149.40 L 510.90 149.30 L 509.10 148.70 L 507.50 147.80 L 504.20 144.10 L 497.40 134.10 L 492.30 124.80 Z M 513.60 16.00 L 515.30 16.20 L 518.00 17.20 L 520.30 19.10 L 523.10 22.30 L 529.20 30.60 L 532.60 36.20 L 536.20 43.40 L 540.30 54.10 L 542.00 60.30 L 543.40 66.90 L 544.20 73.40 L 544.60 80.00 L 544.40 83.60 L 547.50 77.90 L 550.90 72.90 L 554.80 68.00 L 559.30 63.10 L 564.20 58.60 L 569.90 54.30 L 576.30 50.10 L 581.30 47.40 L 592.70 42.50 L 599.30 40.30 L 602.80 40.00 L 604.60 40.40 L 607.60 42.20 L 608.70 43.30 L 609.90 45.50 L 611.30 51.40 L 611.90 55.50 L 612.40 61.50 L 612.60 68.10 L 612.10 76.20 L 610.30 87.50 L 608.70 93.80 L 606.60 100.20 L 604.00 106.30 L 601.10 112.10 L 599.10 115.10 L 604.70 111.80 L 610.10 109.10 L 615.90 106.90 L 622.30 104.90 L 628.80 103.50 L 635.90 102.50 L 643.50 102.20 L 655.20 102.80 L 668.30 105.20 L 671.60 106.70 L 673.90 109.30 L 674.60 110.90 L 675.00 112.40 L 674.90 114.90 L 673.20 120.70 L 671.60 124.60 L 669.10 130.10 L 665.90 135.80 L 661.40 142.60 L 658.10 147.00 L 649.70 156.20 L 644.70 160.60 L 639.40 164.60 L 633.90 168.20 L 630.80 169.70 L 637.30 169.60 L 643.20 170.00 L 649.50 171.00 L 656.00 172.40 L 662.30 174.50 L 668.90 177.20 L 675.70 180.70 L 680.50 183.60 L 690.50 191.10 L 696.80 197.00 L 698.10 200.30 L 698.30 202.10 L 698.10 203.80 L 697.10 206.50 L 695.20 208.80 L 692.00 211.60 L 683.80 217.60 L 678.10 221.00 L 670.90 224.70 L 660.20 228.80 L 654.00 230.50 L 647.40 231.90 L 640.80 232.70 L 634.20 233.00 L 630.70 232.90 L 636.40 236.00 L 641.40 239.30 L 646.30 243.30 L 651.20 247.80 L 655.70 252.70 L 660.00 258.30 L 664.20 264.70 L 666.90 269.70 L 671.80 281.20 L 674.00 287.70 L 674.30 291.20 L 673.90 293.00 L 672.10 296.10 L 671.00 297.10 L 668.80 298.40 L 662.90 299.80 L 658.80 300.30 L 652.80 300.90 L 646.20 301.00 L 638.10 300.50 L 626.80 298.70 L 620.50 297.10 L 614.10 295.00 L 608.00 292.50 L 602.20 289.50 L 599.10 287.60 L 602.50 293.10 L 605.10 298.50 L 607.40 304.40 L 609.40 310.70 L 610.80 317.20 L 611.70 324.30 L 612.10 331.90 L 611.40 343.60 L 609.10 356.70 L 607.50 359.90 L 604.90 362.30 L 603.30 363.00 L 601.90 363.30 L 599.30 363.30 L 593.50 361.60 L 589.70 360.00 L 584.20 357.40 L 578.40 354.20 L 571.70 349.80 L 567.30 346.50 L 558.10 338.10 L 553.60 333.10 L 549.60 327.80 L 546.10 322.30 L 544.50 319.20 L 544.60 325.70 L 544.20 331.70 L 543.30 337.90 L 541.80 344.40 L 539.80 350.70 L 537.00 357.20 L 533.50 364.00 L 527.20 373.80 L 518.50 384.00 L 517.20 385.20 L 513.90 386.50 L 512.10 386.70 L 509.00 386.10 L 506.80 384.80 L 505.40 383.60 L 500.00 377.10 L 496.60 372.10 L 493.20 366.50 L 489.50 359.30 L 485.40 348.60 L 483.70 342.40 L 482.30 335.80 L 481.50 329.20 L 481.20 322.70 L 481.30 319.10 L 478.20 324.80 L 474.90 329.80 L 470.90 334.70 L 466.40 339.60 L 461.50 344.10 L 455.90 348.40 L 449.40 352.60 L 444.50 355.30 L 433.00 360.20 L 426.40 362.40 L 422.90 362.70 L 421.20 362.30 L 418.10 360.50 L 417.10 359.40 L 415.80 357.20 L 414.40 351.30 L 413.80 347.20 L 413.30 341.20 L 413.20 334.60 L 413.60 326.50 L 415.40 315.20 L 417.00 308.90 L 419.10 302.50 L 421.70 296.40 L 424.60 290.60 L 426.60 287.60 L 421.00 290.90 L 415.70 293.50 L 409.80 295.80 L 403.40 297.80 L 396.90 299.20 L 389.90 300.10 L 382.20 300.50 L 370.60 299.90 L 357.40 297.50 L 354.20 296.00 L 351.80 293.40 L 351.10 291.80 L 350.80 290.30 L 350.80 287.70 L 352.50 281.90 L 354.10 278.10 L 356.70 272.60 L 359.90 266.80 L 364.30 260.10 L 367.60 255.70 L 376.00 246.50 L 381.10 242.10 L 386.30 238.10 L 391.80 234.50 L 394.90 232.90 L 388.50 233.10 L 382.50 232.70 L 376.30 231.70 L 369.80 230.20 L 363.40 228.20 L 356.90 225.50 L 350.10 222.00 L 345.20 219.10 L 335.30 211.60 L 328.90 205.60 L 327.60 202.40 L 327.40 200.60 L 327.60 198.90 L 328.60 196.20 L 330.50 193.90 L 333.70 191.10 L 342.00 185.10 L 347.60 181.70 L 354.80 178.00 L 365.50 173.90 L 371.70 172.20 L 378.30 170.80 L 384.90 170.00 L 391.50 169.70 L 395.00 169.80 L 389.30 166.70 L 384.30 163.40 L 379.40 159.40 L 374.50 154.90 L 370.00 150.00 L 365.70 144.40 L 361.60 138.00 L 356.30 127.50 L 351.80 114.90 L 351.50 111.40 L 351.80 109.70 L 352.60 108.10 L 354.70 105.60 L 356.90 104.30 L 358.60 103.80 L 369.00 102.10 L 379.80 101.80 L 391.80 102.70 L 398.30 103.80 L 405.20 105.50 L 411.60 107.70 L 417.70 110.20 L 423.60 113.20 L 426.80 115.50 L 423.10 109.60 L 420.50 104.20 L 418.20 98.30 L 416.30 92.00 L 414.80 85.50 L 413.90 78.40 L 413.50 70.80 L 414.20 59.10 L 416.60 46.00 L 417.20 44.30 L 419.30 41.50 L 420.70 40.40 L 423.00 39.50 L 425.10 39.20 L 428.00 39.80 L 435.90 42.70 L 441.40 45.20 L 447.20 48.40 L 453.90 52.90 L 462.80 60.10 L 467.50 64.60 L 471.90 69.60 L 475.90 74.90 L 479.50 80.40 L 481.10 83.50 L 480.90 77.00 L 481.30 71.00 L 482.30 64.80 L 483.80 58.30 L 485.80 52.00 L 488.50 45.40 L 492.00 38.70 L 494.90 33.80 L 502.40 23.80 L 507.00 18.70 L 508.50 17.60 L 511.80 16.20 L 513.60 16.00 Z" fill="#ffe931" fill-rule="nonzero" group-id="1,3" id="形状" node-id="20" stroke="none" target-height="370.7" target-width="370.9" target-x="327.4" target-y="16"></path><path d="M 421.40 203.50 L 421.80 195.60 L 422.70 187.90 L 424.20 180.60 L 426.30 173.40 L 428.90 166.40 L 432.10 159.70 L 435.70 153.30 L 439.80 147.20 L 444.40 141.50 L 449.30 136.10 L 454.70 131.20 L 460.40 126.60 L 466.50 122.50 L 472.90 118.90 L 479.60 115.80 L 486.60 113.10 L 493.80 111.00 L 501.20 109.50 L 508.80 108.60 L 516.70 108.20 L 524.70 108.60 L 532.30 109.50 L 539.70 111.00 L 546.90 113.10 L 553.90 115.80 L 560.60 118.90 L 567.00 122.50 L 573.00 126.60 L 578.80 131.20 L 584.10 136.10 L 589.10 141.50 L 593.70 147.20 L 597.80 153.30 L 601.40 159.70 L 604.50 166.40 L 607.20 173.40 L 609.30 180.60 L 610.80 187.90 L 611.70 195.60 L 612.10 203.50 L 611.70 211.40 L 610.80 219.10 L 609.30 226.40 L 607.20 233.60 L 604.50 240.60 L 601.40 247.30 L 597.80 253.70 L 593.70 259.80 L 589.10 265.50 L 584.10 270.90 L 578.80 275.80 L 573.00 280.40 L 567.00 284.50 L 560.60 288.10 L 553.90 291.20 L 546.90 293.90 L 539.70 296.00 L 532.30 297.50 L 524.70 298.40 L 516.70 298.80 L 508.80 298.40 L 501.20 297.50 L 493.80 296.00 L 486.60 293.90 L 479.60 291.20 L 472.90 288.10 L 466.50 284.50 L 460.40 280.40 L 454.70 275.80 L 449.30 270.90 L 444.40 265.50 L 439.80 259.80 L 435.70 253.70 L 432.10 247.30 L 428.90 240.60 L 426.30 233.60 L 424.20 226.40 L 422.70 219.10 L 421.80 211.40 L 421.40 203.50 Z" fill="#f5ac2a" fill-rule="nonzero" group-id="1,3" id="路径" node-id="21" stroke="none" target-height="190.59999" target-width="190.69998" target-x="421.4" target-y="108.2"></path><path d="M 447.30 203.10 L 447.50 197.30 L 448.20 191.80 L 449.30 186.50 L 450.80 181.30 L 452.80 176.20 L 455.10 171.30 L 457.70 166.70 L 460.70 162.30 L 464.00 158.20 L 467.60 154.30 L 471.50 150.70 L 475.70 147.40 L 480.20 144.40 L 484.80 141.80 L 489.70 139.50 L 494.80 137.60 L 500.00 136.10 L 505.40 135.00 L 511.00 134.30 L 516.70 134.10 L 522.50 134.30 L 528.10 135.00 L 533.50 136.10 L 538.70 137.60 L 543.80 139.50 L 548.70 141.80 L 553.30 144.40 L 557.80 147.40 L 562.00 150.70 L 565.90 154.30 L 569.50 158.20 L 572.80 162.30 L 575.80 166.70 L 578.40 171.30 L 580.70 176.20 L 582.60 181.30 L 584.20 186.50 L 585.30 191.80 L 585.90 197.30 L 586.20 203.10 L 585.90 208.80 L 585.30 214.30 L 584.20 219.70 L 582.60 224.90 L 580.70 230.00 L 578.40 234.80 L 575.80 239.40 L 572.80 243.80 L 569.50 248.00 L 565.90 251.80 L 562.00 255.40 L 557.80 258.70 L 553.30 261.70 L 548.70 264.30 L 543.80 266.60 L 538.70 268.50 L 533.50 270.00 L 528.10 271.10 L 522.50 271.80 L 516.70 272.00 L 511.00 271.80 L 505.40 271.10 L 500.00 270.00 L 494.80 268.50 L 489.70 266.60 L 484.80 264.30 L 480.20 261.70 L 475.70 258.70 L 471.50 255.40 L 467.60 251.80 L 464.00 248.00 L 460.70 243.80 L 457.70 239.40 L 455.10 234.80 L 452.80 230.00 L 450.80 224.90 L 449.30 219.70 L 448.20 214.30 L 447.50 208.80 L 447.30 203.10 Z" fill="#d8691f" fill-rule="nonzero" group-id="1,3" id="路径" node-id="22" stroke="none" target-height="137.9" target-width="138.90002" target-x="447.3" target-y="134.1"></path></g></g></svg>