<?xml version="1.0" standalone="no"?><!DOCTYPE svg PUBLIC "-//W3C//DTD SVG 1.1//EN" "http://www.w3.org/Graphics/SVG/1.1/DTD/svg11.dtd"><svg t="1632582388413" class="icon" viewBox="0 0 1024 1024" version="1.1" xmlns="http://www.w3.org/2000/svg" p-id="200909" xmlns:xlink="http://www.w3.org/1999/xlink" width="300" height="300"><defs><style type="text/css"></style></defs><path d="M787.456 380.830476l-27.062857 22.674286-277.162667 235.617524-277.357714 235.861333-11.824762 9.825524c-14.384762 12.434286-33.158095 18.578286-52.102095 17.066667a75.142095 75.142095 0 0 1-42.081524-132.266667l206.409143-175.445333 220.452571-188.050286L776.021333 194.31619l24.868572-21.26019a20.041143 20.041143 0 0 1 3.169524-2.413714c1.219048 2.413714 0 4.022857-1.389715 5.412571a80.384 80.384 0 0 0-14.019047 49.371429v152.966095c0 3.413333-0.414476 2.194286-1.219048 2.389333z" fill="#1A9DE0" p-id="200910"></path><path d="M780.434286 391.92381v-1.170286a24.624762 24.624762 0 0 1 7.533714-7.41181l65.755429-54.905904 45.299809-37.717334a70.753524 70.753524 0 0 0 24.868572-40.472381c0-2.145524 0-4.681143 2.364952-6.436571v580.778666c3.120762 39.619048-26.989714 74.215619-67.267048 77.28762-40.252952 3.072-75.434667-26.550857-78.579809-66.145524a86.503619 86.503619 0 0 1 0-12.507429v-425.447619c0.195048-1.950476 0-3.900952 0-5.851428z m-562.41981-44.373334v230.741334a8.850286 8.850286 0 0 1-3.34019 7.606857l-137.606096 118.345143A8.850286 8.850286 0 0 1 73.142857 707.047619V219.014095c0.585143-34.986667 25.185524-64.75581 58.977524-71.363047A70.509714 70.509714 0 0 1 181.638095 156.038095l8.289524 5.193143a70.777905 70.777905 0 0 1 29.452191 59.977143v118.369524c-0.195048 3.193905 0.414476 5.802667-1.365334 7.996952z" fill="#D60419" p-id="200911"></path><path d="M221.793524 359.911619V230.15619c0.024381-17.066667-5.461333-33.572571-15.530667-46.689523-2.925714-4.096-6.339048-7.801905-10.093714-10.971429 0 0 0-1.219048-1.121524-1.828571 5.510095 2.852571 10.898286 6.046476 16.091429 9.532952 63.975619 38.790095 127.780571 77.360762 191.390476 116.540952 24.673524 13.848381 38.960762 42.73981 35.937524 72.704-1.706667 25.721905-15.481905 48.688762-36.498286 60.732953a64.146286 64.146286 0 0 1-66.80381-1.462857L224.792381 361.545143l-2.998857-1.609143z" fill="#DA1E30" p-id="200912"></path><path d="M925.500952 233.667048a79.140571 79.140571 0 0 1-24.722285 49.298285l-118.637715 106.081524-1.584762 1.048381c-0.487619-4.632381-0.487619-9.313524 0-13.945905V228.473905a86.79619 86.79619 0 0 1 9.094096-41.618286c2.194286-4.583619 5.534476-8.533333 7.509333-13.312 10.24-11.459048 23.113143-19.894857 37.376-24.551619a69.90019 69.90019 0 0 1 58.953143 9.679238 77.190095 77.190095 0 0 1 32.377905 52.736c0.926476 7.387429 0.804571 14.896762-0.390096 22.25981z" fill="#1684C8" p-id="200913"></path></svg>