<?xml version="1.0" standalone="no"?><!DOCTYPE svg PUBLIC "-//W3C//DTD SVG 1.1//EN" "http://www.w3.org/Graphics/SVG/1.1/DTD/svg11.dtd"><svg t="1676110981287" class="icon" viewBox="0 0 1024 1024" version="1.1" xmlns="http://www.w3.org/2000/svg" p-id="49221" xmlns:xlink="http://www.w3.org/1999/xlink" width="200" height="200"><path d="M768.2048 285.3888H262.5024c-57.8048 0-106.7008 42.6496-114.5856 99.8912L87.552 823.2448c-9.5744 69.5296 44.4416 131.4816 114.5856 131.4816h623.0016c69.8368 0 123.6992-61.3888 114.7392-130.6112l-56.9344-437.9648c-7.5264-57.6-56.6272-100.7616-114.7392-100.7616z" fill="#FFB82B" p-id="49222"></path><path d="M770.048 320.256H260.5056c-35.6352 0-65.8432 24.9856-70.7072 58.5728l-62.9248 434.0736c-5.888 40.7552 27.4432 77.056 70.7072 77.056H829.44c43.0592 0 76.3392-35.9936 70.7584-76.544l-59.392-434.0736c-4.608-33.792-34.9184-59.0848-70.7584-59.0848z" fill="#FFD029" p-id="49223"></path><path d="M745.8304 347.136H284.3648c-32.3072 0-59.648 21.8112-64.0512 51.0976L163.328 776.96c-5.3248 35.5328 24.832 67.2256 64.0512 67.2256h572.2624c39.0144 0 69.12-31.3856 64.1024-66.816l-53.8112-378.7264c-4.1984-29.4912-31.5904-51.5072-64.1024-51.5072z" fill="#FEDB44" p-id="49224"></path><path d="M717.3632 377.5488H312.4224c-28.3136 0-52.3264 18.3808-56.1664 43.0592l-49.9712 319.0272c-4.7104 29.952 21.8112 56.6272 56.1664 56.6272h502.1184c34.2528 0 60.672-26.4192 56.2688-56.2688l-47.2064-319.0272c-3.6864-24.832-27.7504-43.4176-56.2688-43.4176z" fill="#FFE36E" p-id="49225"></path><path d="M336.384 537.6512c46.592 0 84.48-37.888 84.48-84.48V304.9984c0-6.7584 0.768-13.2608 2.1504-19.6096H252.7232c-0.4608 6.5024-0.8192 13.0048-0.8192 19.6096v148.1728c0 46.592 37.888 84.48 84.48 84.48zM606.1568 304.9984v148.1728c0 46.592 37.888 84.48 84.48 84.48s84.48-37.888 84.48-84.48V304.9984c0-6.6048-0.3072-13.1072-0.8192-19.6096h-170.2912c1.3824 6.3488 2.1504 12.9024 2.1504 19.6096z" fill="#FFB82B" p-id="49226"></path><path d="M690.6368 509.4912c-31.1296 0-56.32-25.1904-56.32-56.32V304.9984c0-66.6112-54.1696-120.832-120.832-120.832s-120.832 54.1696-120.832 120.832v148.1728c0 31.1296-25.1904 56.32-56.32 56.32s-56.32-25.1904-56.32-56.32V304.9984c0-128.7168 104.704-233.472 233.472-233.472s233.472 104.704 233.472 233.472v148.1728c0 31.1296-25.1904 56.32-56.32 56.32z" fill="#EC4E1F" p-id="49227"></path><path d="M690.6368 486.4512a33.28 33.28 0 0 1-33.28-33.28V304.9984c0-79.3088-64.512-143.872-143.872-143.872s-143.872 64.512-143.872 143.872v148.1728a33.28 33.28 0 1 1-66.56 0V304.9984c0-116.0192 94.4128-210.432 210.432-210.432s210.432 94.4128 210.432 210.432v148.1728a33.28 33.28 0 0 1-33.28 33.28z" fill="#F67D00" p-id="49228"></path><path d="M690.6368 468.5312c-8.4992 0-15.36-6.8608-15.36-15.36V304.9984c0-89.1904-72.5504-161.792-161.792-161.792s-161.792 72.5504-161.792 161.792v148.1728c0 8.4992-6.8608 15.36-15.36 15.36s-15.36-6.8608-15.36-15.36V304.9984c0-106.1376 86.3744-192.512 192.512-192.512s192.512 86.3744 192.512 192.512v148.1728c0 8.4992-6.8608 15.36-15.36 15.36z" fill="#F59633" p-id="49229"></path><path d="M679.5264 755.8144H347.4944c-28.2624 0-51.2-22.9376-51.2-51.2s22.9376-51.2 51.2-51.2h331.9808c28.2624 0 51.2 22.9376 51.2 51.2s-22.8864 51.2-51.1488 51.2z" fill="#FDF2B1" p-id="49230"></path></svg>