<?xml version="1.0" standalone="no"?><!DOCTYPE svg PUBLIC "-//W3C//DTD SVG 1.1//EN" "http://www.w3.org/Graphics/SVG/1.1/DTD/svg11.dtd"><svg t="1637568478269" class="icon" viewBox="0 0 1024 1024" version="1.1" xmlns="http://www.w3.org/2000/svg" p-id="6129" xmlns:xlink="http://www.w3.org/1999/xlink" width="50" height="50"><defs><style type="text/css"></style></defs><path d="M761.285233 796.04885l-247.640535-6.20986v-0.082984l-1.642698 0.041992-1.642699-0.041992v0.082984l-247.640535 6.20986-33.308884 207.184963 44.896757-18.276645 21.421067 14.837276 47.162342-17.273829 29.127652 14.011428 37.980027-15.839092 43.746968 15.230204 35.450492-15.840092 22.806813 13.403539 22.806812-13.403539 35.450492 15.840092 43.746968-15.230204 37.980027 15.839092 29.127653-14.011428 47.163341 17.273829 21.421067-14.837276 44.895757 18.276645z" fill="#C90505" p-id="6130"></path><path d="M809.414397 1021.870391l-58.263304-23.716646-21.202107 14.683304-48.220147-17.656758-29.402602 14.140404-38.693896-16.138037-43.908939 15.290193-34.183724-15.281195-23.536679 13.830461-23.536678-13.830461-34.184724 15.281195-43.908939-15.290193-38.693896 16.138037-29.405601-14.140404-48.218148 17.656758-21.202107-14.683304-58.263303 23.716646 38.141997-237.249443 245.953844-6.169867v-0.583893l13.315556 0.250954 13.315555-0.332939v0.665878l245.954844 6.169867 38.142998 237.249443z m-128.916332-52.007452l46.108535 16.889899 21.640027-14.993247 31.528211 12.836643-28.474772-177.120482-239.468035-6.005897-1.178784 0.035994-237.947314 5.968904-28.474772 177.120481 31.528211-12.836643 21.640027 14.993248 46.106535-16.8899 28.853703 13.876453 37.267158-15.536148 43.584998 15.171215 36.715259-16.401989 22.076947 12.973618 22.076947-12.973618 36.715259 16.401989 43.584998-15.171215 37.267158 15.536148 28.849704-13.875453z" fill="" p-id="6131"></path><path d="M512.002 370.636953m-306.206783 0a306.206782 306.206782 0 1 0 612.413565 0 306.206782 306.206782 0 1 0-612.413565 0Z" fill="#C90505" p-id="6132"></path><path d="M512.002 688.518592c-175.27882 0-317.879639-142.600819-317.87964-317.879639 0-175.282819 142.600819-317.884638 317.87964-317.884638S829.881639 195.356134 829.881639 370.638953c0 175.27882-142.600819 317.879639-317.879639 317.879639z m0-612.416564c-162.405183 0-294.531926 132.126742-294.531926 294.536925 0 162.405183 132.126742 294.531926 294.531926 294.531926s294.531926-132.126742 294.531925-294.531926c0.001-162.410183-132.125743-294.536925-294.531925-294.536925z" fill="" p-id="6133"></path><path d="M747.999672 971.009729c0-137.974669-105.659602-235.997672-235.997672-235.997673S276.004327 833.03506 276.004327 971.009729h471.995345z" fill="#1A1A1A" p-id="6134"></path><path d="M755.955211 978.008444H257.046808v-12.130773c0-138.880502 110.573699-247.673529 249.454202-247.673529S755.955211 826.997168 755.955211 965.877671V978.008444z m-467.992079-19.996329h448.077735c-5.875921-124.977055-102.165243-212.651958-224.038867-212.651958S293.839053 833.03506 287.963132 958.012115z" fill="" p-id="6135"></path><path d="M512.002 416.555523m-254.161338 0a254.161338 254.161338 0 1 0 508.322675 0 254.161338 254.161338 0 1 0-508.322675 0Z" fill="#F8EDD2" p-id="6136"></path><path d="M512.002 682.389718c-146.582088 0-265.836194-119.254106-265.836195-265.836195s119.254106-265.836194 265.836195-265.836194 265.836194 119.254106 265.836194 265.836194-119.254106 265.836194-265.836194 265.836195z m0-508.324675c-133.709452 0-242.488481 108.779029-242.488481 242.48848s108.779029 242.488481 242.488481 242.488481 242.488481-108.779029 242.48848-242.488481-108.779029-242.488481-242.48848-242.48848z" fill="" p-id="6137"></path><path d="M236.956496 215.484438s-55.696774-75.355165-21.434065-176.872527c0 0 22.799814 76.771905 102.13125 76.454963 0-0.001 25.758271 81.86697-80.697185 100.417564z" fill="#C90505" p-id="6138"></path><path d="M231.857432 228.225099l-4.286213-5.799935c-2.423555-3.278398-58.906185-81.474042-23.107757-187.549567L216.233301 0l10.481076 35.285522c0.834847 2.749495 21.448062 68.108496 90.455393 68.108496l8.600421-0.031995 3.021445 8.203494c0.460915 1.463731 11.062969 36.247345-8.570427 68.509422-14.795284 24.309537-42.134264 40.091639-81.257081 46.909388l-7.106696 1.240772zM219.033787 71.888802c-11.242936 64.333189 13.527516 113.950079 23.452694 130.622018 28.116838-6.119876 47.538272-17.729745 57.78939-34.573652 9.418271-15.477158 9.120326-32.043117 7.829563-41.510379-46.640437-3.279398-74.212375-31.578202-89.071647-54.537987z" fill="" p-id="6139"></path><path d="M787.048503 215.484438s55.696774-75.355165 21.434065-176.872527c0 0-22.799814 76.771905-102.13125 76.454963 0-0.001-25.758271 81.86697 80.697185 100.417564z" fill="#C90505" p-id="6140"></path><path d="M792.147567 228.225099l-7.104696-1.240772c-39.122817-6.816748-66.462798-22.599851-81.257082-46.909388-19.633395-32.262077-9.031342-67.045691-8.570426-68.509422l2.580526-8.203494 8.600421 0.031995c69.44425-0.004999 90.060465-65.359 90.904311-68.14049L807.879678 0.377931l11.661859 34.496666c35.798428 106.075525-20.684203 184.271169-23.107757 187.549567l-4.286213 5.800935z m-76.196011-101.803309c-1.260769 9.571243-1.541717 26.366159 7.913547 41.738337 10.285112 16.72193 29.660555 28.258812 57.652415 34.350693 9.925178-16.671939 34.69463-66.28883 23.452695-130.627017-14.854273 22.950786-42.405215 51.241592-89.018657 54.537987z" fill="" p-id="6141"></path><path d="M331.885068 672.62651s32.454042 13.108593 67.123676 16.001062c0 0 26.426148 56.449636 116.396631 90.726343 0 0-118.79419 44.436842-183.520307-24.116572l46.972376-35.879413-46.972376-46.73142z" fill="#C90505" p-id="6142"></path><path d="M432.926517 805.191172c-46.402481 0-83.254715-14.113409-109.529891-41.9433l-8.896366-9.42127 46.642436-35.627459-78.302624-77.898698 53.411194 21.501052c0.309943 0.122977 31.332248 12.489707 63.726301 15.194211l6.737763 0.560897 2.866473 6.123876c0.227958 0.473913 26.120204 52.814304 109.980809 84.766437l28.896694 11.007979-28.962682 10.835011c-1.627701 0.605889-40.371588 14.901264-86.570107 14.901264z m-82.980765-49.060993c20.924158 17.072866 48.769046 25.714279 82.980765 25.714279 17.720747 0 34.373689-2.366566 47.732237-5.107062-55.333841-28.180826-80.537214-63.170402-88.902678-77.100845-6.650779-0.770858-13.139588-1.855659-19.284459-3.096431l24.101575 23.976598-46.62744 35.613461z" fill="" p-id="6143"></path><path d="M515.405375 779.353915S406.351396 801.840787 340.868419 748.375603l-65.482978 45.139713c-0.001 0.001 120.80782 43.985924 240.019934-14.161401z" fill="#C90505" p-id="6144"></path><path d="M380.053225 821.133245h-0.015997c-62.20058-0.004999-106.777396-15.965069-108.645054-16.643944l-21.263096-7.738579 91.333232-62.960441 6.789753 5.544982c33.447859 27.304987 80.140287 33.036935 113.419177 33.036934 29.270626 0 51.170605-4.409191 51.386566-4.455182l90.275426-18.46361-82.809797 40.392584c-42.561186 20.758189-89.826508 31.287256-140.47021 31.287256z m-77.513769-32.157096c18.052686 4.163236 45.397665 8.810382 77.497772 8.810382h0.015997c16.983882 0 33.543842-1.267767 49.621889-3.789304-29.186642-3.237406-61.886638-11.737845-89.150632-31.204271l-37.985026 26.183193z" fill="" p-id="6145"></path><path d="M692.119931 672.62651s-32.453042 13.108593-67.123676 16.001062c0 0-26.426148 56.449636-116.396631 90.726343 0 0 118.79419 44.436842 183.520307-24.116572l-46.972376-35.879413 46.972376-46.73142z" fill="#C90505" p-id="6146"></path><path d="M591.082481 805.191172h-0.004999c-46.197518-0.004999-84.942405-14.295375-86.570106-14.902264l-28.962683-10.835011 28.896695-11.007979c84.579472-32.226083 109.736853-84.246533 109.980808-84.766437l2.865474-6.123876 6.737763-0.560897c32.394053-2.704503 63.416357-15.071233 63.7263-15.19421L741.157928 640.300445l-78.295625 77.898698 46.642436 35.627459-8.896366 9.42127c-26.276176 27.829891-63.125411 41.943299-109.525892 41.9433z m-47.711241-28.467774c13.383543 2.749495 30.046484 5.12106 47.707242 5.12106 34.211719 0 62.055607-8.636414 82.980765-25.714279l-46.628439-35.613461 24.102575-23.976598c-6.144872 1.240772-12.633681 2.325573-19.28446 3.096431-8.363465 13.925443-33.564838 48.91002-88.877683 77.086847z" fill="" p-id="6147"></path><path d="M508.599624 779.353915s109.053978 22.486872 174.536956-30.978312l65.482978 45.139713c0 0.001-120.806821 43.985924-240.019934-14.161401z" fill="#C90505" p-id="6148"></path><path d="M643.967772 821.133245c-50.6547 0-97.922022-10.524068-140.485208-31.286256l-82.828793-40.397583 90.293422 18.467609c0.21696 0.045992 22.11594 4.455182 51.386566 4.455182 33.27889 0 79.974317-5.731948 113.419177-33.036934l6.789753-5.544982 91.333232 62.955441-21.263096 7.742579c-1.867657 0.680875-46.444473 16.644944-108.645053 16.644944z m-49.633888-27.137018c16.083047 2.521537 32.648006 3.789304 49.633888 3.789305 32.102106 0 59.444086-4.647147 77.497771-8.810383l-37.985026-26.183193c-27.264994 19.462427-59.959992 27.966865-89.146633 31.204271z" fill="" p-id="6149"></path><path d="M458.328854 535.351713l-0.398927-0.402926-1.880655-1.670694c-1.791671-1.515722-4.705136-3.767308-8.763391-6.276847-8.058521-5.026077-20.902162-11.129957-37.739071-13.720481-16.762922-2.754494-37.432128-1.500724-58.823201 5.036075-10.847009 3.21141-21.212106 7.641597-32.592016 13.02161-11.633864 5.402008-23.872617 10.373096-36.345327 14.424351-12.485708 4.093249-25.331349 7.356649-38.396951 9.124325-13.012611 1.702687-26.484138 2.137608-39.623725-1.865657-6.495807-1.998633-12.991615-5.649963-17.617766-11.224939-4.735131-5.50099-6.938726-12.479709-7.324655-18.727562-0.482911-6.31984 0.43492-12.14777 1.801669-17.458795 1.201779-5.348018 3.567345-11.033974 7.150688-15.272196 7.0807-8.797385 17.386808-12.283745 25.92224-12.546696 8.671408-0.288947 16.355997 2.556531 21.200108 7.092697 4.941093 4.598156 6.170867 10.381094 6.147872 13.747476-0.014997 1.74368-0.132976 3.05144-0.313943 3.906283l-0.211961 1.31076a2.917464 2.917464 0 1 1-5.731948-1.097799c-0.084984 0.010998 0.32494-1.396744 0.176968-3.875288-0.153972-2.435553-1.117795-6.000898-4.595156-8.93336-3.428371-2.900467-9.411272-4.9031-16.224022-4.280214-6.726765 0.575894-14.373361 3.800302-19.00851 10.364097-2.392561 3.231407-3.822298 7.022711-4.600155 11.729846-0.894836 4.687139-1.25477 9.566244-0.570896 14.130406 1.0898 9.351283 7.507622 15.899081 17.555777 18.162665 9.939175 2.348569 21.707015 1.465731 33.257894-0.911832 11.618867-2.371565 23.31072-6.163868 34.69563-10.767023 11.4369-4.587158 22.472874-9.947174 33.17591-15.815097 10.874004-6.038891 22.898796-12.013794 34.710627-16.252016 23.754639-8.82438 48.419111-12.014794 69.487242-9.815198 21.138119 1.986635 38.137998 8.744395 49.231962 14.794284 5.593973 3.021445 9.8062 5.868923 12.700668 8.026526a68.73738 68.73738 0 0 1 3.370381 2.649514l1.330756 1.162786c6.384828 5.582975 7.034708 15.284194 1.452733 21.669022-5.582975 6.384828-15.283194 7.034708-21.669021 1.452733a15.832093 15.832093 0 0 1-0.776858-0.726866l-0.16097-0.16397z" fill="#1A1A1A" p-id="6150"></path><path d="M226.20747 567.800755c-9.414272 0-17.86572-1.180783-25.846255-3.611337-6.632782-2.038626-16.01206-6.278847-23.198741-14.943256-5.799935-6.730764-9.398275-15.832093-9.991166-25.454327-0.503907-6.552797 0.195964-13.50652 2.149606-21.090128 1.664694-7.441634 5.084067-14.633313 9.542248-19.904346 8.119509-10.091147 20.75019-16.252016 34.471671-16.675938a56.841564 56.841564 0 0 1 1.561713-0.022996c10.814015 0 21.012142 3.739313 27.982863 10.265116 6.20886 5.781938 9.895183 14.140404 9.840193 22.343897-0.022996 2.362566-0.184966 4.295211-0.501908 5.918914l-0.179967 1.116795c-1.543717 8.084516-9.063336 13.411538-17.113858 11.892816-5.358016-1.03481-9.469262-4.879104-11.098962-9.699219l-1.35875-1.568712 0.793854-5.622968c0.040992-0.282948 0.086984-0.601889 0.05199-1.185782-0.010998-0.172968-0.095982-0.37893-0.464914-0.688873-0.631884-0.533902-3.54135-1.951642-7.644597-1.586709-3.458365 0.300945-7.998532 1.892653-10.531066 5.476994-1.36075 1.846661-2.12261 3.908282-2.61552 6.894734-0.804852 4.227224-0.970822 7.660594-0.5449 10.493074 0.234957 1.96064 0.793854 6.757759 8.572426 8.509438 7.453632 1.769675 16.985881 1.381746 28.340797-0.952825 10.148137-2.074619 21.13312-5.485993 32.673001-10.155136 10.45808-4.19523 20.894164-9.170316 31.941136-15.230204 13.493523-7.496624 25.413334-13.068601 36.38432-17.003878 24.537495-9.111327 51.313579-12.877636 74.638297-10.438084 23.930606 2.248587 42.37422 10.032158 53.612157 16.161033 5.100064 2.749495 9.85619 5.758943 14.086414 8.914364a74.695286 74.695286 0 0 1 3.905283 3.073435l1.504724 1.30876c5.433003 4.751128 8.691404 11.335919 9.174315 18.540596 0.482911 7.204677-1.867657 14.1634-6.618784 19.599402a27.040036 27.040036 0 0 1-20.356263 9.238304 27.026038 27.026038 0 0 1-19.097494-7.906549l-1.992634-1.819666c-1.187782-0.993818-3.623335-2.88647-7.131691-5.052072-6.798752-4.241221-18.066683-9.758208-33.374872-12.115776-16.174031-2.649514-35.303518-0.939827-53.637153 4.660145-11.256933 3.338387-21.988963 8.144505-31.012306 12.412721-12.948623 6.014896-25.618297 11.043972-37.732073 14.975251-14.389358 4.720133-27.626928 7.856558-40.440575 9.590239-6.943725 0.904834-13.058603 1.342753-18.742559 1.342753z m165.772565-67.565595c6.748761 0 13.294559 0.514905 19.457428 1.527719 19.106492 2.936461 33.408866 9.963171 42.023284 15.335185 4.68314 2.891469 8.094514 5.549981 10.121142 7.259667l3.372381 3.096432c0.859842 0.752862 1.787672 0.911833 2.414557 0.911832s1.821666-0.16397 2.77949-1.258769c0.87284-0.998817 0.939827-2.102614 0.900834-2.672509a3.673326 3.673326 0 0 0-1.24977-2.526536l-1.322758-1.153788a54.529989 54.529989 0 0 0-2.621518-2.047624c-3.37438-2.517538-7.165684-4.911098-11.317922-7.149688-7.669592-4.186231-23.620663-11.458896-44.779779-13.447531-19.751374-2.060622-41.567368 1.002816-62.335556 8.413456 14.263381-4.163236 28.59775-6.287846 42.558187-6.287846z" fill="" p-id="6151"></path><path d="M544.523029 513.120794l1.330756-1.162786a68.73738 68.73738 0 0 1 3.370381-2.649514c2.894469-2.157604 7.106695-5.005081 12.700668-8.026526 11.093963-6.049889 28.093842-12.807649 49.231961-14.794284 21.068132-2.199596 45.733604 0.990818 69.487243 9.815198 11.811831 4.238222 23.836624 10.213125 34.711627 16.252016 10.702035 5.867923 21.738009 11.227939 33.175909 15.815097 11.38391 4.604155 23.075763 8.396458 34.694631 10.767023 11.551879 2.377563 23.318719 3.260401 33.257894 0.911832 10.048155-2.263584 16.464977-8.811382 17.555776-18.162665 0.683874-4.565162 0.32494-9.444266-0.570895-14.130406-0.777857-4.706136-2.207595-8.49844-4.600155-11.729846-4.635149-6.562795-12.281745-9.788203-19.00851-10.364097-6.811749-0.622886-12.794651 1.379747-16.224022 4.280214-3.477362 2.932462-4.441185 6.496807-4.595156 8.93336-0.146973 2.478545 0.261952 3.885287 0.176967 3.875288a2.917464 2.917464 0 1 1-5.731947 1.097799l-0.211961-1.31076c-0.180967-0.855843-0.298945-2.162603-0.312943-3.906283-0.024995-3.366382 1.205779-9.14932 6.146872-13.747476 4.84511-4.535167 12.5287-7.381645 21.199108-7.092697 8.536433 0.261952 18.842541 3.749312 25.92324 12.546696 3.583342 4.238222 5.949908 9.924178 7.150687 15.272196 1.366749 5.311025 2.28558 11.138955 1.80167 17.458795-0.384929 6.247853-2.589525 13.226572-7.324656 18.727562-4.626151 5.574976-11.121958 9.226306-17.617765 11.224939-13.139588 4.003265-26.610115 3.568345-39.623725 1.865657-13.065601-1.767675-25.911243-5.030077-38.396951-9.124325-12.47271-4.051256-24.711463-9.022344-36.345327-14.424351-11.379911-5.380012-21.745008-9.810199-32.592016-13.02161-21.391073-6.5368-42.060278-7.79057-58.823201-5.036075-16.836909 2.589525-29.680551 8.694404-37.739071 13.720481-4.058255 2.510539-6.97172 4.761126-8.763391 6.276847l-1.880655 1.670694-0.398927 0.402926-0.132975 0.133975c-5.967904 6.026894-15.690119 6.074885-21.717013 0.106981-6.026894-5.966905-6.074885-15.690119-0.106981-21.717013 0.249954-0.252954 0.537901-0.521904 0.802853-0.754862z" fill="#1A1A1A" p-id="6152"></path><path d="M797.799529 567.800755c-5.683956 0-11.798834-0.43792-18.696567-1.340754-12.861639-1.737681-26.099208-4.875105-40.522561-9.603236-12.079782-3.92128-24.749456-8.951357-37.625092-14.92926-9.09733-4.30421-19.829359-9.111327-30.99231-12.421719-18.467609-5.640964-37.819057-7.30066-53.612157-4.706136-15.426168 2.375564-26.694099 7.893551-33.454858 12.106777-3.547349 2.193597-5.982902 4.08625-7.40764 5.290029l-1.559714 1.408741c-5.210043 5.262034-12.031791 8.107512-19.300456 8.107512-7.168684 0-13.924444-2.781489-19.017509-7.824563-5.130058-5.080067-7.975536-11.855823-8.011529-19.074499-0.033994-7.218675 2.745496-14.022426 7.827563-19.152483 0.407925-0.414924 0.918831-0.893836 1.385746-1.30876l1.363749-1.189782a80.55921 80.55921 0 0 1 4.120244-3.251403c4.179233-3.114428 8.93536-6.123876 14.081415-8.901365 11.192945-6.10088 29.635559-13.885451 53.685143-16.147036 4.544166-0.473913 9.405273-0.720868 14.32737-0.720867 19.701383 0 40.559554 3.880288 60.317926 11.21794 10.846009 3.889286 22.76582 9.462263 36.316332 16.990881 10.989982 6.027893 21.425066 11.00298 31.852153 15.185212 11.570876 4.68314 22.555859 8.094514 32.683999 10.164134 11.388909 2.34357 21.07913 2.681508 28.239815 0.989818 7.90055-1.782673 8.458447-6.579792 8.641414-8.153503 0.478912-3.219409 0.311943-6.652779-0.439919-10.588056-0.5449-3.278398-1.30676-5.34002-2.517538-6.981719-2.683507-3.789304-7.222674-5.381012-10.62505-5.672958-4.599156-0.419923-7.076701 1.048807-7.685589 1.563713-0.384929 0.323941-0.469914 0.528903-0.482911 0.76186-0.031994 0.524904 0.013997 0.843845 0.05499 1.121794l0.765859 5.280031-1.199779 1.513722c-1.529719 5.007081-5.713951 9.038341-11.203943 10.096146-8.260483 1.559714-15.604135-3.839295-17.088863-11.591872l-0.229958-1.390744c-0.318941-1.6367-0.482911-3.579343-0.501908-5.927912-0.061989-8.208493 3.627334-16.575957 9.865189-22.380891 7.279663-6.821748 18.064683-10.51107 29.539577-10.219124 13.698485 0.423922 26.329166 6.584791 34.631642 16.899897 4.275215 5.048073 7.694587 12.238753 9.446266 20.032323 1.867657 7.232672 2.567529 14.186395 2.051623 20.908161-0.581893 9.453264-4.179233 18.554593-10.119142 25.449328-7.045706 8.49944-16.424984 12.735662-23.030772 14.770288-8.00553 2.439552-16.459978 3.620335-25.87225 3.620335z m-173.408163-70.311091c-4.115244 0-8.162501 0.204962-12.024793 0.606889-21.277094 2.001633-37.228165 9.275297-44.852765 13.433533-4.197229 2.266584-7.989533 4.660144-11.312923 7.13669a57.541436 57.541436 0 0 0-2.83448 2.225591l-1.160787 1.016814c-1.080802 1.080802-1.260769 2.097615-1.258768 2.790487 0.002 0.569895 0.147973 1.664694 1.091799 2.599523a3.627334 3.627334 0 0 0 2.590525 1.066804c0.574894 0 1.680691-0.140974 2.621518-1.094799l2.934462-2.704503c2.263584-1.919648 5.674958-4.578159 10.397091-7.496624 8.575426-5.344019 22.8778-12.371729 42.10227-15.326186 6.04389-0.993818 12.590688-1.509723 19.339449-1.509723 13.933442 0 28.237816 2.115612 42.556187 6.287846-16.656942-5.926912-33.923772-9.032342-50.188785-9.032342z" fill="" p-id="6153"></path><path d="M512.002 765.205513m-54.676962 0a54.676962 54.676962 0 1 0 109.353923 0 54.676962 54.676962 0 1 0-109.353923 0Z" fill="#FFE477" p-id="6154"></path><path d="M512.002 831.557331c-36.585283 0-66.350818-29.767535-66.350819-66.352818s29.765535-66.348819 66.350819-66.348819 66.350818 29.763536 66.350818 66.348819c0 36.585283-29.765535 66.352818-66.350818 66.352818z m0-109.353923c-23.711647 0-43.003105 19.288459-43.003105 43.001105s19.291458 43.006104 43.003105 43.006105c23.712647 0 43.003105-19.293458 43.003105-43.006105 0.001-23.711647-19.290458-43.001105-43.003105-43.001105z" fill="" p-id="6155"></path><path d="M507.708788 759.081637m-19.247466 0a19.247466 19.247466 0 1 0 38.494932 0 19.247466 19.247466 0 1 0-38.494932 0Z" fill="#FFFFFF" p-id="6156"></path></svg>