<?xml version="1.0" standalone="no"?><!DOCTYPE svg PUBLIC "-//W3C//DTD SVG 1.1//EN" "http://www.w3.org/Graphics/SVG/1.1/DTD/svg11.dtd"><svg t="1645191625460" class="icon" viewBox="0 0 1024 1024" version="1.1" xmlns="http://www.w3.org/2000/svg" p-id="18892" xmlns:xlink="http://www.w3.org/1999/xlink" width="200" height="200"><defs><style type="text/css"></style></defs><path d="M166.044575 415.433982a6.262997 6.262997 0 0 1 6.262997 6.262997v42.369174c0.93945 0.538618 1.819401 1.208758 2.621064 2.00729l158.112489 158.115621a12.525994 12.525994 0 1 1-17.714886 17.714887L157.213749 483.785199a12.469627 12.469627 0 0 1-3.144024-5.264049L114.246459 467.845872a6.262997 6.262997 0 1 1 3.241101-12.096979l39.481932 10.578202a12.763988 12.763988 0 0 1 2.812086-2.229627v-42.400489a6.262997 6.262997 0 0 1 6.262997-6.262997z" fill="#4C3030" p-id="18893"></path><path d="M493.286165 722.320832m-291.229358 0a291.229358 291.229358 0 1 0 582.458716 0 291.229358 291.229358 0 1 0-582.458716 0Z" fill="#EAEDF4" p-id="18894"></path><path d="M493.286165 431.091474c64.443107 0 123.997945 20.930936 172.232416 56.366972 35.436037 48.234471 56.366972 107.786177 56.366973 172.232416 0 160.840024-130.389333 291.229358-291.229358 291.229358-64.446239 0-123.997945-20.930936-172.235548-56.366972-35.432905-48.234471-56.366972-107.789309-56.366972-172.232416 0-160.843156 130.389333-291.229358 291.229358-291.229358z" fill="#FFFFFF" p-id="18895"></path><path d="M195.881492 715.015046a303.085211 303.085211 0 0 0-0.087682 7.305786c0 164.30033 133.192024 297.492355 297.492355 297.492355s297.492355-133.192024 297.492355-297.492355-133.192024-297.492355-297.492355-297.492355c-79.969076 0-154.934018 31.706422-210.35841 87.133945a297.911976 297.911976 0 0 0-64.562104 96.484599 295.300306 295.300306 0 0 0-9.836036 27.494557 6.262997 6.262997 0 0 0 11.987376 3.632538 282.774312 282.774312 0 0 1 9.419547-26.329639 285.385982 285.385982 0 0 1 61.847095-92.426177c53.10082-53.10082 124.890422-83.463829 201.502532-83.463829 157.38285 0 284.966361 127.583511 284.966361 284.966361s-127.583511 284.966361-284.966361 284.966361-284.966361-127.583511-284.966361-284.966361c0-2.339229 0.028183-4.675327 0.084551-7.005162a6.262997 6.262997 0 1 0-12.525994-0.303756z" fill="#4C3030" p-id="18896"></path><path d="M328.45348 396.644991c28.527951-3.325651 79.89392 60.669651 156.396428 60.669651 76.502508 0 133.599119-63.093431 153.008147-60.669651 19.409028 2.42378 49.753248 22.014434 60.055878 47.104 10.30263 25.086434 12.300526 38.595719-21.363083 62.761492-33.663609 24.165774-94.092135 45.012159-188.181137 45.012159-94.092135 0-152.413162-40.371278-188.181138-57.538153-35.771107-17.166875 8.433125-28.230459 15.826593-50.235498 7.393468-22.008171-16.089639-43.778349 12.438312-47.104z" fill="#009042" p-id="18897"></path><path d="M484.849908 451.051645c30.44756 0 59.060061-9.854826 91.167315-28.302483l3.140893-1.825664 2.420649-1.449883c9.059425-5.480122 25.030067-15.563547 29.840048-18.582312l2.505199-1.534434 2.242153-1.321493c10.189896-5.912269 16.63452-8.332917 22.468502-7.60641 23.893333 2.984318 54.716673 25.728391 65.072538 50.940086l0.83611 2.079315c11.154398 28.440269 5.974899 44.166654-24.106275 67.972306-35.783633 28.321272-104.751755 46.364966-192.067327 46.364966-51.675988 0-95.138055-11.24208-139.536441-31.981994l-2.511462-1.183706c-11.354813-5.389309-41.266887-21.187719-47.952636-24.550948l-1.810006-0.886214c-13.872538-6.886165-19.315083-14.993615-15.137663-24.579132 1.377859-3.153419 3.682642-6.062581 7.121027-9.40389 0.717113-0.695193 1.468673-1.396648 2.32044-2.17326l2.123156-1.888293 4.571988-4.002055 1.744245-1.562618c6.125211-5.589725 9.366312-9.626226 10.775486-13.819303 1.844453-5.486385 1.543829-10.681541-0.494777-20.257663l-0.823584-3.964477-0.37578-1.910214c-1.189969-6.33189-1.164917-8.931034 0.034447-12.810961 2.232758-7.224367 8.686777-11.148135 19.308819-12.388208 8.101187-0.942581 16.916355 1.944661 28.956967 8.533334l1.759902 0.980159 2.843401 1.659694c8.658593 5.151315 26.589554 16.333896 31.809761 19.487315l2.802691 1.659694c32.113517 18.801517 58.909749 28.308746 88.950214 28.308746z m0 12.525994c-32.677187 0-61.411817-10.196159-95.278972-30.024807l-2.123156-1.2526c-4.559462-2.705615-27.259694-16.888171-34.590532-21.12822l-2.098104-1.177443-2.160734-1.158655c-8.786985-4.609566-14.937248-6.494728-19.421554-5.971767-6.200367 0.723376-8.279682 1.988502-8.790116 3.645064-0.50104 1.615853-0.363254 3.522936 0.786006 9.206606l0.93945 4.496831c2.223364 10.853774 2.498936 17.620942-0.159707 25.531107-2.351755 6.998899-6.889297 12.516599-15.053113 19.850569l-7.578226 6.735853-2.08871 1.910214c-2.818349 2.624196-3.485358 3.535462-4.108526 4.875744l-0.291229 0.676403c-0.673272 1.891425 0.977028 4.092869 9.244184 8.148159l2.223363 1.096025c7.716012 3.901847 36.575902 19.133456 47.392098 24.269113l2.473884 1.164917c42.838899 20.007144 84.544196 30.788893 134.203499 30.788893 84.738349 0 151.047829-17.348502 184.294948-43.659351l2.129419-1.703536c23.893333-19.321346 26.93715-29.429823 18.100061-51.841957l-0.77348-1.925871c-8.605358-20.955988-35.551902-40.83474-55.039218-43.271046-2.342361-0.291229-7.452966 1.784954-15.914275 6.764036l-2.78077 1.684747c-3.973872 2.489541-20.173113 12.729541-29.802471 18.569786l-4.155499 2.477015c-34.709529 20.248269-65.855413 31.22104-99.57852 31.22104z" fill="#4C3030" p-id="18898"></path><path d="M560.616514 481.358287c4.800587-23.645945 32.514349-30.939205 52.321076-47.792929 19.806728-16.853725 39.018471-44.172917 48.024661-27.973676 9.00619 16.19611 8.27655 215.252942-10.074031 268.547914-18.350581 53.298104-16.975853 67.775021-69.741602 82.082838-52.765749 14.310948-71.830312-13.590703-81.437749-35.755449-9.607437-22.164746 26.398532-30.535242 44.749113-83.830214 18.350581-53.298104 10.15545-125.688954 16.158532-155.278484z" fill="#009042" p-id="18899"></path><path d="M665.365138 403.994618c11.185713 24.269113 6.419572 223.745566-10.083425 271.679413l-2.207707 6.50099-3.507278 10.565676c-11.342287 34.261725-16.167927 43.643694-30.694948 53.235474l-1.346545 0.873688c-7.716012 4.907058-17.714887 8.96548-31.750263 12.95501l-3.444648 0.958238c-25.471609 6.904954-45.412991 4.885138-60.647731-4.766141-11.815144-7.484281-19.797333-18.57918-26.329639-33.657345-3.382018-7.7943-2.401859-14.765015 2.36115-22.283743 1.512514-2.392465 3.341309-4.788061 5.981162-7.91956l1.521908-1.784954 5.30789-6.084502c0.770349-0.886214 1.471804-1.697272 2.132551-2.473883l1.916477-2.270337c11.367339-13.64707 19.337003-26.815021 25.396452-44.410911 3.526067-10.233737 6.203498-21.663706 8.173211-34.361933 2.354887-15.21282 3.610618-31.233566 4.302679-51.365969l0.209811-6.889297c0.18789-7.634593 0.6263-28.781602 0.820452-34.402642l0.118997-3.169077 0.219205-4.653406c0.444673-8.404942 1.111682-14.71178 2.15134-19.841175 2.561566-12.613676 10.124135-21.19085 24.529027-30.766972l2.085578-1.362202 2.567829-1.631511 9.876746-6.131474 2.48641-1.584538c5.148183-3.319388 8.8183-5.965505 12.334972-8.956085l0.764086-0.657615a187.241688 187.241688 0 0 0 7.556306-6.964453l1.966581-1.910214 9.200342-9.053162 1.910214-1.835058a144.872514 144.872514 0 0 1 4.985346-4.546936l1.365333-1.155523c11.727462-9.707645 20.943462-11.511388 27.074936-1.17118l0.350728 0.610642 0.344465 0.682667z m-8.736881 3.569908c-2.207706-3.613749-5.567804-2.827743-13.556257 3.97074l-1.346544 1.168049-1.62838 1.459278c-0.839242 0.767217-1.722324 1.597064-2.680562 2.505199l-2.542777 2.458226-10.208685 10.033321-2.113761 2.019817a175.448465 175.448465 0 0 1-5.711854 5.192024l-1.744244 1.481199-1.69101 1.37786c-3.998924 3.175339-8.386153 6.144-14.614703 10.033321l-9.857957 6.125211-2.022948 1.299572c-13.330789 8.674251-19.722177 15.688807-21.732599 25.609394l-0.322545 1.703535c-0.87682 4.997872-1.440489 11.429969-1.8194 20.091694l-0.18789 4.885138-0.926924 38.179229-0.184758 5.323548c-0.720245 19.192954-1.994765 34.775291-4.308942 49.706275-2.048 13.218055-4.853823 25.177248-8.570911 35.980917-6.219156 18.059352-14.361052 31.812893-25.687682 45.701089l-1.374728 1.665957c-1.080367 1.299572-2.160734 2.567829-3.403939 4.005187l-4.402887 5.044844-3.053211 3.538593-1.352807 1.631511a54.957798 54.957798 0 0 0-3.930031 5.326679c-3.19726 5.051107-3.726483 8.799511-1.678483 13.52181 5.855902 13.506153 12.798434 23.160563 22.73781 29.454875 12.854801 8.141896 30.0937 9.892404 53.160318 3.635669 14.476917-3.926899 24.457003-7.772379 31.778447-12.250422l1.424832-0.89874 1.177443-0.782874c11.166924-7.559437 15.50718-15.529101 24.954911-43.637431l4.634618-13.966484 0.654483-1.941529 2.182655-6.419572 0.551143-1.728587c7.656514-24.939254 12.732673-80.053627 14.217004-144.21803l0.140917-6.911217c1.017737-55.032954-1.10855-103.54926-4.665933-110.848783l-0.109602-0.212942-0.181627-0.31315z" fill="#4C3030" p-id="18900"></path><path d="M492.362373 300.323229m-186.969248 0a186.969248 186.969248 0 1 0 373.938496 0 186.969248 186.969248 0 1 0-373.938496 0Z" fill="#EAEDF4" p-id="18901"></path><path d="M492.365505 113.353982c53.063242 0 100.962642 22.108379 134.995767 57.613309 13.202398 25.628183 20.655364 54.701015 20.655364 85.51496 0 103.261162-83.708086 186.969248-186.969248 186.969247-53.063242 0-100.965774-22.108379-134.995767-57.613308-13.202398-25.628183-20.655364-54.701015-20.655364-85.514961 0-103.258031 83.704954-186.969248 186.966116-186.969247z" fill="#FFFFFF" p-id="18902"></path><path d="M440.983878 486.647388a193.423266 193.423266 0 0 0 51.378495 6.908086c106.721468 0 193.232245-86.513908 193.232245-193.232245 0-106.718336-86.513908-193.232245-193.232245-193.232244-106.718336 0-193.229113 86.513908-193.229113 193.232244 0 47.257443 17.035352 91.893823 47.429676 126.813162a6.262997 6.262997 0 0 0 9.447731-8.223315c-28.430875-32.661529-44.351413-74.382483-44.351413-118.589847 0-99.800856 80.902263-180.706251 180.703119-180.70625 99.800856 0 180.706251 80.905394 180.706251 180.70625 0 99.800856-80.905394 180.706251-180.706251 180.706251-16.415315 0-32.536269-2.188917-48.055975-6.460281a6.262997 6.262997 0 0 0-3.32252 12.078189z" fill="#4C3A30" p-id="18903"></path><path d="M393.078214 236.938569a21.920489 21.920489 0 1 1 0 43.840978 21.920489 21.920489 0 0 1 0-43.840978z m125.259939 0a21.920489 21.920489 0 1 1 0 43.840978 21.920489 21.920489 0 0 1 0-43.840978z" fill="#4C3030" p-id="18904"></path><path d="M513.766165 320.806361a3.131498 3.131498 0 0 1 3.463437 2.755719 16.199242 16.199242 0 0 0 4.650276 9.67633c5.473859 5.473859 14.104269 6.300575 20.79315 2.094972a3.131498 3.131498 0 1 1 3.331914 5.301627 23.345321 23.345321 0 0 1-19.424685 2.567829c-13.953957 32.811841-48.209419 52.142581-83.00663 46.007975-16.778569-2.959266-31.715817-11.470679-42.876477-24.081223a4.697248 4.697248 0 1 1 7.033345-6.22855c9.770275 11.041664 22.812966 18.472709 37.474643 21.059327 30.513321 5.379914 60.635205-11.683621 72.838654-40.684428a4.728563 4.728563 0 0 1 0.369517-0.704587 22.459107 22.459107 0 0 1-7.405994-14.298422 3.131498 3.131498 0 0 1 2.755719-3.466569z" fill="#2D2424" p-id="18905"></path><path d="M363.328979 604.889639m-26.617737 0a26.617737 26.617737 0 1 0 53.235474 0 26.617737 26.617737 0 1 0-53.235474 0Z" fill="#C40000" p-id="18906"></path><path d="M338.276991 695.703095m-26.617737 0a26.617737 26.617737 0 1 0 53.235474 0 26.617737 26.617737 0 1 0-53.235474 0Z" fill="#C40000" p-id="18907"></path><path d="M338.276991 786.51655m-26.617737 0a26.617737 26.617737 0 1 0 53.235474 0 26.617737 26.617737 0 1 0-53.235474 0Z" fill="#C40000" p-id="18908"></path><path d="M645.602251 166.542483c39.729321 7.005162 52.227131 56.736489 58.314764 102.825884 0.807927 6.109554 1.503119 12.156477 2.129419 18.028037l50.811694 10.080293a220.917823 220.917823 0 0 0 12.933089-44.968318c21.1063-119.689003-58.809541-218.168367-178.501676-239.271535-109.596183-19.324477-214.53896 30.397456-247.657688 133.451939-3.05008 9.48844 182.278263-1.252599 301.970398 19.8537z" fill="#C40000" p-id="18909"></path><path d="M583.49211 92.889639c76.439878 15.400709 104.184954 47.724037 123.08981 80.698716 12.450838 21.720073 18.751413 60.93896 18.904857 117.662923l-19.437211-3.851743a743.787254 743.787254 0 0 0-2.132551-18.031168c-6.087633-46.089394-18.585443-95.820722-58.314764-102.825884-56.579914-9.976954-127.824636-12.839144-186.903486-14.082348l-43.700062-23.955964c61.367976-34.008073 117.531401-45.882716 168.490276-35.614532z" fill="#B20000" p-id="18910"></path><path d="M592.244648 8.545859c125.219229 22.077064 204.154911 125.278728 182.939009 245.603425a226.385419 226.385419 0 0 1-13.255633 46.083132l-1.462409 3.591829-58.176979-11.542704-0.604379-5.611645c-0.469725-4.296416-0.930055-8.251498-1.409174-12.050006l-0.482251-3.748404-0.497908-3.660721c-8.10745-57.995352-23.592709-90.124526-54.181187-95.516967-27.150092-4.78493-59.135217-8.198263-95.939719-10.521835l-3.422727-0.212942-7.722276-0.447804c-19.437211-1.08663-39.885896-1.878899-62.341871-2.467621l-10.111609-0.247388c-18.444526-0.407095-68.304245-1.177443-84.299939-1.534434l-7.665908-0.209811-5.940453-0.219205c-6.51978-0.27244-11.630385-0.598116-15.594862-1.008342l-1.828795-0.206679c-2.906031-0.350728-5.135657-0.770349-6.79222-1.299572-3.767193-1.205627-6.369468-3.40707-5.019792-7.609541C371.505321 42.807584 476.626593-11.837064 592.244648 8.548991z m162.408906 284.54674a217.225786 217.225786 0 0 0 11.276526-40.571694c20.285847-115.035596-55.039217-213.51496-175.316942-234.724599C480.791486-1.565749 381.466618 49.101896 348.604673 144.894434l1.315229 0.206679c0.707719 0.103339 1.496856 0.203547 2.358018 0.300624l0.710851 0.075156c4.603303 0.479119 10.997823 0.845505 19.596917 1.142997l7.803694 0.231731c11.580281 0.269309 46.85348 0.832979 70.314667 1.261994l21.178324 0.438409 9.009321 0.237994c22.252428 0.623168 42.575853 1.453015 61.972355 2.58975l6.901823 0.41962c37.127046 2.342361 69.440979 5.793272 96.982507 10.647095 20.260795 3.569908 35.047731 17.307792 45.362887 39.532037 8.116844 17.486287 13.246239 39.28778 16.994642 67.665419 0.353859 2.661774 0.692061 5.376783 1.027132 8.198263l0.751559 6.569884 43.768955 8.683645zM864.368734 384.118997a6.262997 6.262997 0 0 1 6.262997 6.262997v42.400489a12.544783 12.544783 0 0 1 2.812086 2.229627l39.478801-10.578202a6.262997 6.262997 0 1 1 3.244232 12.10011l-39.823266 10.675279a12.469627 12.469627 0 0 1-3.147156 5.264049l-158.109358 158.11562a12.525994 12.525994 0 0 1-17.718018-17.714886l158.115621-158.115621c0.801664-0.801664 1.684746-1.471804 2.621064-2.010422v-42.369175a6.262997 6.262997 0 0 1 6.262997-6.262997z" fill="#4C3030" p-id="18911"></path><path d="M352.027401 122.413407c61.095535-14.254581 118.189015-16.703413 171.271045-7.343364 53.085162 9.360049 105.894752 31.186593 158.435034 65.479633a40.70948 40.70948 0 0 1 16.737859 45.795033l-0.914397 3.05008a21.770177 21.770177 0 0 1-34.114544 11.000954c-47.630092-36.59156-97.668306-59.514128-150.117774-68.761443-52.449468-9.247315-107.31019-4.822508-164.579034 13.27129a21.770177 21.770177 0 0 1-28.293088-22.00504l0.181626-3.17847a40.70948 40.70948 0 0 1 31.393273-37.308673z" fill="#FFFFFF" p-id="18912"></path><path d="M525.543731 114.237064c54.256343 9.569859 108.33419 30.945468 162.217884 64.101774a45.406728 45.406728 0 0 1 19.58126 52.09874l-0.344465 1.077235a26.148012 26.148012 0 0 1-40.145811 12.635597c-48.557015-35.417248-99.337394-57.776147-152.378715-67.129933-53.03819-9.353786-108.406214-5.708722-166.147915 10.963376a26.148012 26.148012 0 0 1-33.403694-25.321296l0.046973-1.409175a45.406728 45.406728 0 0 1 36.218911-42.259572c61.972355-12.729541 120.099229-14.320343 174.355572-4.753614z m-1.628379 9.253578c-53.047584-9.353786-109.984489-7.791168-170.838899 4.706642a36.012232 36.012232 0 0 0-28.665737 32.586373l-0.075156 1.258863a16.753517 16.753517 0 0 0 21.381871 16.916355c59.085113-17.060404 115.896758-20.799413 170.387963-11.191976 54.494336 9.610569 106.599339 32.555058 156.283695 68.792758a16.753517 16.753517 0 0 0 25.878703-8.580305l0.363254-1.208759a36.012232 36.012232 0 0 0-15.792147-40.427645c-52.909798-32.55819-105.882226-53.49852-158.923547-62.849174z" fill="#4C3030" p-id="18913"></path><path d="M733.666251 322.143511m13.16076-49.116626a50.849272 50.849272 0 1 0-26.32152 98.233251 50.849272 50.849272 0 1 0 26.32152-98.233251Z" fill="#FFFFFF" p-id="18914"></path><path d="M684.207364 293.587376c15.770226-27.316061 50.69896-36.672979 78.015021-20.902752 27.316061 15.770226 36.672979 50.69896 20.902753 78.015021a57.152979 57.152979 0 0 1-9.535413 12.300526 6.262997 6.262997 0 1 1-8.758801-8.956085c2.880979-2.818349 5.386177-6.040661 7.446703-9.607438 12.313052-21.325505 5.007266-48.594593-16.318239-60.907645-21.325505-12.306789-48.591462-5.004135-60.904513 16.32137-12.313052 21.325505-5.004135 48.594593 16.318238 60.907645a44.404648 44.404648 0 0 0 17.661652 5.743169 6.262997 6.262997 0 1 1-1.293309 12.4571 56.930642 56.930642 0 0 1-22.63134-7.355889c-27.316061-15.770226-36.672979-50.69896-20.902752-78.015022z m68.993174 71.74263a6.262997 6.262997 0 1 1 0 12.525994 6.262997 6.262997 0 0 1 0-12.525994z" fill="#4C3030" p-id="18915"></path><path d="M363.009566 288.755474c25.797284 1.352807 67.884624-1.910214 81.278043 11.671095 13.390287 13.58444 9.770275 29.226275-2.458227 37.515351-12.228502 8.285945-55.480758 5.336073-81.278043 3.986398-51.600832-2.705615-124.505248-20.267058-123.891474-31.99452 0.616905-11.727462 74.748869-23.880807 126.349701-21.178324z" fill="#EE8337" p-id="18916"></path><path d="M360.382239 285.498716l3.773455 0.181627c2.433174 0.115865 4.703511 0.191021 8.035425 0.256782l18.059352 0.25052 2.567829 0.050104 6.106422 0.16597 3.131498 0.12526c23.104196 1.008343 36.964208 4.099131 44.461015 11.699278 13.96022 14.160636 11.8903 32.260697-2.931082 42.306544-7.694092 5.210813-24.66055 6.701407-51.043425 5.99682l-4.550067-0.137786-5.899744-0.2286a1070.377492 1070.377492 0 0 1-8.229578-0.394568l-16.521785-0.892477c-24.585394-1.534434-54.362813-6.303706-79.079731-12.525994l-2.771377-0.71085c-26.87452-6.967584-42.366043-14.072954-41.955816-21.870386 0.3977-7.62833 16.167927-13.524942 42.431804-18.200269l4.236918-0.726508c25.678287-4.271364 55.784514-6.360073 80.178887-5.345467z m-18.359976 6.056318l-0.097076-0.003132c0.200416 0.131523 0.372648 0.31315 0.501039 0.532355 1.390385 2.458226 2.242153 6.125211 2.614802 11.032269a1.565749 1.565749 0 0 1-3.122104 0.237994c-0.341333-4.490569-1.096024-7.744196-2.220233-9.723303a1.565749 1.565749 0 0 1 0.447804-2.041737c-19.327609 0.407095-40.314911 2.339229-58.916012 5.43315l-2.545908 0.435278c-23.057223 4.039633-38.736636 9.632489-38.893211 12.638728-0.156575 2.912294 14.783804 9.616832 37.4903 15.538495l2.50833 0.641958c6.003083 1.512514 12.306789 2.937346 18.770202 4.246312l-0.031315 0.075156c2.019817-4.023976 3.043817-7.202446 3.100183-9.479046a1.565749 1.565749 0 0 1 3.131499 0.081419c-0.065761 2.639853-1.080367 5.940453-3.018765 9.951902 18.826569 3.695168 38.727242 6.39452 55.978667 7.474887l2.993712 0.172232 17.962276 0.93945 3.466568 0.156575c2.771376 0.12526 5.285969 0.219205 7.847536 0.297492l5.843376 0.150312 3.028159 0.050104c7.562569 0.097076 14.232661-0.031315 19.941382-0.407095l-0.134654 0.610642c0.989554-4.393492 1.215021-7.725407 0.720244-9.94877a1.565749 1.565749 0 0 1 3.056343-0.679536c0.548012 2.451963 0.407095 5.696196-0.394569 9.764013 8.69304-0.764086 14.79633-2.198312 18.021774-4.384098 11.404917-7.728538 13.105321-20.887095 2.59288-32.091597l-0.60751-0.632562-0.419621-0.407095c-6.447755-6.05945-20.185639-8.75567-42.967291-9.554202l-3.09392-0.093945-5.179499-0.115865-18.482104-0.259915a299.277309 299.277309 0 0 1-5.589724-0.153443l-6.216025-0.284966a315.999511 315.999511 0 0 0-18.087535-0.200416z m45.275205 22.568709c0.945713 2.661774 1.14926 6.419572 0.660746 11.317236a1.565749 1.565749 0 0 1-3.115841-0.310019c0.447804-4.478043 0.263046-7.81622-0.497908-9.958165a1.565749 1.565749 0 1 1 2.953003-1.049052z" fill="#4C3030" p-id="18917"></path><path d="M202.056807 687.874349m-6.262997 0a6.262997 6.262997 0 1 0 12.525994 0 6.262997 6.262997 0 1 0-12.525994 0Z" fill="#4C3030" p-id="18918"></path></svg>