<?xml version="1.0" standalone="no"?><!DOCTYPE svg PUBLIC "-//W3C//DTD SVG 1.1//EN" "http://www.w3.org/Graphics/SVG/1.1/DTD/svg11.dtd"><svg t="1635491029179" class="icon" viewBox="0 0 1024 1024" version="1.1" xmlns="http://www.w3.org/2000/svg" p-id="17610" xmlns:xlink="http://www.w3.org/1999/xlink" width="50" height="50"><defs><style type="text/css"></style></defs><path d="M441.6 646.4c0 12.8 0 25.6 12.8 32 12.8 6.4 25.6 0 32-6.4 76.8-51.2 160-102.4 236.8-153.6 25.6-19.2 25.6-44.8 0-64-76.8-44.8-153.6-102.4-230.4-147.2-6.4-6.4-19.2-6.4-19.2-6.4-19.2 0-25.6 6.4-25.6 32V384c-6.4 89.6-6.4 179.2-6.4 262.4" fill="#DA010C" p-id="17611"></path><path d="M166.4 524.8c6.4 0 6.4 0 0 0 0 19.2 6.4 64 57.6 108.8 0-12.8 0-51.2 19.2-83.2H256c0 12.8 25.6 57.6 76.8 83.2C262.4 499.2 300.8 332.8 435.2 256l6.4-6.4c-19.2-12.8-44.8-12.8-70.4-19.2-76.8 0-140.8 25.6-192 76.8l-6.4 12.8c-12.8 12.8-19.2 25.6-25.6 38.4-32 57.6-38.4 128-32 185.6 0 32 6.4 57.6 12.8 83.2 6.4-25.6 6.4-70.4 38.4-102.4z" p-id="17612"></path><path d="M902.4 428.8c-44.8-204.8-236.8-332.8-428.8-313.6-108.8 12.8-198.4 57.6-268.8 147.2-12.8 12.8-19.2 25.6-32 38.4 32-38.4 64-70.4 108.8-102.4 147.2-89.6 345.6-70.4 460.8 51.2 64 70.4 96 153.6 102.4 249.6 0 115.2-83.2 224-192 256-115.2 32-243.2-12.8-307.2-108.8V640c-57.6-25.6-83.2-70.4-96-83.2-19.2 38.4-19.2 83.2-19.2 83.2v6.4h-6.4c-51.2-44.8-64-89.6-64-108.8-25.6 32-25.6 96-25.6 108.8 64 172.8 230.4 281.6 422.4 262.4 236.8-25.6 396.8-249.6 345.6-480" fill="#DA010C" p-id="17613"></path></svg>