<?xml version="1.0" standalone="no"?><!DOCTYPE svg PUBLIC "-//W3C//DTD SVG 1.1//EN" "http://www.w3.org/Graphics/SVG/1.1/DTD/svg11.dtd"><svg t="1631951913566" class="icon" viewBox="0 0 1024 1024" version="1.1" xmlns="http://www.w3.org/2000/svg" p-id="12798" width="200" height="200" xmlns:xlink="http://www.w3.org/1999/xlink"><defs><style type="text/css"></style></defs><path d="M727.936 754.976l-0.208-0.368c0.64 1.968 1.232 3.92 1.888 5.872l-1.68-3.136c0.208 0.624 0.416 1.248 0.592 1.856-45.152-84.4-99.728-171.936-112.256-191.744a113.168 113.168 0 0 1-101.92 62.032h-19.856c-12.336 15.072-76.736 92.08-143.424 160.368-2.464 1.744-4.832 3.488-7.264 5.184a496.784 496.784 0 0 1-130.768 110.4C163.36 934.4 454.24 1108.592 654.672 972.8a179.392 179.392 0 0 0 77.168-209.12l-2.08-3.424a88.928 88.928 0 0 1-1.824-5.28z" fill="#FFEA00" p-id="12799"></path><path d="M994.048 519.072a178.88 178.88 0 0 0-179.392-133.024c-96.048 17.072-198.176 43.056-218.048 48.032a114.224 114.224 0 0 1 32.576 80.064c0.176 15.824-3.216 31.488-9.936 45.808a580.064 580.064 0 0 1 108.688 195.04l1.712 5.328 2.08 3.424a502.992 502.992 0 0 1 63.04 155.552c12.432 56.32 266.624-167.824 199.28-400.224z" fill="#FF0022" p-id="12800"></path><path d="M727.728 754.608l-0.592-1.824a580.368 580.368 0 0 0-107.92-192.672 29.328 29.328 0 0 1-2.752 7.168l0.912 1.44c12.336 19.568 65.728 105.2 110.56 188.64l1.68 3.12c-0.608-1.952-1.248-3.904-1.888-5.872z" fill="#E95130" p-id="12801"></path><path d="M463.568 408.688l-0.464 0.272a110.352 110.352 0 0 1 48.464-9.44c28.128-0.016 55.28 10.4 76.16 29.248l6.08 5.52c19.872-4.928 122-30.912 218.048-48.032a507.392 507.392 0 0 1 171.12-12.688c57.344 5.52-75.632-305.808-318.512-314.08a178.32 178.32 0 0 0-178 118.432 666.4 666.4 0 0 0-0.848 10.016c-13.76 95.44-22.048 200.88-22.048 220.752z" fill="#D13BFC" p-id="12802"></path><path d="M304.32 489.12c47.776 20.784 85.984 36.24 96.368 40.448-1.664-5.52-1.664-10.48-1.664-16.56a113.696 113.696 0 0 1 55.168-98.784l8.912-5.248 0.48-0.272c0-19.872 8.272-125.312 22.08-220.816a509.12 509.12 0 0 1 40.848-165.6C532.192 9.168 515.376 1.12 485.648 0h-15.04C375.2 3.2 187.744 64.736 128.512 227.072a179.392 179.392 0 0 0 58.112 205.856c3.936 1.808 7.888 3.552 11.872 5.248a2779.936 2779.936 0 0 0 105.824 50.944z" fill="#23A0F7" p-id="12803"></path><path d="M343.184 793.712c69.44-70.208 138.768-150.4 151.264-164.784-5.76-0.224-10.464-1.824-16.208-3.792a113.712 113.712 0 0 1-75.712-84.128l-2.192-10.656c-11.04-3.776-49.12-19.744-96.064-41.232a2779.168 2779.168 0 0 1-105.776-50.944 508.8 508.8 0 0 1-143.552-92.112c-10.576-9.648-23.632 3.68-34.288 31.456l-4.848 14.24C-11.968 483.12-14.24 680.432 120.304 788.848a179.376 179.376 0 0 0 222.88 4.864z" fill="#00E46C" p-id="12804"></path></svg>