<?xml version="1.0" standalone="no"?><!DOCTYPE svg PUBLIC "-//W3C//DTD SVG 1.1//EN" "http://www.w3.org/Graphics/SVG/1.1/DTD/svg11.dtd"><svg t="1633786944932" class="icon" viewBox="0 0 1024 1024" version="1.1" xmlns="http://www.w3.org/2000/svg" p-id="52719" xmlns:xlink="http://www.w3.org/1999/xlink" width="300" height="300"><defs><style type="text/css"></style></defs><path d="M797.5 1020.3c-12.8-2.6-26-3.9-38.3-7.9-49.8-16.1-85.7-62.4-87.7-114.7-0.5-13 4.2-26.3 6.9-39.4 10.5-50.4 8.9-100.7-3.2-150.4-9.8-40.3 2.2-74 27.3-104 24.2-29 56.2-43.2 94-45.2 44.1-2.4 83.4 8.2 113.8 41.8 10.3 11.5 18.1 25.3 26.4 37.2 35.5-119 18.6-323.4-138.6-459.5C653.3 52.9 433.3 41.5 269.7 152.4 94.9 270.8 42.6 475.1 88.4 638.5c1.8-3.1 3.2-5.3 4.4-7.6 24.4-45.5 62.2-69.7 114-72.4 43.1-2.2 81.1 8.7 111.5 40.8 21.5 22.7 34 50 34.7 81.1 0.3 15-4.4 30.2-7.3 45.2-9.6 49.8-8.8 99.4 4.3 148.4 5.7 21.4 3.2 41.5-4.7 60.9-20 49.3-56.7 77.6-109.9 83.7-2.8 0.3-5.6 1-8.4 1.6h-19.2c-3.5-0.5-6.9-1.3-10.4-1.6C137.2 1014 86 965.1 81 904.8c-2.7-32.1-0.9-64.6-1.8-96.9-0.2-6.3-1.9-13.3-5.1-18.7-33.4-56.5-56.2-116.8-66.5-181.7-2.9-18.6-4.9-37.3-7.4-56v-57.6c0.6-2.8 1.4-5.6 1.6-8.4 4.1-60.6 17.7-119 43.6-173.8 78.4-166 208-266.6 388.8-300.3 19.1-3.6 38.6-5 57.9-7.5h55.7c2.8 0.5 5.5 1.3 8.4 1.6 18.1 2.2 36.3 3.4 54.2 6.6 216.1 39.2 371.3 210.3 406 419.1 3.4 20.7 5.3 41.7 7.8 62.5v57.6c-0.6 3.1-1.4 6.2-1.6 9.3-5.7 84.1-29.8 162.4-72.4 235.2-3 5.2-4.8 11.8-4.9 17.8-0.5 25.3 0 50.6-0.3 75.8-0.7 60.4-40.2 111-98.1 125.6-9.9 2.5-20.1 3.4-30.2 5-6.3 0.3-12.7 0.3-19.2 0.3z m75.2-231.4V690v-1.9c-0.2-20-8.6-35.8-24.8-47.3-21-14.8-59.2-14.6-80.2 0.2-17.9 12.6-27.9 35-23.1 53.2 16.4 61.6 16.5 123.2 1.2 185.1-7.5 30.2 10.6 59.3 41.1 66.2 8.3 1.9 17.1 1.9 25.7 1.9 36-0.1 60-24.3 60.1-60.4v-98.1z m-720.9-0.2c0 34.3-0.2 68.5 0.1 102.8 0.3 25.9 18.2 48.6 43.7 53.8 11.1 2.3 23 2.6 34.3 1.6 33.9-2.9 56.9-34.7 48.9-67.4-14.8-60.2-16.4-120.5 0.4-180.3 7.1-25.3-10-60.1-42.2-66.8-8-1.7-16.5-1.8-24.8-1.8-35.8-0.1-60.3 24.4-60.4 60.2-0.1 32.6 0 65.2 0 97.9z" fill="#E25AD4" p-id="52720"></path><path d="M770.3 215c-5.9 6.4-11.5 12.5-16.4 17.8-20.6-14.4-40-29.2-60.5-42.1-46.1-29.1-96.8-44.5-151.1-47.9-5.3-0.3-10.7 2.4-16.2 3.2-4.2 0.6-8.6 0.8-12.8 0.3-6.4-0.8-12.8-3.8-19-3.3-91.8 6.7-171.3 41.5-238.4 104.7-1.6 1.5-3.3 3-5.9 5.4-5.2-6.5-10.3-12.9-16.4-20.4 63.1-61.7 140-100.7 230-113 120.3-16.4 220 18.3 306.7 95.3z" fill="#E25AD4" p-id="52721"></path><path d="M496.8 932.3h-56.6v-10c0-79.4 0.1-158.8-0.2-238.2 0-7.7 1.7-10.9 10-10.5 13.4 0.6 26.9 0.3 40.3 0.1 4.9-0.1 7.6 1 7.6 6.9-0.2 82.9-0.2 165.8-0.3 248.7 0.1 0.7-0.3 1.3-0.8 3zM598.3 702.7c0.2 4.7 0.5 8.1 0.5 11.6 0 59.5-0.2 118.9 0.2 178.4 0.1 9.3-2.6 12.3-11.9 11.7-12.4-0.8-24.9-0.4-37.4-0.1-5.8 0.1-8.7-1.3-8.7-8 0.2-62 0.1-124 0.3-186 0-2.5 3-7.1 4.7-7.2 17.3-0.6 34.4-0.4 52.3-0.4z" fill="#4DBEFF" p-id="52722"></path><path d="M814.9 256c0 8.1-6.7 14.7-14.7 14.4-7.5-0.3-13.9-6.9-14-14.3 0-8 6.7-14.4 14.9-14.1 7.9 0.1 13.8 6.2 13.8 14z" fill="#E25AD4" p-id="52723"></path></svg>