<?xml version="1.0" standalone="no"?><!DOCTYPE svg PUBLIC "-//W3C//DTD SVG 1.1//EN" "http://www.w3.org/Graphics/SVG/1.1/DTD/svg11.dtd"><svg t="1631950939765" class="icon" viewBox="0 0 1027 1024" version="1.1" xmlns="http://www.w3.org/2000/svg" p-id="9818" xmlns:xlink="http://www.w3.org/1999/xlink" width="300.87890625" height="300"><defs><style type="text/css"></style></defs><path d="M160.313 2.004h707.382c86.168 0 157.307 70.137 157.307 156.305v709.386c0 86.168-71.139 156.305-157.307 156.305H160.313C74.145 1024 3.006 953.863 3.006 867.695V158.309c0-85.166 70.137-156.305 157.307-156.305z" fill="#FFFFFF" p-id="9819"></path><path d="M929.816 678.325V420.822c0-23.045-15.03-45.088-38.074-53.104l-85.167-23.045-124.242 253.495s-128.25-321.628-128.25-324.634l-134.263-36.07c-6.012-2.004-13.025-2.004-19.037-2.004-38.075 0-66.13 30.059-66.13 66.129v383.75c0 34.066 28.055 62.12 62.122 62.12h6.012l53.103-4.007h-4.007V339.663l158.309 385.754 117.229-11.022 151.295-296.579v215.42c0 77.151-57.111 141.277-136.266 151.296L362.708 818.6h-9.017c-64.125 0-115.225-51.1-115.225-113.221V314.614c0-43.084-2.004-81.158 28.055-117.228 23.045-30.06 62.12-45.089 98.191-45.089 13.026 0 26.051 2.004 38.075 6.012L839.64 279.546h6.012c13.025 0 23.045-11.022 23.045-23.045 0-11.022-6.012-19.037-17.034-21.041L383.75 109.213c-23.045-9.017-49.096-13.025-75.147-13.025-117.23 0-211.413 92.18-211.413 204.4v439.858c0 104.204 87.17 189.37 194.38 189.37h17.033l424.83-40.078c113.22-10.02 196.383-102.2 196.383-211.413z" fill="#F06000" p-id="9820"></path></svg>