<?xml version="1.0" standalone="no"?><!DOCTYPE svg PUBLIC "-//W3C//DTD SVG 1.1//EN" "http://www.w3.org/Graphics/SVG/1.1/DTD/svg11.dtd"><svg t="1633786614604" class="icon" viewBox="0 0 1024 1024" version="1.1" xmlns="http://www.w3.org/2000/svg" p-id="29379" xmlns:xlink="http://www.w3.org/1999/xlink" width="300" height="300"><defs><style type="text/css"></style></defs><path d="M1017.61596 474.972569C999.740648 214.503741 790.34414 10.214464 532.428928 2.553616h-35.750624c107.25187 43.411471 211.950125 130.234414 270.683292 232.379052 48.518703 81.715711 74.054863 178.753117 74.054863 283.451372 0 99.591022-25.53616 191.521197-68.947631 273.236908 122.573566-66.394015 211.950125-176.199501 247.700748-303.8803-2.553616-2.553616-2.553616-12.76808-2.553616-12.768079z" fill="#EF6930" p-id="29380"></path><path d="M519.660848 1016.339152c-2.553616 0-2.553616 2.553616-5.107232 2.553616C238.763092 1018.892768 19.15212 796.72818 11.491272 523.491272V510.723192c40.857855-112.359102 127.680798-206.842893 237.486284-265.57606-40.857855 79.162095-63.840399 171.092269-63.840399 265.57606 0 104.698254 28.089776 199.182045 74.054863 283.451372 58.733167 102.144638 153.216958 183.860349 260.468828 222.164588z" fill="#7DD11E" p-id="29381"></path><path d="M1017.61596 485.187032c-35.750623 130.234414-125.127182 237.486284-247.700748 303.8803-76.608479 40.857855-168.538653 66.394015-263.022444 66.394015-91.930175 0-176.199501-20.428928-250.254364-58.733167 61.286783 104.698254 153.216958 186.413965 263.022444 224.718204 2.553616 0 2.553616 0 5.107232 2.553616 275.790524-5.107232 492.84788-232.379052 492.84788-508.169576 2.553616-15.321696 0-22.982544 0-30.643392z" fill="#3FB0F0" p-id="29382"></path><path d="M512 10.214464c-5.107232-2.553616-12.76808-5.107232-17.875312-7.660848C225.995012 12.76808 11.491272 234.932668 11.491272 510.723192v2.553616C52.349127 400.917706 139.17207 306.433915 248.977556 247.700748 330.693267 204.289277 422.623441 178.753117 519.660848 178.753117c86.822943 0 171.092269 20.428928 245.147132 53.625935-58.733167-102.144638-148.109726-181.306733-252.80798-222.164588z" fill="#F9C332" p-id="29383"></path><path d="M731.610973 398.36409l-5.107232-76.608479s-150.663342-43.411471-278.34414-33.197008c-127.680798 10.214464-171.092269 81.715711-171.092269 132.78803s56.179551 86.822943 165.985037 107.251871c109.805486 20.428928 107.25187 22.982544 127.680798 30.643391 28.089776 10.214464 20.428928 79.162095-117.466334 61.286783-135.341646-17.875312-155.770574-40.857855-155.770574-40.857855l5.107232 84.269327s91.930175 35.750623 178.753117 40.857855c86.822943 5.107232 158.32419-5.107232 204.289277-28.089776 45.965087-22.982544 86.822943-66.394015 56.179551-127.680798-30.643392-63.840399-89.376559-71.501247-125.127182-84.269326 0 0-91.930175-12.76808-130.234414-28.089776-38.304239-15.321696-51.072319-51.072319-10.214463-63.840399 38.304239-17.875312 135.341646-12.76808 255.361596 25.53616z" fill="#F28931" p-id="29384"></path></svg>