<?xml version="1.0" standalone="no"?><!DOCTYPE svg PUBLIC "-//W3C//DTD SVG 1.1//EN" "http://www.w3.org/Graphics/SVG/1.1/DTD/svg11.dtd"><svg t="1633786330650" class="icon" viewBox="0 0 1024 1024" version="1.1" xmlns="http://www.w3.org/2000/svg" p-id="16926" xmlns:xlink="http://www.w3.org/1999/xlink" width="300" height="300"><defs><style type="text/css"></style></defs><path d="M265.02736 736.580431a242.724649 242.724649 0 0 0-83.041422 16.536608q-71.675703 27.799933-107.513554 84.526133T59.830061 947.204604q21.297923 52.528051 87.034783 70.088598t137.668547-9.983401a223.321012 223.321012 0 0 0 96.455017-68.194312q35.428276-44.592527 33.073217-91.898491V527.389772l-75.157094 14.437534v207.603554a191.886096 191.886096 0 0 0-73.877171-12.850429z" fill="#A16CF3" p-id="16927"></path><path d="M971.852186 420.33699l-75.157095 14.437534v193.933974a191.886096 191.886096 0 0 0-74.081958-12.85043 242.468664 242.468664 0 0 0-83.041422 16.536609q-72.034082 27.799933-107.513555 84.526132t-14.488731 109.407841q21.34912 52.528051 87.034782 70.344583t137.719744-10.239386a223.884178 223.884178 0 0 0 94.816716-66.914388q35.223488-43.312603 34.711519-89.74822z" fill="#479DF1" p-id="16928"></path><path d="M961.049633 7.228955a28.567887 28.567887 0 0 0-24.932905-6.604404L388.002388 105.885441a59.593227 59.593227 0 0 0-35.223489 20.990742 58.466895 58.466895 0 0 0-13.66958 38.602485v376.348638L414.266413 527.389772V313.488995l482.428678-92.615248v213.900777l75.157095-14.437534V30.779544a27.69754 27.69754 0 0 0-10.802553-23.550589z" fill="#F15353" p-id="16929"></path></svg>