<?xml version="1.0" standalone="no"?><!DOCTYPE svg PUBLIC "-//W3C//DTD SVG 1.1//EN" "http://www.w3.org/Graphics/SVG/1.1/DTD/svg11.dtd"><svg t="1632399723496" class="icon" viewBox="0 0 1024 1024" version="1.1" xmlns="http://www.w3.org/2000/svg" p-id="89381" xmlns:xlink="http://www.w3.org/1999/xlink" width="200" height="200"><defs><style type="text/css"></style></defs><path d="M773.9392 301.8752m-200.0384 0a200.0384 200.0384 0 1 0 400.0768 0 200.0384 200.0384 0 1 0-400.0768 0Z" fill="#1afa29" p-id="89382" data-spm-anchor-id="a313x.7781069.0.i45" class="selected"></path><path d="M924.4672 706.2528a24.32 24.32 0 0 1-24.2688 24.2688h-145.7664a24.3712 24.3712 0 0 0-24.2688 24.32 24.2688 24.2688 0 0 0 24.2688 24.2688h48.5888a24.32 24.32 0 0 1 24.2688 24.32 24.32 24.32 0 0 1-24.2688 24.2688h-64.512A388.7616 388.7616 0 0 1 122.88 390.4512h-48.5888a24.32 24.32 0 0 1 0-48.5888h97.28a24.2688 24.2688 0 0 0 6.8096-47.5648l0.768-0.9728H122.88a24.32 24.32 0 1 1 0-48.5888h101.632a388.7616 388.7616 0 0 1 619.52 437.248h56.32a24.32 24.32 0 0 1 24.1152 24.2688z" fill="#43CEED" p-id="89383" data-spm-anchor-id="a313x.7781069.0.i44" class=""></path><path d="M448.6656 721.92a183.1936 183.1936 0 0 0 76.0832 0 56.6272 56.6272 0 0 0 76.8 20.48 56.6784 56.6784 0 0 0 20.7872-76.8 181.3504 181.3504 0 0 0 38.144-66.0992A56.32 56.32 0 0 0 660.48 486.4a182.1696 182.1696 0 0 0-38.0416-65.8432 56.576 56.576 0 0 0-20.7872-76.8 56.6272 56.6272 0 0 0-76.8 20.48 183.1936 183.1936 0 0 0-76.0832 0 56.576 56.576 0 0 0-76.8-20.48 56.576 56.576 0 0 0-20.7872 76.8A183.7056 183.7056 0 0 0 312.832 486.4a56.32 56.32 0 0 0 0 112.9472A182.8352 182.8352 0 0 0 350.8736 665.6a56.6784 56.6784 0 0 0 20.7872 76.8 56.6272 56.6272 0 0 0 77.0048-20.48z m-34.8672-178.8416a72.9088 72.9088 0 1 1 72.9088 72.8576 72.96 72.96 0 0 1-72.9088-72.9088z" fill="#f4ea2a" p-id="89384" data-spm-anchor-id="a313x.7781069.0.i43" class=""></path></svg>