<?xml version="1.0" standalone="no"?><!DOCTYPE svg PUBLIC "-//W3C//DTD SVG 1.1//EN" "http://www.w3.org/Graphics/SVG/1.1/DTD/svg11.dtd"><svg t="1637568484110" class="icon" viewBox="0 0 1024 1024" version="1.1" xmlns="http://www.w3.org/2000/svg" p-id="7787" xmlns:xlink="http://www.w3.org/1999/xlink" width="50" height="50"><defs><style type="text/css"></style></defs><path d="M773.956 1015c0-154-117.281-261.955-261.955-261.955S250.045 861 250.045 1015h523.911z" fill="#1A1A1A" p-id="7788"></path><path d="M783 1023H230v-15.468c0-156.727 119.774-274.915 276.5-274.915S783 850.805 783 1007.532V1023z m-519.697-23h497.395C754.405 861 649.602 763.958 512 763.958S269.596 861 263.303 1000zM512 4.884c-7.972 0-14.431 6.459-14.431 14.431v96.206h28.862V19.315c0-7.972-6.459-14.431-14.431-14.431zM569.724 8.153c-7.972 0-14.431 6.459-14.431 14.431v96.658h28.862V22.584c0-7.97-6.459-14.431-14.431-14.431zM627.448 18.205c-7.972 0-14.431 6.459-14.431 14.431v98.14h28.862v-98.14c0-7.972-6.46-14.431-14.431-14.431zM454.276 8.153c-7.972 0-14.431 6.459-14.431 14.431v96.658h28.862V22.584c0-7.97-6.459-14.431-14.431-14.431zM396.553 18.205c-7.972 0-14.431 6.459-14.431 14.431v98.14h28.862v-98.14c0-7.972-6.46-14.431-14.431-14.431z" fill="" p-id="7789"></path><path d="M512 372.604m-305.424 0a305.424 305.424 0 1 0 610.848 0 305.424 305.424 0 1 0-610.848 0Z" fill="#1A1A1A" p-id="7790"></path><path d="M512.001 690.985c-175.556 0-318.382-142.823-318.382-318.379S336.444 54.221 512.001 54.221c175.555 0 318.381 142.828 318.381 318.384s-142.826 318.38-318.381 318.38z m0-610.848c-161.266 0-292.466 131.202-292.466 292.469s131.2 292.464 292.466 292.464 292.465-131.197 292.465-292.464S673.267 80.137 512.001 80.137z" fill="" p-id="7791"></path><path d="M256.545 212.285l-18.643-191.45c-0.59-6.05 6.055-10.119 11.175-6.842l128.62 82.249-121.152 116.043z" fill="#1A1A1A" p-id="7792"></path><path d="M246.235 240.103L225.006 22.09c-0.553-5.674 1.313-11.338 5.122-15.534 6.451-7.117 17.785-8.691 25.932-3.482l142.5 91.129-152.325 145.9z m5.696-208.907l14.925 153.27 89.979-86.184-104.904-67.086z" fill="" p-id="7793"></path><path d="M767.455 212.285l18.643-191.45c0.59-6.05-6.055-10.119-11.175-6.842l-128.62 82.249 121.152 116.043z" fill="#1A1A1A" p-id="7794"></path><path d="M777.766 240.103L625.44 94.203 767.941 3.074c8.148-5.203 19.483-3.629 25.931 3.482 3.809 4.196 5.675 9.86 5.122 15.534l-21.228 218.013zM667.165 98.282l89.98 86.184 14.924-153.27-104.904 67.086z" fill="" p-id="7795"></path><path d="M298.446 323.577a87.481 63.913 0 1 0 174.962 0 87.481 63.913 0 1 0-174.962 0Z" fill="#FFE477" p-id="7796"></path><path d="M385.926 400.449c-55.381 0-100.438-34.485-100.438-76.87s45.057-76.87 100.438-76.87 100.438 34.485 100.438 76.87-45.056 76.87-100.438 76.87z m0-127.825c-40.395 0-74.523 23.334-74.523 50.955s34.128 50.955 74.523 50.955 74.523-23.334 74.523-50.955-34.127-50.955-74.523-50.955z" fill="" p-id="7797"></path><path d="M376.724 323.577a9.203 39.984 0 1 0 18.406 0 9.203 39.984 0 1 0-18.406 0Z" fill="" p-id="7798"></path><path d="M550.593 323.577a87.481 63.913 0 1 0 174.962 0 87.481 63.913 0 1 0-174.962 0Z" fill="#FFE477" p-id="7799"></path><path d="M638.074 400.449c-55.381 0-100.438-34.485-100.438-76.87s45.057-76.87 100.438-76.87 100.438 34.485 100.438 76.87-45.057 76.87-100.438 76.87z m0-127.825c-40.395 0-74.523 23.334-74.523 50.955s34.128 50.955 74.523 50.955 74.523-23.334 74.523-50.955-34.128-50.955-74.523-50.955z" fill="" p-id="7800"></path><path d="M628.871 323.577a9.203 39.984 0 1 0 18.406 0 9.203 39.984 0 1 0-18.406 0Z" fill="" p-id="7801"></path><path d="M512 811.071m-21.364 0a21.364 21.364 0 1 0 42.728 0 21.364 21.364 0 1 0-42.728 0Z" fill="#FFFFFF" p-id="7802"></path></svg>