<?xml version="1.0" standalone="no"?><!DOCTYPE svg PUBLIC "-//W3C//DTD SVG 1.1//EN" "http://www.w3.org/Graphics/SVG/1.1/DTD/svg11.dtd"><svg t="1637572949821" class="icon" viewBox="0 0 1024 1024" version="1.1" xmlns="http://www.w3.org/2000/svg" p-id="6737" xmlns:xlink="http://www.w3.org/1999/xlink" width="50" height="50"><defs><style type="text/css"></style></defs><path d="M225.588484 471.716663s-36.435761 14.574304-29.148608 56.475678c0 0 21.861457-25.505531 30.971145-14.574304 0 0-25.505531 20.039918-1.821539 51.010065 0 0 14.574304-36.435761 29.148609-21.861456 0 0-21.861457 14.574304 0 45.544451 0 0 7.287152-36.435761 29.148608-18.218379 21.861457 18.218379 40.079836-67.406906 40.079836-67.406906s-58.298215-47.364993-98.378051-30.969149z" fill="#E20303" p-id="6738"></path><path d="M260.982796 618.243786l-16.202317-22.902906c-4.903989-6.94499-8.306655-13.757305-10.196028-20.389063l-5.647168 14.119419-13.029089-17.037272c-9.2683-12.120315-12.542281-23.426623-12.491406-33.265526l-14.558344 16.885644-4.426159-25.368866c-7.102604-40.844962 20.853924-63.5713 36.630284-69.882842 6.979905-2.856005 14.817708-4.322413 23.208159-4.322414 41.181138 0 85.511563 35.63173 87.378989 37.150012l5.786827 4.70348-1.551201 7.293138c-7.726077 36.313061-21.944254 79.599045-45.805811 79.599044h-0.00399c-3.445561 0-8.668768-0.932716-13.991732-5.36486-1.712805-1.428501-2.8171-1.971172-3.348798-2.170684-2.005089 1.637988-4.943891 8.08819-6.056167 13.453051l-5.696049 27.500645z m11.477888-65.437729c5.916509 0 11.850974 2.246498 17.663738 6.678643 5.818749-6.069135 14.495497-28.353556 20.200524-51.789157-12.230046-8.730617-41.105324-27.244273-66.053221-27.244273-5.210239 0-9.944643 0.856901-14.068543 2.541774-1.8375 0.771111-13.015123 5.869624-18.902703 18.056775 3.359771-1.442467 6.837254-2.342263 10.287803-2.342263 5.97337 0 11.365164 2.522821 15.184809 7.107592l8.031329 9.635401-9.862843 7.750018c-2.144747 1.780639-6.912071 6.621782-7.248248 14.366813 5.255129-5.85067 11.898857-10.430454 19.826441-10.430454 4.026139 0 10.041406 1.219014 15.834218 7.011827l10.512254 10.511255-12.367709 8.244807c-0.92673 0.700285-2.630557 2.304356-3.60916 5.088537 4.055068-3.202157 8.901199-5.187295 14.571311-5.187295z" fill="" p-id="6739"></path><path d="M798.410518 471.716663s36.435761 14.574304 29.148609 56.475678c0 0-21.861457-25.505531-30.971145-14.574304 0 0 25.505531 20.039918 1.822536 51.010065 0 0-14.574304-36.435761-29.148609-21.861456 0 0 21.861457 14.574304 0 45.544451 0 0-7.287152-36.435761-29.148608-18.218379-21.861457 18.218379-40.079836-67.406906-40.079836-67.406906s58.297217-47.364993 98.377053-30.969149z" fill="#E20303" p-id="6740"></path><path d="M762.872558 618.500158l-5.554396-27.76799c-1.115268-5.369848-4.058061-11.825038-6.06315-13.448063-0.488803 0.190533-1.602076 0.723229-3.33982 2.175671-5.324958 4.437132-10.549163 5.36486-13.994724 5.364861-23.862555 0-38.080732-43.286981-45.807806-79.599045l-1.551201-7.293138 5.785829-4.70348c1.867426-1.518281 46.197851-37.150011 87.37899-37.150011 8.39045 0 16.228253 1.466408 23.295943 4.36032 15.687578 6.274632 43.645104 29.00097 36.542499 69.844935l-4.431147 25.47361-14.553355-16.975424c0.04888 9.8399-3.227096 21.136233-12.491406 33.25156l-13.029089 17.037272-5.647169-14.119419c-1.888375 6.631757-5.291041 13.443075-10.196028 20.389063l-16.34397 23.159278z m-49.194512-110.808606c5.715003 23.440589 14.391751 45.724012 20.19853 51.794145 5.893565-4.460076 11.787131-6.678643 17.66274-6.678642 5.642181 0 10.469358 1.966184 14.513453 5.146395-1.015513-2.80912-2.773208-4.451098-3.792711-5.212234l-12.367708-8.249795 10.753662-10.339675c5.79381-5.79381 11.808079-7.011827 15.834218-7.011827 7.902645 0 14.528417 4.550854 19.776563 10.372595-0.402015-8.596944-6.176871-13.509911-7.197372-14.309952l-9.862844-7.750018 8.03133-9.635401c3.818647-4.584771 9.211439-7.107592 15.184809-7.107592 3.454539 0 6.940002 0.904784 10.303764 2.351242-6.151933-12.781695-18.085704-17.732569-18.830879-18.027846-4.211685-1.723778-8.946089-2.579682-14.156329-2.579682-24.945902-0.000998-53.815195 18.507671-66.051226 27.238287z" fill="" p-id="6741"></path><path d="M708.846879 155.588929l73.737401-128.237918s105.795883 250.064537-99.384586 218.005058c-205.181466-32.060477 25.647184-89.767141 25.647185-89.76714z" fill="#E20303" p-id="6742"></path><path d="M716.986942 260.377279c-10.992078 0-22.992686-1.00454-35.669637-2.98469-65.80483-10.277827-94.296048-23.878516-95.268666-45.476618-1.425509-31.666442 69.05886-55.05416 114.801825-66.87022L784.249202 0l9.557592 22.602641c2.255476 5.331941 54.714991 131.355282 10.493299 198.067889-17.464226 26.348467-46.841275 39.706749-87.313151 39.706749z m-106.457263-49.675334c1.522272 2.165696 11.990632 12.834565 74.551408 22.611619 11.435991 1.785627 22.170699 2.689413 31.906853 2.689413 32.236047 0 54.152369-9.420926 66.998905-28.800461 26.814326-40.45392 8.494196-113.379309-3.885484-151.086955L716.831323 166.153055l-5.025691 1.256921c-49.6484 12.425567-97.276748 32.842561-101.275953 43.291969z" fill="" p-id="6743"></path><path d="M315.153121 159.281884L241.416718 31.042969s-105.79688 250.064537 99.384585 218.005058c205.180468-32.059479-25.648182-89.766143-25.648182-89.766143z" fill="#E20303" p-id="6744"></path><path d="M307.040989 264.071232h-0.030924c-40.474868-0.004988-69.851917-13.372248-87.316143-39.725703-44.214709-66.717594 8.242812-192.716994 10.498287-198.048935l9.557591-22.597654L323.149536 148.735714c45.742965 11.815062 116.227334 35.203778 114.801825 66.87421-0.973615 21.598102-29.464834 35.19879-95.268666 45.476618-12.676951 1.98015-24.668581 2.98469-35.641706 2.98469zM243.91061 59.829465c-12.366711 37.731587-30.66689 110.694884-3.885484 151.072989 12.848531 19.374547 34.760863 28.791483 66.989927 28.795473h0.026934c9.7172 0 20.440936-0.904784 31.876926-2.689413 62.565763-9.778051 73.030133-20.445923 74.55041-22.616607-3.99721-10.458385-51.626555-30.876377-101.273958-43.28698l-5.025691-1.256922-63.259064-110.01854z" fill="" p-id="6745"></path><path d="M512 355.15415m-287.179634 0a287.179634 287.179634 0 1 0 574.359268 0 287.179634 287.179634 0 1 0-574.359268 0Z" fill="#F8EDD2" p-id="6746"></path><path d="M512 654.517942c-165.070706 0-299.366785-134.297077-299.366785-299.36479S346.929294 55.787365 512 55.787365 811.366785 190.084442 811.366785 355.153152 677.070706 654.517942 512 654.517942z m0-574.357273c-151.631621 0-274.992483 123.36186-274.992483 274.991486S360.368379 630.144638 512 630.144638s274.992483-123.36186 274.992483-274.991486S663.631621 80.160669 512 80.160669z" fill="" p-id="6747"></path><path d="M366.438512 214.285169c67.871767 0 124.693598 46.677676 140.328305 109.623508 1.058408 4.259567 7.043748 4.260565 8.102156 0 15.635705-62.945832 72.456538-109.623508 140.328306-109.623508 72.13333 0 131.772261 52.736836 142.78828 121.672996C788.097776 186.313677 663.662545 67.973518 511.515187 67.973518c-148.158128 0-270.076524 112.204187-285.499748 256.266348 15.557895-63.095465 72.437585-109.954697 140.423073-109.954697z" fill="#E20303" p-id="6748"></path><path d="M510.817895 339.291002a16.348958 16.348958 0 0 1-15.878111-12.439533c-14.680045-59.101248-67.520627-100.37915-128.501272-100.379149-61.094367 0-113.972856 41.401598-128.591052 100.683404l-23.949343-4.21767C230.203182 170.63807 358.149813 55.787365 511.51419 55.787365c157.105215 0 288.280937 122.714445 298.630588 279.366769l-24.194742 2.72732c-10.314737-64.555889-65.305054-111.409135-130.753755-111.409134-60.979648 0-113.821227 41.277901-128.501272 100.374161-1.819544 7.327054-8.348553 12.444521-15.877114 12.444521zM366.438512 202.100013c63.864582 0 120.190627 38.240341 144.378386 95.509077 24.188756-57.267739 80.515799-95.509077 144.379383-95.509077 41.826558 0 80.04595 16.166405 108.28778 43.06253-42.682461-97.369521-140.177674-165.001874-251.969871-165.001874-111.702416 0-208.726782 66.322562-251.585811 163.5215 28.202925-26.068153 65.8168-41.582156 106.510133-41.582156z" fill="" p-id="6749"></path><path d="M461.102659 52.701921s4.737397-32.967256 40.756179-35.33346c0 0-16.667178 23.131346-5.830719 28.459297 0 0 11.431003-25.043663 41.711838-11.700344 0 0-27.140527 19.305716-12.205107 28.41341 0 0 7.65126-20.945699 37.56699-9.104701 0 0-28.59696 13.294439-9.199468 27.685193s-47.587448 46.534028-47.587448 46.534028-50.724764-38.61642-45.212265-74.953423z" fill="#E20303" p-id="6750"></path><path d="M504.865474 141.870528l-5.93247-4.517935c-5.780841-4.403216-56.289136-44.214709-49.878836-86.478196 2.11083-14.691018 15.717504-43.281993 52.006625-45.662163L526.863596 3.513395l-10.657897 14.795762c7.966488-0.951669 17.174935 0.57559 26.448223 4.665573l19.629922 8.649815-9.138618 6.503072c4.601729 0.666368 9.435889 1.995114 14.44163 3.979254l26.358442 10.430454-25.705043 11.948735c-3.114372 1.480374-6.681635 4.056066-8.275731 5.869624 0.298269 0.271335 0.690309 0.604519 1.200061 0.980598 5.976363 4.432145 9.023898 10.954171 8.359526 17.890183-1.887377 19.712719-37.109112 39.426436-57.936102 49.417964l-6.722535 3.226099zM480.203876 39.854388c-5.461623 6.302564-6.838252 13.367261-7.054722 14.695009-3.139311 20.693318 20.357141 46.086125 34.774829 58.66332 16.129495-8.445316 31.049952-18.646331 35.946958-24.554859-6.430251-5.735951-8.527115-11.696353-8.856309-16.571413l-3.266001 8.935115-12.560237-8.078214c-6.408305-3.908427-10.072331-9.844888-10.313739-16.714064-0.123697-3.498432 0.682329-6.883142 2.070927-10.082306-2.615594 2.256473-3.809669 4.698492-3.830617 4.741387l-5.208244 11.411052-11.253438-5.53644c-4.999755-2.455985-8.495193-6.783386-9.845885-12.187151a21.110296 21.110296 0 0 1-0.603522-4.721436z" fill="" p-id="6751"></path><path d="M758.834448 954.661824c0-144.645731-110.303842-246.369587-246.369587-246.369587S266.095274 810.016093 266.095274 954.661824h492.739174z" fill="#E20303" p-id="6752"></path><path d="M766.376975 961.644722H245.652344v-10.626973c0-147.40198 112.961333-258.558733 260.362315-258.558733s260.362316 111.156753 260.362316 258.558733V961.644722z m-487.812241-20.948692H746.365986c-5.918504-130.679936-104.486091-221.998278-233.901125-221.998278S284.483238 810.016093 278.564734 940.69603z" fill="" p-id="6753"></path><path d="M265.634403 926.256395l-0.172577 13.91891 40.535719 23.267014 37.774482-28.892237 20.529718 21.4355 39.417458-16.774914 63.232131 30.754675 64.80029-29.790038 17.661742 34.934438 42.359253-38.696225s43.522404 33.551824 48.450335 32.619109c4.926933-0.93072 40.238447-35.41526 40.238447-35.41526l25.456651 25.164367 21.350708-21.436498 21.350707 44.736431 7.983447-57.661774" fill="#E20303" p-id="6754"></path><path d="M755.118549 1024l-31.407077-65.81281-17.726583 17.799405-25.613268-25.320983c-30.135192 28.877273-34.577313 29.719211-37.892194 30.342684-4.971823 0.956657-9.697249 1.832512-50.012508-28.724647l-46.685657 42.653532-19.607975-38.788-59.368594 27.296146-63.422664-30.847448-42.056993 17.899161-18.811926-19.641892-35.551925 27.191402-53.774295-30.866401 0.26136-21.074385 24.371309 0.304255-0.082797 6.755455 27.296146 15.671616 39.998036-30.591075 22.246513 23.231102 36.777923-15.652664 63.041597 30.656915 70.231987-32.284927 15.716507 31.085864 38.06078-34.769841 8.106147 6.245703c14.23713 10.978112 31.534764 23.49745 39.788549 28.496206 7.065695-5.759893 21.238981-18.922654 32.943315-30.35266l8.566019-8.368503 25.339937 25.049648 24.974832-25.07758 11.294337 23.664042 2.412093-17.418339 24.142868 3.341815-13.555799 97.907204z" fill="" p-id="6755"></path><path d="M469.939017 512.053868a41.099339 27.399892 0 1 0 82.198677 0 41.099339 27.399892 0 1 0-82.198677 0Z" fill="#E20303" p-id="6756"></path><path d="M511.038355 551.639913c-29.879818 0-53.28649-17.38941-53.286489-39.58804 0-22.197633 23.405674-39.583052 53.286489-39.583052s53.28649 17.385419 53.28649 39.583052c0 22.198631-23.406672 39.58804-53.28649 39.58804z m0-54.797788c-16.547472 0-28.912188 8.03133-28.912187 15.209748 0 7.183406 12.365714 15.214736 28.912187 15.214736 16.547472 0 28.912188-8.03133 28.912188-15.214736 0-7.178418-12.364716-15.209748-28.912188-15.209748z" fill="" p-id="6757"></path><path d="M570.774049 704.33493c0 26.482139-26.281631 50.566152-57.680727 50.566152-31.400094 0-58.514685-24.084013-58.514685-50.566152 0 0 28.259786-6.744481 57.886224-6.744482 29.626438-0.000998 58.309188 6.744481 58.309188 6.744482z" fill="#F8EDD2" p-id="6758"></path><path d="M509.923087 767.088233c-37.663753 0-68.749617-29.324179-68.749617-62.752306v-9.620437l9.966589-2.232532c1.210036-0.290289 30.312757-7.078663 61.020548-7.078663 30.686841 0 57.46326 6.778398 58.690254 7.069685l6.987886 2.20859v9.654355c0 34.012695-30.04242 62.751308-67.91566 62.751308z m-41.469432-53.102939c5.600284 15.937964 24.364326 28.729635 44.639667 28.729635 19.90026 0 38.31416-12.776707 43.825662-28.700706-10.609016-1.861441-27.474708-4.236624-44.454123-4.236624-16.891629 0-33.522895 2.351241-44.011206 4.207695z" fill="" p-id="6759"></path><path d="M570.774049 704.33493c0 26.482139-26.281631 50.566152-57.680727 50.566152-31.400094 0-58.514685-24.084013-58.514685-50.566152 0 0 28.259786-6.744481 57.886224-6.744482 29.626438-0.000998 58.309188 6.744481 58.309188 6.744482z" fill="#F8EDD2" p-id="6760"></path><path d="M509.923087 767.088233c-37.663753 0-68.749617-29.324179-68.749617-62.752306v-9.620437l9.966589-2.232532c1.210036-0.290289 30.312757-7.078663 61.020548-7.078663 30.686841 0 57.46326 6.778398 58.690254 7.069685l6.987886 2.20859v9.654355c0 34.012695-30.04242 62.751308-67.91566 62.751308z m-41.469432-53.102939c5.600284 15.937964 24.364326 28.729635 44.639667 28.729635 19.90026 0 38.31416-12.776707 43.825662-28.700706-10.609016-1.861441-27.474708-4.236624-44.454123-4.236624-16.891629 0-33.522895 2.351241-44.011206 4.207695z" fill="" p-id="6761"></path><path d="M304.626902 309.295468m-20.092788 0a20.092788 20.092788 0 1 0 40.185576 0 20.092788 20.092788 0 1 0-40.185576 0Z" fill="#FFFFFF" p-id="6762"></path></svg>