<?xml version="1.0" standalone="no"?><!DOCTYPE svg PUBLIC "-//W3C//DTD SVG 1.1//EN" "http://www.w3.org/Graphics/SVG/1.1/DTD/svg11.dtd"><svg t="1632397543070" class="icon" viewBox="0 0 1024 1024" version="1.1" xmlns="http://www.w3.org/2000/svg" p-id="2534" xmlns:xlink="http://www.w3.org/1999/xlink" width="200" height="200"><defs><style type="text/css"></style></defs><path d="M514.56 507.4944m-406.2208 0a406.2208 406.2208 0 1 0 812.4416 0 406.2208 406.2208 0 1 0-812.4416 0Z" fill="#FEF2E9" p-id="2535"></path><path d="M854.1184 357.7344s-144.2304-229.2736-469.76-123.392c-96.1024 41.1648-237.2096 184.0128-214.6816 412.6208-61.7984-30.2592-66.56-277.76-2.4064-372.6336S439.1936 53.76 692.1728 142.08c90.2656 45.1584 166.9632 144.9472 161.9456 215.6544z" fill="#FFFFFF" p-id="2536"></path><path d="M892.2624 357.7344l-29.2864 21.76s42.752 277.248-245.4016 408.2176c-88.1152 32.9216-317.5424 81.6128-447.9488-140.7488-14.7456 103.1168 100.7616 277.1968 356.7616 266.5984 189.3376-22.3232 355.9936-144.7424 387.3792-277.6576 31.3856-132.9664-21.504-278.1696-21.504-278.1696z" fill="#F6D1B8" p-id="2537"></path><path d="M915.8656 880.1792h-129.1776c114.2784-83.9168 188.6208-219.2384 188.6208-371.6096 0-254.1056-206.6944-460.8-460.8-460.8s-460.8 206.6944-460.8 460.8 206.6944 460.8 460.8 460.8c1.7408 0 3.4816-0.0512 5.2224-0.0512 0.4608 0 0.8704 0.0512 1.3312 0.0512h394.8032a44.5952 44.5952 0 0 0 0-89.1904zM142.9504 508.5696c0-204.9024 166.7072-371.6096 371.6096-371.6096s371.6096 166.7072 371.6096 371.6096-166.7072 371.6096-371.6096 371.6096-371.6096-166.7072-371.6096-371.6096z" fill="#4B8DFD" p-id="2538"></path><path d="M514.56 422.912c-61.5936 0-111.7184-50.1248-111.7184-111.7184s50.1248-111.7184 111.7184-111.7184 111.7184 50.1248 111.7184 111.7184-50.1248 111.7184-111.7184 111.7184z m0-152.3712c-22.4256 0-40.6528 18.2272-40.6528 40.6528s18.2272 40.6528 40.6528 40.6528 40.6528-18.2272 40.6528-40.6528-18.2784-40.6528-40.6528-40.6528zM514.56 815.5136c-61.5936 0-111.7184-50.1248-111.7184-111.7184s50.1248-111.7184 111.7184-111.7184 111.7184 50.1248 111.7184 111.7184-50.1248 111.7184-111.7184 111.7184z m0-152.3712c-22.4256 0-40.6528 18.2272-40.6528 40.6528s18.2272 40.6528 40.6528 40.6528 40.6528-18.2272 40.6528-40.6528-18.2784-40.6528-40.6528-40.6528z" fill="#FD6758" p-id="2539"></path><path d="M710.8608 619.2128c-61.5936 0-111.7184-50.1248-111.7184-111.7184s50.1248-111.7184 111.7184-111.7184 111.7184 50.1248 111.7184 111.7184-50.1248 111.7184-111.7184 111.7184z m0-152.3712c-22.4256 0-40.6528 18.2272-40.6528 40.6528s18.2272 40.6528 40.6528 40.6528 40.6528-18.2272 40.6528-40.6528-18.2272-40.6528-40.6528-40.6528z" fill="#F7CC37" p-id="2540"></path><path d="M318.208 619.2128c-61.5936 0-111.7184-50.1248-111.7184-111.7184S256.6144 395.776 318.208 395.776s111.7184 50.1248 111.7184 111.7184-50.0736 111.7184-111.7184 111.7184z m0-152.3712c-22.4256 0-40.6528 18.2272-40.6528 40.6528s18.2272 40.6528 40.6528 40.6528 40.6528-18.2272 40.6528-40.6528-18.2272-40.6528-40.6528-40.6528z" fill="#FFDD48" p-id="2541"></path><path d="M514.56 199.4752c-61.5936 0-111.7184 50.1248-111.7184 111.7184 0 8.7552 1.024 17.2544 2.9696 25.4464 3.1232-42.1376 26.9824-91.8528 92.3136-104.2432 65.28-12.3904 119.3984 35.584 119.5008 35.7376-16.9472-40.2944-56.7296-68.6592-103.0656-68.6592z" fill="#FF7E78" p-id="2542"></path><path d="M539.904 389.2224c-65.28 14.6432-115.712-6.4512-129.5872-37.8368C426.496 393.1648 467.0976 422.912 514.56 422.912c61.5936 0 111.7184-50.1248 111.7184-111.7184 0-6.3488-0.5632-12.544-1.5872-18.6368-0.1024 0.512-15.0528 81.0496-84.7872 96.6656zM408.064 344.9856c0.5632 1.7408 1.1264 3.4304 1.7408 5.12-0.6656-1.6896-1.28-3.3792-1.7408-5.12z" fill="#E54C45" p-id="2543"></path><path d="M514.56 592.0768c-61.5936 0-111.7184 50.1248-111.7184 111.7184 0 8.7552 1.024 17.2544 2.9696 25.4464 3.1232-42.1376 26.9824-91.8528 92.3136-104.2432 65.28-12.3904 119.3984 35.584 119.5008 35.7376-16.9472-40.2944-56.7296-68.6592-103.0656-68.6592z" fill="#FF7E78" p-id="2544"></path><path d="M539.904 781.8752c-65.28 14.6432-115.712-6.4512-129.5872-37.8368 16.1792 41.7792 56.7808 71.5264 104.192 71.5264 61.5936 0 111.7184-50.1248 111.7184-111.7184 0-6.3488-0.5632-12.544-1.5872-18.6368-0.0512 0.512-15.0016 80.9984-84.736 96.6656zM408.064 737.5872c0.5632 1.7408 1.1264 3.4304 1.7408 5.12-0.6656-1.6896-1.28-3.3792-1.7408-5.12z" fill="#E54C45" p-id="2545"></path><path d="M318.208 395.776c-61.5936 0-111.7184 50.1248-111.7184 111.7184 0 8.7552 1.024 17.2544 2.9696 25.4464 3.1232-42.1376 26.9824-91.8528 92.3136-104.2432 65.28-12.3904 119.3984 35.584 119.5008 35.7376-16.896-40.2944-56.7296-68.6592-103.0656-68.6592z" fill="#FFD96E" p-id="2546"></path><path d="M343.6032 585.5232c-65.28 14.6432-115.712-6.4512-129.5872-37.8368 16.1792 41.7792 56.7808 71.5264 104.192 71.5264 61.5936 0 111.7184-50.1248 111.7184-111.7184 0-6.3488-0.5632-12.544-1.5872-18.6368-0.0512 0.5632-15.0528 81.0496-84.736 96.6656zM211.7632 541.2864c0.5632 1.7408 1.1264 3.4304 1.7408 5.12-0.6656-1.6896-1.28-3.3792-1.7408-5.12z" fill="#E2AF23" p-id="2547"></path><path d="M710.8608 394.0352c-61.5936 0-111.7184 50.1248-111.7184 111.7184 0 8.7552 1.024 17.2544 2.9696 25.4464 3.1232-42.1376 26.9824-91.8528 92.3136-104.2432 65.28-12.3904 119.3984 35.584 119.5008 35.7376-16.896-40.2944-56.7296-68.6592-103.0656-68.6592z" fill="#FFD96E" p-id="2548"></path><path d="M736.256 583.8336c-65.28 14.6432-115.712-6.4512-129.5872-37.8368 16.1792 41.7792 56.7808 71.5264 104.192 71.5264 61.5936 0 111.7184-50.1248 111.7184-111.7184 0-6.3488-0.5632-12.544-1.5872-18.6368-0.1024 0.512-15.0528 80.9984-84.736 96.6656zM604.3648 539.5968c0.5632 1.7408 1.1264 3.4304 1.7408 5.12-0.6656-1.7408-1.28-3.4304-1.7408-5.12z" fill="#E2AF23" p-id="2549"></path><path d="M514.56 47.8208c-254.1056 0-460.8 206.6944-460.8 460.8 0 68.5056 15.0528 133.5808 41.984 192.0512C10.496 258.1504 308.5824 111.7696 421.2736 88.2176c321.28-67.0208 499.5072 204.3392 499.5072 204.3392l0.8192 0.256c-77.5168-145.6128-230.912-244.992-407.04-244.992z" fill="#76A4FF" p-id="2550"></path><path d="M969.0624 584.2944c-24.576 55.1936-120.5248 250.0096-270.9504 300.3904 52.2752-1.9456 88.6272-4.5056 88.6272-4.5056 94.9248-69.7344 162.2528-174.8992 182.3232-295.8848z" fill="#4479E2" p-id="2551"></path><path d="M886.1184 941.5168H487.7312s-234.496-15.9744-351.3856-169.9328c83.3536 119.4496 221.7472 197.7856 378.1632 197.7856 1.7408 0 3.4816-0.0512 5.2224-0.0512 0.4608 0 0.8704 0.0512 1.3312 0.0512h394.8032a44.5952 44.5952 0 0 0 44.288-49.7664s0.3072 21.9136-74.0352 21.9136z" fill="#4479E2" p-id="2552"></path><path d="M514.56 134.4512c-206.2848 0-374.1696 167.8336-374.1696 374.1696 0 206.2848 167.8336 374.1696 374.1696 374.1696s374.1696-167.8336 374.1696-374.1696c-0.0512-206.336-167.8848-374.1696-374.1696-374.1696z m0 743.168c-203.4688 0-369.0496-165.5296-369.0496-369.0496s165.5296-369.0496 369.0496-369.0496 369.0496 165.5296 369.0496 369.0496-165.5808 369.0496-369.0496 369.0496z" fill="#472F7E" p-id="2553"></path><path d="M915.8656 877.6192h-121.4464C909.4656 790.1184 977.92 652.8 977.92 508.6208c0-255.488-207.872-463.36-463.36-463.36S51.2 253.0816 51.2 508.6208c0 255.488 207.872 463.36 463.36 463.36 1.1264 0 2.2528 0 3.3792-0.0512h2.2016c0.3072 0 0.6144 0.0512 0.9216 0.0512h394.8032c26.0096 0 47.1552-21.1456 47.1552-47.1552s-21.1456-47.2064-47.1552-47.2064z m0 89.1904h-394.8032l-1.3312-0.0512-1.8944 0.0512c-1.1264 0-2.2016 0.0512-3.328 0.0512-252.672 0-458.24-205.568-458.24-458.24s205.568-458.24 458.24-458.24S972.8 255.8976 972.8 508.6208c0 145.1008-70.144 283.2384-187.5968 369.5104-0.8704 0.6656-1.28 1.792-0.9216 2.8672 0.3584 1.0752 1.3312 1.7408 2.4576 1.7408h129.1776c23.1936 0 42.0352 18.8416 42.0352 42.0352-0.0512 23.1936-18.8928 42.0352-42.0864 42.0352z" fill="#472F7E" p-id="2554"></path><path d="M514.56 354.56c23.8592 0 43.264-19.4048 43.264-43.264 0-23.8592-19.4048-43.264-43.264-43.264s-43.264 19.4048-43.264 43.264c0 23.8592 19.4048 43.264 43.264 43.264z m0-81.3568c21.0432 0 38.144 17.1008 38.144 38.144s-17.1008 38.144-38.144 38.144-38.144-17.1008-38.144-38.144 17.1008-38.144 38.144-38.144z" fill="#472F7E" p-id="2555"></path><path d="M514.56 425.728c63.0784 0 114.432-51.3024 114.432-114.432s-51.3024-114.432-114.432-114.432S400.128 248.2176 400.128 311.296s51.3024 114.432 114.432 114.432z m0-223.6928c60.2624 0 109.312 49.0496 109.312 109.312 0 60.2624-49.0496 109.312-109.312 109.312S405.248 371.6096 405.248 311.296c0-60.2624 49.0496-109.2608 109.312-109.2608zM514.56 589.2608c-63.0784 0-114.432 51.3024-114.432 114.432s51.3024 114.432 114.432 114.432 114.432-51.3536 114.432-114.432-51.3536-114.432-114.432-114.432z m0 223.6928c-60.2624 0-109.312-49.0496-109.312-109.312 0-60.2624 49.0496-109.312 109.312-109.312s109.312 49.0496 109.312 109.312c-0.0512 60.3136-49.0496 109.312-109.312 109.312z" fill="#472F7E" p-id="2556"></path><path d="M514.56 660.4288c-23.8592 0-43.264 19.4048-43.264 43.264 0 23.8592 19.4048 43.264 43.264 43.264s43.264-19.4048 43.264-43.264c0-23.8592-19.4048-43.264-43.264-43.264z m0 81.408c-21.0432 0-38.144-17.1008-38.144-38.144s17.1008-38.144 38.144-38.144 38.144 17.1008 38.144 38.144-17.152 38.144-38.144 38.144zM710.7072 393.216c-63.0272 0-114.2784 51.2512-114.2784 114.2784s51.2512 114.2784 114.2784 114.2784 114.2784-51.2512 114.2784-114.2784-51.2512-114.2784-114.2784-114.2784z m0 223.4368c-60.2112 0-109.1584-48.9472-109.1584-109.1584s48.9472-109.1584 109.1584-109.1584 109.1584 48.9472 109.1584 109.1584-48.9472 109.1584-109.1584 109.1584z" fill="#472F7E" p-id="2557"></path><path d="M710.7072 464.2816c-23.808 0-43.2128 19.4048-43.2128 43.2128s19.4048 43.2128 43.2128 43.2128 43.2128-19.4048 43.2128-43.2128-19.3536-43.2128-43.2128-43.2128z m0 81.3056c-20.992 0-38.0928-17.1008-38.0928-38.0928s17.1008-38.0928 38.0928-38.0928 38.0928 17.1008 38.0928 38.0928-17.1008 38.0928-38.0928 38.0928zM318.3616 464.3328c-23.808 0-43.1616 19.3536-43.1616 43.1616s19.3536 43.1616 43.1616 43.1616 43.1616-19.3536 43.1616-43.1616-19.3536-43.1616-43.1616-43.1616z m0 81.2032c-20.992 0-38.0416-17.0496-38.0416-38.0416s17.0496-38.0416 38.0416-38.0416 38.0416 17.0496 38.0416 38.0416-17.0496 38.0416-38.0416 38.0416z" fill="#472F7E" p-id="2558"></path><path d="M318.3616 393.3696c-62.9248 0-114.1248 51.2-114.1248 114.1248s51.2 114.1248 114.1248 114.1248 114.1248-51.2 114.1248-114.1248-51.2-114.1248-114.1248-114.1248z m0 223.1808c-60.1088 0-109.0048-48.896-109.0048-109.0048s48.896-109.0048 109.0048-109.0048c60.1088 0 109.0048 48.896 109.0048 109.0048s-48.896 109.0048-109.0048 109.0048z" fill="#472F7E" p-id="2559"></path></svg>