<?xml version="1.0" standalone="no"?><!DOCTYPE svg PUBLIC "-//W3C//DTD SVG 1.1//EN" "http://www.w3.org/Graphics/SVG/1.1/DTD/svg11.dtd"><svg t="1635173339078" class="icon" viewBox="0 0 1024 1024" version="1.1" xmlns="http://www.w3.org/2000/svg" p-id="19006" xmlns:xlink="http://www.w3.org/1999/xlink" width="300" height="300"><defs><style type="text/css"></style></defs><path d="M515.072 36.352c-261.12 0-456.192 201.728-456.192 463.36 0 296.96 299.52 485.376 456.192 485.376 157.184 0 456.192-188.416 456.192-485.376 0-261.632-195.072-463.36-456.192-463.36z" fill="#EE402F" p-id="19007"></path><path d="M782.336 262.144l74.752-74.752c-6.144-7.168-12.288-13.824-18.944-19.968l-2.048 2.048-307.2-126.464V36.352h-27.648v6.656L197.12 173.056l-6.144-6.144c-6.656 6.656-12.8 13.312-18.944 19.968l6.144 6.144L79.36 496.64h-20.992v2.56c0 8.192 0.512 16.896 0.512 25.088h22.528L227.328 778.24l-37.888 37.888c6.144 6.656 12.8 13.312 19.456 19.968l38.912-38.912 253.44 106.496v80.384c4.608 0.512 9.216 0.512 13.824 0.512 4.608 0 9.216 0 13.824-0.512v-79.872l243.2-117.248 49.152 48.64c6.656-6.144 12.8-12.8 19.456-19.968l-48.64-48.64 111.616-243.2h68.096c0.512-8.192 0.512-16.384 0.512-25.088v-2.56h-69.12l-120.832-233.984zM200.192 215.04L291.84 306.688 224.768 496.64H108.544l91.648-281.6z m198.144 281.6L404.48 419.328 481.28 496.64H398.336z m82.944 27.648l-56.832 56.832-21.504-56.832H481.28z m-78.336 78.336L327.68 677.888l-71.168-153.6H373.76l29.184 78.336zM370.688 496.64H253.952l59.392-167.936 65.024 65.024L370.688 496.64z m-122.88 261.632l-134.144-233.984h112.64L307.2 698.88l-59.392 59.392z m253.44 115.712l-231.936-97.792L327.68 717.312l173.568 47.104v109.568z m0-138.24l-151.04-40.96L424.96 620.032l76.288 19.968v95.744z m0-124.416l-53.76-13.824 53.76-53.76v67.584z m0-134.144l-28.16-28.16 28.16-18.432v46.592z m0-80.384l-48.128 31.744-38.912-38.912 87.04-65.536v72.704z m0-107.008L394.24 370.176 330.752 306.688l170.496-88.576v71.68z m0-102.912L310.272 286.208l-92.16-92.16 282.624-120.832v113.664zM871.424 496.64h-130.56l-62.464-130.048 83.456-83.456L871.424 496.64z m-253.952 27.648h96.256l-35.328 130.048-80.896-80.896 19.968-49.152z m-15.36-81.92l55.296-55.296L710.144 496.64h-91.648l-16.384-54.272z m-73.216-369.664l286.72 117.248-53.76 53.76L528.896 184.32V72.704z m0 140.288l209.92 53.76-79.872 79.872-130.048-60.416V212.992z m0 103.936l109.568 51.2-54.272 54.272-55.296-28.16V316.928z m19.456 179.712l31.744-31.744 9.728 31.744h-41.472z m39.424 27.648l-11.264 28.16-28.16-28.16h39.424z m-58.88-98.816l34.816 16.896-34.816 34.816V425.472z m0 118.272l32.256 32.256-32.256 25.6v-57.856z m0 93.184l51.712-41.472 80.896 80.896-132.608 56.832v-96.256z m0 236.544V762.88l153.6-65.536 68.608 68.608-222.208 107.52z m241.664-126.976l-69.632-69.632 41.472-152.576h129.536l-101.376 222.208z" fill="#D82B25" p-id="19008"></path><path d="M789.504 341.504c-2.048-2.048-4.608-3.072-7.68-2.048-2.56 0.512-4.608 3.072-5.12 5.632-28.672 131.072-192 222.72-193.536 223.744-2.56 1.536-4.096 4.096-4.096 6.656 0 40.96 22.528 83.456 57.344 108.544 22.016 15.872 47.616 24.064 74.24 24.064 14.848 0 29.696-2.56 44.544-7.168 36.352-11.776 67.072-54.784 82.432-115.2 17.92-69.632 16.384-175.616-48.128-244.224zM451.072 568.832c-1.536-1.024-164.864-92.672-193.536-223.744-0.512-2.56-2.56-5.12-5.12-5.632-2.56-0.512-5.632 0-7.68 2.048-64 68.096-66.048 174.08-47.616 244.224 15.36 60.416 46.08 103.424 82.432 115.2 14.848 5.12 30.208 7.168 44.544 7.168 26.624 0 52.224-8.192 74.24-24.064 34.816-25.088 57.344-68.096 57.344-108.544-1.024-2.56-2.56-5.12-4.608-6.656z" fill="#FFFFFF" p-id="19009"></path></svg>